<?xml version="1.0" encoding="utf-8"?>
<!-- Generator: Adobe Illustrator 24.2.1, SVG Export Plug-In . SVG Version: 6.00 Build 0)  -->
<svg version="1.1" id="Layer_1" xmlns="http://www.w3.org/2000/svg" xmlns:xlink="http://www.w3.org/1999/xlink" x="0px" y="0px"
	 viewBox="0 0 60 60" style="enable-background:new 0 0 60 60;" xml:space="preserve">
<style type="text/css">
	.st0{fill:none;}
</style>
<g>
	<g>
		<rect y="0" class="st0" width="60" height="60"/>
	</g>
	<path d="M30,5C16.2,5,5,16.2,5,30s11.2,25,25,25s25-11.2,25-25S43.8,5,30,5z M32,50.9V43h-4v7.9C18,50,10,42,9.1,32H17v-4H9.1
		C10,18,18,10,28,9.1V17h4V9.1C42,10,50,18,50.9,28H43v4h7.9C50,42,42,50,32,50.9z"/>
</g>
</svg>
