<?xml version="1.0" encoding="utf-8"?>
<!-- Generator: Adobe Illustrator 24.3.0, SVG Export Plug-In . SVG Version: 6.00 Build 0)  -->
<svg version="1.1" id="Layer_1" xmlns="http://www.w3.org/2000/svg" xmlns:xlink="http://www.w3.org/1999/xlink" x="0px" y="0px"
	 viewBox="0 0 60 60" style="enable-background:new 0 0 60 60;" xml:space="preserve">
<style type="text/css">
	.st0{fill:none;}
</style>
<rect y="0" class="st0" width="60" height="60"/>
<path d="M51,41.2l-4-4V26c0-8.7-6.6-15.9-15-16.9V7c0-1.1-0.9-2-2-2s-2,0.9-2,2v2.1c-8.4,1-15,8.2-15,16.9v11.2l-4,4
	c-1.1,1.1-1.5,2.9-0.9,4.4s2.1,2.5,3.7,2.5h10.2c0.5,3.9,3.9,7,7.9,7s7.4-3.1,7.9-7h10.2c1.6,0,3.1-1,3.7-2.5S52.1,42.3,51,41.2z
	 M30,51c-1.9,0-3.4-1.3-3.9-3h7.7C33.4,49.7,31.9,51,30,51z M11.8,44l5.2-5.2V26c0-7.2,5.8-13,13-13c7.2,0,13,5.8,13,13v12.8
	l5.2,5.2H11.8z"/>
</svg>
