<?xml version="1.0" encoding="utf-8"?>
<!-- Generator: Adobe Illustrator 24.3.0, SVG Export Plug-In . SVG Version: 6.00 Build 0)  -->
<svg version="1.1" id="Layer_1" xmlns="http://www.w3.org/2000/svg" xmlns:xlink="http://www.w3.org/1999/xlink" x="0px" y="0px"
	 viewBox="0 0 60 60" style="enable-background:new 0 0 60 60;" xml:space="preserve">
<style type="text/css">
	.st0{fill:none;}
</style>
<g>
	<rect x="0" y="0" class="st0" width="60" height="60"/>
</g>
<path d="M42.9,25h5c2.2,0,4-1.8,4-4V9c0-2.2-1.8-4-4-4h-5c-2.2,0-4,1.8-4,4v4h-18V9c0-2.2-1.8-4-4-4h-5c-2.2,0-4,1.8-4,4v12
	c0,2.2,1.8,4,4,4h5c2.2,0,4-1.8,4-4v-4h7v26h-7v-4c0-2.2-1.8-4-4-4h-5c-2.2,0-4,1.8-4,4v12c0,2.2,1.8,4,4,4h5c2.2,0,4-1.8,4-4v-4h18
	v4c0,2.2,1.8,4,4,4h5c2.2,0,4-1.8,4-4V39c0-2.2-1.8-4-4-4h-5c-2.2,0-4,1.8-4,4v4h-7V17h7v4C38.9,23.2,40.7,25,42.9,25z M42.9,9h5
	l0,12h-5V9z M11.9,21V9h5l0,12H11.9z M11.9,51V39h5l0,12H11.9z M42.9,39h5l0,12h-5V39z"/>
</svg>
