<?xml version="1.0" encoding="utf-8"?>
<!-- Generator: Adobe Illustrator 24.3.0, SVG Export Plug-In . SVG Version: 6.00 Build 0)  -->
<svg version="1.1" id="Layer_1" xmlns="http://www.w3.org/2000/svg" xmlns:xlink="http://www.w3.org/1999/xlink" x="0px" y="0px"
	 viewBox="0 0 60 60" style="enable-background:new 0 0 60 60;" xml:space="preserve">
<style type="text/css">
	.st0{fill:none;}
</style>
<g>
	<g>
		<rect x="0" y="0" class="st0" width="60" height="60"/>
	</g>
	<path d="M50.9,16v-3c0-2.2-1.8-4-4-4h-5c-2.2,0-4,1.8-4,4v3h-16v-3c0-2.2-1.8-4-4-4h-5c-2.2,0-4,1.8-4,4v3H5v32h50V16H50.9z
		 M41.9,13h5v3h-5V13z M12.9,13h5v3h-5V13z M51,44H9V20h42V44z M24.9,30h-12v4h12V30z M38.9,38h4v-4h4v-4h-4v-4h-4v4h-4v4h4V38z"/>
</g>
</svg>
