<?xml version="1.0" encoding="utf-8"?>
<!-- Generator: Adobe Illustrator 24.3.0, SVG Export Plug-In . SVG Version: 6.00 Build 0)  -->
<svg version="1.1" id="Layer_1" xmlns="http://www.w3.org/2000/svg" xmlns:xlink="http://www.w3.org/1999/xlink" x="0px" y="0px"
	 viewBox="0 0 60 60" style="enable-background:new 0 0 60 60;" xml:space="preserve">
<style type="text/css">
	.st0{fill:none;}
</style>
<g>
	<g>
		<rect class="st0" width="60" height="60"/>
	</g>
	<path d="M47,11.5h-5.5V7h-3v4.5h-17V7h-3v4.5H13c-3,0-5.5,2.5-5.5,5.5v28c0,3,2.5,5.5,5.5,5.5h34c3,0,5.5-2.5,5.5-5.5V17
		C52.5,14,50,11.5,47,11.5z M49.5,45c0,1.4-1.1,2.5-2.5,2.5H13c-1.4,0-2.5-1.1-2.5-2.5V26.5h39V45z M49.5,23.5h-39V17
		c0-1.4,1.1-2.5,2.5-2.5h5.5V19h3v-4.5h17V19h3v-4.5H47c1.4,0,2.5,1.1,2.5,2.5V23.5z M28.5,45h3v-6.5H38v-3h-6.5V29h-3v6.5H22v3h6.5
		V45z"/>
</g>
</svg>
