<?xml version="1.0" encoding="utf-8"?>
<!-- Generator: Adobe Illustrator 24.3.0, SVG Export Plug-In . SVG Version: 6.00 Build 0)  -->
<svg version="1.1" id="Layer_1" xmlns="http://www.w3.org/2000/svg" xmlns:xlink="http://www.w3.org/1999/xlink" x="0px" y="0px"
	 viewBox="0 0 60 60" style="enable-background:new 0 0 60 60;" xml:space="preserve">
<style type="text/css">
	.st0{fill:none;}
</style>
<g>
	<rect class="st0" width="60" height="60"/>
	<path d="M41.4,31.4l-2.8-2.8L28,39.2l-4.6-4.6l-2.8,2.8l7.4,7.4L41.4,31.4z M47,11h-5V7h-4v4H22V7h-4v4h-5c-3.3,0-6,2.7-6,6v28
		c0,3.3,2.7,6,6,6h34c3.3,0,6-2.7,6-6V17C53,13.7,50.3,11,47,11z M49,45c0,1.1-0.9,2-2,2H13c-1.1,0-2-0.9-2-2V27h38V45z M49,23H11
		v-6c0-1.1,0.9-2,2-2h5v4h4v-4h16v4h4v-4h5c1.1,0,2,0.9,2,2V23z"/>
</g>
</svg>
