<?xml version="1.0" encoding="utf-8"?>
<!-- Generator: Adobe Illustrator 24.2.1, SVG Export Plug-In . SVG Version: 6.00 Build 0)  -->
<svg version="1.1" id="Layer_1" xmlns="http://www.w3.org/2000/svg" xmlns:xlink="http://www.w3.org/1999/xlink" x="0px" y="0px"
	 viewBox="0 0 60 60" style="enable-background:new 0 0 60 60;" xml:space="preserve">
<style type="text/css">
	.st0{fill:none;}
</style>
<g>
	<g>
		<rect class="st0" width="60" height="60"/>
	</g>
	<path d="M47,11h-5V7h-4v4H22V7h-4v4h-5c-3.3,0-6,2.7-6,6v28c0,3.3,2.7,6,6,6h34c3.3,0,6-2.7,6-6V17C53,13.7,50.3,11,47,11z M13,15
		h5v4h4v-4h16v4h4v-4h5c1.1,0,2,0.9,2,2v6H11v-6C11,15.9,11.9,15,13,15z M47,47H13c-1.1,0-2-0.9-2-2V27h38v18C49,46.1,48.1,47,47,47
		z"/>
</g>
</svg>
