<?xml version="1.0" encoding="utf-8"?>
<!-- Generator: Adobe Illustrator 24.2.1, SVG Export Plug-In . SVG Version: 6.00 Build 0)  -->
<svg version="1.1" id="Layer_1" xmlns="http://www.w3.org/2000/svg" xmlns:xlink="http://www.w3.org/1999/xlink" x="0px" y="0px"
	 viewBox="0 0 60 60" style="enable-background:new 0 0 60 60;" xml:space="preserve">
<style type="text/css">
	.st0{fill:none;}
</style>
<g>
	<g>
		<rect y="0" class="st0" width="60" height="60"/>
	</g>
	<path d="M46,53.5c-0.4,0-0.9,0-1.3-0.1c-5.5-0.9-10.8-2.8-15.7-5.6c-7-4-12.8-9.9-16.8-16.8c-2.8-4.9-4.7-10.1-5.6-15.7
		C6.2,13,6.9,10.6,8.4,8.8C9.9,7,12.1,6,14.5,6h7.8c1.3,0,2.4,0.8,2.8,2l4.3,12.5c0.5,1.4-0.1,2.8-1.3,3.6l-4.4,2.6
		c2.5,3.8,5.9,7.2,9.7,9.7l2.6-4.4c0.7-1.2,2.2-1.8,3.6-1.3L52,34.9c1.2,0.4,2,1.6,2,2.8v7.8c0,2.3-1,4.6-2.8,6.1
		C49.7,52.8,47.9,53.5,46,53.5z M14.5,10c-1.2,0-2.3,0.5-3,1.4c-0.8,0.9-1.1,2.1-0.9,3.3c0.8,5,2.5,9.8,5.1,14.3
		c3.7,6.4,9,11.7,15.4,15.4c4.4,2.6,9.2,4.3,14.3,5.1c1.2,0.2,2.4-0.1,3.3-0.9c0.9-0.8,1.4-1.8,1.4-3v-7.1l-11.1-3.8l-2.7,4.6
		c-0.4,0.7-1.1,1.2-1.9,1.4c-0.8,0.2-1.6,0.1-2.3-0.3c-5-3.1-9.3-7.4-12.4-12.4c-0.4-0.7-0.6-1.5-0.4-2.3c0.2-0.8,0.7-1.5,1.4-1.9
		l4.6-2.7L21.6,10H14.5z"/>
</g>
</svg>
