<?xml version="1.0" encoding="utf-8"?>
<!-- Generator: Adobe Illustrator 24.2.1, SVG Export Plug-In . SVG Version: 6.00 Build 0)  -->
<svg version="1.1" id="Layer_1" xmlns="http://www.w3.org/2000/svg" xmlns:xlink="http://www.w3.org/1999/xlink" x="0px" y="0px"
	 viewBox="0 0 60 60" style="enable-background:new 0 0 60 60;" xml:space="preserve">
<style type="text/css">
	.st0{fill:none;}
</style>
<g>
	<g>
		<rect x="0" y="0" class="st0" width="60" height="60"/>
	</g>
	<path d="M47,13h8V9h-8c-3.7,0-7.3,1.5-9.9,4.1L29.2,21H15C9.5,21,5,25.5,5,31v8c0,2.2,1.8,4,4,4h10.2c0.9,4.6,5,8,9.8,8
		c4.8,0,8.9-3.4,9.8-8H55v-4H38.8c-0.9-4.6-5-8-9.8-8c-4.8,0-8.9,3.4-9.8,8H9v-6h8v-4H9.4c0.8-2.3,3-4,5.6-4h40v-4H34.8l5.1-5.1
		C41.8,14,44.3,13,47,13z M29,35c3.3,0,6,2.7,6,6s-2.7,6-6,6s-6-2.7-6-6S25.7,35,29,35z"/>
</g>
</svg>
