<?xml version="1.0" encoding="utf-8"?>
<!-- Generator: Adobe Illustrator 24.2.1, SVG Export Plug-In . SVG Version: 6.00 Build 0)  -->
<svg version="1.1" id="Layer_1" xmlns="http://www.w3.org/2000/svg" xmlns:xlink="http://www.w3.org/1999/xlink" x="0px" y="0px"
	 viewBox="0 0 60 60" style="enable-background:new 0 0 60 60;" xml:space="preserve">
<style type="text/css">
	.st0{fill:none;}
</style>
<g>
	<g>
		<rect y="0" class="st0" width="60" height="60"/>
	</g>
	<path d="M52,13H8c-3.3,0-6,2.7-6,6v22c0,3.3,2.7,6,6,6h44c3.3,0,6-2.7,6-6V19C58,15.7,55.3,13,52,13z M54,41c0,1.1-0.9,2-2,2H8
		c-1.1,0-2-0.9-2-2V19c0-1.1,0.9-2,2-2h44c1.1,0,2,0.9,2,2V41z M28,20h-4v20h4v-8h4v-4h-4V20z M36,25v4c1.8,0,3.6-0.6,5-1.5V40h4V20
		h-4C41,22.8,38.8,25,36,25z M12,24h5v3c0,2.7-1,5.2-2.9,7.1l-2.5,2.5l2.8,2.8l2.5-2.5c2.6-2.6,4.1-6.2,4.1-9.9v-7h-9V24z"/>
</g>
</svg>
