<?xml version="1.0" encoding="utf-8"?>
<!-- Generator: Adobe Illustrator 24.2.1, SVG Export Plug-In . SVG Version: 6.00 Build 0)  -->
<svg version="1.1" id="Layer_1" xmlns="http://www.w3.org/2000/svg" xmlns:xlink="http://www.w3.org/1999/xlink" x="0px" y="0px"
	 viewBox="0 0 60 60" style="enable-background:new 0 0 60 60;" xml:space="preserve">
<style type="text/css">
	.st0{fill:none;}
</style>
<g>
	<g>
		<rect x="0" class="st0" width="60" height="60"/>
	</g>
	<path d="M53.3,22.1l-4.4-8.8c-1-2-3.1-3.3-5.4-3.3H27.5c-2.3,0-4.3,1.3-5.4,3.3L17.8,22H12C6.5,22,2,26.5,2,32v6
		c0,3.1,2.3,5.6,5.2,5.9c0.9,3.5,4,6.1,7.8,6.1c3.7,0,6.8-2.6,7.7-6h14.5c0.9,3.4,4,6,7.7,6c3.7,0,6.9-2.6,7.8-6.1
		c3-0.4,5.2-2.9,5.2-5.9V28C58,25.1,56,22.7,53.3,22.1z M25.7,15.1c0.3-0.7,1-1.1,1.8-1.1h16.1c0.8,0,1.4,0.4,1.8,1.1l3.4,6.9H22.2
		L25.7,15.1z M15,46c-2.2,0-4-1.8-4-4s1.8-4,4-4s4,1.8,4,4S17.2,46,15,46z M45,46c-2.2,0-4-1.8-4-4s1.8-4,4-4s4,1.8,4,4
		S47.2,46,45,46z M54,38c0,0.9-0.5,1.6-1.3,1.9c-0.9-3.4-4-5.9-7.7-5.9c-3.7,0-6.8,2.6-7.7,6H22.7c-0.9-3.4-4-6-7.7-6
		c-3.7,0-6.8,2.5-7.7,5.9C6.5,39.6,6,38.9,6,38v-6c0-3.3,2.7-6,6-6h40c1.1,0,2,0.9,2,2V38z"/>
</g>
</svg>
