<?xml version="1.0" encoding="utf-8"?>
<!-- Generator: Adobe Illustrator 25.2.0, SVG Export Plug-In . SVG Version: 6.00 Build 0)  -->
<svg version="1.1" id="Layer_1" xmlns="http://www.w3.org/2000/svg" xmlns:xlink="http://www.w3.org/1999/xlink" x="0px" y="0px"
	 viewBox="0 0 60 60" style="enable-background:new 0 0 60 60;" xml:space="preserve">
<style type="text/css">
	.st0{fill:none;}
</style>
<g>
	<rect x="0" y="0" class="st0" width="60" height="60"/>
	<g>
		<rect x="0" y="0" class="st0" width="60" height="60"/>
		<path d="M30,5.5C16.5,5.5,5.5,16.5,5.5,30s11,24.5,24.5,24.5s24.5-11,24.5-24.5S43.5,5.5,30,5.5z M50.6,24H34.3l4-4.5
			c0.9-1,2.1-1.5,3.4-1.5h6.1C49.1,19.8,50,21.8,50.6,24z M30,51.5C18.1,51.5,8.5,41.9,8.5,30S18.1,8.5,30,8.5
			c6,0,11.5,2.5,15.4,6.5h-3.7c-2.1,0-4.2,0.9-5.6,2.5L30.3,24H23c-4.1,0-7.5,3.4-7.5,7.5V36c0,2.5,2,4.5,4.5,4.5h2.7
			c0.7,2.9,3.3,5,6.3,5s5.6-2.1,6.3-5h13.4C45.1,47.1,38,51.5,30,51.5z M25.5,39c0-1.9,1.6-3.5,3.5-3.5s3.5,1.6,3.5,3.5
			s-1.6,3.5-3.5,3.5S25.5,40.9,25.5,39z M50.1,37.5H35.3c-0.7-2.9-3.3-5-6.3-5s-5.6,2.1-6.3,5H20c-0.8,0-1.5-0.7-1.5-1.5v-4.5
			c0-2.5,2-4.5,4.5-4.5h28.3c0.1,1,0.2,2,0.2,3C51.5,32.6,51,35.2,50.1,37.5z"/>
	</g>
</g>
</svg>
