<?xml version="1.0" encoding="utf-8"?>
<!-- Generator: Adobe Illustrator 24.2.1, SVG Export Plug-In . SVG Version: 6.00 Build 0)  -->
<svg version="1.1" id="Layer_1" xmlns="http://www.w3.org/2000/svg" xmlns:xlink="http://www.w3.org/1999/xlink" x="0px" y="0px"
	 viewBox="0 0 60 60" style="enable-background:new 0 0 60 60;" xml:space="preserve">
<style type="text/css">
	.st0{fill:none;}
</style>
<g>
	<g>
		<rect y="0" class="st0" width="60" height="60"/>
	</g>
	<polygon class="st0" points="48.5,19 45.4,33 48.5,19 	"/>
	<polygon class="st0" points="48.5,19 45.4,33 48.5,19 	"/>
	<path d="M21,41c-3.3,0-6,2.7-6,6s2.7,6,6,6s6-2.7,6-6S24.3,41,21,41z M21,49c-1.1,0-2-0.9-2-2s0.9-2,2-2s2,0.9,2,2S22.1,49,21,49z
		 M43,41c-3.3,0-6,2.7-6,6s2.7,6,6,6s6-2.7,6-6S46.3,41,43,41z M43,49c-1.1,0-2-0.9-2-2s0.9-2,2-2s2,0.9,2,2S44.1,49,43,49z M30,29
		h4v-7h7v-4h-7v-7h-4v7h-7v4h7V29z M49.4,15l-0.9,4h0l-3.1,14H18.6l-6-28H3v4h6.4l5.3,24.8c0.4,1.8,2,3.2,3.9,3.2h26.8
		c1.9,0,3.5-1.3,3.9-3.1L53.5,15H49.4z"/>
</g>
</svg>
