<?xml version="1.0" encoding="utf-8"?>
<!-- Generator: Adobe Illustrator 24.2.1, SVG Export Plug-In . SVG Version: 6.00 Build 0)  -->
<svg version="1.1" id="Layer_1" xmlns="http://www.w3.org/2000/svg" xmlns:xlink="http://www.w3.org/1999/xlink" x="0px" y="0px"
	 viewBox="0 0 60 60" style="enable-background:new 0 0 60 60;" xml:space="preserve">
<style type="text/css">
	.st0{fill:none;}
</style>
<g>
	<g>
		<rect x="0" y="0" class="st0" width="60" height="60"/>
	</g>
	<path d="M54.2,46L33.5,10c-0.7-1.3-2-2-3.5-2c-1.4,0-2.7,0.7-3.5,2l0,0L5.8,46c-0.7,1.3-0.7,2.7,0,4c0.7,1.3,2,2,3.5,2h41.6
		c1.4,0,2.7-0.7,3.5-2C55,48.7,55,47.3,54.2,46z M9.2,48L30,12h0l20.8,36H9.2z M27,42c0,1.7,1.3,3,3,3s3-1.3,3-3s-1.3-3-3-3
		S27,40.3,27,42z M28,35h4V22h-4V35z"/>
</g>
</svg>
