<?xml version="1.0" encoding="utf-8"?>
<!-- Generator: Adobe Illustrator 24.2.1, SVG Export Plug-In . SVG Version: 6.00 Build 0)  -->
<svg version="1.1" id="Layer_1" xmlns="http://www.w3.org/2000/svg" xmlns:xlink="http://www.w3.org/1999/xlink" x="0px" y="0px"
	 viewBox="0 0 60 60" style="enable-background:new 0 0 60 60;" xml:space="preserve">
<style type="text/css">
	.st0{fill:none;}
</style>
<g>
	<g>
		<rect y="0" class="st0" width="60" height="60"/>
	</g>
	<path d="M30,11C18.4,11,9,20.4,9,32c0,11.6,9.4,21,21,21c11.6,0,21-9.4,21-21C51,20.4,41.6,11,30,11z M30,49c-9.4,0-17-7.6-17-17
		s7.6-17,17-17s17,7.6,17,17S39.4,49,30,49z M53.2,13.6L44,5.9L41.5,9l9.2,7.7L53.2,13.6z M18.5,9L16,5.9l-9.2,7.7l2.6,3.1L18.5,9z
		 M32,19h-4v14.2l10.5,6.1l2-3.5L32,30.8V19z"/>
</g>
</svg>
