<?xml version="1.0" encoding="utf-8"?>
<!-- Generator: Adobe Illustrator 25.2.2, SVG Export Plug-In . SVG Version: 6.00 Build 0)  -->
<svg version="1.1" id="Layer_1" xmlns="http://www.w3.org/2000/svg" xmlns:xlink="http://www.w3.org/1999/xlink" x="0px" y="0px"
	 viewBox="0 0 60 60" style="enable-background:new 0 0 60 60;" xml:space="preserve">
<style type="text/css">
	.st0{fill:none;}
</style>
<g>
	<rect x="0" y="0" class="st0" width="60" height="60"/>
	<path d="M51.3,12.5H8.7c-2.8,0-5.1,2.3-5.1,5.1v24.7c0,2.8,2.3,5.1,5.1,5.1h42.6c2.8,0,5.1-2.3,5.1-5.1V17.6
		C56.5,14.8,54.2,12.5,51.3,12.5z M53.5,42.4c0,1.2-1,2.1-2.1,2.1H8.7c-1.2,0-2.1-1-2.1-2.1V17.6c0-1.2,1-2.1,2.1-2.1h42.6
		c1.2,0,2.1,1,2.1,2.1V42.4z M44.6,18.5c-0.8,0-1.5,0.7-1.5,1.5v2c0,0.8,0.7,1.5,1.5,1.5s1.5-0.7,1.5-1.5v-2
		C46.1,19.2,45.4,18.5,44.6,18.5z M44.6,27.5c-0.8,0-1.5,0.7-1.5,1.5v2c0,0.8,0.7,1.5,1.5,1.5s1.5-0.7,1.5-1.5v-2
		C46.1,28.1,45.4,27.5,44.6,27.5z M44.6,36.5c-0.8,0-1.5,0.7-1.5,1.5v2c0,0.8,0.7,1.5,1.5,1.5s1.5-0.7,1.5-1.5v-2
		C46.1,37.1,45.4,36.5,44.6,36.5z M22.8,29.3v-5.1c0-0.4-0.1-0.7-0.3-0.8c-0.2-0.2-0.5-0.3-0.9-0.3h-8.7v1.5h7.7
		c0.1,0,0.2,0,0.3,0.1c0,0,0,0.1,0,0.2v1.6h-8.1V28H21v2.2h-9.9v1.5h5.8v4.2c0,0.3,0.1,0.6,0.3,0.8c0.2,0.2,0.5,0.3,0.9,0.3h0.7
		v-5.3h5.5c0.2,0,0.4-0.1,0.5-0.2c0.1-0.2,0.2-0.4,0.2-0.6v-0.7h-2.5C22.7,30,22.8,29.7,22.8,29.3z M28.7,35.6c0,0,0-0.1,0-0.2v-2.7
		h-1.9v3.2c0,0.4,0.1,0.7,0.4,0.9c0.2,0.2,0.5,0.4,0.9,0.4h8.1c0.2,0,0.4-0.1,0.6-0.2c0.2-0.1,0.3-0.3,0.3-0.6v-0.8h-8.2
		C28.8,35.6,28.8,35.6,28.7,35.6z M32.8,28.7h3.8c0.2,0,0.4-0.1,0.5-0.2c0.1-0.2,0.2-0.4,0.2-0.7v-0.6h-1.9v-2.8h1.6v-1.5H26.7v1.5
		h1.6v1.9c0,0.2,0,0.4,0.1,0.6c0.1,0.2,0.1,0.3,0.3,0.4h-2.1v1.5h4.3v1.4H25v1.5h13.1c0.2,0,0.4-0.1,0.5-0.2
		c0.1-0.1,0.2-0.4,0.2-0.7v-0.7h-6V28.7z M30.2,27.2v-2.8h3.3v1.9c0,0.2,0,0.4,0.1,0.5c0.1,0.2,0.1,0.3,0.2,0.3H30.2z"/>
</g>
</svg>
