<?xml version="1.0" encoding="utf-8"?>
<!-- Generator: Adobe Illustrator 24.3.0, SVG Export Plug-In . SVG Version: 6.00 Build 0)  -->
<svg version="1.1" id="Layer_1" xmlns="http://www.w3.org/2000/svg" xmlns:xlink="http://www.w3.org/1999/xlink" x="0px" y="0px"
	 viewBox="0 0 60 60" style="enable-background:new 0 0 60 60;" xml:space="preserve">
<style type="text/css">
	.st0{fill:none;}
</style>
<g>
	<g>
		<rect y="0" class="st0" width="60" height="60"/>
	</g>
	<path d="M35,33.5c-1.4,0-2.5,1.1-2.5,2.5c0,1.4,1.1,2.5,2.5,2.5s2.5-1.1,2.5-2.5C37.5,34.6,36.4,33.5,35,33.5z M25,26.5
		c1.4,0,2.5-1.1,2.5-2.5c0-1.4-1.1-2.5-2.5-2.5s-2.5,1.1-2.5,2.5C22.5,25.4,23.6,26.5,25,26.5z M53,25.5h1.5V17c0-2.5-2-4.5-4.5-4.5
		H10c-2.5,0-4.5,2-4.5,4.5v8.5H7c2.5,0,4.5,2,4.5,4.5s-2,4.5-4.5,4.5H5.5V43c0,2.5,2,4.5,4.5,4.5h40c2.5,0,4.5-2,4.5-4.5v-8.5H53
		c-2.5,0-4.5-2-4.5-4.5S50.5,25.5,53,25.5z M51.5,37.3V43c0,0.8-0.7,1.5-1.5,1.5H10c-0.8,0-1.5-0.7-1.5-1.5v-5.7
		c3.4-0.7,6-3.7,6-7.3s-2.6-6.7-6-7.3V17c0-0.8,0.7-1.5,1.5-1.5h40c0.8,0,1.5,0.7,1.5,1.5v5.7c-3.4,0.7-6,3.7-6,7.3
		S48.1,36.7,51.5,37.3z M21.9,35.9l2.1,2.1l14-14l-2.1-2.1L21.9,35.9z"/>
</g>
</svg>
