<?xml version="1.0" encoding="utf-8"?>
<!-- Generator: Adobe Illustrator 24.3.0, SVG Export Plug-In . SVG Version: 6.00 Build 0)  -->
<svg version="1.1" id="Layer_1" xmlns="http://www.w3.org/2000/svg" xmlns:xlink="http://www.w3.org/1999/xlink" x="0px" y="0px"
	 viewBox="0 0 60 60" style="enable-background:new 0 0 60 60;" xml:space="preserve">
<style type="text/css">
	.st0{fill:none;}
</style>
<g>
	<rect y="0" class="st0" width="60" height="60"/>
	<path d="M53,25.5h1.5V17c0-2.5-2-4.5-4.5-4.5H10c-2.5,0-4.5,2-4.5,4.5v8.5H7c2.5,0,4.5,2,4.5,4.5s-2,4.5-4.5,4.5H5.5V43
		c0,2.5,2,4.5,4.5,4.5h40c2.5,0,4.5-2,4.5-4.5v-8.5H53c-2.5,0-4.5-2-4.5-4.5S50.5,25.5,53,25.5z M51.5,37.3V43
		c0,0.8-0.7,1.5-1.5,1.5H10c-0.8,0-1.5-0.7-1.5-1.5v-5.7c3.4-0.7,6-3.7,6-7.3s-2.6-6.7-6-7.3V17c0-0.8,0.7-1.5,1.5-1.5h40
		c0.8,0,1.5,0.7,1.5,1.5v5.7c-3.4,0.7-6,3.7-6,7.3S48.1,36.7,51.5,37.3z M37.1,28.1l-2.1-2.1l-3.4,3.4V19h-3v10.4l-3.4-3.4l-2.1,2.1
		l7.1,7.1L37.1,28.1z M19,40.5h22v-3H19V40.5z"/>
</g>
</svg>
