<?xml version="1.0" encoding="utf-8"?>
<!-- Generator: Adobe Illustrator 24.3.0, SVG Export Plug-In . SVG Version: 6.00 Build 0)  -->
<svg version="1.1" id="Layer_1" xmlns="http://www.w3.org/2000/svg" xmlns:xlink="http://www.w3.org/1999/xlink" x="0px" y="0px"
	 viewBox="0 0 60 60" style="enable-background:new 0 0 60 60;" xml:space="preserve">
<style type="text/css">
	.st0{fill:none;}
</style>
<g>
	<g>
		<rect x="0" y="0" class="st0" width="60" height="60"/>
	</g>
	<path d="M44.6,26.2L28.9,14V9c0-2.2-1.8-4-4-4h-8c-2.2,0-4,1.8-4,4v40c0,3.3,2.7,6,6,6h22c3.3,0,6-2.7,6-6V31
		C46.9,29.1,46.1,27.4,44.6,26.2z M16.9,9h8v4h-8V9z M42.9,49c0,1.1-0.9,2-2,2h-22c-1.1,0-2-0.9-2-2V17h9.3l15.9,12.4
		c0.5,0.4,0.8,1,0.8,1.6V49z M29.9,25.6l-1.6,2.3c-0.5,0.8-5.4,7.7-5.4,12.2c0,3.9,3.1,7,7,7s7-3.1,7-7c0-4.5-4.8-11.4-5.4-12.2
		L29.9,25.6z M29.9,43c-1.7,0-3-1.3-3-3c0-1.8,1.5-4.8,3-7.3c1.5,2.5,3,5.6,3,7.3C32.9,41.7,31.6,43,29.9,43z"/>
</g>
</svg>
