<?xml version="1.0" encoding="utf-8"?>
<!-- Generator: Adobe Illustrator 24.2.1, SVG Export Plug-In . SVG Version: 6.00 Build 0)  -->
<svg version="1.1" id="Layer_1" xmlns="http://www.w3.org/2000/svg" xmlns:xlink="http://www.w3.org/1999/xlink" x="0px" y="0px"
	 viewBox="0 0 60 60" style="enable-background:new 0 0 60 60;" xml:space="preserve">
<style type="text/css">
	.st0{fill:none;}
</style>
<g>
	<path d="M30,55c13.8,0,25-11.2,25-25S43.8,5,30,5S5,16.2,5,30S16.2,55,30,55z M30,9c11.6,0,21,9.4,21,21s-9.4,21-21,21S9,41.6,9,30
		S18.4,9,30,9z M32,15h-4v20h4V15z M30,45c1.7,0,3-1.3,3-3s-1.3-3-3-3s-3,1.3-3,3S28.3,45,30,45z"/>
	<rect x="0" y="0" transform="matrix(-1 -1.224647e-16 1.224647e-16 -1 60 60)" class="st0" width="60" height="60"/>
</g>
</svg>
