<?xml version="1.0" encoding="utf-8"?>
<!-- Generator: Adobe Illustrator 24.2.1, SVG Export Plug-In . SVG Version: 6.00 Build 0)  -->
<svg version="1.1" id="Layer_1" xmlns="http://www.w3.org/2000/svg" xmlns:xlink="http://www.w3.org/1999/xlink" x="0px" y="0px"
	 viewBox="0 0 60 60" style="enable-background:new 0 0 60 60;" xml:space="preserve">
<style type="text/css">
	.st0{fill:none;}
</style>
<g>
	<g>
		<rect x="0" y="0" class="st0" width="60" height="60"/>
	</g>
	<path d="M22,32c-3.7,0-6.8,2.6-7.7,6H8v4h6.3c0.9,3.4,4,6,7.7,6s6.8-2.6,7.7-6H52v-4H29.7C28.8,34.6,25.7,32,22,32z M22,44
		c-2.2,0-4-1.8-4-4s1.8-4,4-4s4,1.8,4,4S24.2,44,22,44z M45.7,18c-0.9-3.4-4-6-7.7-6s-6.8,2.6-7.7,6H8v4h22.3c0.9,3.4,4,6,7.7,6
		s6.8-2.6,7.7-6H52v-4H45.7z M38,24c-2.2,0-4-1.8-4-4s1.8-4,4-4s4,1.8,4,4S40.2,24,38,24z"/>
</g>
</svg>
