<?xml version="1.0" encoding="utf-8"?>
<!-- Generator: Adobe Illustrator 24.2.1, SVG Export Plug-In . SVG Version: 6.00 Build 0)  -->
<svg version="1.1" id="Layer_1" xmlns="http://www.w3.org/2000/svg" xmlns:xlink="http://www.w3.org/1999/xlink" x="0px" y="0px"
	 viewBox="0 0 60 60" style="enable-background:new 0 0 60 60;" xml:space="preserve">
<style type="text/css">
	.st0{fill:none;}
</style>
<g>
	<g>
		<rect x="0" y="0" class="st0" width="60" height="60"/>
	</g>
	<path d="M7,35h4V22H7V35z M30,11c6.6,0,12,5.4,12,12v12h4V23c0-8.8-7.2-16-16-16s-16,7.2-16,16v12h4V23C18,16.4,23.4,11,30,11z
		 M49,22v13c0,5.3-4.1,9.6-9.4,10c-0.8-2.3-3-4-5.6-4h-8c-3.3,0-6,2.7-6,6s2.7,6,6,6h8c2.6,0,4.8-1.7,5.7-4C47.1,48.6,53,42.5,53,35
		V22H49z M34,49h-8c-1.1,0-2-0.9-2-2s0.9-2,2-2h8c1.1,0,2,0.9,2,2S35.1,49,34,49z"/>
</g>
</svg>
