<?xml version="1.0" encoding="utf-8"?>
<!-- Generator: Adobe Illustrator 24.2.2, SVG Export Plug-In . SVG Version: 6.00 Build 0)  -->
<svg version="1.1" id="Layer_1" xmlns="http://www.w3.org/2000/svg" xmlns:xlink="http://www.w3.org/1999/xlink" x="0px" y="0px"
	 viewBox="0 0 60 60" style="enable-background:new 0 0 60 60;" xml:space="preserve">
<style type="text/css">
	.st0{fill:none;}
</style>
<g>
	<g>
		<rect class="st0" width="60" height="60"/>
	</g>
	<path d="M30,52L8.9,30.9c-5.2-5.2-5.2-13.8,0-19s13.8-5.2,19,0L30,14l2.1-2.1C34.6,9.4,38,8,41.6,8s7,1.4,9.5,3.9s3.9,5.9,3.9,9.5
		s-1.4,7-3.9,9.5L30,52z M18.4,12c-2.4,0-4.8,0.9-6.7,2.8c-3.7,3.7-3.7,9.7,0,13.4L30,46.4l18.2-18.2C50,26.3,51,24,51,21.4
		s-1-4.9-2.8-6.7C46.5,13,44.1,12,41.6,12s-4.9,1-6.7,2.8L30,19.6l-4.9-4.9C23.3,12.9,20.9,12,18.4,12z"/>
</g>
</svg>
