<?xml version="1.0" encoding="utf-8"?>
<!-- Generator: Adobe Illustrator 24.2.1, SVG Export Plug-In . SVG Version: 6.00 Build 0)  -->
<svg version="1.1" id="Layer_1" xmlns="http://www.w3.org/2000/svg" xmlns:xlink="http://www.w3.org/1999/xlink" x="0px" y="0px"
	 viewBox="0 0 60 60" style="enable-background:new 0 0 60 60;" xml:space="preserve">
<style type="text/css">
	.st0{fill:none;}
</style>
<g>
	<g>
		<rect class="st0" width="60" height="60"/>
	</g>
	<path d="M30,5C16.2,5,5,16.2,5,30s11.2,25,25,25s25-11.2,25-25S43.8,5,30,5z M30,51C18.4,51,9,41.6,9,30S18.4,9,30,9s21,9.4,21,21
		S41.6,51,30,51z M30,39c-1.7,0-3,1.3-3,3s1.3,3,3,3s3-1.3,3-3S31.7,39,30,39z M30.1,14c-2.4,0-4.7,0.9-6.4,2.6
		C22,18.3,21,20.6,21,23h4c0-1.3,0.5-2.6,1.5-3.6c1-0.9,2.2-1.5,3.6-1.4c2.6,0,4.9,2.3,4.9,4.9c0,2-1.1,3.8-2.9,4.6
		c-2.5,1.2-4.1,3.6-4.1,6.4V35h4v-1.1c0-1.2,0.7-2.2,1.8-2.7c3.2-1.5,5.3-4.7,5.2-8.3C38.9,18,35,14.1,30.1,14z"/>
</g>
</svg>
