<?xml version="1.0" encoding="utf-8"?>
<!-- Generator: Adobe Illustrator 24.3.0, SVG Export Plug-In . SVG Version: 6.00 Build 0)  -->
<svg version="1.1" id="Layer_1" xmlns="http://www.w3.org/2000/svg" xmlns:xlink="http://www.w3.org/1999/xlink" x="0px" y="0px"
	 viewBox="0 0 60 60" style="enable-background:new 0 0 60 60;" xml:space="preserve">
<style type="text/css">
	.st0{fill:none;}
</style>
<g>
	<rect x="0" y="0" class="st0" width="60" height="60"/>
</g>
<path d="M7,12v39h45.9V12H7z M48.9,47H11V16h37.9V47z M27.9,19H14v4h13.9V19z M27.9,26H14v4h13.9V26z M27.9,33H14v4h13.9V33z
	 M27.9,40H14v4h13.9V40z M45.9,19h-14v4h14V19z M45.9,26h-14v4h14V26z M45.9,33h-14v4h14V33z M45.9,40h-14v4h14V40z"/>
</svg>
