<?xml version="1.0" encoding="utf-8"?>
<!-- Generator: Adobe Illustrator 24.2.1, SVG Export Plug-In . SVG Version: 6.00 Build 0)  -->
<svg version="1.1" id="Layer_1" xmlns="http://www.w3.org/2000/svg" xmlns:xlink="http://www.w3.org/1999/xlink" x="0px" y="0px"
	 viewBox="0 0 60 60" style="enable-background:new 0 0 60 60;" xml:space="preserve">
<style type="text/css">
	.st0{fill:none;}
</style>
<g>
	<path d="M30,5C16.2,5,5,16.2,5,30s11.2,25,25,25s25-11.2,25-25S43.8,5,30,5z M30,51C18.4,51,9,41.6,9,30S18.4,9,30,9s21,9.4,21,21
		S41.6,51,30,51z M28,45h4V25h-4V45z M30,15c-1.7,0-3,1.3-3,3s1.3,3,3,3s3-1.3,3-3S31.7,15,30,15z"/>
	<rect x="0" y="0" class="st0" width="60" height="60"/>
</g>
</svg>
