<?xml version="1.0" encoding="utf-8"?>
<!-- Generator: Adobe Illustrator 24.3.0, SVG Export Plug-In . SVG Version: 6.00 Build 0)  -->
<svg version="1.1" id="Layer_1" xmlns="http://www.w3.org/2000/svg" xmlns:xlink="http://www.w3.org/1999/xlink" x="0px" y="0px"
	 viewBox="0 0 60 60" style="enable-background:new 0 0 60 60;" xml:space="preserve">
<style type="text/css">
	.st0{fill:none;}
</style>
<g>
	<rect x="0" class="st0" width="60" height="60"/>
	<path d="M17,25.9v-7.5c0-6.9,5.6-12.5,12.5-12.5h1c6.9,0,12.5,5.6,12.5,12.5h3c0-8.5-7-15.5-15.5-15.5h-1C21,2.9,14,9.9,14,18.4
		v7.5H9v22.5c0,3,2.5,5.5,5.5,5.5h31c3,0,5.5-2.5,5.5-5.5V25.9H17z M48,48.4c0,1.4-1.1,2.5-2.5,2.5h-31c-1.4,0-2.5-1.1-2.5-2.5V28.9
		h36V48.4z M28.5,42.1v5.3h3v-5.3c1.9-0.6,3.3-2.4,3.3-4.5c0-2.6-2.1-4.8-4.8-4.8s-4.8,2.1-4.8,4.8C25.3,39.7,26.6,41.5,28.5,42.1z
		 M30,35.9c1,0,1.8,0.8,1.8,1.8S31,39.4,30,39.4s-1.8-0.8-1.8-1.8S29,35.9,30,35.9z"/>
</g>
</svg>
