<?xml version="1.0" encoding="utf-8"?>
<!-- Generator: Adobe Illustrator 24.2.1, SVG Export Plug-In . SVG Version: 6.00 Build 0)  -->
<svg version="1.1" id="Layer_1" xmlns="http://www.w3.org/2000/svg" xmlns:xlink="http://www.w3.org/1999/xlink" x="0px" y="0px"
	 viewBox="0 0 60 60" style="enable-background:new 0 0 60 60;" xml:space="preserve">
<style type="text/css">
	.st0{fill:none;}
</style>
<g>
	<g>
		<rect class="st0" width="60" height="60"/>
	</g>
	<path d="M50,51.6c-0.8,0-1.5-0.3-2.1-0.9L41.2,44H17c-5.5,0-10-4.5-10-10V19c0-5.5,4.5-10,10-10h26c5.5,0,10,4.5,10,10v29.6
		c0,1.2-0.7,2.3-1.9,2.8C50.8,51.5,50.4,51.6,50,51.6z M17,13c-3.3,0-6,2.7-6,6v15c0,3.3,2.7,6,6,6h25.8l6.2,6.2V19c0-3.3-2.7-6-6-6
		H17z"/>
</g>
</svg>
