<?xml version="1.0" encoding="utf-8"?>
<!-- Generator: Adobe Illustrator 24.3.0, SVG Export Plug-In . SVG Version: 6.00 Build 0)  -->
<svg version="1.1" id="Layer_1" xmlns="http://www.w3.org/2000/svg" xmlns:xlink="http://www.w3.org/1999/xlink" x="0px" y="0px"
	 viewBox="0 0 60 60" style="enable-background:new 0 0 60 60;" xml:space="preserve">
<style type="text/css">
	.st0{fill:none;}
</style>
<g>
	<g>
		<rect y="0" class="st0" width="60" height="60"/>
	</g>
	<path d="M31.5,12.6v-1.1c0-0.6,0.4-1,1-1c2.2,0,4-1.8,4-4V4h-3v2.5c0,0.6-0.4,1-1,1c-2.2,0-4,1.8-4,4v1.1c-8.4,0.8-15,7.8-15,16.4
		v11c0,9.1,7.4,16.5,16.5,16.5S46.5,49.1,46.5,40V29C46.5,20.4,39.9,13.3,31.5,12.6z M43.5,40c0,7.4-6.1,13.5-13.5,13.5
		S16.5,47.4,16.5,40V29c0-7.4,6.1-13.5,13.5-13.5S43.5,21.6,43.5,29V40z M30,18.5c-0.8,0-1.5,0.7-1.5,1.5v5c0,0.8,0.7,1.5,1.5,1.5
		s1.5-0.7,1.5-1.5v-5C31.5,19.2,30.8,18.5,30,18.5z"/>
</g>
</svg>
