<?xml version="1.0" encoding="utf-8"?>
<!-- Generator: Adobe Illustrator 24.2.1, SVG Export Plug-In . SVG Version: 6.00 Build 0)  -->
<svg version="1.1" id="Layer_1" xmlns="http://www.w3.org/2000/svg" xmlns:xlink="http://www.w3.org/1999/xlink" x="0px" y="0px"
	 viewBox="0 0 60 60" style="enable-background:new 0 0 60 60;" xml:space="preserve">
<style type="text/css">
	.st0{fill:none;}
</style>
<g>
	<g>
		<rect x="0" class="st0" width="60" height="60"/>
	</g>
	<path d="M49,12H11c-3.3,0-6,2.7-6,6v24c0,3.3,2.7,6,6,6h38c3.3,0,6-2.7,6-6V18C55,14.7,52.3,12,49,12z M51,42c0,1.1-0.9,2-2,2H11
		c-1.1,0-2-0.9-2-2V29h42V42z M9,21v-3c0-1.1,0.9-2,2-2h38c1.1,0,2,0.9,2,2v3H9z"/>
</g>
</svg>
