<?xml version="1.0" encoding="utf-8"?>
<!-- Generator: Adobe Illustrator 24.3.0, SVG Export Plug-In . SVG Version: 6.00 Build 0)  -->
<svg version="1.1" id="Layer_1" xmlns="http://www.w3.org/2000/svg" xmlns:xlink="http://www.w3.org/1999/xlink" x="0px" y="0px"
	 viewBox="0 0 60 60" style="enable-background:new 0 0 60 60;" xml:space="preserve">
<style type="text/css">
	.st0{fill:none;}
</style>
<g>
	<rect x="0" y="0" class="st0" width="60" height="60"/>
	<path d="M52.5,19.5H42c0.9-1.3,1.5-2.8,1.5-4.5c0-4.1-3.4-7.5-7.5-7.5c-2.5,0-4.6,1.2-6,3c-1.4-1.8-3.5-3-6-3
		c-4.1,0-7.5,3.4-7.5,7.5c0,1.7,0.6,3.2,1.5,4.5H7.5v13h3v20h39v-20h3V19.5z M36,10.5c2.5,0,4.5,2,4.5,4.5s-2,4.5-4.5,4.5h-4.5V15
		C31.5,12.5,33.5,10.5,36,10.5z M19.5,15c0-2.5,2-4.5,4.5-4.5s4.5,2,4.5,4.5v4.5H24C21.5,19.5,19.5,17.5,19.5,15z M10.5,22.5h14v7
		h-14V22.5z M13.5,49.5v-17h11v17H13.5z M27.5,49.5v-27h5v27H27.5z M46.5,49.5h-11v-17h11V49.5z M49.5,29.5h-14v-7h14V29.5z"/>
</g>
</svg>
