<?xml version="1.0" encoding="utf-8"?>
<!-- Generator: Adobe Illustrator 24.3.0, SVG Export Plug-In . SVG Version: 6.00 Build 0)  -->
<svg version="1.1" id="Layer_1" xmlns="http://www.w3.org/2000/svg" xmlns:xlink="http://www.w3.org/1999/xlink" x="0px" y="0px"
	 viewBox="0 0 60 60" style="enable-background:new 0 0 60 60;" xml:space="preserve">
<style type="text/css">
	.st0{fill:none;}
</style>
<g>
	<g>
		<rect y="0" class="st0" width="60" height="60"/>
	</g>
	<path d="M48,15H34V7H5v24c0,3.9,3.1,7,7,7h13v15h30V22C55,18.1,51.9,15,48,15z M15,22v9c0,1.7-1.3,3-3,3s-3-1.3-3-3V11h21v4h-8
		C18.1,15,15,18.1,15,22z M25,34h-6.7c0.4-0.9,0.7-1.9,0.7-3v-9c0-1.7,1.3-3,3-3s3,1.3,3,3V34z M51,49H29V22c0-1.1-0.2-2.1-0.7-3H48
		c1.7,0,3,1.3,3,3V49z M31,28h18v-4H31V28z M31,36h18v-4H31V36z M31,44h18v-4H31V44z"/>
</g>
</svg>
