<?xml version="1.0" encoding="utf-8"?>
<!-- Generator: Adobe Illustrator 24.2.1, SVG Export Plug-In . SVG Version: 6.00 Build 0)  -->
<svg version="1.1" id="Layer_1" xmlns="http://www.w3.org/2000/svg" xmlns:xlink="http://www.w3.org/1999/xlink" x="0px" y="0px"
	 viewBox="0 0 60 60" style="enable-background:new 0 0 60 60;" xml:space="preserve">
<style type="text/css">
	.st0{fill:none;}
</style>
<g>
	<g>
		<rect x="0" y="0" transform="matrix(-3.038176e-14 1 -1 -3.038176e-14 60 2.732037e-12)" class="st0" width="60" height="60"/>
	</g>
	<path d="M44.8,44.8L42,42c-3.2,3.2-7.5,5-12,5c-9.4,0-17-7.6-17-17s7.6-17,17-17s17,7.6,17,17h-6l8,8l8-8h-6c0-11.6-9.4-21-21-21
		C18.4,9,9,18.4,9,30c0,11.6,9.4,21,21,21C35.6,51,40.9,48.8,44.8,44.8z"/>
</g>
</svg>
