<?xml version="1.0" encoding="utf-8"?>
<!-- Generator: Adobe Illustrator 25.2.2, SVG Export Plug-In . SVG Version: 6.00 Build 0)  -->
<svg version="1.1" id="Layer_1" xmlns="http://www.w3.org/2000/svg" xmlns:xlink="http://www.w3.org/1999/xlink" x="0px" y="0px"
	 viewBox="0 0 60 60" style="enable-background:new 0 0 60 60;" xml:space="preserve">
<style type="text/css">
	.st0{fill:none;}
</style>
<g>
	<rect y="0" class="st0" width="60" height="60"/>
	<path d="M47.1,37.6c1.6-2.1,2.6-4.7,2.6-7.6c0-6.8-5.5-12.4-12.4-12.4c-0.8,0-1.6,0.1-2.4,0.2V13c0-4.4-3.6-8-8-8h-9
		c-4.4,0-8,3.6-8,8v34c0,4.4,3.6,8,8,8h9c4.4,0,8-3.6,8-8v-4.9c0.8,0.1,1.6,0.2,2.4,0.2c2.9,0,5.5-1,7.6-2.6l7.7,7.7l2.1-2.1
		L47.1,37.6z M17,51.9c-2.3-0.5-4-2.5-4-4.9V13c0-2.4,1.7-4.4,4-4.9V51.9z M25,30v22h-5V8h5V30z M28,8.1c2.3,0.5,4,2.5,4,4.9v5.9
		c-1.5,0.7-2.9,1.8-4,3.1V8.1z M32,47c0,2.4-1.7,4.4-4,4.9V38.1c1.1,1.3,2.5,2.3,4,3.1V47z M37.4,39.4c-0.8,0-1.6-0.1-2.4-0.3
		c-1.1-0.3-2.1-0.8-3-1.4c-2.4-1.7-4-4.5-4-7.7c0-3.2,1.6-6,4-7.7c0.9-0.6,1.9-1.1,3-1.4c0.8-0.2,1.6-0.3,2.4-0.3
		c5.2,0,9.4,4.2,9.4,9.4C46.7,35.2,42.5,39.4,37.4,39.4z"/>
</g>
</svg>
