<?xml version="1.0" encoding="utf-8"?>
<!-- Generator: Adobe Illustrator 24.2.1, SVG Export Plug-In . SVG Version: 6.00 Build 0)  -->
<svg version="1.1" id="Layer_1" xmlns="http://www.w3.org/2000/svg" xmlns:xlink="http://www.w3.org/1999/xlink" x="0px" y="0px"
	 viewBox="0 0 60 60" style="enable-background:new 0 0 60 60;" xml:space="preserve">
<style type="text/css">
	.st0{fill:none;}
</style>
<g>
	<g>
		<rect y="0" class="st0" width="60" height="60"/>
	</g>
	<path d="M52.4,49.6L39,36.2c2.5-3.1,4-7,4-11.2c0-9.9-8.1-18-18-18C15.1,7,7,15.1,7,25c0,9.9,8.1,18,18,18c4.2,0,8.1-1.5,11.2-4
		l13.4,13.4L52.4,49.6z M11,25c0-7.7,6.3-14,14-14s14,6.3,14,14s-6.3,14-14,14S11,32.7,11,25z"/>
</g>
</svg>
