<?xml version="1.0" encoding="utf-8"?>
<!-- Generator: Adobe Illustrator 25.0.1, SVG Export Plug-In . SVG Version: 6.00 Build 0)  -->
<svg version="1.1" id="Layer_1" xmlns="http://www.w3.org/2000/svg" xmlns:xlink="http://www.w3.org/1999/xlink" x="0px" y="0px"
	 viewBox="0 0 60 60" style="enable-background:new 0 0 60 60;" xml:space="preserve">
<style type="text/css">
	.st0{fill:none;}
</style>
<g>
	<g>
		<rect class="st0" width="60" height="60"/>
	</g>
	<path d="M54.6,22.7l-4.6-4.6c-0.8-0.8-2-1.3-3.2-1.3H42v-1.1c0-1.7-1.4-3.1-3.1-3.1h-1.4c-0.3,0-0.6,0.1-0.9,0.1
		c-3.3-2.3-7.4-3.6-11.7-3.6C13.4,9.2,4.1,18.5,4.1,30c0,11.5,9.3,20.8,20.8,20.8c3,0,5.8-0.6,8.4-1.8c0.5,1,1.6,1.8,2.8,1.8h16.7
		c1.7,0,3.1-1.4,3.1-3.1V25.8C55.9,24.6,55.4,23.5,54.6,22.7z M33,36.8C33,36.8,33,36.8,33,36.8l-3.1-3c0.6-0.8,1-1.7,1.1-2.7H33
		V36.8z M19.6,26.3C19,27,18.6,28,18.4,29h-4.3c0.2-2.2,1.1-4.2,2.4-5.8L19.6,26.3z M17.9,21.8c1.6-1.3,3.6-2.2,5.8-2.4v4.3
		c-1,0.2-2,0.6-2.7,1.1L17.9,21.8z M18.4,31c0.2,1,0.6,2,1.1,2.7l-3.1,3.1c-1.3-1.6-2.2-3.6-2.4-5.8H18.4z M21,35.2
		c0.8,0.6,1.7,1,2.7,1.1v4.3c-2.2-0.2-4.2-1.1-5.8-2.4L21,35.2z M20.4,30c0-2.4,2-4.4,4.4-4.4s4.4,2,4.4,4.4s-2,4.4-4.4,4.4
		S20.4,32.4,20.4,30z M25.7,23.7v-4.3c2.2,0.2,4.2,1.1,5.8,2.4l-3.1,3.1C27.7,24.3,26.8,23.9,25.7,23.7z M25.7,36.3
		c1-0.2,2-0.6,2.7-1.1l3.1,3.1c-1.6,1.3-3.6,2.2-5.8,2.4V36.3z M33,29h-1.9c-0.2-1-0.6-2-1.1-2.7l3.1-3.1c0,0,0,0,0,0V29z
		 M34.4,15.7v1.6c-0.9,0.6-1.4,1.5-1.4,2.6v0.5c-2.2-1.9-5.1-3.1-8.3-3.1c-7,0-12.7,5.7-12.7,12.7c0,7,5.7,12.7,12.7,12.7
		c3.2,0,6-1.2,8.3-3.1V47c-0.5,0.2-1,0.4-1.5,0.6L31,45.9l-1.9,0.6l0.5,1.6c-1.2,0.3-2.5,0.5-3.9,0.6v-1.7h-2v1.7
		c-1.3-0.1-2.6-0.3-3.8-0.6l0.5-1.6l-1.9-0.6L18,47.5c-1.2-0.5-2.4-1.1-3.4-1.8l0.9-1.3l-1.6-1.2L13,44.5c-1-0.8-1.9-1.7-2.7-2.8
		l1.2-0.9l-1.2-1.6l-1.2,0.9c-0.7-1.1-1.3-2.2-1.7-3.4l1.4-0.5l-0.6-1.9l-1.4,0.5c-0.3-1.2-0.5-2.5-0.6-3.8h1.5v-2H6.2
		c0.1-1.3,0.3-2.6,0.6-3.8l1.4,0.5l0.6-1.9l-1.4-0.5c0.5-1.2,1-2.4,1.7-3.4l1.2,0.9l1.2-1.6l-1.2-0.9c0.8-1,1.7-1.9,2.7-2.8l0.9,1.3
		l1.6-1.2l-0.9-1.3c1.1-0.7,2.2-1.3,3.4-1.8l0.5,1.5l1.9-0.6l-0.5-1.6c1.2-0.3,2.5-0.6,3.8-0.6v1.7h2v-1.7c1.3,0.1,2.6,0.3,3.9,0.6
		l-0.5,1.6l1.9,0.6l0.5-1.6c1.2,0.4,2.3,1,3.4,1.7C34.6,14.5,34.4,15.1,34.4,15.7z M53.9,47.7c0,0.6-0.5,1.1-1.1,1.1H36.1
		c-0.5,0-0.8-0.3-1-0.7C35,48,35,47.9,35,47.7V19.9c0-0.4,0.3-0.9,0.7-1l0.7-0.2v-2.9c0-0.2,0.1-0.3,0.1-0.5
		c0.2-0.3,0.5-0.6,0.9-0.6c0,0,0,0,0,0h1.4c0,0,0,0,0.1,0c0.5,0,1,0.4,1,1c0,0,0,0,0,0.1v3.1h6.8c0.7,0,1.3,0.3,1.8,0.7l4.6,4.6h0
		c0.5,0.5,0.7,1.1,0.7,1.7V47.7z M47.4,23.5c-0.6-0.6-1.4-0.9-2.2-0.9H41c-1.7,0-3.1,1.4-3.1,3.1v16.1c0,0.5,0.2,1,0.4,1.5
		c0.2,0.3,0.4,0.6,0.6,0.8c0.2,0.2,0.5,0.4,0.8,0.6c0.4,0.2,0.8,0.3,1.2,0.3h7c1.7,0,3.1-1.4,3.1-3.1V28.3c0-0.8-0.3-1.6-0.9-2.2
		L47.4,23.5z M49,41.8c0,0.6-0.5,1.1-1.1,1.1h-7c-0.3,0-0.5-0.1-0.7-0.3c-0.1-0.1-0.1-0.1-0.1-0.2c-0.1-0.2-0.2-0.4-0.2-0.6V25.7
		c0-0.6,0.5-1.1,1.1-1.1h4.3c0.3,0,0.6,0.1,0.8,0.3l2.7,2.6c0.2,0.2,0.3,0.5,0.3,0.8V41.8z M45.7,28.1h-3.5c-0.6,0-1,0.4-1,1
		c0,0.4,0.2,0.7,0.6,0.9c0.1,0.1,0.3,0.1,0.4,0.1h3.5c0.6,0,1-0.4,1-1S46.3,28.1,45.7,28.1z M45.7,32.7h-3.5c-0.6,0-1,0.4-1,1
		c0,0.3,0.1,0.5,0.3,0.7c0.2,0.2,0.4,0.3,0.7,0.3h3.5c0.6,0,1-0.4,1-1S46.3,32.7,45.7,32.7z M45.7,37.3h-3.5c0,0,0,0,0,0
		c-0.5,0-1,0.5-1,1c0,0.2,0.1,0.4,0.2,0.6c0.2,0.2,0.5,0.4,0.8,0.4h3.5c0.6,0,1-0.4,1-1S46.3,37.3,45.7,37.3z"/>
</g>
</svg>
