<?xml version="1.0" encoding="utf-8"?>
<!-- Generator: Adobe Illustrator 25.0.1, SVG Export Plug-In . SVG Version: 6.00 Build 0)  -->
<svg version="1.1" id="Layer_1" xmlns="http://www.w3.org/2000/svg" xmlns:xlink="http://www.w3.org/1999/xlink" x="0px" y="0px"
	 viewBox="0 0 60 60" style="enable-background:new 0 0 60 60;" xml:space="preserve">
<style type="text/css">
	.st0{fill:none;}
</style>
<g>
	<rect class="st0" width="60" height="60"/>
	<path d="M35.9,13.5l9.4-3.6L44.6,8L34,12l-0.7,7.4H17.3l3.3,30.4h18l3.3-30.4h-6.4L35.9,13.5z M22.4,47.8l-1.5-14.4
		c0.5-0.4,2.2-1.4,5.6-1.4c2.1,0,3.6,0.6,5.1,1.3c0.1,0,0.2,0.1,0.2,0.1l-1.3,11.3l2,0.2l1.3-10.8c0.7,0.2,1.4,0.3,2.3,0.3
		c0.7,0,1.5-0.1,2.3-0.4l-1.5,13.7H22.4z M38.5,31.9c-1.9,0.8-3.2,0.7-4.6,0.2l1-8.8l-2-0.2l-1,8.3c-1.5-0.6-3.2-1.3-5.6-1.3
		c-2.8,0-4.7,0.6-5.8,1.2l-1.1-9.9h20.1L38.5,31.9z"/>
</g>
</svg>
