<?xml version="1.0" encoding="utf-8"?>
<!-- Generator: Adobe Illustrator 25.0.1, SVG Export Plug-In . SVG Version: 6.00 Build 0)  -->
<svg version="1.1" id="Layer_1" xmlns="http://www.w3.org/2000/svg" xmlns:xlink="http://www.w3.org/1999/xlink" x="0px" y="0px"
	 viewBox="0 0 60 60" style="enable-background:new 0 0 60 60;" xml:space="preserve">
<style type="text/css">
	.st0{fill:none;}
</style>
<g>
	<g>
		<g>
			<rect class="st0" width="60" height="60"/>
		</g>
	</g>
	<path d="M35.8,40.5H24.2c-0.5,0-0.9,0.4-0.9,0.9c0,0.5,0.4,0.9,0.9,0.9h11.6c0.5,0,0.9-0.4,0.9-0.9C36.7,40.9,36.3,40.5,35.8,40.5z
		 M41.7,18.2L36,12.5c-0.8-0.8-1.9-1.3-3.1-1.3h-4.2V8.6c0-1.4-1.2-2.6-2.6-2.6h-4.7c-1.4,0-2.6,1.2-2.6,2.6v2.7
		c-1,0.4-1.7,1.3-1.7,2.4v35.7c0,1.4,1.2,2.6,2.6,2.6h20.8c1.4,0,2.6-1.2,2.6-2.6V21.2C43,20.1,42.5,19,41.7,18.2z M20.5,8.6
		c0-0.5,0.4-0.9,0.9-0.9h4.7c0.5,0,0.9,0.4,0.9,0.9v2.3h-6.5V8.6z M41.3,49.5c0,0.5-0.4,0.9-0.9,0.9H19.6c-0.5,0-0.9-0.4-0.9-0.9
		V13.8c0-0.5,0.4-0.9,0.9-0.9c0.1,0,0.1,0,0.2,0v0h8c0,0,0,0,0,0h5.1c0.7,0,1.3,0.3,1.8,0.8l5.8,5.7c0.5,0.5,0.8,1.1,0.8,1.8V49.5z
		 M29,35.9c0.3,0.1,0.7,0.1,1,0.1c1.1,0,2.1-0.4,3-1.1c1.1-0.9,1.8-2.3,1.8-3.8c0-0.8-0.2-1.5-0.6-2.1l-0.4-0.6
		c-0.6-0.9-1.1-1.7-1.5-2.6l-1.3-2.7c-0.3-0.7-1.5-0.7-1.8,0L28,25.3c-0.6,1.2-1.2,2.4-2,3.4c-0.5,0.6-0.8,1.4-0.8,2.2
		C25.1,33.2,26.7,35.5,29,35.9z M27.7,29.9c0.9-1.2,1.5-2.5,2.2-3.8l0.2-0.4l0.4,0.9c0.5,1,1.1,1.9,1.6,2.8l0.4,0.6
		c0.2,0.3,0.3,0.7,0.3,1.1c0,0.9-0.4,1.7-1.1,2.2c-0.7,0.5-1.5,0.7-2.3,0.5c-1.3-0.3-2.3-1.6-2.2-3C27.3,30.6,27.4,30.3,27.7,29.9z"
		/>
</g>
</svg>
