<?xml version="1.0" encoding="utf-8"?>
<!-- Generator: Adobe Illustrator 25.0.1, SVG Export Plug-In . SVG Version: 6.00 Build 0)  -->
<svg version="1.1" id="Layer_1" xmlns="http://www.w3.org/2000/svg" xmlns:xlink="http://www.w3.org/1999/xlink" x="0px" y="0px"
	 viewBox="0 0 60 60" style="enable-background:new 0 0 60 60;" xml:space="preserve">
<style type="text/css">
	.st0{fill:none;}
</style>
<g>
	<g>
		<g>
			<rect class="st0" width="60" height="60"/>
		</g>
	</g>
	<path d="M22.4,27c-0.6-0.6-1.4-0.9-2.2-0.9H16c-1.7,0-3.1,1.4-3.1,3.1v16.1c0,1.7,1.4,3.1,3.1,3.1h7c1.7,0,3.1-1.4,3.1-3.1V31.8
		c0-0.8-0.3-1.6-0.9-2.2L22.4,27z M24,45.2c0,0.6-0.5,1.1-1.1,1.1h-7c-0.6,0-1.1-0.5-1.1-1.1V29.1c0-0.6,0.5-1.1,1.1-1.1h4.3
		c0.3,0,0.6,0.1,0.8,0.3l2.7,2.6c0.2,0.2,0.3,0.5,0.3,0.8V45.2z M20.7,31.6h-3.5c-0.6,0-1,0.4-1,1s0.4,1,1,1h3.5c0.6,0,1-0.4,1-1
		S21.3,31.6,20.7,31.6z M20.7,36.2h-3.5c-0.6,0-1,0.4-1,1s0.4,1,1,1h3.5c0.6,0,1-0.4,1-1S21.3,36.2,20.7,36.2z M20.7,40.8h-3.5
		c-0.6,0-1,0.4-1,1s0.4,1,1,1h3.5c0.6,0,1-0.4,1-1S21.3,40.8,20.7,40.8z M50.4,18.5l-6-5.9c-1-1-2.4-1.6-3.9-1.6h-6.5V9.4
		c0-2-1.7-3.7-3.7-3.7h-1.8c-2,0-3.7,1.6-3.7,3.7v2.2c-1.1,0.7-1.8,1.8-1.8,3.1v5.7c-0.4-0.1-0.9-0.2-1.4-0.2H17v-1.1
		c0-1.7-1.4-3.1-3.1-3.1h-1.4c-1.7,0-3.1,1.4-3.1,3.1v1.6C8.5,21.3,8,22.2,8,23.3v27.9c0,1.7,1.4,3.1,3.1,3.1h37.2
		c2,0,3.7-1.6,3.7-3.7V22.4C52,21,51.4,19.6,50.4,18.5z M28.9,51.2c0,0.6-0.5,1.1-1.1,1.1H11.1c-0.6,0-1.1-0.5-1.1-1.1V23.3
		c0-0.4,0.3-0.9,0.7-1l0.7-0.2v-2.9c0-0.6,0.5-1.1,1.1-1.1h1.4c0.6,0,1.1,0.5,1.1,1.1v3.1h6.8c0.7,0,1.3,0.3,1.8,0.7l4.6,4.6
		c0.5,0.5,0.7,1.1,0.7,1.7V51.2z M50,50.6c0,0.9-0.8,1.7-1.7,1.7H30.7c0.1-0.3,0.2-0.7,0.2-1.1v-3.4c0.6,0.5,1.4,0.7,2.2,0.7h10.9
		c2,0,3.7-1.6,3.7-3.7V25.6c0-1-0.4-1.9-1.1-2.6l-3.4-3.4c-0.7-0.7-1.6-1.1-2.6-1.1h-7.4c-2,0-3.7,1.6-3.7,3.7v3.7l-4.3-4.2v-7
		c0-0.7,0.5-1.3,1.1-1.6l0.7-0.2V9.4c0-0.9,0.8-1.7,1.7-1.7h1.8c0.9,0,1.7,0.7,1.7,1.7v3.7h8.5c0.9,0,1.8,0.4,2.5,1l6,5.9
		c0.6,0.6,1,1.5,1,2.4V50.6z M31.4,44.8V22.3c0-0.9,0.8-1.7,1.7-1.7h7.4c0.5,0,0.9,0.2,1.2,0.5l3.4,3.4c0.3,0.3,0.5,0.7,0.5,1.2
		v19.2c0,0.9-0.8,1.7-1.7,1.7H33.1C32.2,46.5,31.4,45.7,31.4,44.8z M36.8,40.5c0.3,0.1,0.7,0.1,1,0.1c1.1,0,2.1-0.4,3-1.1
		c1.1-0.9,1.8-2.3,1.8-3.8c0-0.8-0.2-1.5-0.6-2.1L41.6,33c-0.6-0.9-1.1-1.7-1.5-2.6l-1.3-2.7c-0.2-0.3-0.5-0.6-0.9-0.6
		s-0.7,0.2-0.9,0.6l-1.1,2.2c-0.6,1.2-1.2,2.4-2,3.4c-0.5,0.7-0.8,1.4-0.8,2.2C32.9,37.8,34.6,40,36.8,40.5z M35.5,34.5
		c0.9-1.2,1.6-2.6,2.2-3.8l0.2-0.4l0.4,0.9c0.5,1,1.1,1.9,1.6,2.8l0.4,0.6c0.2,0.3,0.3,0.7,0.3,1.1c0,0.9-0.4,1.7-1.1,2.2
		c-0.6,0.5-1.5,0.7-2.3,0.5c-1.3-0.3-2.3-1.6-2.2-3C35.1,35.2,35.2,34.8,35.5,34.5z"/>
</g>
</svg>
