<?xml version="1.0" encoding="utf-8"?>
<!-- Generator: Adobe Illustrator 25.0.1, SVG Export Plug-In . SVG Version: 6.00 Build 0)  -->
<svg version="1.1" id="Layer_1" xmlns="http://www.w3.org/2000/svg" xmlns:xlink="http://www.w3.org/1999/xlink" x="0px" y="0px"
	 viewBox="0 0 60 60" style="enable-background:new 0 0 60 60;" xml:space="preserve">
<style type="text/css">
	.st0{fill:none;}
</style>
<g>
	<g>
		<rect x="0" class="st0" width="60" height="60"/>
	</g>
	<g>
		<path d="M30,4.6c-10.2,0-18.5,8.3-18.5,18.5c0,14.1,16.1,30.3,16.8,31l1.7,1.7l1.7-1.7c0.7-0.7,16.8-16.9,16.8-31
			C48.5,12.9,40.2,4.6,30,4.6z M30.3,52.7L30,53l-0.3-0.3C29,52,13.5,36.3,13.5,23.1C13.5,14,20.9,6.6,30,6.6S46.5,14,46.5,23.1
			C46.5,36.3,31,52,30.3,52.7z M30,11.3c-6.5,0-11.7,5.2-11.7,11.7c0,6.5,5.2,11.7,11.7,11.7c6.5,0,11.7-5.2,11.7-11.7
			C41.7,16.5,36.5,11.3,30,11.3z M36.7,21.1h-4.2v9.4h-4.9v-9.4h-4.2v-4h13.4V21.1z"/>
	</g>
</g>
</svg>
