<?xml version="1.0" encoding="utf-8"?>
<!-- Generator: Adobe Illustrator 25.0.1, SVG Export Plug-In . SVG Version: 6.00 Build 0)  -->
<svg version="1.1" id="Layer_1" xmlns="http://www.w3.org/2000/svg" xmlns:xlink="http://www.w3.org/1999/xlink" x="0px" y="0px"
	 viewBox="0 0 60 60" style="enable-background:new 0 0 60 60;" xml:space="preserve">
<style type="text/css">
	.st0{fill:none;}
</style>
<g>
	<rect class="st0" width="60" height="60"/>
	<path d="M51.4,30c0-11.4-9.1-20.8-20.4-21.3V4.1h-2v4.6C17.7,9.2,8.6,18.6,8.6,30S17.7,50.8,29,51.3v4.6h2v-4.6
		C42.3,50.8,51.4,41.4,51.4,30z M34.5,30c0,2.2-1.5,4-3.5,4.4v-8.8C33,26,34.5,27.8,34.5,30z M25.5,30c0-2.2,1.5-4,3.5-4.4v8.8
		C27,34,25.5,32.2,25.5,30z M29,23.5c-1.1,0.2-2,0.6-2.9,1.2L23,21.5c1.7-1.4,3.8-2.3,6-2.5V23.5z M21.5,23l3.2,3.2
		c-0.6,0.8-1,1.8-1.2,2.9H19C19.2,26.7,20.1,24.6,21.5,23z M23.5,31c0.2,1.1,0.6,2,1.2,2.9L21.5,37c-1.4-1.7-2.3-3.8-2.5-6H23.5z
		 M26.1,35.3c0.8,0.6,1.8,1,2.9,1.2V41c-2.3-0.2-4.4-1.1-6-2.5L26.1,35.3z M31,36.5c1.1-0.2,2-0.6,2.9-1.2l3.2,3.2
		c-1.7,1.4-3.8,2.3-6,2.5V36.5z M38.5,37l-3.2-3.2c0.6-0.8,1-1.8,1.2-2.9H41C40.8,33.3,39.9,35.4,38.5,37z M36.5,29
		c-0.2-1.1-0.6-2-1.2-2.9l3.2-3.2c1.4,1.7,2.3,3.8,2.5,6H36.5z M33.9,24.7c-0.8-0.6-1.8-1-2.9-1.2V19c2.3,0.2,4.4,1.1,6,2.5
		L33.9,24.7z M25,48.7l0.5-1.7l-1.9-0.6l-0.5,1.7c-1.3-0.5-2.5-1.1-3.6-1.8l1-1.4l-1.6-1.2l-1,1.4c-1.1-0.9-2-1.8-2.9-2.9l1.4-1
		l-1.2-1.6l-1.4,1c-0.7-1.1-1.4-2.3-1.8-3.6l1.7-0.5L13,34.5L11.3,35c-0.3-1.3-0.6-2.6-0.6-4h1.7v-2h-1.7c0.1-1.4,0.3-2.7,0.6-4
		l1.7,0.5l0.6-1.9l-1.7-0.5c0.5-1.3,1.1-2.5,1.8-3.6l1.4,1l1.2-1.6l-1.4-1c0.9-1.1,1.8-2,2.9-2.9l1,1.4l1.6-1.2l-1-1.4
		c1.1-0.7,2.3-1.4,3.6-1.8l0.5,1.7l1.9-0.6L25,11.3c1.3-0.3,2.6-0.6,4-0.6V17c-6.7,0.5-12,6.1-12,13s5.3,12.5,12,13v6.4
		C27.6,49.3,26.3,49,25,48.7z M42.2,45.1l-1-1.4l-1.6,1.2l1,1.4c-1.1,0.7-2.3,1.4-3.6,1.8l-0.5-1.7L34.5,47l0.5,1.7
		c-1.3,0.3-2.6,0.6-4,0.6V43c6.7-0.5,12-6.1,12-13s-5.3-12.5-12-13v-6.4c1.4,0.1,2.7,0.3,4,0.6L34.5,13l1.9,0.6l0.5-1.7
		c1.3,0.5,2.5,1.1,3.6,1.8l-1,1.4l1.6,1.2l1-1.4c1.1,0.9,2,1.8,2.9,2.9l-1.4,1l1.2,1.6l1.4-1c0.7,1.1,1.4,2.3,1.8,3.6l-1.7,0.5
		l0.6,1.9l1.7-0.5c0.3,1.3,0.6,2.6,0.6,4h-1.7v2h1.7c-0.1,1.4-0.3,2.7-0.6,4L47,34.5l-0.6,1.9l1.7,0.5c-0.5,1.3-1.1,2.5-1.8,3.6
		l-1.4-1l-1.2,1.6l1.4,1C44.2,43.2,43.2,44.2,42.2,45.1z"/>
</g>
</svg>
