<?xml version="1.0" encoding="utf-8"?>
<!-- Generator: Adobe Illustrator 25.0.1, SVG Export Plug-In . SVG Version: 6.00 Build 0)  -->
<svg version="1.1" id="Layer_1" xmlns="http://www.w3.org/2000/svg" xmlns:xlink="http://www.w3.org/1999/xlink" x="0px" y="0px"
	 viewBox="0 0 60 60" style="enable-background:new 0 0 60 60;" xml:space="preserve">
<style type="text/css">
	.st0{fill:none;}
</style>
<g>
	<rect class="st0" width="60" height="60"/>
	<path d="M52.1,22.8c0,0-0.1-0.1-0.1-0.1C39.8,10.5,20.1,10.5,7.9,22.7c-0.7,0.7-0.7,1.9,0,2.6c0.7,0.7,1.9,0.7,2.6,0
		c10.7-10.7,28.1-10.7,38.9-0.1c0.7,0.8,1.9,0.8,2.6,0.1C52.8,24.7,52.8,23.5,52.1,22.8z M14,28.8c-0.7,0.7-0.7,1.9,0,2.6
		c0.7,0.7,1.9,0.7,2.6,0c7.4-7.4,19.3-7.4,26.7,0c0.7,0.7,1.9,0.7,2.6,0c0.7-0.7,0.7-1.9,0-2.6C37.1,20,22.9,20,14,28.8z M20.2,34.8
		c-0.7,0.7-0.7,1.9,0,2.6c0.7,0.7,1.9,0.7,2.6,0c4-4,10.4-4,14.4,0c0.7,0.7,1.9,0.7,2.6,0c0.7-0.7,0.7-1.9,0-2.6
		C34.4,29.4,25.6,29.4,20.2,34.8z M30,39c-2,0-3.7,1.7-3.7,3.7c0,2,1.7,3.7,3.7,3.7c2,0,3.7-1.7,3.7-3.7C33.7,40.7,32,39,30,39z"/>
</g>
</svg>
