<?xml version="1.0" encoding="utf-8"?>
<!-- Generator: Adobe Illustrator 25.0.1, SVG Export Plug-In . SVG Version: 6.00 Build 0)  -->
<svg version="1.1" id="Layer_1" xmlns="http://www.w3.org/2000/svg" xmlns:xlink="http://www.w3.org/1999/xlink" x="0px" y="0px"
	 viewBox="0 0 60 60" style="enable-background:new 0 0 60 60;" xml:space="preserve">
<style type="text/css">
	.st0{fill:none;}
</style>
<g>
	<g>
		<g>
			<rect class="st0" width="60" height="60"/>
		</g>
	</g>
	<path d="M48.1,29.4l0.1-0.1c0.9-0.4,1.5-1.4,1.5-2.4c0-0.7-0.3-1.4-0.8-1.9c-0.5-0.5-1.2-0.8-1.9-0.8c-0.7,0-1.5,0-1.7,0l-3-6
		c-0.6-1.3-1.9-2-3.3-2H20.2c-1.5,0-2.8,0.9-3.4,2.3l-2.4,5.7c-0.4,0-0.9,0-1.5,0c-0.7,0-1.4,0.3-1.9,0.8c-0.5,0.5-0.8,1.2-0.8,1.9
		c0,1,0.6,2,1.5,2.4l0.1,0.1l-0.3,0.5c-0.9,1.5-1.4,3.2-1.4,4.9v10.4c0,1.9,1.5,3.4,3.4,3.4H16c1.9,0,3.4-1.5,3.4-3.4v-2h21.2v2
		c0,1.9,1.5,3.4,3.4,3.4h2.4c1.9,0,3.4-1.5,3.4-3.4V34.8c0-1.7-0.5-3.4-1.4-4.9L48.1,29.4z M18.6,19.3c0.3-0.6,0.9-1,1.6-1H39
		c0.6,0,1.2,0.4,1.5,0.9l3.9,7.8h-29L18.6,19.3z M12.5,26.5c0.1-0.1,0.3-0.2,0.5-0.2h0c0.2,0,0.4,0,0.6,0l-0.5,1.2L13,27.7l-0.3-0.1
		c-0.2-0.1-0.4-0.3-0.4-0.6C12.3,26.8,12.4,26.6,12.5,26.5z M17.4,45.2c0,0.8-0.6,1.4-1.4,1.4h-2.4c-0.8,0-1.4-0.6-1.4-1.4v-2h5.1
		V45.2z M47.7,45.2c0,0.8-0.6,1.4-1.4,1.4H44c-0.8,0-1.4-0.6-1.4-1.4v-2h5.1V45.2z M47.7,41.2H12.3v-6.4c0-1.4,0.4-2.7,1.1-3.9
		l1.2-2h31l1.2,2c0.7,1.2,1.1,2.5,1.1,3.9V41.2z M47.3,27.5L47,27.7l-0.1-0.2l-0.6-1.2c0.2,0,0.5,0,0.8,0h0c0.2,0,0.3,0.1,0.5,0.2
		c0.1,0.1,0.2,0.3,0.2,0.5C47.7,27.2,47.6,27.4,47.3,27.5z M16.6,34.1c-1.5,0-2.8,1.2-2.8,2.8s1.2,2.8,2.8,2.8s2.8-1.2,2.8-2.8
		S18.2,34.1,16.6,34.1z M16.6,37.7c-0.4,0-0.8-0.4-0.8-0.8s0.4-0.8,0.8-0.8s0.8,0.4,0.8,0.8S17.1,37.7,16.6,37.7z M43.4,34.1
		c-1.5,0-2.8,1.2-2.8,2.8s1.2,2.8,2.8,2.8s2.8-1.2,2.8-2.8S44.9,34.1,43.4,34.1z M43.4,37.7c-0.4,0-0.8-0.4-0.8-0.8s0.4-0.8,0.8-0.8
		s0.8,0.4,0.8,0.8S43.8,37.7,43.4,37.7z M34.9,34.1h-9.8c-0.6,0-1,0.4-1,1s0.4,1,1,1h9.8c0.6,0,1-0.4,1-1S35.5,34.1,34.9,34.1z
		 M34.9,37.7h-9.8c-0.6,0-1,0.4-1,1s0.4,1,1,1h9.8c0.6,0,1-0.4,1-1S35.5,37.7,34.9,37.7z M23.6,19.8h-2.6c-0.4,0-0.8,0.2-0.9,0.6
		L18.7,24c-0.2,0.5,0,1.1,0.6,1.3c0.1,0,0.2,0.1,0.4,0.1c0.4,0,0.8-0.2,0.9-0.6l1.2-2.9h1.9c0.6,0,1-0.4,1-1S24.2,19.8,23.6,19.8z
		 M19.6,30.1h-3.5c-0.4,0-0.7,0.2-0.9,0.5l-0.7,1.3c-0.3,0.5-0.1,1.1,0.4,1.4c0.2,0.1,0.3,0.1,0.5,0.1c0.4,0,0.7-0.2,0.9-0.5
		l0.4-0.8h2.9c0.6,0,1-0.4,1-1S20.2,30.1,19.6,30.1z M26.4,19.9c-0.6,0-1,0.5-1,1c0,0.6,0.5,1,1,1s1-0.5,1-1
		C27.4,20.3,27,19.9,26.4,19.9z M41.7,13.3h1.9v1.9c0,0.6,0.4,1,1,1s1-0.4,1-1v-1.9h1.9c0.6,0,1-0.4,1-1s-0.4-1-1-1h-1.9V9.4
		c0-0.6-0.4-1-1-1s-1,0.4-1,1v1.9h-1.9c-0.6,0-1,0.4-1,1S41.1,13.3,41.7,13.3z"/>
</g>
</svg>
