<?xml version="1.0" encoding="utf-8"?>
<!-- Generator: Adobe Illustrator 25.0.1, SVG Export Plug-In . SVG Version: 6.00 Build 0)  -->
<svg version="1.1" id="Layer_1" xmlns="http://www.w3.org/2000/svg" xmlns:xlink="http://www.w3.org/1999/xlink" x="0px" y="0px"
	 viewBox="0 0 60 60" style="enable-background:new 0 0 60 60;" xml:space="preserve">
<style type="text/css">
	.st0{fill:none;}
</style>
<g>
	<rect class="st0" width="60" height="60"/>
	<path d="M49.3,8.5H10.7c-2.3,0-4.2,1.9-4.2,4.2v28.1c0,2.3,1.9,4.2,4.2,4.2h15.1v2.2c0,1.1-0.9,1.9-1.9,1.9h-6.7
		c-0.7,0-1.2,0.5-1.2,1.2c0,0.7,0.5,1.2,1.2,1.2h25.5c0.7,0,1.2-0.5,1.2-1.2c0-0.7-0.5-1.2-1.2-1.2h-6.7c-1.1,0-1.9-0.9-1.9-1.9V45
		h15.1c2.3,0,4.2-1.9,4.2-4.2V12.7C53.5,10.4,51.6,8.5,49.3,8.5z M10.7,10.5h38.5c1.2,0,2.2,1,2.2,2.2v23h-43v-23
		C8.5,11.5,9.5,10.5,10.7,10.5z M49.3,43H10.7c-1.2,0-2.2-1-2.2-2.2v-3.1h43v3.1C51.5,42,50.5,43,49.3,43z"/>
</g>
</svg>
