<?xml version="1.0" encoding="utf-8"?>
<!-- Generator: Adobe Illustrator 25.0.1, SVG Export Plug-In . SVG Version: 6.00 Build 0)  -->
<svg version="1.1" id="Layer_1" xmlns="http://www.w3.org/2000/svg" xmlns:xlink="http://www.w3.org/1999/xlink" x="0px" y="0px"
	 viewBox="0 0 60 60" style="enable-background:new 0 0 60 60;" xml:space="preserve">
<style type="text/css">
	.st0{fill:none;}
</style>
<g>
	<g>
		<g>
			<rect class="st0" width="60" height="60"/>
		</g>
	</g>
	<path d="M13.5,11.2c-0.5,0-0.9,0.5-0.9,1v4.1H8.4c-0.5,0-1,0.5-1,1v30.3c0,0.5,0.5,1,1,1h43.2c0.5,0,1-0.5,1-1V17.4
		c0-0.5-0.5-1-1-1h-4.1v-4.1c0-0.5-0.4-1-0.9-1c0,0-0.1,0-0.1,0h-9.3c-0.5,0-1,0.5-1,1v4.1H23.8v-4.1c0-0.5-0.5-1-1-1H13.5
		C13.5,11.2,13.5,11.2,13.5,11.2z M14.6,13.3h7.2v3.1h-7.2V13.3z M38.2,13.3h7.2v3.1h-7.2V13.3z M9.4,18.4h41.1v2.1H9.4V18.4z
		 M9.4,22.5h41.1v20H9.4V22.5z M41.7,26.9c-0.5,0.1-0.9,0.5-0.9,1v3.6h-3.6c0,0-0.1,0-0.1,0c-0.5,0-1,0.5-1,1.1c0,0.5,0.5,1,1.1,1
		h3.6v3.6c0,0.5,0.5,1,1,1c0.5,0,1-0.5,1-1v-3.6h3.6c0.5,0,1-0.5,1-1c0-0.5-0.5-1-1-1h-3.6v-3.6C42.9,27.4,42.3,26.8,41.7,26.9z
		 M13.5,31.5c-0.5,0-1,0.5-1,1.1c0,0.5,0.5,1,1.1,1h9.3c0.5,0,1-0.5,1-1s-0.5-1-1-1H13.5C13.5,31.5,13.5,31.5,13.5,31.5z M9.4,44.6
		h41.1v2.1H9.4V44.6z"/>
</g>
</svg>
