<?xml version="1.0" encoding="utf-8"?>
<!-- Generator: Adobe Illustrator 25.0.1, SVG Export Plug-In . SVG Version: 6.00 Build 0)  -->
<svg version="1.1" id="Layer_1" xmlns="http://www.w3.org/2000/svg" xmlns:xlink="http://www.w3.org/1999/xlink" x="0px" y="0px"
	 viewBox="0 0 60 60" style="enable-background:new 0 0 60 60;" xml:space="preserve">
<style type="text/css">
	.st0{fill:none;}
</style>
<g>
	<g>
		<g>
			<rect class="st0" width="60" height="60"/>
		</g>
	</g>
	<path d="M17.3,31.7c-1.5,0-2.8,1.2-2.8,2.8s1.2,2.8,2.8,2.8s2.8-1.2,2.8-2.8S18.8,31.7,17.3,31.7z M17.3,35.2
		c-0.4,0-0.8-0.4-0.8-0.8s0.4-0.8,0.8-0.8s0.8,0.4,0.8,0.8S17.7,35.2,17.3,35.2z M35.6,31.7h-9.8c-0.6,0-1,0.4-1,1s0.4,1,1,1h9.8
		c0.6,0,1-0.4,1-1S36.1,31.7,35.6,31.7z M35.6,35.2h-9.8c-0.6,0-1,0.4-1,1s0.4,1,1,1h9.8c0.6,0,1-0.4,1-1S36.1,35.2,35.6,35.2z
		 M54.3,29.9c2.5-3.2,2.3-7.9-0.7-10.8C51,16.5,47,16,43.9,17.7L43,15.9c-0.6-1.3-1.9-2-3.3-2H20.9c-1.5,0-2.8,0.9-3.4,2.3l-2.4,5.7
		c-0.4,0-0.9,0-1.5,0c-0.7,0-1.4,0.3-1.9,0.8c-0.5,0.5-0.8,1.2-0.8,1.9c0,1,0.6,2,1.5,2.4l0.1,0.1l-0.3,0.5
		c-0.9,1.5-1.4,3.2-1.4,4.9v10.4c0,1.9,1.5,3.4,3.4,3.4h2.4c1.9,0,3.4-1.5,3.4-3.4v-2h21.2v2c0,1.9,1.5,3.4,3.4,3.4H47
		c1.9,0,3.4-1.5,3.4-3.4V32.7c0.9-0.3,1.7-0.7,2.5-1.3l4.7,4.7l1.4-1.4L54.3,29.9z M19.3,16.9c0.3-0.6,0.9-1,1.6-1h18.8
		c0.6,0,1.2,0.4,1.5,0.9l1.1,2.1c-0.1,0.1-0.1,0.1-0.2,0.2c-1.5,1.5-2.3,3.4-2.4,5.4H16.1L19.3,16.9z M13.2,24
		c0.1-0.1,0.3-0.2,0.5-0.2h0c0.2,0,0.4,0,0.6,0l-0.5,1.2l-0.1,0.1l-0.3-0.1C13.1,25,13,24.7,13,24.5C13,24.3,13,24.2,13.2,24z
		 M18.1,42.8c0,0.8-0.6,1.4-1.4,1.4h-2.4c-0.8,0-1.4-0.6-1.4-1.4v-2h5.1V42.8z M48.4,42.8c0,0.8-0.6,1.4-1.4,1.4h-2.4
		c-0.8,0-1.4-0.6-1.4-1.4v-2h5.1V42.8z M48.4,38.8H13v-6.4c0-1.4,0.4-2.7,1.1-3.9l1.2-2h24.7c0.3,1.6,1.1,3,2.2,4.1
		c0.4,0.4,0.9,0.8,1.3,1.1c-1.2,0.3-2.2,1.4-2.2,2.7c0,1.5,1.2,2.8,2.8,2.8s2.8-1.2,2.8-2.8c0-0.6-0.2-1.1-0.5-1.5
		c0.5,0.1,1,0.1,1.5,0.1c0.2,0,0.4,0,0.5,0V38.8z M44.1,33.7c0.4,0,0.8,0.4,0.8,0.8s-0.4,0.8-0.8,0.8s-0.8-0.4-0.8-0.8
		S43.6,33.7,44.1,33.7z M52.2,29.3c-0.6,0.6-1.3,1-2,1.3c-0.6,0.3-1.3,0.4-1.9,0.4c-0.1,0-0.3,0-0.4,0c-1.7,0-3.2-0.6-4.4-1.8
		c-0.8-0.8-1.3-1.7-1.6-2.7c-0.1-0.5-0.2-1.1-0.2-1.7c0-0.1,0-0.2,0-0.3c0.1-1.4,0.6-2.7,1.5-3.7c0.1-0.1,0.2-0.2,0.3-0.3
		c0.4-0.4,0.9-0.7,1.3-1c0.9-0.5,2-0.8,3-0.8c1.6,0,3.2,0.6,4.4,1.8C54.6,22.9,54.6,26.8,52.2,29.3z"/>
</g>
</svg>
