<?xml version="1.0" encoding="utf-8"?>
<!-- Generator: Adobe Illustrator 25.0.1, SVG Export Plug-In . SVG Version: 6.00 Build 0)  -->
<svg version="1.1" id="Layer_1" xmlns="http://www.w3.org/2000/svg" xmlns:xlink="http://www.w3.org/1999/xlink" x="0px" y="0px"
	 viewBox="0 0 60 60" style="enable-background:new 0 0 60 60;" xml:space="preserve">
<style type="text/css">
	.st0{fill:none;}
</style>
<g>
	<rect class="st0" width="60" height="60"/>
	<path d="M44.1,23.9L33.4,13.2c-0.8-0.8-1.9-1.3-3-1.4c-0.1,0-0.3,0-0.4,0s-0.3,0-0.4,0c-1.1,0.1-2.2,0.5-3,1.4L15.9,23.9H7.8v24.4
		h44.3V23.9H44.1z M29.7,13.8c0.2,0,0.4,0,0.5,0c0.8,0.1,1.4,0.8,1.4,1.7c0,0.9-0.8,1.7-1.7,1.7s-1.7-0.8-1.7-1.7
		C28.3,14.6,28.9,13.9,29.7,13.8z M26.4,16.2c0.4,1.7,1.8,2.9,3.6,2.9s3.3-1.3,3.6-2.9l7.6,7.6H18.7L26.4,16.2z M50.2,46.2H9.8V25.9
		h40.3V46.2z M17.8,42c2.4,0,4.3-1.2,4.3-4.4v-1.7c0-3.2-2-4.4-4.3-4.4c-2.3,0-4.3,1.3-4.3,4.4v1.7C13.5,40.8,15.5,42,17.8,42z
		 M15.3,36.1c0-2.4,1.1-3,2.5-3c1.4,0,2.5,0.6,2.5,3v1.2c0,2.4-1.1,3-2.5,3c-1.4,0-2.5-0.6-2.5-3V36.1z M24.8,37.9h2
		c2.4,0,3.5-1.4,3.5-3.1v-0.3c0-1.7-1.1-2.9-3.5-2.9H23v10.3h1.8V37.9z M24.8,33.1h2c1,0,1.8,0.3,1.8,1.4v0.3c0,1.2-0.7,1.6-1.9,1.6
		h-1.8V33.1z M37.7,40.4h-4.9v-3h4.5v-1.5h-4.5v-2.8h4.8v-1.5H31v10.3h6.7V40.4z M40.3,34.1c0.1,0.6,0.4,1.1,0.6,1.6l3.5,6.2h2.1
		V31.6h-1.7v7.8c-0.2-0.7-0.4-1.2-0.7-1.6l-3.5-6.2h-2.1v10.3h1.7V34.1z"/>
</g>
</svg>
