<?xml version="1.0" encoding="utf-8"?>
<!-- Generator: Adobe Illustrator 25.0.1, SVG Export Plug-In . SVG Version: 6.00 Build 0)  -->
<svg version="1.1" id="Layer_1" xmlns="http://www.w3.org/2000/svg" xmlns:xlink="http://www.w3.org/1999/xlink" x="0px" y="0px"
	 viewBox="0 0 60 60" style="enable-background:new 0 0 60 60;" xml:space="preserve">
<style type="text/css">
	.st0{fill:none;}
</style>
<g>
	<rect class="st0" width="60" height="60"/>
	<path d="M52.9,11.5v-2H30.1v12.1c-0.8-0.1-1.6-0.2-2.4-0.2c-8,0-14.6,6.5-14.6,14.6c0,5.4,2.9,10,7.2,12.6H7.1v2h45.8v-2H32.1V11.5
		H52.9z M30.1,42.5c-0.5,0.2-0.9,0.3-1.4,0.4v-2.3c0.5-0.1,1-0.3,1.4-0.6V42.5z M30.1,37.1c-0.4,0.9-1.4,1.5-2.4,1.5
		c-1.5,0-2.7-1.2-2.7-2.7c0-1.5,1.2-2.7,2.7-2.7c1.1,0,2,0.6,2.4,1.5V37.1z M23.8,33.4c-0.3,0.5-0.5,1-0.6,1.5h-2.3
		c0.2-1.2,0.6-2.3,1.3-3.2L23.8,33.4z M23.5,30.4c0.9-0.7,2-1.2,3.2-1.3v2.3c-0.6,0.1-1.1,0.3-1.5,0.6L23.5,30.4z M23.1,37
		c0.1,0.6,0.3,1.1,0.6,1.5l-1.7,1.7c-0.7-0.9-1.2-2-1.3-3.2H23.1z M25.2,39.9c0.5,0.3,1,0.5,1.5,0.6v2.3c-1.2-0.2-2.3-0.6-3.2-1.3
		L25.2,39.9z M30.1,32c-0.4-0.3-0.9-0.5-1.4-0.6V29c0.5,0.1,1,0.2,1.4,0.4V32z M30.1,27.3c-0.8-0.2-1.6-0.3-2.4-0.3c-5,0-9,4-9,9
		c0,5,4,9,9,9c0.8,0,1.7-0.1,2.4-0.3v3.7c-0.5,0.1-0.9,0.2-1.4,0.2v-0.8h-2v0.8c-0.7-0.1-1.3-0.2-1.9-0.3l0.3-0.8l-1.9-0.6l-0.3,0.8
		c-0.6-0.3-1.2-0.6-1.7-0.9l0.5-0.7L20,44.8l-0.5,0.7c-0.5-0.4-1-0.9-1.4-1.4l0.7-0.5L17.6,42L17,42.5c-0.3-0.6-0.6-1.1-0.9-1.7
		l0.8-0.3l-0.6-1.9l-0.8,0.3c-0.1-0.6-0.3-1.3-0.3-1.9H16v-2h-0.8c0.1-0.7,0.2-1.3,0.3-1.9l0.8,0.3l0.6-1.9l-0.8-0.3
		c0.3-0.6,0.6-1.2,0.9-1.7l0.7,0.5l1.2-1.6l-0.7-0.5c0.4-0.5,0.9-1,1.4-1.4l0.5,0.7l1.6-1.2l-0.5-0.7c0.6-0.3,1.1-0.6,1.7-0.9
		l0.3,0.8l1.9-0.6l-0.3-0.8c0.6-0.1,1.3-0.3,1.9-0.3v0.8h2v-0.8c0.5,0,1,0.1,1.4,0.2V27.3z M12.7,17.4H9.4l3.2-4.6v-1H7.5v1.5h2.8
		l-3.2,4.6v1h5.6V17.4z M22,17.3h-4.4l4.4-6.7V9.5h-6.3V11h4l-4.4,6.7v1.1H22V17.3z"/>
</g>
</svg>
