<?xml version="1.0" encoding="utf-8"?>
<!-- Generator: Adobe Illustrator 25.0.1, SVG Export Plug-In . SVG Version: 6.00 Build 0)  -->
<svg version="1.1" id="Layer_1" xmlns="http://www.w3.org/2000/svg" xmlns:xlink="http://www.w3.org/1999/xlink" x="0px" y="0px"
	 viewBox="0 0 60 60" style="enable-background:new 0 0 60 60;" xml:space="preserve">
<style type="text/css">
	.st0{fill:none;}
</style>
<g>
	<g>
		<rect class="st0" width="60" height="60"/>
	</g>
	<path d="M18.3,43.9h-4.1c-1.2,0-2.3,0.7-2.9,1.7l-3.1,5.8h48.6l-3.1-5.8c-0.6-1.1-1.7-1.7-2.9-1.7h-4l-11.9-6.2l7.6-3.9
		c2.5-0.1,4.5-2,5-4.4c2.1-0.1,3.8-1.8,3.8-3.9v-4.3c0-1.9-1.4-3.6-3.3-3.9l-3.3-6.7c-0.7-1.3-2-2.2-3.5-2.2H29.3
		c-1.5,0-2.8,0.8-3.5,2.2l-3.3,6.6H16c-3.8,0-6.9,3.1-6.9,6.9v1.4c0,2.2,1.8,3.9,3.9,3.9h1.8c0.5,2.5,2.7,4.4,5.3,4.4
		c0.8,0,1.5-0.2,2.1-0.4l8.2,4.3L18.3,43.9z M51.9,46.6l1.5,2.9H11.5l1.5-2.9c0.2-0.4,0.7-0.7,1.2-0.7h32l0.1,0.1l0-0.1h4.3
		C51.2,45.9,51.6,46.2,51.9,46.6z M42.4,43.9H22.7l10-5.1L42.4,43.9z M42.1,31.9c-1.9,0-3.4-1.5-3.4-3.4s1.5-3.4,3.4-3.4
		s3.4,1.5,3.4,3.4S44,31.9,42.1,31.9z M27.6,11.6c0.3-0.7,1-1.1,1.7-1.1H41c0.7,0,1.4,0.4,1.7,1.1l2.9,5.7H24.7L27.6,11.6z
		 M14.9,27.5H13c-1.1,0-1.9-0.9-1.9-1.9v-1.4c0-2.7,2.2-4.9,4.9-4.9h31.3c1.1,0,1.9,0.9,1.9,1.9v4.3c0,1-0.8,1.8-1.8,1.9
		c-0.5-2.5-2.7-4.4-5.3-4.4c-2.6,0-4.8,1.9-5.3,4.4H25.4c-0.5-2.5-2.7-4.4-5.3-4.4S15.3,25,14.9,27.5z M16.8,28.5
		c0-1.9,1.5-3.4,3.4-3.4s3.4,1.5,3.4,3.4s-1.5,3.4-3.4,3.4S16.8,30.4,16.8,28.5z M24.1,32.1c0.7-0.7,1.1-1.6,1.3-2.6h11.4
		c0.3,1.6,1.3,2.9,2.6,3.6l-6.8,3.5L24.1,32.1z"/>
</g>
</svg>
