<?xml version="1.0" encoding="utf-8"?>
<!-- Generator: Adobe Illustrator 25.0.1, SVG Export Plug-In . SVG Version: 6.00 Build 0)  -->
<svg version="1.1" id="Layer_1" xmlns="http://www.w3.org/2000/svg" xmlns:xlink="http://www.w3.org/1999/xlink" x="0px" y="0px"
	 viewBox="0 0 60 60" style="enable-background:new 0 0 60 60;" xml:space="preserve">
<style type="text/css">
	.st0{fill:none;}
</style>
<g>
	<g>
		<g>
			<rect class="st0" width="60" height="60"/>
		</g>
	</g>
	<path d="M50.7,35.7H37.5c-0.3-0.9-1.2-1.5-2.2-1.5h-2.3v-3.5c4.4-1.3,7.7-5.4,7.7-10.3c0-5.9-4.8-10.8-10.7-10.8
		c-5.9,0-10.7,4.8-10.7,10.8c0,4.9,3.2,9,7.7,10.3v3.5h-2.3c-1,0-1.8,0.6-2.2,1.5H9.3C8,35.7,7,36.7,7,38v7.7C7,46.9,8,48,9.3,48
		h13.2c0.3,0.9,1.2,1.5,2.2,1.5h10.7c1,0,1.8-0.6,2.2-1.5h13.2c1.3,0,2.3-1,2.3-2.3V38C53,36.7,52,35.7,50.7,35.7z M22.3,38.7H17
		c-0.4,0-0.8,0.3-0.8,0.8c0,0.4,0.3,0.8,0.8,0.8h5.4v6.2h-13c-0.4,0-0.8-0.3-0.8-0.8v-5.4h2.3c0.4,0,0.8-0.3,0.8-0.8
		c0-0.4-0.3-0.8-0.8-0.8H8.5V38c0-0.4,0.3-0.8,0.8-0.8h13V38.7z M20.8,20.3c0-5.1,4.1-9.2,9.2-9.2c5.1,0,9.2,4.1,9.2,9.2
		c0,4.4-3,8-7.1,9c-1.4,0.3-2.8,0.3-4.2,0C23.8,28.3,20.8,24.6,20.8,20.3z M31.5,30.9v3.2h-3.1v-3.2c0.1,0,0.1,0,0.2,0
		c0.1,0,0.3,0,0.4,0.1c0.3,0,0.6,0,0.9,0c0,0,0,0,0,0c0,0,0,0,0,0c0.3,0,0.6,0,0.9,0c0.2,0,0.3,0,0.4-0.1
		C31.4,30.9,31.5,30.9,31.5,30.9z M36.1,47.2c0,0.4-0.3,0.8-0.8,0.8H24.6c-0.4,0-0.8-0.3-0.8-0.8V36.4c0-0.4,0.3-0.8,0.8-0.8h10.7
		c0.4,0,0.8,0.3,0.8,0.8V47.2z M51.5,38.7h-0.8c-0.4,0-0.8,0.3-0.8,0.8c0,0.4,0.3,0.8,0.8,0.8h0.8v5.4c0,0.4-0.3,0.8-0.8,0.8h-13
		v-6.2h6.9c0.4,0,0.8-0.3,0.8-0.8c0-0.4-0.3-0.8-0.8-0.8h-6.9v-1.5h13c0.4,0,0.8,0.3,0.8,0.8V38.7z M28.5,27.8
		c0.2,0,0.3,0.1,0.5,0.1c0.1,0,0.2,0,0.3,0c0.3,0,0.5,0,0.8,0c0.3,0,0.5,0,0.8,0c0.1,0,0.2,0,0.3,0c0.2,0,0.3,0,0.5-0.1
		c0.1,0,0.2-0.1,0.3-0.1c0.1,0,0.3-0.1,0.4-0.1c0.1,0,0.2-0.1,0.3-0.1c0.1,0,0.2-0.1,0.4-0.1c0.1,0,0.2-0.1,0.3-0.2
		c0.1-0.1,0.2-0.1,0.3-0.2c0.1-0.1,0.2-0.1,0.3-0.2c0.1-0.1,0.2-0.1,0.3-0.2c0.1-0.1,0.2-0.2,0.4-0.3c0.1-0.1,0.2-0.1,0.2-0.2
		c0.1-0.1,0.2-0.2,0.4-0.3c0,0,0.1-0.1,0.1-0.1c0,0,0,0,0,0c1.5-1.4,2.4-3.4,2.4-5.5c0-4.2-3.4-7.7-7.7-7.7c-4.2,0-7.7,3.5-7.7,7.7
		c0,2.2,0.9,4.1,2.4,5.5c0,0,0,0,0,0c0,0,0.1,0.1,0.1,0.1c0.1,0.1,0.2,0.2,0.4,0.3c0.1,0.1,0.1,0.1,0.2,0.2c0.1,0.1,0.2,0.2,0.4,0.3
		c0.1,0.1,0.2,0.1,0.3,0.2c0.1,0.1,0.2,0.1,0.3,0.2c0.1,0.1,0.2,0.1,0.3,0.2c0.1,0.1,0.2,0.1,0.3,0.2c0.1,0.1,0.2,0.1,0.4,0.1
		c0.1,0,0.2,0.1,0.3,0.1c0.1,0,0.3,0.1,0.4,0.1C28.3,27.8,28.4,27.8,28.5,27.8z M25.3,24.2c-0.7-0.9-1.2-2-1.4-3.2h0.7
		c0.4,0,0.8-0.3,0.8-0.8c0-0.4-0.3-0.8-0.8-0.8h-0.7c0.3-2.8,2.5-5,5.3-5.3v0.7c0,0.4,0.3,0.8,0.8,0.8c0.4,0,0.8-0.3,0.8-0.8v-0.7
		c2.8,0.3,5,2.6,5.3,5.3h-0.7c-0.4,0-0.8,0.3-0.8,0.8c0,0.4,0.3,0.8,0.8,0.8h0.7c-0.1,1.2-0.6,2.3-1.4,3.2c-1.3-1.1-3-1.6-4.7-1.6
		C28.3,22.6,26.6,23.2,25.3,24.2z M28.1,26.1c-0.3-0.1-0.5-0.2-0.7-0.3c0,0-0.1,0-0.1-0.1c-0.3-0.1-0.5-0.3-0.7-0.5c0,0,0,0,0,0
		c1-0.7,2.3-1.2,3.6-1.2c1.3,0,2.5,0.4,3.6,1.2c0,0,0,0,0,0c-0.2,0.2-0.5,0.3-0.7,0.4c0,0-0.1,0-0.1,0.1c-0.2,0.1-0.5,0.2-0.7,0.3
		c0,0,0,0-0.1,0c-0.3,0.1-0.5,0.1-0.8,0.2c-0.1,0-0.1,0-0.2,0c-0.3,0-0.6,0.1-0.9,0.1c-0.3,0-0.6,0-0.9-0.1c-0.1,0-0.1,0-0.2,0
		C28.7,26.3,28.4,26.2,28.1,26.1C28.1,26.1,28.1,26.1,28.1,26.1z M30.5,20.8l2.3-2.3c0.3-0.3,0.3-0.8,0-1.1c-0.3-0.3-0.8-0.3-1.1,0
		l-2.3,2.3c-0.3,0.3-0.3,0.8,0,1.1c0.1,0.2,0.3,0.2,0.5,0.2C30.2,21.1,30.4,21,30.5,20.8z M13.9,40.3c0.4,0,0.8-0.3,0.8-0.8
		c0-0.4-0.3-0.8-0.8-0.8c-0.4,0-0.8,0.3-0.8,0.8C13.1,39.9,13.5,40.3,13.9,40.3z M47.6,38.7c-0.4,0-0.8,0.3-0.8,0.8
		c0,0.4,0.3,0.8,0.8,0.8c0.4,0,0.8-0.3,0.8-0.8C48.4,39.1,48.1,38.7,47.6,38.7z"/>
</g>
</svg>
