<?xml version="1.0" encoding="utf-8"?>
<!-- Generator: Adobe Illustrator 25.0.1, SVG Export Plug-In . SVG Version: 6.00 Build 0)  -->
<svg version="1.1" id="Layer_1" xmlns="http://www.w3.org/2000/svg" xmlns:xlink="http://www.w3.org/1999/xlink" x="0px" y="0px"
	 viewBox="0 0 60 60" style="enable-background:new 0 0 60 60;" xml:space="preserve">
<style type="text/css">
	.st0{fill:none;}
</style>
<g>
	<rect class="st0" width="60" height="60"/>
	<path d="M19.5,29l-0.2-1.5c-2,0.3-3.9,0.5-6.2,0.5h-0.9v-9.1h-1.8v10.7h2.4C15.4,29.5,17.3,29.3,19.5,29z M22.4,17.4h-1.8V34h1.8
		v-9.1h2.6v-1.5h-2.6V17.4z M38.8,21.6h-9v-3.7h-1.8v5.2h10.7V21.6z M32.5,28.1h-4.5V34h10.9v-5.9h-4.5v-1.9H41v-1.5H25.8v1.5h6.7
		V28.1z M37.1,29.6v2.9h-7.3v-2.9H37.1z M15.4,45.4c-0.7-0.9-1-1.8-1-2.8v-2.4h2.7v-1.5H9.9v1.5h2.8v2.4c0,1-0.2,1.9-0.9,2.8
		c-0.8,1-1.7,2-2.8,3l1.2,1.2c1-1,1.9-2,2.6-2.8c0.4-0.4,0.6-0.8,0.8-1.2h0c0.1,0.4,0.4,0.8,0.8,1.2c0.7,0.9,1.5,1.7,2.4,2.6
		l1.2-1.2C16.9,47.2,16.2,46.4,15.4,45.4z M22.1,43h-1.9v-5.6h-1.7v15.4h1.7v-8.3h1.9v9.1h1.7V37.1h-1.7V43z M38.9,37.1h-1.8v11.8
		h1.8v-6h2.4v-1.5h-2.4V37.1z M30.5,48h-1.8v5.5h10.6V52h-8.8V48z M35.6,44.2c-2.5,0.3-3.6,0.3-7.3,0.3v-4.8h5.9v-1.5h-7.7v7.9
		c5.2,0,6.7-0.1,9.2-0.4L35.6,44.2z M38.3,18.1c0.1,0,0.2,0,0.3,0C39,18,46.9,15.6,53.4,7.3c0.3-0.4,0.3-1-0.2-1.4
		c-0.4-0.3-1-0.3-1.4,0.2c-6.1,7.7-13.8,10.1-13.8,10.1c-0.5,0.2-0.8,0.7-0.7,1.2C37.5,17.9,37.9,18.1,38.3,18.1z M56.9,2.8
		l-0.1-0.9h-0.9c-0.3,0-6.5,0-11.2,3.2c-5,3.3-5.1,7.5-5.1,7.6c0,0.5,0.4,1,1,1c0.5,0.1,1-0.4,1-1c0-0.1,0.1-3.4,4.2-6
		C49,4.6,53.2,4,55,3.9c0.1,2.2,0.1,7.8-1.4,10.5c-2.5,4.4-6.9,4.2-9.3,3.1c-0.5-0.2-1.1,0-1.3,0.4c-0.2,0.5,0,1.1,0.4,1.3
		c1.2,0.6,2.6,0.9,4,0.9c2.9,0,6-1.4,7.9-4.8C57.5,11.4,56.9,3.1,56.9,2.8z"/>
</g>
</svg>
