<?xml version="1.0" encoding="utf-8"?>
<!-- Generator: Adobe Illustrator 25.0.1, SVG Export Plug-In . SVG Version: 6.00 Build 0)  -->
<svg version="1.1" id="Layer_1" xmlns="http://www.w3.org/2000/svg" xmlns:xlink="http://www.w3.org/1999/xlink" x="0px" y="0px"
	 viewBox="0 0 60 60" style="enable-background:new 0 0 60 60;" xml:space="preserve">
<style type="text/css">
	.st0{fill:none;}
</style>
<g>
	<rect class="st0" width="60" height="60"/>
	<path d="M50,11l-1.4-1.4l-6.9,6.9v-1.3c0-2.3-0.9-4.4-2.3-5.9c-0.1-0.1-0.1-0.2-0.2-0.2c-1.6-1.7-4-2.8-6.5-2.8H31V2.4h-2v3.9h-1.6
		c-5,0-9,4-9,9v24.6L10,48.2l1.4,1.4l6.9-6.9v2.1c0,5,4,9,9,9H29v3.1h2v-3.1h1.6c5,0,9-4,9-9V19.4L50,11z M32.6,8.2
		c1.8,0,3.4,0.7,4.6,1.8l-0.7,1.1c-0.3,0.5-0.1,1.1,0.3,1.4c0.2,0.1,0.3,0.1,0.5,0.1c0.3,0,0.7-0.2,0.9-0.5l0.3-0.5
		c0.6,1.1,1,2.3,1,3.6v3.3L31,27.2v-19H32.6z M27.4,8.2H29v21l-5.6,5.6c0-0.4-0.2-0.7-0.5-0.9l-2.5-1.4v-8l1.5,0.9
		c0.2,0.1,0.3,0.1,0.5,0.1c0.4,0,0.7-0.2,0.9-0.5c0.3-0.5,0.1-1.1-0.4-1.4l-2.5-1.4v-7c0-0.4,0-0.7,0.1-1.1l1.4,0.9
		c0.2,0.1,0.4,0.2,0.6,0.2c0.3,0,0.6-0.2,0.8-0.4c0.3-0.5,0.2-1.1-0.3-1.4l-1.9-1.2C22.2,9.9,24.6,8.2,27.4,8.2z M20.4,34.8l1.5,0.9
		c0.2,0.1,0.3,0.1,0.5,0.1c0,0,0,0,0.1,0l-2.1,2.1V34.8z M27.4,51.8c-3.8,0-6.8-3-7-6.7l1.5,0.9C22,46,22.2,46,22.4,46
		c0.4,0,0.7-0.2,0.9-0.5c0.3-0.5,0.1-1.1-0.4-1.4l-2.5-1.4v-2.1L29,32v19.7H27.4z M39.6,28.8C39.6,28.8,39.6,28.8,39.6,28.8
		l-2.8,2.6c-0.4,0.4-0.4,1-0.1,1.4c0.2,0.2,0.5,0.3,0.7,0.3c0.2,0,0.5-0.1,0.7-0.3l1.5-1.4v7.6c0,0-0.1,0-0.1,0.1l-2.8,2.5
		c-0.4,0.4-0.4,1-0.1,1.4c0.2,0.2,0.5,0.3,0.7,0.3c0.2,0,0.5-0.1,0.7-0.3l1.5-1.4v3c0,3.9-3.1,7-7,7H31V30l8.6-8.6V28.8z"/>
</g>
</svg>
