<?xml version="1.0" encoding="utf-8"?>
<!-- Generator: Adobe Illustrator 25.0.1, SVG Export Plug-In . SVG Version: 6.00 Build 0)  -->
<svg version="1.1" id="Layer_1" xmlns="http://www.w3.org/2000/svg" xmlns:xlink="http://www.w3.org/1999/xlink" x="0px" y="0px"
	 viewBox="0 0 60 60" style="enable-background:new 0 0 60 60;" xml:space="preserve">
<style type="text/css">
	.st0{fill:none;}
</style>
<g>
	<g>
		<rect class="st0" width="60" height="60"/>
	</g>
	<path d="M34.5,18.9v-2h5c1.9,0,3.4-1.5,3.4-3.4v-2.6H16.9v2.6c0,1.9,1.5,3.4,3.4,3.4h5v2H9.7v30.2h40.5V18.9H34.5z M20.3,14.9
		c-0.8,0-1.4-0.6-1.4-1.4v-0.6h21.9v0.6c0,0.8-0.6,1.4-1.4,1.4h-5.1c-1,0-1.9,0.8-1.9,1.9v2.1h-5.2v-2.1c0-1-0.8-1.9-1.9-1.9H20.3z
		 M48.3,47.1H11.7V20.9h36.5V47.1z M34.6,44.9c6,0,10.9-4.9,10.9-10.9S40.6,23,34.6,23S23.7,27.9,23.7,34S28.6,44.9,34.6,44.9z
		 M34.6,25c4.9,0,8.9,4,8.9,8.9s-4,8.9-8.9,8.9s-8.9-4-8.9-8.9S29.7,25,34.6,25z M34.6,38.2c2.4,0,4.3-1.9,4.3-4.3
		c0-2.4-1.9-4.3-4.3-4.3c-2.4,0-4.3,1.9-4.3,4.3C30.3,36.3,32.2,38.2,34.6,38.2z M17.4,29.6h3.1c1.7,0,3.2-1.4,3.2-3.2
		c0-1.7-1.4-3.2-3.2-3.2h-3.1c-1.7,0-3.2,1.4-3.2,3.2C14.2,28.2,15.6,29.6,17.4,29.6z M17.4,25.3h3.1c0.6,0,1.2,0.5,1.2,1.2
		c0,0.6-0.5,1.2-1.2,1.2h-3.1c-0.6,0-1.2-0.5-1.2-1.2C16.2,25.8,16.7,25.3,17.4,25.3z"/>
</g>
</svg>
