<?xml version="1.0" encoding="utf-8"?>
<!-- Generator: Adobe Illustrator 25.0.1, SVG Export Plug-In . SVG Version: 6.00 Build 0)  -->
<svg version="1.1" id="Layer_1" xmlns="http://www.w3.org/2000/svg" xmlns:xlink="http://www.w3.org/1999/xlink" x="0px" y="0px"
	 viewBox="0 0 60 60" style="enable-background:new 0 0 60 60;" xml:space="preserve">
<style type="text/css">
	.st0{fill:none;}
</style>
<g>
	<g>
		<rect class="st0" width="60" height="60"/>
	</g>
	<path d="M30,6.9C17.2,6.9,6.9,17.2,6.9,30S17.2,53.1,30,53.1S53.1,42.8,53.1,30S42.8,6.9,30,6.9z M50.4,35.6l-1.9-0.6l-0.6,1.9
		l1.9,0.6c-0.6,1.5-1.2,2.8-2.1,4.1L46,40.4L44.9,42l1.6,1.2c-1,1.2-2.1,2.3-3.3,3.3L42,44.9L40.4,46l1.2,1.6
		c-1.3,0.8-2.7,1.5-4.1,2.1l-0.6-1.9l-1.9,0.6l0.6,1.9c-1.5,0.4-3,0.6-4.6,0.7v-2h-2v2c-1.6-0.1-3.1-0.3-4.6-0.7l0.6-1.9l-1.9-0.6
		l-0.6,1.9c-1.5-0.6-2.8-1.2-4.1-2.1l1.2-1.6L18,44.9l-1.2,1.6c-1.2-1-2.3-2.1-3.3-3.3l1.6-1.2L14,40.4l-1.6,1.2
		c-0.8-1.3-1.5-2.7-2.1-4.1l1.9-0.6l-0.6-1.9l-1.9,0.6c-0.4-1.5-0.6-3-0.7-4.6h2v-2h-2c0.1-1.6,0.3-3.1,0.7-4.6l1.9,0.6l0.6-1.9
		l-1.9-0.6c0.6-1.5,1.2-2.8,2.1-4.1l1.6,1.2l1.2-1.6l-1.6-1.2c1-1.2,2.1-2.3,3.3-3.3l1.2,1.6l1.6-1.2l-1.2-1.6
		c1.3-0.8,2.7-1.5,4.1-2.1l0.6,1.9l1.9-0.6l-0.6-1.9c1.5-0.4,3-0.6,4.6-0.7v2h2v-2c1.6,0.1,3.1,0.3,4.6,0.7l-0.6,1.9l1.9,0.6
		l0.6-1.9c1.5,0.6,2.8,1.2,4.1,2.1L40.4,14l1.6,1.2l1.2-1.6c1.2,1,2.3,2.1,3.3,3.3L44.9,18l1.2,1.6l1.6-1.2c0.8,1.3,1.5,2.7,2.1,4.1
		l-1.9,0.6l0.6,1.9l1.9-0.6c0.4,1.5,0.6,3,0.7,4.6h-2v2h2C51,32.6,50.8,34.1,50.4,35.6z M30,16c-7.7,0-14.1,6.3-14.1,14
		c0,7.7,6.3,14.1,14.1,14.1c7.7,0,14-6.3,14-14.1C44,22.3,37.7,16,30,16z M31,18c2.6,0.2,4.9,1.2,6.8,2.8l-3.6,3.6
		c-0.9-0.7-2-1.2-3.2-1.3V18z M29,18v5.1c-1.2,0.2-2.3,0.6-3.2,1.3l-3.6-3.6C24.1,19.2,26.4,18.2,29,18z M20.8,22.2l3.6,3.6
		c-0.7,0.9-1.2,2-1.3,3.2H18C18.2,26.4,19.2,24.1,20.8,22.2z M18,31h5.1c0.2,1.2,0.6,2.3,1.3,3.2l-3.6,3.6
		C19.2,35.9,18.2,33.6,18,31z M29,42c-2.6-0.2-4.9-1.2-6.8-2.8l3.6-3.6c0.9,0.7,2,1.2,3.2,1.3V42z M25,30c0-2.8,2.3-5,5-5s5,2.3,5,5
		s-2.3,5-5,5S25,32.8,25,30z M31,42v-5.1c1.2-0.2,2.3-0.6,3.2-1.3l3.6,3.6C35.9,40.8,33.6,41.8,31,42z M39.2,37.8l-3.6-3.6
		c0.7-0.9,1.2-2,1.3-3.2H42C41.8,33.6,40.8,35.9,39.2,37.8z M36.9,29c-0.2-1.2-0.6-2.3-1.3-3.2l3.6-3.6c1.6,1.9,2.6,4.2,2.8,6.8
		H36.9z"/>
</g>
</svg>
