<?xml version="1.0" encoding="utf-8"?>
<!-- Generator: Adobe Illustrator 25.0.1, SVG Export Plug-In . SVG Version: 6.00 Build 0)  -->
<svg version="1.1" id="Layer_1" xmlns="http://www.w3.org/2000/svg" xmlns:xlink="http://www.w3.org/1999/xlink" x="0px" y="0px"
	 viewBox="0 0 60 60" style="enable-background:new 0 0 60 60;" xml:space="preserve">
<style type="text/css">
	.st0{fill:none;}
</style>
<g>
	<rect class="st0" width="60" height="60"/>
	<path d="M42.9,38.4c-2.5,0-4.5,2-4.5,4.5v3.7H21.7v-3.7c0-2.5-2-4.5-4.5-4.5s-4.5,2-4.5,4.5v9.5c0,2.5,2,4.5,4.5,4.5s4.5-2,4.5-4.5
		v-3.7h16.7v3.7c0,2.5,2,4.5,4.5,4.5s4.5-2,4.5-4.5v-9.5C47.4,40.4,45.4,38.4,42.9,38.4z M19.7,52.4c0,1.4-1.1,2.5-2.5,2.5
		s-2.5-1.1-2.5-2.5v-9.5c0-1.4,1.1-2.5,2.5-2.5s2.5,1.1,2.5,2.5V52.4z M45.4,52.4c0,1.4-1.1,2.5-2.5,2.5c-1.4,0-2.5-1.1-2.5-2.5
		v-9.5c0-1.4,1.1-2.5,2.5-2.5c1.4,0,2.5,1.1,2.5,2.5V52.4z M42.9,4.4c-2.5,0-4.5,2-4.5,4.5v3.7h-4.4c-0.4-1.8-2-3.1-3.9-3.1
		s-3.5,1.3-3.9,3.1h-4.4V8.9c0-2.5-2-4.5-4.5-4.5s-4.5,2-4.5,4.5v9.5c0,2.5,2,4.5,4.5,4.5c0.4,0,0.7-0.1,1-0.1l0.7,1.8l0,0l0,0
		l1.5,4.2l1.5-1.7l7,5.8l-8,6.7l1,1.2L30,34l8.2,6.8l1-1.2l-8-6.7l7-5.8l1.5,1.7l1.5-4.2l0,0l0,0l0.7-1.8c0.3,0.1,0.7,0.1,1.1,0.1
		c2.5,0,4.5-2,4.5-4.5V8.9C47.4,6.4,45.4,4.4,42.9,4.4z M30,11.5c1.1,0,2,0.9,2,2s-0.9,2-2,2s-2-0.9-2-2S28.9,11.5,30,11.5z
		 M17.1,20.9c-1.4,0-2.5-1.1-2.5-2.5V8.9c0-1.4,1.1-2.5,2.5-2.5s2.5,1.1,2.5,2.5v9.5C19.7,19.8,18.5,20.9,17.1,20.9z M35.5,24.2
		l1.6,1.8L30,32l-7.2-6l1.6-1.8l-6.2-1.5c2-0.5,3.4-2.3,3.4-4.4v-3.7h4.5c0.5,1.6,2,2.9,3.8,2.9s3.3-1.2,3.8-2.9h4.5v3.7
		c0,2.1,1.5,3.9,3.4,4.4L35.5,24.2z M45.4,18.4c0,1.4-1.1,2.5-2.5,2.5c-1.4,0-2.5-1.1-2.5-2.5V8.9c0-1.4,1.1-2.5,2.5-2.5
		c1.4,0,2.5,1.1,2.5,2.5V18.4z"/>
</g>
</svg>
