<?xml version="1.0" encoding="utf-8"?>
<!-- Generator: Adobe Illustrator 25.0.1, SVG Export Plug-In . SVG Version: 6.00 Build 0)  -->
<svg version="1.1" id="Layer_1" xmlns="http://www.w3.org/2000/svg" xmlns:xlink="http://www.w3.org/1999/xlink" x="0px" y="0px"
	 viewBox="0 0 60 60" style="enable-background:new 0 0 60 60;" xml:space="preserve">
<style type="text/css">
	.st0{fill:none;}
</style>
<g>
	<rect class="st0" width="60" height="60"/>
	<path d="M28.3,18.4c0-1.8-1.5-3.3-3.3-3.3c-1.8,0-3.3,1.5-3.3,3.3c0,1.8,1.5,3.3,3.3,3.3C26.8,21.7,28.3,20.3,28.3,18.4z
		 M40.6,19.8L40.6,19.8l-15-10.5l0,0c-0.1,0-2.8-1.7-3.7-1c-1,0.7-1.7,1.4-2.1,2.5c-0.4,1.1,1.6,1.9,2.7,1.2l2.1-1.3l13.9,9.6
		l-0.6,0.6l-8,0.3c-1.1,0-2.2,0.5-3.1,1.2l-0.4,0.3c-0.9,0.8-1.5,1.8-1.7,3c-0.1,0.7,0,1.5,0.2,2.2l2.7,7.2l-9.9,15.2v1.6h4.6
		c0-1.4,0.4-2.8,1.2-3.9l6.9-9.9c0,0,0.8,1.5,0.8,4.3c0,2.8-1.5,7.4-1.5,9.6h4.1c0,0-0.5-3,0-5.1s0.8-8.4,0.8-10.9
		s-3.5-10.5-3.5-10.5l10.4-2.3c0,0,0.7,0,0.7-1.3C42.3,20.9,41.3,20.2,40.6,19.8z"/>
</g>
</svg>
