<?xml version="1.0" encoding="utf-8"?>
<!-- Generator: Adobe Illustrator 25.0.1, SVG Export Plug-In . SVG Version: 6.00 Build 0)  -->
<svg version="1.1" id="Layer_1" xmlns="http://www.w3.org/2000/svg" xmlns:xlink="http://www.w3.org/1999/xlink" x="0px" y="0px"
	 viewBox="0 0 60 60" style="enable-background:new 0 0 60 60;" xml:space="preserve">
<style type="text/css">
	.st0{fill:none;}
</style>
<g>
	<rect x="0" class="st0" width="60" height="60"/>
	<path d="M51.1,10.3c-1.6-1.6-4.1-1.6-5.7-0.2c-0.1-0.1-0.1-0.2-0.2-0.2c-1.6-1.6-4.3-1.6-5.9,0c-1.6,1.6-1.6,4.3,0,5.9
		c0.3,0.3,0.7,0.7,1,1L37,23.6l7-3.1c0.5,0.5,0.9,0.9,1.2,1.2c1.6,1.6,4.3,1.6,5.9,0c1.6-1.6,1.6-4.1,0.2-5.7
		C52.8,14.4,52.7,11.9,51.1,10.3z M10.1,13.3c-2,0-3.9,0.2-5.8,0.5v2c1.9-0.3,3.8-0.5,5.8-0.5c8.4,0,16,3.1,22,8.1l-4,8.8l9.2-3.3
		c4.2,5.7,6.8,12.7,6.8,20.3c0,2.2-0.2,4.4-0.6,6.5h2c0.4-2.1,0.6-4.2,0.6-6.5C46,29.4,29.9,13.3,10.1,13.3z M10.1,27.6
		c-2,0-3.9,0.3-5.8,0.8v2.1c1.5-0.5,3.1-0.8,4.8-0.9v9.1c-1.8,0.2-3.4,0.8-4.8,1.7V43c1.5-1.4,3.5-2.3,5.8-2.3
		c4.7,0,8.5,3.8,8.5,8.5c0,2.6-1.2,4.9-3,6.5h2.8c1.2-1.5,2-3.4,2.2-5.5h9.1c-0.1,1.9-0.5,3.7-1.1,5.5h2.1c0.6-2,1-4.2,1-6.5
		C31.7,37.3,22,27.6,10.1,27.6z M11.1,38.8v-9.1c4.6,0.2,8.9,2.1,12.1,5l-6.4,6.4C15.2,39.8,13.3,39,11.1,38.8z M20.5,48.2
		c-0.2-2.1-1.1-4.1-2.4-5.7l6.4-6.4c2.9,3.2,4.8,7.5,5,12.1H20.5z"/>
</g>
</svg>
