<?xml version="1.0" encoding="utf-8"?>
<!-- Generator: Adobe Illustrator 25.0.1, SVG Export Plug-In . SVG Version: 6.00 Build 0)  -->
<svg version="1.1" id="Layer_1" xmlns="http://www.w3.org/2000/svg" xmlns:xlink="http://www.w3.org/1999/xlink" x="0px" y="0px"
	 viewBox="0 0 60 60" style="enable-background:new 0 0 60 60;" xml:space="preserve">
<style type="text/css">
	.st0{fill:none;}
</style>
<g>
	<rect class="st0" width="60" height="60"/>
	<path d="M34.4,16c0-2.4-2-4.4-4.4-4.4c-2.4,0-4.4,2-4.4,4.4s2,4.4,4.4,4.4C32.4,20.4,34.4,18.4,34.4,16z M27.6,16
		c0-1.3,1.1-2.4,2.4-2.4c1.3,0,2.4,1.1,2.4,2.4c0,1.3-1.1,2.4-2.4,2.4C28.7,18.4,27.6,17.3,27.6,16z M39.5,21.1
		c0.6-1.7,1.1-3.4,1.1-5.1c0-5.8-4.7-10.5-10.5-10.5S19.5,10.2,19.5,16c0,1.7,0.4,3.4,1.1,5.1H9.2v33.1h41.6V21.1H39.5z M30,7.5
		c4.7,0,8.5,3.8,8.5,8.5c0,6.1-6.3,13.5-8.5,15.9c-2.2-2.3-8.5-9.8-8.5-15.9C21.5,11.3,25.3,7.5,30,7.5z M37.5,52.2H22.5V39.3h15.1
		V52.2z M48.8,52.2h-9.3V37.3H20.5v14.9h-9.3V23.1h10.2c2.8,5.7,7.6,10.6,7.9,10.9l0.7,0.7l0.7-0.7c0.3-0.3,5.1-5.2,7.9-10.9h10.2
		V52.2z"/>
</g>
</svg>
