<?xml version="1.0" encoding="utf-8"?>
<!-- Generator: Adobe Illustrator 25.0.1, SVG Export Plug-In . SVG Version: 6.00 Build 0)  -->
<svg version="1.1" id="Layer_1" xmlns="http://www.w3.org/2000/svg" xmlns:xlink="http://www.w3.org/1999/xlink" x="0px" y="0px"
	 viewBox="0 0 60 60" style="enable-background:new 0 0 60 60;" xml:space="preserve">
<style type="text/css">
	.st0{fill:none;}
</style>
<g>
	<g>
		<rect class="st0" width="60" height="60"/>
	</g>
	<path d="M30,6.8c-6,0-11.4,2.3-15.5,6l-1.6-1.6l-0.2-3.2l-4.9,4.9l3.4,0.1l1.7,1.7C9.1,18.6,6.8,24.1,6.8,30
		c0,12.8,10.4,23.2,23.2,23.2S53.2,42.8,53.2,30S42.8,6.8,30,6.8z M47.9,30.8v1.8l3.3-2.5c0,5.8-2.4,11.1-6.2,14.9l-0.5-4.1
		l-1.3,1.3l-1.8-1.8l-1,1l1.8,1.8l-1.3,1.3l4.1,0.5c-3.8,3.8-9.1,6.1-14.9,6.2l2.5-3.3h-1.8v-2.6h-1.5v2.6h-1.8l2.5,3.3
		c-5.8,0-11-2.4-14.9-6.2l4.1-0.5l-1.3-1.3l1.8-1.8l-1-1l-1.8,1.8l-1.3-1.3L15,45c-3.8-3.8-6.2-9.1-6.2-14.9l3.3,2.5v-1.8h2.6v-1.5
		h-2.6v-1.8L8.8,30c0,0,0,0,0,0c0-5.4,2-10.3,5.4-14l1.1,1.1l2.4,0.5L17,15.3l-1.1-1.1c3.7-3.3,8.7-5.4,14.1-5.4l-2.6,3.3h1.8v2.6
		h1.5v-2.6h1.8L30,8.8c5.8,0,11.1,2.4,15,6.2l-4.2,0.5l1.3,1.3l-1.8,1.8l1,1l1.8-1.8l1.3,1.3l0.5-4.2c3.8,3.8,6.2,9.1,6.2,14.9
		c0,0,0,0,0,0l-3.3-2.5v1.8h-2.6v1.5H47.9z M30,15.9c-7.8,0-14.1,6.3-14.1,14.1c0,7.8,6.3,14.1,14.1,14.1c7.8,0,14.1-6.3,14.1-14.1
		C44.1,22.2,37.8,15.9,30,15.9z M31,18c2.6,0.2,4.9,1.2,6.8,2.8l-3.6,3.6c-0.9-0.7-2-1.2-3.2-1.3V18z M29,18V23
		c-1.2,0.2-2.3,0.6-3.2,1.3l-3.6-3.6C24.1,19.2,26.4,18.2,29,18z M20.8,22.2l3.6,3.6c-0.7,0.9-1.2,2-1.3,3.2H18
		C18.2,26.4,19.2,24.1,20.8,22.2z M18,31H23c0.2,1.2,0.6,2.3,1.3,3.2l-3.6,3.6C19.2,35.9,18.2,33.6,18,31z M29,42
		c-2.6-0.2-4.9-1.2-6.8-2.8l3.6-3.6c0.9,0.7,2,1.2,3.2,1.3V42z M25,30c0-2.8,2.3-5,5-5s5,2.3,5,5s-2.3,5-5,5S25,32.8,25,30z M31,42
		V37c1.2-0.2,2.3-0.6,3.2-1.3l3.6,3.6C35.9,40.8,33.6,41.8,31,42z M39.2,37.8l-3.6-3.6c0.7-0.9,1.2-2,1.3-3.2H42
		C41.8,33.6,40.8,35.9,39.2,37.8z M37,29c-0.2-1.2-0.6-2.3-1.3-3.2l3.6-3.6c1.6,1.9,2.6,4.2,2.8,6.8H37z"/>
</g>
</svg>
