<?xml version="1.0" encoding="utf-8"?>
<!-- Generator: Adobe Illustrator 25.0.1, SVG Export Plug-In . SVG Version: 6.00 Build 0)  -->
<svg version="1.1" id="Layer_1" xmlns="http://www.w3.org/2000/svg" xmlns:xlink="http://www.w3.org/1999/xlink" x="0px" y="0px"
	 viewBox="0 0 60 60" style="enable-background:new 0 0 60 60;" xml:space="preserve">
<style type="text/css">
	.st0{fill:none;}
</style>
<g>
	<g>
		<g>
			<g>
				<rect class="st0" width="60" height="60"/>
			</g>
		</g>
	</g>
	<path d="M30,53C17.3,53,7,42.7,7,30S17.3,7,30,7s23,10.3,23,23S42.7,53,30,53z M30,9C18.4,9,9,18.4,9,30s9.4,21,21,21s21-9.4,21-21
		S41.6,9,30,9z M30,48.3c-2.7,0-5.2-0.6-7.7-1.7c-0.6-0.3-1.1-0.9-1.3-1.5c-0.2-0.7,0-1.4,0.4-2l4-5.5c1-1.4,2.7-2.2,4.3-2.2l0.2,0
		c0,0,0,0,0,0c1.9,0,3.6,0.9,4.7,2.4l3.9,5.3c0.4,0.6,0.5,1.3,0.4,2c-0.2,0.7-0.6,1.2-1.3,1.5l0,0C35.2,47.8,32.7,48.3,30,48.3z
		 M29.7,37.4c-1.1,0-2.1,0.5-2.7,1.4l-4,5.5C23,44.4,23,44.5,23,44.6c0,0.1,0.1,0.2,0.2,0.2c4.3,2,9.3,2,13.6,0l0,0
		c0.1-0.1,0.2-0.2,0.2-0.2c0-0.1,0-0.2-0.1-0.3L33.1,39c-0.7-1-1.8-1.5-3-1.5c0,0,0,0,0,0L29.7,37.4C29.8,37.4,29.8,37.4,29.7,37.4z
		 M18.4,43.2c-0.7,0-1.3-0.3-1.7-0.8l0,0c-3.6-3.9-5.4-9.2-4.8-14.5c0.1-0.7,0.5-1.3,1.1-1.7c0.6-0.4,1.3-0.5,2-0.3l6.5,2.1
		c1.7,0.5,3,1.9,3.4,3.5c0,0.1,0.1,0.2,0.1,0.4c0.6,1.6,0.3,3.4-0.7,4.8l-4,5.5c-0.4,0.6-1.1,0.9-1.8,1
		C18.5,43.2,18.5,43.2,18.4,43.2z M18.2,41.1c0.1,0.1,0.2,0.1,0.3,0.1c0.1,0,0.2,0,0.3-0.1l4-5.5c0.6-0.9,0.8-2,0.5-2.9
		c-0.1-0.2-0.1-0.3-0.2-0.5c-0.3-1-1.1-1.8-2.1-2.1l-6.5-2.1c-0.1,0-0.2,0-0.3,0c-0.1,0-0.1,0.1-0.2,0.3
		C13.4,32.8,14.9,37.5,18.2,41.1L18.2,41.1z M41.7,43c-0.1,0-0.1,0-0.2,0c-0.7,0-1.3-0.4-1.8-1l-4-5.6c-1-1.5-1.3-3.3-0.7-4.9
		c0-0.1,0.1-0.2,0.1-0.4c0.5-1.6,1.8-2.9,3.5-3.4l6.5-2.1c0.7-0.2,1.4-0.1,2,0.3c0.6,0.4,1,1,1,1.7c0.6,5.3-1.2,10.6-4.8,14.5l0,0
		C43,42.7,42.4,43,41.7,43z M45.9,27.7c0,0-0.1,0-0.1,0l-6.5,2.1c-1,0.3-1.8,1.1-2.1,2.1C37.1,32,37,32.1,37,32.3
		c-0.4,1-0.2,2.1,0.5,3l4,5.6c0.1,0.1,0.2,0.1,0.3,0.1c0.1,0,0.2,0,0.3-0.1l0,0c3.2-3.5,4.8-8.2,4.3-12.9c0-0.1-0.1-0.2-0.2-0.2
		C46.1,27.7,46,27.7,45.9,27.7z M30,34.7c-2.6,0-4.7-2.1-4.7-4.7s2.1-4.7,4.7-4.7s4.7,2.1,4.7,4.7S32.6,34.7,30,34.7z M30,27.3
		c-1.5,0-2.7,1.2-2.7,2.7c0,1.5,1.2,2.7,2.7,2.7c1.5,0,2.7-1.2,2.7-2.7C32.7,28.5,31.5,27.3,30,27.3z M36.4,26.8
		c-1.1,0-2.2-0.4-3.1-1c-0.1-0.1-0.2-0.2-0.3-0.2c-1.4-0.9-2.3-2.6-2.3-4.4v-6.9c0-0.7,0.3-1.4,0.9-1.8c0.5-0.4,1.3-0.6,1.9-0.5
		c5.2,1,9.7,4.3,12.4,9c0.3,0.6,0.4,1.3,0.1,2c-0.3,0.7-0.8,1.2-1.5,1.4l-6.5,2.1C37.6,26.7,37,26.8,36.4,26.8z M33.1,14
		c-0.1,0-0.2,0-0.2,0.1c0,0-0.1,0.1-0.1,0.3v6.9c0,1.1,0.5,2.1,1.4,2.7c0.1,0.1,0.3,0.2,0.4,0.3c0.8,0.6,1.9,0.8,2.9,0.4l6.5-2.1
		c0.1,0,0.2-0.1,0.2-0.2c0-0.1,0-0.2,0-0.3C41.9,17.8,37.9,14.9,33.1,14C33.2,14,33.2,14,33.1,14z M23.6,26.8
		c-0.6,0-1.1-0.1-1.7-0.3l-6.5-2.1c-0.7-0.2-1.2-0.7-1.5-1.4c-0.3-0.7-0.2-1.4,0.1-2l0,0c2.6-4.7,7.1-8,12.4-9
		c0.7-0.1,1.4,0,1.9,0.5c0.5,0.4,0.9,1.1,0.9,1.8v6.9c0,1.8-0.8,3.4-2.3,4.4c-0.1,0.1-0.2,0.1-0.3,0.2
		C25.8,26.4,24.7,26.8,23.6,26.8z M15.8,22c-0.1,0.1,0,0.2,0,0.3c0,0.1,0.1,0.2,0.2,0.2l6.5,2.1c1,0.3,2.1,0.2,2.9-0.4
		c0.1-0.1,0.3-0.2,0.4-0.3c0.9-0.6,1.4-1.6,1.4-2.7v-6.9c0-0.1-0.1-0.2-0.1-0.3c0,0-0.1-0.1-0.3-0.1C22.1,14.9,18.1,17.8,15.8,22
		L15.8,22z"/>
</g>
</svg>
