<?xml version="1.0" encoding="utf-8"?>
<!-- Generator: Adobe Illustrator 25.0.1, SVG Export Plug-In . SVG Version: 6.00 Build 0)  -->
<svg version="1.1" id="Layer_1" xmlns="http://www.w3.org/2000/svg" xmlns:xlink="http://www.w3.org/1999/xlink" x="0px" y="0px"
	 viewBox="0 0 60 60" style="enable-background:new 0 0 60 60;" xml:space="preserve">
<style type="text/css">
	.st0{fill:none;}
</style>
<g>
	<rect class="st0" width="60" height="60"/>
	<path d="M36,15.2V9.4c0-3.3-2.7-6-6-6s-6,2.7-6,6v5.8C15.3,17.8,8.9,25.9,8.9,35.5c0,11.6,9.5,21.1,21.1,21.1s21.1-9.5,21.1-21.1
		C51.1,25.9,44.7,17.8,36,15.2z M30,5.4c1.9,0,3.4,1.3,3.9,3h-7.7C26.6,6.7,28.1,5.4,30,5.4z M26,10.4h8v4.3c-1.3-0.2-2.6-0.4-4-0.4
		s-2.7,0.1-4,0.4V10.4z M30,54.6c-10.5,0-19.1-8.6-19.1-19.1S19.5,16.3,30,16.3s19.1,8.6,19.1,19.1S40.5,54.6,30,54.6z M30,22.6
		c0.6,0,1-0.4,1-1v-2.1c0-0.6-0.4-1-1-1s-1,0.4-1,1v2.1C29,22.1,29.4,22.6,30,22.6z M22.7,21.3c-0.2-0.4-0.7-0.5-1-0.3
		c-0.4,0.2-0.5,0.7-0.3,1l0.5,0.9c0.1,0.2,0.4,0.4,0.7,0.4c0.1,0,0.3,0,0.4-0.1c0.4-0.2,0.5-0.7,0.3-1L22.7,21.3z M15.9,35.5
		c0-0.4-0.3-0.8-0.8-0.8h-1.1c-0.4,0-0.8,0.3-0.8,0.8s0.3,0.8,0.8,0.8h1.1C15.5,36.2,15.9,35.9,15.9,35.5z M45.9,34.7h-1.1
		c-0.4,0-0.8,0.3-0.8,0.8s0.3,0.8,0.8,0.8h1.1c0.4,0,0.8-0.3,0.8-0.8S46.3,34.7,45.9,34.7z M38.3,21c-0.4-0.2-0.8-0.1-1,0.3
		l-0.5,0.9c-0.2,0.4-0.1,0.8,0.3,1c0.1,0.1,0.2,0.1,0.4,0.1c0.3,0,0.5-0.1,0.6-0.4l0.5-0.9C38.8,21.7,38.7,21.2,38.3,21z M18.5,27.7
		l-1.8-1c-0.5-0.3-1.1-0.1-1.4,0.4c-0.3,0.5-0.1,1.1,0.4,1.4l1.8,1c0.2,0.1,0.3,0.1,0.5,0.1c0.3,0,0.7-0.2,0.9-0.5
		C19.1,28.5,19,27.9,18.5,27.7z M44.3,42.6l-1.8-1c-0.5-0.3-1.1-0.1-1.4,0.4c-0.3,0.5-0.1,1.1,0.4,1.4l1.8,1
		c0.2,0.1,0.3,0.1,0.5,0.1c0.3,0,0.7-0.2,0.9-0.5C44.9,43.4,44.8,42.8,44.3,42.6z M17.5,41.5l-1.8,1c-0.5,0.3-0.6,0.9-0.4,1.4
		c0.2,0.3,0.5,0.5,0.9,0.5c0.2,0,0.3,0,0.5-0.1l1.8-1c0.5-0.3,0.6-0.9,0.4-1.4C18.6,41.4,18,41.2,17.5,41.5z M42,29.5
		c0.2,0,0.3,0,0.5-0.1l1.8-1c0.5-0.3,0.6-0.9,0.4-1.4c-0.3-0.5-0.9-0.6-1.4-0.4l-1.8,1c-0.5,0.3-0.6,0.9-0.4,1.4
		C41.3,29.3,41.7,29.5,42,29.5z M36,25.9c-0.5-0.3-1.1-0.1-1.4,0.4l-3.8,7c-1.6-0.3-3.3,0.4-4.1,1.9c-0.8,1.5-0.5,3.4,0.7,4.5
		l-1.3,2.4c-0.3,0.5-0.1,1.1,0.4,1.4c0.2,0.1,0.3,0.1,0.5,0.1c0.4,0,0.7-0.2,0.9-0.5l1.3-2.4c1.6,0.3,3.3-0.4,4.1-1.9
		c0.8-1.5,0.5-3.4-0.7-4.5l3.8-7C36.7,26.8,36.5,26.2,36,25.9z"/>
</g>
</svg>
