<?xml version="1.0" encoding="utf-8"?>
<!-- Generator: Adobe Illustrator 25.0.1, SVG Export Plug-In . SVG Version: 6.00 Build 0)  -->
<svg version="1.1" id="Layer_1" xmlns="http://www.w3.org/2000/svg" xmlns:xlink="http://www.w3.org/1999/xlink" x="0px" y="0px"
	 viewBox="0 0 60 60" style="enable-background:new 0 0 60 60;" xml:space="preserve">
<g>
	<g>
	</g>
	<path d="M14.2,28.2h6.7v5.5h1.8v-5.5h6.7v-1.5H14.2V28.2z M27.2,18H16.4v6.8h10.9V18z M25.5,23.3h-7.3v-3.8h7.3V23.3z M33.3,24.2
		c0.6-0.5,1.1-1.1,1.2-1.4h0c0.1,0.3,0.5,0.7,1,1.1c0.9,0.7,1.7,1.4,2.6,2.1l1-1.2c-1.1-0.8-2.1-1.6-2.9-2.4
		c-0.9-0.8-0.9-1.4-0.9-2.5v-2.1h-1.8v2.2c0,1.3-0.3,1.9-1.2,2.9c-0.6,0.6-1.7,1.6-2.9,2.5l1.1,1.3C31.5,25.8,32.5,24.9,33.3,24.2z
		 M42.7,17h-1.8v9.8h1.8v-4.2h2.4V21h-2.4V17z M32.8,30.2v0.7c0,1.7,1.9,3.2,5,3.2c3.1,0,5-1.4,5-3.2v-0.7c0-1.7-1.9-3.2-5-3.2
		C34.6,27,32.8,28.5,32.8,30.2z M41,30.3v0.5c0,0.9-1.3,1.8-3.3,1.8c-2,0-3.3-0.9-3.3-1.8v-0.5c0-0.9,1.3-1.8,3.3-1.8
		C39.8,28.5,41,29.4,41,30.3z M19.5,40.9L19.5,40.9c0.1,0.3,0.5,0.6,1,1.1c0.9,0.7,1.6,1.3,2.6,2l1-1.3c-1.1-0.7-2-1.4-2.8-2.2
		c-0.8-0.7-0.9-1.3-0.9-2.5v-0.5h3.3V36h-8.6v1.5h3.5v0.5c0,1.3-0.3,2-1.2,2.9c-0.6,0.6-1.7,1.4-2.9,2.3l1,1.3c1-0.7,2-1.5,2.8-2.1
		C18.9,41.8,19.4,41.2,19.5,40.9z M17.7,51.6H28v-6.4H17.7V51.6z M19.4,46.7h6.9v3.4h-6.9V46.7z M26.3,38.9h-3v1.5h3v3.9H28V35h-1.8
		V38.9z M41.8,39H38c0-0.1,0-0.3,0-0.4V36h-7.1v1.5h5.3v0.9c0,1.9-0.9,2.8-6,4.9l0.7,1.4c4.1-1.7,6-2.8,6.7-4.2h4.2v3.9h1.8V35h-1.8
		V39z M33.2,51.6h10.4v-6.4H33.2V51.6z M34.9,46.7h6.8v3.4h-6.8V46.7z M55.1,17.1l-6.3-6.3C49.4,9,49,6.9,47.6,5.5
		C46.1,4,44,3.6,42.2,4.3c-0.3,0.1-0.3,0.4-0.1,0.6l3,3C45,8.5,44.7,9,44.3,9.5s-1,0.7-1.6,0.7l-3-3c-0.2-0.2-0.5-0.1-0.6,0.1
		c-0.7,1.8-0.3,3.9,1.2,5.4c1.5,1.5,3.6,1.9,5.4,1.2l6.2,6.2c0.9,0.9,2.3,0.9,3.1,0.1C55.9,19.5,56,18,55.1,17.1z"/>
</g>
</svg>
