<?xml version="1.0" encoding="utf-8"?>
<!-- Generator: Adobe Illustrator 25.0.1, SVG Export Plug-In . SVG Version: 6.00 Build 0)  -->
<svg version="1.1" id="Layer_1" xmlns="http://www.w3.org/2000/svg" xmlns:xlink="http://www.w3.org/1999/xlink" x="0px" y="0px"
	 viewBox="0 0 60 60" style="enable-background:new 0 0 60 60;" xml:space="preserve">
<style type="text/css">
	.st0{fill:none;}
</style>
<g>
	<rect class="st0" width="60" height="60"/>
	<path d="M43.2,42l10-10l-8.1-8.1L43,26.1l-0.4-0.4c-0.7-0.7-1.7-1.1-2.7-1.1v0h-6.7v-3.2l1.2-2.7c1.9-0.9,3.2-2.8,3.2-5
		c0,0,0,0,0-0.1h3v-2h-3.4c-0.8-2-2.8-3.4-5.1-3.4c-3,0-5.5,2.5-5.5,5.5c0,1.4,0.5,2.7,1.4,3.6H17.8l-5,9.4c-0.7,1.2-0.2,2.8,1,3.5
		c1.2,0.7,2.8,0.2,3.5-1l3.4-6.1h1.8L19.4,30v7.7h-8.2v6h14.5v-6.9l3.7,3.8v11.1H36v-14l-6.9-7.4l0.1-0.2h7.3c0.2,0.4,0.4,0.7,0.7,1
		l0.4,0.4l-2.5,2.5L43.2,42z M50.4,32l-7.2,7.2L38,33.9l7.2-7.2L50.4,32z M35.5,13.8c0,1.9-1.6,3.5-3.5,3.5s-3.5-1.6-3.5-3.5
		c0,0,0,0,0-0.1L35.5,13.8C35.5,13.8,35.5,13.8,35.5,13.8z M32,10.3c1.1,0,2.2,0.6,2.8,1.4h-5.6C29.9,10.9,30.9,10.3,32,10.3z
		 M34,38.5v11.2h-2.5v-9.9L23.7,32v9.7H13.2v-2h8.2v-9.3l4.3-9.2h-6.1l-4,7.1c-0.2,0.3-0.5,0.4-0.8,0.2c-0.3-0.2-0.4-0.5-0.2-0.8
		l4.5-8.3h12.8l-5.1,11.2L34,38.5z M31.1,25.8v0.8h5.4c-0.2,0.4-0.4,0.9-0.4,1.5h-6L31.1,25.8z M38.6,29.7c-0.3-0.3-0.5-0.8-0.5-1.3
		c0-0.5,0.2-0.9,0.5-1.3c0.7-0.7,1.8-0.7,2.5,0l0.4,0.4L39,30.1L38.6,29.7z"/>
</g>
</svg>
