<?xml version="1.0" encoding="utf-8"?>
<!-- Generator: Adobe Illustrator 25.0.1, SVG Export Plug-In . SVG Version: 6.00 Build 0)  -->
<svg version="1.1" id="Layer_1" xmlns="http://www.w3.org/2000/svg" xmlns:xlink="http://www.w3.org/1999/xlink" x="0px" y="0px"
	 viewBox="0 0 60 60" style="enable-background:new 0 0 60 60;" xml:space="preserve">
<style type="text/css">
	.st0{fill:none;}
</style>
<g>
	<rect class="st0" width="60" height="60"/>
	<path d="M37.9,23.3c-0.3,0-0.6,0-0.9,0c0-0.3,0-0.6,0-0.9c0-7.9-6.4-14.3-14.3-14.3S8.3,14.5,8.3,22.4c0,7.9,6.4,14.3,14.3,14.3
		c0.3,0,0.6,0,0.9,0c0,0.3,0,0.6,0,0.9c0,7.9,6.4,14.3,14.3,14.3s14.3-6.4,14.3-14.3S45.8,23.3,37.9,23.3z M22.7,35.2
		c-7.1,0-12.8-5.8-12.8-12.8c0-7.1,5.8-12.8,12.8-12.8s12.8,5.8,12.8,12.8c0,0.4,0,0.7-0.1,1.1c-1.6,0.3-3.1,0.8-4.4,1.5
		c0.3-0.8,0.4-1.7,0.4-2.6c0-4.8-3.9-8.8-8.8-8.8s-8.8,3.9-8.8,8.8c0,4.8,3.9,8.8,8.8,8.8c0.9,0,1.8-0.2,2.6-0.4
		c-0.7,1.4-1.3,2.9-1.5,4.4C23.4,35.2,23,35.2,22.7,35.2z M19.1,19.8c-0.4,0.5-0.6,1.1-0.7,1.8h-2.9c0.1-1.4,0.7-2.8,1.6-3.8
		L19.1,19.8z M18.1,16.8c1.1-0.9,2.4-1.4,3.8-1.6V18c-0.7,0.1-1.3,0.4-1.8,0.7L18.1,16.8z M18.3,23.1c0.1,0.7,0.4,1.3,0.7,1.8l-2,2
		c-0.9-1.1-1.4-2.4-1.6-3.8H18.3z M20.1,26c0.5,0.4,1.1,0.6,1.8,0.7v2.9c-1.4-0.1-2.8-0.7-3.8-1.6L20.1,26z M19.7,22.4
		c0-1.6,1.3-2.9,2.9-2.9c1.6,0,2.9,1.3,2.9,2.9c0,1.6-1.3,2.9-2.9,2.9C21.1,25.3,19.7,24,19.7,22.4z M25.2,18.8
		c-0.5-0.4-1.1-0.6-1.8-0.7v-2.9c1.4,0.1,2.8,0.7,3.8,1.6L25.2,18.8z M28.3,17.8c0.9,1.1,1.4,2.4,1.6,3.8H27
		c-0.1-0.7-0.4-1.3-0.7-1.8L28.3,17.8z M23.4,26.8c0.7-0.1,1.3-0.4,1.8-0.7l2,2c-1.1,0.9-2.4,1.4-3.8,1.6V26.8z M26.3,25
		c0.4-0.5,0.6-1.1,0.7-1.8h2.9c-0.1,1.4-0.7,2.8-1.6,3.8L26.3,25z M49.8,32.9l-1,0.3l0.5,1.4l1-0.3c0.2,0.8,0.3,1.6,0.4,2.5h-1.1
		v1.5h1.1c0,0.9-0.2,1.7-0.4,2.5l-1-0.3l-0.5,1.4l1,0.3c-0.3,0.8-0.7,1.5-1.1,2.2l-0.9-0.6l-0.9,1.2l0.9,0.6
		c-0.5,0.7-1.1,1.3-1.8,1.8l-0.6-0.9l-1.2,0.9l0.6,0.9c-0.7,0.5-1.5,0.8-2.2,1.1l-0.3-1L40.8,49l0.3,1c-0.8,0.2-1.6,0.3-2.5,0.4
		v-1.1h-1.5v1.1c-0.9,0-1.7-0.2-2.5-0.4l0.3-1l-1.4-0.5l-0.3,1c-0.8-0.3-1.5-0.7-2.2-1.1l0.6-0.9l-1.2-0.9l-0.6,0.9
		c-0.7-0.5-1.2-1.1-1.8-1.8l0.9-0.6L28,43.9l-0.9,0.6c-0.5-0.7-0.8-1.5-1.1-2.2l1-0.3l-0.5-1.4l-1,0.3c-0.2-0.8-0.3-1.6-0.4-2.5h1.1
		v-1.5h-1.1c0-0.9,0.2-1.7,0.4-2.5l1,0.3l0.5-1.4l-1-0.3c0.3-0.8,0.7-1.5,1.1-2.2l0.9,0.6l0.9-1.2L28,29.5c0.5-0.7,1.1-1.3,1.8-1.8
		l0.6,0.9l1.2-0.9L31,26.8c0.7-0.5,1.5-0.8,2.2-1.1l0.3,1l1.4-0.5l-0.3-1c0.8-0.2,1.6-0.3,2.5-0.4v1.1h1.5v-1.1
		c0.9,0,1.7,0.2,2.5,0.4l-0.3,1l1.4,0.5l0.3-1c0.8,0.3,1.5,0.7,2.2,1.1l-0.6,0.9l1.2,0.9l0.6-0.9c0.7,0.5,1.3,1.1,1.8,1.8l-0.9,0.6
		l0.9,1.2l0.9-0.6C49.1,31.4,49.5,32.1,49.8,32.9z M37.9,28.8c-4.8,0-8.8,3.9-8.8,8.8c0,4.8,3.9,8.8,8.8,8.8s8.8-3.9,8.8-8.8
		C46.7,32.8,42.7,28.8,37.9,28.8z M38.6,30.4c1.4,0.1,2.8,0.7,3.8,1.6l-2,2c-0.5-0.4-1.1-0.6-1.8-0.7V30.4z M37.1,30.4v2.9
		c-0.7,0.1-1.3,0.4-1.8,0.7l-2-2C34.4,31.1,35.7,30.5,37.1,30.4z M32.3,33l2,2c-0.4,0.5-0.6,1.1-0.7,1.8h-2.9
		C30.8,35.4,31.4,34.1,32.3,33z M30.7,38.4h2.9c0.1,0.7,0.4,1.3,0.7,1.8l-2,2C31.4,41.1,30.8,39.8,30.7,38.4z M37.1,44.8
		c-1.4-0.1-2.8-0.7-3.8-1.6l2-2c0.5,0.4,1.1,0.6,1.8,0.7V44.8z M34.9,37.6c0-1.6,1.3-2.9,2.9-2.9c1.6,0,2.9,1.3,2.9,2.9
		s-1.3,2.9-2.9,2.9C36.3,40.6,34.9,39.2,34.9,37.6z M38.6,44.8V42c0.7-0.1,1.3-0.4,1.8-0.7l2,2C41.4,44.1,40.1,44.7,38.6,44.8z
		 M43.5,42.2l-2-2c0.4-0.5,0.6-1.1,0.7-1.8h2.9C45,39.8,44.4,41.1,43.5,42.2z M42.3,36.9c-0.1-0.7-0.4-1.3-0.7-1.8l2-2
		c0.9,1.1,1.4,2.4,1.6,3.8H42.3z M47.1,18.6l-2.9-1.7l-1,1.7l5.9,3.5l3.4-5.7l-1.7-1L49,18.1c-0.9-5.6-5.6-10-11.4-10.3l-0.1,2
		C42.5,10.1,46.4,13.9,47.1,18.6z M15.5,46.8c-1.4-1.5-2.2-3.4-2.5-5.4l2.9,1.7l1-1.7L11,37.9l-3.4,5.7l1.7,1l1.6-2.7
		c0.4,2.3,1.4,4.5,3,6.2c2.2,2.4,5.2,3.9,8.4,4l0.1-2C19.8,50,17.3,48.9,15.5,46.8z"/>
</g>
</svg>
