<?xml version="1.0" encoding="utf-8"?>
<!-- Generator: Adobe Illustrator 25.0.1, SVG Export Plug-In . SVG Version: 6.00 Build 0)  -->
<svg version="1.1" id="Layer_1" xmlns="http://www.w3.org/2000/svg" xmlns:xlink="http://www.w3.org/1999/xlink" x="0px" y="0px"
	 viewBox="0 0 60 60" style="enable-background:new 0 0 60 60;" xml:space="preserve">
<style type="text/css">
	.st0{fill:none;}
</style>
<g>
	<g>
		<rect class="st0" width="60" height="60"/>
	</g>
	<path d="M22,40.2c-2.7-2.7-4.1-6.3-4.1-10.2c0-3.8,1.5-7.4,4.1-10.2l0.7-0.7L15,11.4L14.3,12c-9.8,9.9-9.8,26,0,35.9l0.7,0.7
		l7.7-7.8L22,40.2z M15,45.9c-8.1-8.9-8.1-22.8,0-31.7l5,5.1c-2.6,3-4,6.8-4,10.8c0,4,1.4,7.8,4,10.8L15,45.9z M32.3,41.7
		c6.4,0,11.5-5.2,11.5-11.7c0-6.5-5.2-11.7-11.5-11.7c-6.4,0-11.5,5.2-11.5,11.7C20.8,36.5,25.9,41.7,32.3,41.7z M32.3,20.2
		c5.3,0,9.6,4.4,9.6,9.8c0,5.4-4.3,9.8-9.6,9.8c-5.3,0-9.6-4.4-9.6-9.8C22.7,24.6,27,20.2,32.3,20.2z M32.3,33.9
		c2.1,0,3.8-1.7,3.8-3.9c0-2.2-1.7-3.9-3.8-3.9c-2.1,0-3.8,1.7-3.8,3.9C28.5,32.2,30.2,33.9,32.3,33.9z M32.3,28
		c1.1,0,1.9,0.9,1.9,2c0,1.1-0.9,2-1.9,2c-1.1,0-1.9-0.9-1.9-2C30.4,28.9,31.3,28,32.3,28z M32.3,24.6c0.5,0,1-0.4,1-1
		c0-0.5-0.4-1-1-1c-0.5,0-1,0.4-1,1C31.4,24.2,31.8,24.6,32.3,24.6z M32.3,35.4c-0.5,0-1,0.4-1,1c0,0.5,0.4,1,1,1c0.5,0,1-0.4,1-1
		C33.3,35.8,32.8,35.4,32.3,35.4z M38.6,31c0.5,0,1-0.4,1-1c0-0.5-0.4-1-1-1c-0.5,0-1,0.4-1,1C37.6,30.5,38,31,38.6,31z M26.1,31
		c0.5,0,1-0.4,1-1c0-0.5-0.4-1-1-1c-0.5,0-1,0.4-1,1C25.1,30.5,25.5,31,26.1,31z M32.3,9c-4.8,0-9.3,1.7-12.8,4.5l1.4,1.4
		c3.2-2.5,7.1-4,11.5-4c10.3,0,18.8,8.5,18.8,19c0,10.5-8.4,19-18.8,19c-4.3,0-8.2-1.5-11.4-3.9l-1.4,1.4c3.5,2.8,7.9,4.5,12.7,4.5
		C43.7,51,53,41.6,53,30C53,18.4,43.7,9,32.3,9z"/>
</g>
</svg>
