<?xml version="1.0" encoding="utf-8"?>
<!-- Generator: Adobe Illustrator 25.0.1, SVG Export Plug-In . SVG Version: 6.00 Build 0)  -->
<svg version="1.1" id="Layer_1" xmlns="http://www.w3.org/2000/svg" xmlns:xlink="http://www.w3.org/1999/xlink" x="0px" y="0px"
	 viewBox="0 0 60 60" style="enable-background:new 0 0 60 60;" xml:space="preserve">
<style type="text/css">
	.st0{fill:none;}
</style>
<g>
	<g>
		<g>
			<rect class="st0" width="60" height="60"/>
		</g>
	</g>
	<path d="M54.7,19.5c-5.9-3.6-12.6-6-20-6.7c-10.7-1.1-21,1.5-29.5,6.7l0,0L5,19.6l7.5,19.9l0.4-0.2l0,0c3.9-1.6,8.1-2.7,12.4-3.1
		l2.5,6.1c-0.5,0.6-0.9,1.3-0.9,2.1c0,1.7,1.4,3.1,3.1,3.1c1.7,0,3.1-1.4,3.1-3.1c0-1.7-1.4-3.1-3.1-3.1c-0.1,0-0.2,0-0.2,0
		l-2.2-5.3c1.8-0.1,3.7-0.1,5.6,0c4.9,0.3,10,0.9,14.3,2.7l0.4,0.1l1.2,0.5L55,19.6L54.7,19.5z M30.9,44.4c0,0.5-0.4,0.9-0.9,0.9
		c-0.5,0-0.9-0.4-0.9-0.9c0-0.5,0.4-0.9,0.9-0.9C30.5,43.5,30.9,43.9,30.9,44.4z M47.8,36.6c-4.4-1.7-9.5-2.3-14.5-2.7
		c-2.2-0.2-4.4-0.1-6.6,0l-4.1-10c-0.2-0.6-0.9-0.8-1.4-0.6c-0.6,0.2-0.9,0.9-0.6,1.4l3.8,9.4c-3.7,0.5-7.4,1.3-10.8,2.6L7.8,20.5
		c7.8-4.4,17.1-6.6,26.7-5.6c6.5,0.7,12.4,2.7,17.7,5.7L47.8,36.6z"/>
</g>
</svg>
