<?xml version="1.0" encoding="utf-8"?>
<!-- Generator: Adobe Illustrator 25.0.1, SVG Export Plug-In . SVG Version: 6.00 Build 0)  -->
<svg version="1.1" id="Layer_1" xmlns="http://www.w3.org/2000/svg" xmlns:xlink="http://www.w3.org/1999/xlink" x="0px" y="0px"
	 viewBox="0 0 60 60" style="enable-background:new 0 0 60 60;" xml:space="preserve">
<style type="text/css">
	.st0{fill:none;}
</style>
<g>
	<rect class="st0" width="60" height="60"/>
	<path d="M21.4,40.2c-0.2-0.7-0.8-1.3-1.5-1.5L19,38.4c-0.7-0.2-1.5,0-2,0.5l-0.7,0.7c-0.5,0.5-0.7,1.3-0.5,2l0.2,0.9
		c0.2,0.7,0.8,1.3,1.5,1.5l0.9,0.2c0.2,0,0.4,0.1,0.5,0.1c0.5,0,1.1-0.2,1.5-0.6l0.7-0.7c0.5-0.5,0.7-1.3,0.5-2L21.4,40.2z
		 M19.7,41.7l-0.8,0.7l-1-0.3l-0.2-1l0.8-0.7l1,0.3L19.7,41.7C19.7,41.6,19.7,41.7,19.7,41.7z M39,25c0.1-0.1,0.4-0.2,0.6-0.1
		c1.5,0.5,3.1,0.3,4.6-0.4c0.5-0.3,1.1-0.7,1.7-1.4c0.6-0.7,1.1-1.5,1.5-2.4l0.2-0.4c0.3-0.6,0.1-1.3-0.3-1.7
		c-0.5-0.5-1.2-0.6-1.8-0.3l-4,2c-0.2-0.1-0.5-0.4-0.7-1s-0.3-1-0.3-1.2l4-2c0.6-0.3,0.9-0.9,0.8-1.6c-0.1-0.7-0.6-1.2-1.2-1.3
		L42.5,13c-1.4-0.3-2.9,0-4.2,0.7c-2.1,1.2-3.3,3.5-3.1,6c0.1,0.7-0.2,1.3-0.6,1.7l-6,6l-6-6v-4.7L16,12l-3.7,3.7l4,7.1h5l6,6
		l-5.8,5.8c-0.5,0.5-1.2,0.8-2,0.7c-2.4-0.3-4.6,0.7-6,2.8c-1.3,2-1.3,4.7,0,6.7c1,1.6,2.7,2.6,4.5,2.8c0.2,0,0.4,0,0.6,0
		c1.6,0,3.2-0.6,4.3-1.8c1.4-1.4,2-3.3,1.7-5.2c-0.1-0.7,0.2-1.4,0.7-1.9l3.2-3.2L41.3,48h2.3c2.3,0,4.1-1.9,4.1-4.1v-2.6L35.2,28.7
		L39,25z M20.7,20.8h-3.2L14.8,16l1.5-1.5l4.4,3.1V20.8z M24,37.1c-0.9,1-1.4,2.3-1.2,3.6c0.2,1.3-0.3,2.6-1.2,3.5
		c-0.9,0.9-2.1,1.3-3.4,1.2c-1.3-0.1-2.4-0.8-3.1-1.9c-0.9-1.3-0.9-3.1,0-4.5c0.8-1.2,2.1-1.9,3.5-1.9c0.2,0,0.4,0,0.5,0
		c1.4,0.2,2.7-0.3,3.7-1.2l4.3-4.3v2.3l0,0L24,37.1z M36.1,22.8c0.9-0.9,1.3-2.1,1.2-3.4c-0.2-1.6,0.6-3.2,2.1-4
		c0.9-0.5,1.9-0.7,2.8-0.5l0.1,0l-3,1.5c-1.1,0.5-1.2,2.1-0.4,3.8c0.3,0.6,0.8,1.2,1.2,1.6c0.7,0.5,1.4,0.7,2,0.4l2.9-1.5
		c-0.2,0.4-0.5,0.7-0.8,1.1c-0.6,0.6-0.9,0.9-1.1,0.9c-1,0.5-2.1,0.6-3.1,0.3c-0.9-0.3-1.9,0-2.6,0.6l-3.8,3.8h-2.3L36.1,22.8z
		 M45.7,42.1v1.8c0,1.2-1,2.1-2.1,2.1h-1.4L30,33.9l-0.8-0.8v-1.9l1.8-1.8h2.1l0.7,0.7L45.7,42.1z M32.4,31.6
		c-0.3-0.1-0.6,0-0.9,0.3s-0.3,0.6-0.3,0.9c0,0.2,0.1,0.4,0.3,0.5l10.6,10.6c0.2,0.2,0.5,0.3,0.7,0.3s0.5-0.1,0.7-0.3
		c0.4-0.4,0.4-1,0-1.4L32.9,31.8C32.8,31.7,32.6,31.6,32.4,31.6z"/>
</g>
</svg>
