<?xml version="1.0" encoding="utf-8"?>
<!-- Generator: Adobe Illustrator 25.0.1, SVG Export Plug-In . SVG Version: 6.00 Build 0)  -->
<svg version="1.1" id="Layer_1" xmlns="http://www.w3.org/2000/svg" xmlns:xlink="http://www.w3.org/1999/xlink" x="0px" y="0px"
	 viewBox="0 0 60 60" style="enable-background:new 0 0 60 60;" xml:space="preserve">
<style type="text/css">
	.st0{fill:none;}
</style>
<g>
	<g>
		<g>
			<rect class="st0" width="60" height="60"/>
		</g>
	</g>
	<path d="M48.1,31.6l0.1-0.1c0.9-0.4,1.5-1.4,1.5-2.4c0-0.7-0.3-1.4-0.8-1.9c-0.5-0.5-1.2-0.8-1.9-0.8c-0.7,0-1.5,0-1.7,0l-3-6
		c-0.6-1.3-1.9-2-3.3-2H20.2c-1.5,0-2.8,0.9-3.4,2.3l-2.4,5.7c-0.4,0-0.9,0-1.5,0c-0.7,0-1.4,0.3-1.9,0.8c-0.5,0.5-0.8,1.2-0.8,1.9
		c0,1,0.6,2,1.5,2.4l0.1,0.1l-0.3,0.5c-0.9,1.5-1.4,3.2-1.4,4.9v10.4c0,1.9,1.5,3.4,3.4,3.4H16c1.9,0,3.4-1.5,3.4-3.4v-2h21.2v2
		c0,1.9,1.5,3.4,3.4,3.4h2.4c1.9,0,3.4-1.5,3.4-3.4V37c0-1.7-0.5-3.4-1.4-4.9L48.1,31.6z M46,26.9l-0.4,0.2l0,0L46,26.9z M18.6,21.5
		c0.3-0.6,0.9-1,1.6-1H39c0.6,0,1.2,0.4,1.5,0.9l3.9,7.8h-29L18.6,21.5z M12.5,28.7c0.1-0.1,0.3-0.2,0.5-0.2h0c0.2,0,0.4,0,0.6,0
		l-0.5,1.2L13,29.9l-0.3-0.1c-0.2-0.1-0.4-0.3-0.4-0.6C12.3,29,12.4,28.8,12.5,28.7z M17.4,47.4c0,0.8-0.6,1.4-1.4,1.4h-2.4
		c-0.8,0-1.4-0.6-1.4-1.4v-2h5.1V47.4z M47.7,47.4c0,0.8-0.6,1.4-1.4,1.4H44c-0.8,0-1.4-0.6-1.4-1.4v-2h5.1V47.4z M47.7,43.4H12.3
		V37c0-1.4,0.4-2.7,1.1-3.9l1.2-2h31l1.2,2c0.7,1.2,1.1,2.5,1.1,3.9V43.4z M47.3,29.7L47,29.9l-0.1-0.2l-0.6-1.2c0.2,0,0.5,0,0.8,0
		h0c0.2,0,0.3,0.1,0.5,0.2c0.1,0.1,0.2,0.3,0.2,0.5C47.7,29.4,47.6,29.6,47.3,29.7z M16.6,36.3c-1.5,0-2.8,1.2-2.8,2.8
		s1.2,2.8,2.8,2.8s2.8-1.2,2.8-2.8S18.2,36.3,16.6,36.3z M16.6,39.9c-0.4,0-0.8-0.4-0.8-0.8s0.4-0.8,0.8-0.8s0.8,0.4,0.8,0.8
		S17.1,39.9,16.6,39.9z M43.4,36.3c-1.5,0-2.8,1.2-2.8,2.8s1.2,2.8,2.8,2.8s2.8-1.2,2.8-2.8S44.9,36.3,43.4,36.3z M43.4,39.9
		c-0.4,0-0.8-0.4-0.8-0.8s0.4-0.8,0.8-0.8s0.8,0.4,0.8,0.8S43.8,39.9,43.4,39.9z M34.9,36.3h-9.8c-0.6,0-1,0.4-1,1s0.4,1,1,1h9.8
		c0.6,0,1-0.4,1-1S35.5,36.3,34.9,36.3z M34.9,39.9h-9.8c-0.6,0-1,0.4-1,1s0.4,1,1,1h9.8c0.6,0,1-0.4,1-1S35.5,39.9,34.9,39.9z
		 M20.1,15.7c1,0,2-0.5,2.6-1.3c0.4-0.5,1-0.8,1.7-0.8h12.1c0.4,0,0.7,0.2,0.9,0.5c0.4,0.7,1,1.3,1.9,1.6c0.7,0.2,1.5,0.2,2.1,0l0,0
		l0,0c0,0,0,0,0,0l0.8-0.3c0.3-0.1,0.3-0.5,0-0.6l-2.8-0.9c-0.3-0.1-0.4-0.8-0.2-1.5c0.2-0.7,0.7-1.2,1-1.1l2.8,0.9
		c0.3,0.1,0.6-0.2,0.4-0.5l-0.5-0.8l0,0c-0.4-0.6-1-1.1-1.8-1.3c-1.3-0.3-2.6,0.1-3.4,1.1c-0.4,0.5-0.9,0.7-1.5,0.7H24.3
		c-0.6,0-1.3-0.3-1.7-0.8C22,9.7,21,9.1,19.8,9.2c-1.6,0.1-2.9,1.4-3,3C16.7,14.1,18.2,15.7,20.1,15.7z M18.5,12l0.4-0.7
		c0.2-0.3,0.5-0.5,0.8-0.5h0.8c0.3,0,0.6,0.2,0.8,0.5l0.4,0.7c0.2,0.3,0.2,0.6,0,0.9l-0.4,0.7c-0.2,0.3-0.5,0.5-0.8,0.5h-0.8
		c-0.3,0-0.6-0.2-0.8-0.5l-0.4-0.7C18.3,12.7,18.3,12.3,18.5,12z"/>
</g>
</svg>
