<?xml version="1.0" encoding="utf-8"?>
<!-- Generator: Adobe Illustrator 25.0.1, SVG Export Plug-In . SVG Version: 6.00 Build 0)  -->
<svg version="1.1" id="Layer_1" xmlns="http://www.w3.org/2000/svg" xmlns:xlink="http://www.w3.org/1999/xlink" x="0px" y="0px"
	 viewBox="0 0 60 60" style="enable-background:new 0 0 60 60;" xml:space="preserve">
<style type="text/css">
	.st0{fill:none;}
</style>
<g>
	<rect class="st0" width="60" height="60"/>
	<path d="M25.4,22.2c-6.8,0-12.4,5.6-12.4,12.4S18.6,47,25.4,47c6.8,0,12.4-5.6,12.4-12.4S32.2,22.2,25.4,22.2z M27,26.6
		c2.4,0.5,4.4,2,5.5,4c0.2,0.4,0,0.9-0.5,1.1l-4,1.2c-0.9,0.3-1.8-0.4-1.9-1.4l-0.1-4.1C26.1,26.8,26.5,26.5,27,26.6z M18.3,30.6
		c1.1-2,3.2-3.5,5.5-4c0.5-0.1,0.9,0.3,0.9,0.8l-0.1,4.1c0,1-1,1.6-1.9,1.4l-3.9-1.2C18.3,31.5,18,31,18.3,30.6z M19.4,40.1
		c-1.3-1.5-2.2-3.4-2.2-5.5c0-0.3,0-0.6,0.1-1c0.1-0.5,0.5-0.8,1-0.6l3.8,1.4c0.9,0.3,1.2,1.4,0.7,2.2L20.6,40
		C20.3,40.4,19.7,40.4,19.4,40.1z M28.8,42c-1,0.5-2.2,0.8-3.4,0.8c-1.2,0-2.4-0.3-3.4-0.8c-0.4-0.2-0.5-0.8-0.3-1.1l2.5-3.3
		c0.6-0.8,1.7-0.8,2.3,0l2.5,3.3C29.4,41.2,29.3,41.8,28.8,42z M31.4,40.1c-0.3,0.3-0.9,0.3-1.2-0.1L28,36.6
		c-0.5-0.8-0.2-1.9,0.7-2.2l3.8-1.4c0.4-0.2,0.9,0.1,1,0.6c0,0.3,0.1,0.6,0.1,1C33.6,36.7,32.8,38.6,31.4,40.1z M45.1,4.9
		c-5.2,0-9.5,4-10,9.1H4.9v41h41V24.9c5.1-0.4,9.2-4.7,9.2-10C55.1,9.4,50.6,4.9,45.1,4.9z M43.9,53.1h-37v-37h28.3
		c0.5,4.6,4.2,8.2,8.7,8.8V53.1z M45.1,22.9c-4.4,0-8-3.6-8-8s3.6-8,8-8s8,3.6,8,8S49.5,22.9,45.1,22.9z M49.6,13.9h-3.5v-3.5
		c0-0.6-0.4-1-1-1s-1,0.4-1,1v3.5h-3.5c-0.6,0-1,0.4-1,1s0.4,1,1,1h3.5v3.5c0,0.6,0.4,1,1,1s1-0.4,1-1v-3.5h3.5c0.6,0,1-0.4,1-1
		S50.1,13.9,49.6,13.9z"/>
</g>
</svg>
