<?xml version="1.0" encoding="utf-8"?>
<!-- Generator: Adobe Illustrator 24.2.1, SVG Export Plug-In . SVG Version: 6.00 Build 0)  -->
<svg version="1.1" id="Layer_1" xmlns="http://www.w3.org/2000/svg" xmlns:xlink="http://www.w3.org/1999/xlink" x="0px" y="0px"
	 viewBox="0 0 60 60" style="enable-background:new 0 0 60 60;" xml:space="preserve">
<style type="text/css">
	.st0{fill:none;}
</style>
<g>
	<g>
		<rect x="0" y="0" class="st0" width="60" height="60"/>
	</g>
	<path d="M30,20c-5.5,0-10,4.5-10,10c0,5.5,4.5,10,10,10c5.5,0,10-4.5,10-10C40,24.5,35.5,20,30,20z M30,36c-3.3,0-6-2.7-6-6
		s2.7-6,6-6s6,2.7,6,6S33.3,36,30,36z M52.2,34.5L48.9,32c0.1-0.7,0.1-1.3,0.1-2c0-0.6,0-1.3-0.1-2l3.3-2.5c1.6-1.2,2.1-3.4,1.1-5.2
		L50,14.7c-1-1.7-3.2-2.5-5-1.7l-3.8,1.6c-1.1-0.8-2.2-1.4-3.4-2l-0.5-4.2c-0.2-2-2-3.5-4-3.5h-6.5c-2,0-3.7,1.5-4,3.5l-0.5,4.2
		c-1.2,0.5-2.4,1.2-3.4,2L15,13c-1.9-0.8-4-0.1-5,1.7l-3.2,5.6c-1,1.7-0.6,4,1,5.2l3.3,2.5C11,28.7,11,29.4,11,30s0,1.3,0.1,2
		l-3.3,2.5c-1.6,1.2-2.1,3.4-1.1,5.2l3.2,5.6c1,1.7,3.2,2.5,5,1.7l3.8-1.6c1.1,0.8,2.2,1.4,3.4,2l0.5,4.2c0.2,2,2,3.5,4,3.5h6.5
		c2,0,3.7-1.5,4-3.5l0.5-4.2c1.2-0.5,2.4-1.2,3.4-2L45,47c1.9,0.8,4,0.1,5-1.7l3.2-5.6C54.3,38,53.8,35.7,52.2,34.5z M46.6,43.3
		l-6-2.5l-0.9,0.8c-1.3,1.1-2.8,1.9-4.4,2.5L34,44.5L33.2,51h-6.5L26,44.5l-1.1-0.4c-1.6-0.6-3.1-1.5-4.4-2.5l-0.9-0.8l-6,2.5
		l-3.2-5.6l5.2-4l-0.2-1.2C15.1,31.6,15,30.8,15,30s0.1-1.6,0.2-2.5l0.2-1.2l-5.2-4l3.2-5.6l6,2.5l0.9-0.8c1.3-1.1,2.8-1.9,4.4-2.5
		l1.1-0.4L26.8,9l6.5,0l0.8,6.5l1.1,0.4c1.6,0.6,3.1,1.5,4.4,2.5l0.9,0.8l6-2.5l3.2,5.6l-5.2,4l0.2,1.2c0.2,0.9,0.2,1.7,0.2,2.5
		s-0.1,1.6-0.2,2.5l-0.2,1.2l5.2,4L46.6,43.3z"/>
</g>
</svg>
