<?xml version="1.0" encoding="utf-8"?>
<!-- Generator: Adobe Illustrator 24.2.1, SVG Export Plug-In . SVG Version: 6.00 Build 0)  -->
<svg version="1.1" id="Layer_1" xmlns="http://www.w3.org/2000/svg" xmlns:xlink="http://www.w3.org/1999/xlink" x="0px" y="0px"
	 viewBox="0 0 60 60" style="enable-background:new 0 0 60 60;" xml:space="preserve">
<style type="text/css">
	.st0{fill:none;}
</style>
<g>
	<g>
		<rect x="0" y="0" class="st0" width="60" height="60"/>
	</g>
	<path d="M45,37c-2.5,0-4.7,1.1-6.2,2.9l-16-7.5c0.1-0.5,0.1-1,0.1-1.5c0-0.6-0.1-1.3-0.2-1.9l16.3-8.7C40.6,22,42.7,23,45,23
		c4.4,0,8-3.6,8-8s-3.6-8-8-8s-8,3.6-8,8c0,0.6,0.1,1.3,0.2,1.9l-16.3,8.7C19.4,24,17.3,23,15,23c-4.4,0-8,3.6-8,8s3.6,8,8,8
		c2.5,0,4.7-1.1,6.2-2.9l16,7.5C37.1,44,37,44.5,37,45c0,4.4,3.6,8,8,8s8-3.6,8-8S49.4,37,45,37z M45,11c2.2,0,4,1.8,4,4s-1.8,4-4,4
		s-4-1.8-4-4S42.8,11,45,11z M15,35c-2.2,0-4-1.8-4-4c0-2.2,1.8-4,4-4s4,1.8,4,4C19,33.2,17.2,35,15,35z M45,49c-2.2,0-4-1.8-4-4
		s1.8-4,4-4s4,1.8,4,4S47.2,49,45,49z"/>
</g>
</svg>
