<?xml version="1.0" encoding="utf-8"?>
<!-- Generator: Adobe Illustrator 24.2.1, SVG Export Plug-In . SVG Version: 6.00 Build 0)  -->
<svg version="1.1" id="Layer_1" xmlns="http://www.w3.org/2000/svg" xmlns:xlink="http://www.w3.org/1999/xlink" x="0px" y="0px"
	 viewBox="0 0 60 60" style="enable-background:new 0 0 60 60;" xml:space="preserve">
<style type="text/css">
	.st0{fill:none;}
</style>
<g>
	<g>
		<rect x="0" y="0" class="st0" width="60" height="60"/>
	</g>
	<path d="M30,55C16.2,55,5,43.8,5,30S16.2,5,30,5s25,11.2,25,25S43.8,55,30,55z M30,9C18.4,9,9,18.4,9,30c0,11.6,9.4,21,21,21
		c11.6,0,21-9.4,21-21C51,18.4,41.6,9,30,9z"/>
	<polygon points="40.3,38.2 28,31.2 28,15 32,15 32,28.8 42.3,34.8 	"/>
</g>
</svg>
