<?xml version="1.0" encoding="utf-8"?>
<!-- Generator: Adobe Illustrator 24.3.0, SVG Export Plug-In . SVG Version: 6.00 Build 0)  -->
<svg version="1.1" id="Layer_1" xmlns="http://www.w3.org/2000/svg" xmlns:xlink="http://www.w3.org/1999/xlink" x="0px" y="0px"
	 viewBox="0 0 60 60" style="enable-background:new 0 0 60 60;" xml:space="preserve">
<style type="text/css">
	.st0{fill:none;}
</style>
<g>
	<g>
		<rect x="0" y="0" class="st0" width="60" height="60"/>
	</g>
	<path d="M39,5.5H21C13.4,5.5,7.5,16.3,7.5,30S13.4,54.5,21,54.5h18c7.6,0,13.5-10.8,13.5-24.5S46.6,5.5,39,5.5z M21,51.5
		c-5.7,0-10.5-9.8-10.5-21.5S15.3,8.5,21,8.5h1.4c-4.2,4.1-6.9,12.1-6.9,21.5s2.8,17.4,6.9,21.5H21z M29,51.5
		c-5.7,0-10.5-9.8-10.5-21.5S23.3,8.5,29,8.5h1.4c-4.2,4.1-6.9,12.1-6.9,21.5s2.8,17.4,6.9,21.5H29z M39,51.5h-2
		c-5.7,0-10.5-9.8-10.5-21.5S31.3,8.5,37,8.5h2c5.7,0,10.5,9.8,10.5,21.5S44.7,51.5,39,51.5z M40,14.5c-4.3,0-6.5,7.8-6.5,15.5
		c0,7.7,2.2,15.5,6.5,15.5s6.5-7.8,6.5-15.5C46.5,22.3,44.3,14.5,40,14.5z M40,42.5c-1,0-3.5-4.3-3.5-12.5S39,17.5,40,17.5
		s3.5,4.3,3.5,12.5S41,42.5,40,42.5z"/>
</g>
</svg>
