<?xml version="1.0" encoding="utf-8"?>
<!-- Generator: Adobe Illustrator 24.2.1, SVG Export Plug-In . SVG Version: 6.00 Build 0)  -->
<svg version="1.1" id="Layer_1" xmlns="http://www.w3.org/2000/svg" xmlns:xlink="http://www.w3.org/1999/xlink" x="0px" y="0px"
	 viewBox="0 0 60 60" style="enable-background:new 0 0 60 60;" xml:space="preserve">
<style type="text/css">
	.st0{fill:none;}
</style>
<g>
	<g>
		<rect x="0" class="st0" width="60" height="60"/>
	</g>
	<path d="M39,5H21C13.1,5,7,16,7,30s6.1,25,14,25h18c7.9,0,14-11,14-25S46.9,5,39,5z M21,51c-4.8,0-10-8.4-10-21S16.2,9,21,9h0.3
		C17.5,13.4,15,21.1,15,30s2.5,16.6,6.3,21H21z M29,51c-4.8,0-10-8.4-10-21S24.2,9,29,9h0.3C25.5,13.4,23,21.1,23,30
		s2.5,16.6,6.3,21H29z M39,51h-2c-4.8,0-10-8.4-10-21S32.2,9,37,9h2c4.8,0,10,8.4,10,21S43.8,51,39,51z M40,14c-4.8,0-7,8.3-7,16
		s2.2,16,7,16s7-8.3,7-16S44.8,14,40,14z M40,42c-0.8-0.2-3-4.3-3-12s2.2-11.8,3-12c0.8,0.2,3,4.3,3,12S40.8,41.8,40,42z"/>
</g>
</svg>
