<?xml version="1.0" encoding="utf-8"?>
<!-- Generator: Adobe Illustrator 24.2.1, SVG Export Plug-In . SVG Version: 6.00 Build 0)  -->
<svg version="1.1" id="Layer_1" xmlns="http://www.w3.org/2000/svg" xmlns:xlink="http://www.w3.org/1999/xlink" x="0px" y="0px"
	 viewBox="0 0 60 60" style="enable-background:new 0 0 60 60;" xml:space="preserve">
<style type="text/css">
	.st0{fill:none;}
</style>
<g>
	<g>
		<rect x="0" class="st0" width="60" height="60"/>
	</g>
	<path d="M39,5H21C13.1,5,7,16,7,30s6.1,25,14,25h18c7.9,0,14-11,14-25S46.9,5,39,5z M39,51H21c-2,0-4-1.4-5.7-4H19v-4h-5.8
		c-0.7-1.8-1.2-3.8-1.6-6h4.8v-4h-5.3C11,32,11,31,11,30s0-2,0.1-3h5.3v-4h-4.8c0.4-2.2,0.9-4.2,1.6-6H19v-4h-3.7C17,10.4,19,9,21,9
		h18c4.8,0,10,8.4,10,21S43.8,51,39,51z M28.4,23h-7.3v4h7.3V23z M31,13h-7.3v4H31V13z M28.4,33h-7.3v4h7.3V33z M23.7,47H31v-4h-7.3
		V47z M40,14c-4.8,0-7,8.3-7,16s2.2,16,7,16s7-8.3,7-16S44.8,14,40,14z M40,42c-0.8-0.2-3-4.3-3-12s2.2-11.8,3-12
		c0.8,0.2,3,4.3,3,12S40.8,41.8,40,42z"/>
</g>
</svg>
