<?xml version="1.0" encoding="utf-8"?>
<!-- Generator: Adobe Illustrator 24.2.1, SVG Export Plug-In . SVG Version: 6.00 Build 0)  -->
<svg version="1.1" id="Layer_1" xmlns="http://www.w3.org/2000/svg" xmlns:xlink="http://www.w3.org/1999/xlink" x="0px" y="0px"
	 viewBox="0 0 60 60" style="enable-background:new 0 0 60 60;" xml:space="preserve">
<style type="text/css">
	.st0{fill:none;}
</style>
<g>
	<g>
		<rect y="0" class="st0" width="60" height="60"/>
	</g>
	<path d="M30,5C16.2,5,5,16.2,5,30s11.2,25,25,25s25-11.2,25-25S43.8,5,30,5z M30,9c11.6,0,21,9.4,21,21c0,3.9-1.1,7.6-3,10.7
		c-2.6-4.9-6.5-8.6-11.2-10.4c2-1.8,3.2-4.4,3.2-7.3c0-5.5-4.5-10-10-10c-5.5,0-10,4.5-10,10c0,2.9,1.2,5.5,3.2,7.3
		c-4.7,1.8-8.7,5.5-11.2,10.4c-1.9-3.1-3-6.8-3-10.7C9,18.4,18.4,9,30,9z M24,23c0-3.3,2.7-6,6-6s6,2.7,6,6s-2.7,6-6,6
		S24,26.3,24,23z M30,51c-6,0-11.5-2.6-15.3-6.7C17.5,37.4,23.4,33,30,33c6.6,0,12.5,4.4,15.3,11.3C41.5,48.4,36,51,30,51z"/>
</g>
</svg>
