<?xml version="1.0" encoding="utf-8"?>
<!-- Generator: Adobe Illustrator 24.3.0, SVG Export Plug-In . SVG Version: 6.00 Build 0)  -->
<svg version="1.1" id="Layer_1" xmlns="http://www.w3.org/2000/svg" xmlns:xlink="http://www.w3.org/1999/xlink" x="0px" y="0px"
	 viewBox="0 0 60 60" style="enable-background:new 0 0 60 60;" xml:space="preserve">
<style type="text/css">
	.st0{fill:none;}
</style>
<g>
	<rect x="0" y="0" class="st0" width="60" height="60"/>
	<path d="M54.6,14.1c-16-4.8-33.1-4.8-49.1,0l-2.1,0.6L14.8,43l1.8-0.5c4.3-1.4,8.7-2,13.1-2.1l-1.1,4c-1,0.5-1.6,1.5-1.6,2.7
		c0,1.7,1.3,3,3,3s3-1.3,3-3c0-0.6-0.2-1.2-0.5-1.6l1.3-4.9c3.2,0.3,6.4,0.9,9.6,1.9l1.8,0.5l11.5-28.3L54.6,14.1z M42.8,38.1
		c-2.6-0.7-5.3-1.2-8-1.5l3.8-14.2l-3.9-1l-4,15c-0.3,0-0.5,0-0.8,0c-4.3,0-8.6,0.6-12.8,1.8L8.7,17.3c13.9-3.8,28.7-3.8,42.6,0
		L42.8,38.1z"/>
</g>
</svg>
