<?xml version="1.0" encoding="utf-8"?>
<!-- Generator: Adobe Illustrator 24.2.1, SVG Export Plug-In . SVG Version: 6.00 Build 0)  -->
<svg version="1.1" id="Layer_1" xmlns="http://www.w3.org/2000/svg" xmlns:xlink="http://www.w3.org/1999/xlink" x="0px" y="0px"
	 viewBox="0 0 60 60" style="enable-background:new 0 0 60 60;" xml:space="preserve">
<style type="text/css">
	.st0{fill:none;}
</style>
<g>
	<g>
		<rect x="0" class="st0" width="60" height="60"/>
	</g>
	<path d="M13,55c0,0-0.1,0-0.1,0c-2.2,0-4.2-0.9-5.7-2.5c-2.9-3.1-2.8-8.2,0.3-11.3l16-16c-1.5-5.5,0.1-11.4,4.1-15.4
		C32,5.3,38.6,3.9,44.4,6c1,0.4,1.7,1.2,1.9,2.2c0.2,1-0.1,2.1-0.8,2.8l-7.4,7.4c0.2,0.8,0.7,1.6,1.3,2.2c0.6,0.6,1.4,1.1,2.2,1.3
		l7.4-7.4c0.7-0.7,1.8-1,2.8-0.8c1,0.2,1.8,0.9,2.2,1.9l0,0c2.1,5.8,0.7,12.4-3.7,16.8c-4,4-10,5.6-15.4,4.1L18.6,52.7
		C17.1,54.2,15.1,55,13,55z M39,9c-3.1,0-6.2,1.2-8.5,3.5c-3.2,3.2-4.4,8.2-2.8,12.5l0.4,1.2L10.3,44c-1.6,1.6-1.7,4.2-0.3,5.7
		c0.8,0.8,1.8,1.2,2.9,1.3c1.1,0,2.1-0.4,2.9-1.2l18-18l1.2,0.4c4.3,1.5,9.3,0.4,12.5-2.8c2.9-2.9,4.1-7.1,3.2-11l-7.6,7.6L42.2,26
		c-2.1-0.2-4.1-1.1-5.6-2.6c-1.5-1.5-2.4-3.5-2.6-5.6l-0.1-0.9l7.6-7.6C40.7,9.1,39.8,9,39,9z M50.2,16.9
		C50.2,16.9,50.2,16.9,50.2,16.9C50.2,16.9,50.2,16.9,50.2,16.9L50.2,16.9z"/>
</g>
</svg>
