<?xml version="1.0" encoding="utf-8"?>
<!-- Generator: Adobe Illustrator 24.3.0, SVG Export Plug-In . SVG Version: 6.00 Build 0)  -->
<svg version="1.1" id="Layer_1" xmlns="http://www.w3.org/2000/svg" xmlns:xlink="http://www.w3.org/1999/xlink" x="0px" y="0px"
	 viewBox="0 0 60 60" style="enable-background:new 0 0 60 60;" xml:space="preserve">
<style type="text/css">
	.st0{fill:none;}
</style>
<g>
	<rect x="0" y="0" class="st0" width="60" height="60"/>
	<path d="M33,16L9,40v11h11l24-24L33,16z M18.7,48H12v-6.7l21-21l6.8,6.8L18.7,48z M48.7,22.2c3-3,3-7.9,0-11v0
		C47.2,9.8,45.2,9,43.2,9s-4,0.8-5.5,2.3L35,14l11,11L48.7,22.2z M39.9,13.4c0.9-0.9,2.1-1.4,3.4-1.4c1.3,0,2.5,0.5,3.4,1.4
		c0.9,0.9,1.4,2.1,1.4,3.4c0,1.3-0.5,2.5-1.4,3.4L46,20.7L39.3,14L39.9,13.4z M26,51h23v-3H26V51z"/>
</g>
</svg>
