<svg xmlns="http://www.w3.org/2000/svg" viewBox="0 0 53.99 21.99"><defs><style>.cls-1{fill:#2a3138;}</style></defs><title>Asset 6</title><g id="Layer_2" data-name="Layer 2"><g id="Layer_1-2" data-name="Layer 1"><path class="cls-1" d="M53.47,8.42l-9.29-5.3a23.7,23.7,0,0,0-22-.8L18.91,3.9A60.2,60.2,0,0,1,9.62,7.43l-6.2,1.8A4.72,4.72,0,0,0,0,13.81c0,1,0,2,0,2.92a.8.8,0,0,0,.24.58.8.8,0,0,0,.57.24H2.6a6.83,6.83,0,0,1,13.61,0H37.84a6.83,6.83,0,0,1,13.61,0H52.7A1.3,1.3,0,0,0,54,16.25V9.32A1,1,0,0,0,53.47,8.42ZM9.4,14.28a3.83,3.83,0,0,0-3.77,3.27,3.68,3.68,0,0,0-.06.58A3.9,3.9,0,0,0,9.4,22a3.92,3.92,0,0,0,3.84-3.86,3.68,3.68,0,0,0-.06-.58A3.83,3.83,0,0,0,9.4,14.28Zm35.24,0a3.83,3.83,0,0,0-3.77,3.27,3.68,3.68,0,0,0-.06.58A3.9,3.9,0,0,0,44.64,22a3.92,3.92,0,0,0,3.84-3.86,3.68,3.68,0,0,0-.06-.58A3.83,3.83,0,0,0,44.64,14.28Z"/></g></g></svg>