<?xml version="1.0" encoding="UTF-8"?>
<svg width="96px" height="96px" viewBox="0 0 96 96" version="1.1" xmlns="http://www.w3.org/2000/svg" xmlns:xlink="http://www.w3.org/1999/xlink">
    <title>graphics_ts_deal_car</title>
    <g id="graphics_ts_deal_car" stroke="none" stroke-width="1" fill="none" fill-rule="evenodd">
        <path d="M71.7936539,62.9454559 C70.8857779,61.8506404 70.3862944,60.4745123 70.3805647,59.052251 C70.3872202,58.7378983 70.4182884,58.4245377 70.473489,58.114998 C70.9068416,55.1079951 73.4835063,52.8760454 76.5215748,52.8760454 C79.5596434,52.8760454 82.136308,55.1079951 82.5696606,58.114998 C83.0297238,60.8542308 81.5819638,63.5585777 79.0473016,64.6945977 C76.5126393,65.8306177 73.5305867,65.1116855 71.7920518,62.9454559 L71.7936539,62.9454559 Z M15.3341719,62.9454559 C14.4246721,61.8513491 13.9239765,60.4750027 13.9178784,59.052251 C13.9250565,58.7378561 13.9566605,58.4244947 14.0124048,58.114998 C14.4457575,55.1079951 17.0224221,52.8760454 20.0604906,52.8760454 C23.0985592,52.8760454 25.6752238,55.1079951 26.1085765,58.114998 C26.1643208,58.4244947 26.1959248,58.7378561 26.2031029,59.052251 C26.2314591,61.6562615 24.6059398,63.9919671 22.1542662,64.8700168 C19.7025926,65.7480664 16.9638308,64.9753973 15.3325698,62.9454559 L15.3341719,62.9454559 Z M87.4225486,58.114998 C86.9752297,52.4259459 82.2281857,48.0375012 76.5215748,48.0375012 C70.8149639,48.0375012 66.0679199,52.4259459 65.620601,58.114998 L30.967873,58.114998 C30.5155431,52.4293967 25.769664,48.0460906 20.0660981,48.0460906 C14.3625322,48.0460906 9.61665321,52.4293967 9.1643233,58.114998 L6.31891922,58.114998 C5.97163236,58.1145747 5.63878498,57.9759893 5.39381779,57.7298199 C5.1488506,57.4836504 5.01189649,57.1501285 5.01317353,56.8028437 C5.01317353,55.3993674 5.01317353,53.747559 5.00017682,52.1197828 C4.97711821,48.7245331 7.21137229,45.7267726 10.4716711,44.7787684 L20.4161662,41.9045258 C25.5231498,40.4283229 30.4997094,38.5335113 35.2952584,36.2393519 L40.5647032,33.7175805 C51.8035049,28.3412197 64.9647281,28.8202015 75.7829874,34.999294 L90.6652839,43.4906463 C91.1818302,43.7869617 91.5,44.3370719 91.5,44.9325741 L91.5,56.0402241 C91.5,57.1836669 90.5782406,58.1133334 89.4348388,58.1230087 L87.4225486,58.114998 Z" id="Shape_1065" fill="#A0A6AF" fill-rule="nonzero"></path>
    </g>
</svg>