<svg xmlns="http://www.w3.org/2000/svg" width="60" height="56" viewBox="0 0 60 56">
  <defs>
    <style>
      .cls-1 {
        fill: #2a3138;
        fill-rule: evenodd;
      }
    </style>
  </defs>
  <path class="cls-1" d="M3.214,3.189a8.271,8.271,0,0,0,0,11.672L14.851,3.189A8.211,8.211,0,0,0,3.214,3.189Zm53.571,0a8.271,8.271,0,0,1,0,11.672L45.149,3.189A8.211,8.211,0,0,1,56.785,3.189Zm-9.5,51.267,1.583-12.031h-11.5ZM29.657,49.939A20.082,20.082,0,0,1,15.509,15.67l-3.545-3.556A25.06,25.06,0,1,0,47.35,47.607L43.8,44.051A19.924,19.924,0,0,1,29.657,49.939ZM54.678,29.861A25.006,25.006,0,0,0,11.964,12.114l3.545,3.556A20,20,0,0,1,49.674,29.861h5ZM40.666,32.37H27.155V15.805h5V27.35h8.507v5.02Z"/>
</svg>
