<?xml version="1.0" encoding="utf-8"?>
<!-- Generator: Adobe Illustrator 24.3.0, SVG Export Plug-In . SVG Version: 6.00 Build 0)  -->
<svg version="1.1" id="Layer_1" xmlns="http://www.w3.org/2000/svg" xmlns:xlink="http://www.w3.org/1999/xlink" x="0px" y="0px"
	 viewBox="0 0 180 48" style="enable-background:new 0 0 180 48;" xml:space="preserve">
<style type="text/css">
	.st0{fill:#2A3138;}
	.st1{fill:#FFA200;}
	.st2{fill:#FFFFFF;}
	.st3{fill:none;}
</style>
<g>
	<g>
		<path class="st0" d="M42.5,34.6h25.4l0.3-3.3H42.8L42.5,34.6z M56.6,19.3c1.4,3.6,4.8,6.3,9.5,7.2l2-3.3c-6.2-1.1-9.3-5.4-8.8-9.6
			l0.2-2h-4.3l-0.2,2c-0.4,4-4.3,8.5-10.7,9.6l1.4,3.3C50.6,25.6,54.4,22.8,56.6,19.3z M70.9,31.2h13.4l1.8-18.6H72.8L70.9,31.2z
			 M76.4,15.8h5.5L80.7,28h-5.5L76.4,15.8z M93.1,20.5l1-10.5h-4l-2.8,28h4l1.4-14.1h4.1l0.3-3.3H93.1z M120.6,24.4H105l0.3-3.1
			h14.8l0.3-3.1h-14.8l0.3-3h15.4l0.3-3.2h-19.5l-1.6,15.6h19.7L120.6,24.4z M96.9,34.8h25.4l0.3-3.3H97.3L96.9,34.8z M144.3,38h3.8
			l2.8-28h-3.8L144.3,38z M141.5,10.6l-1,9.6h-2.7l-0.3,3.5h2.7l-1.3,13h3.7l2.6-26.2H141.5z M137.2,16.3h1.8l0.3-3.2h-12.7
			l-0.3,3.2h1.7l-1.2,12h-2.2l0.1,3.3c3.5,0,9.1-0.1,13.6-1l0-2.9c-0.7,0.1-1.4,0.2-2.2,0.2L137.2,16.3z M132.4,28.2
			c-0.7,0.1-1.4,0.1-2.1,0.1l1.2-12h2.1L132.4,28.2z M173.1,9.9l-2.8,28.1h4l2.8-28.1H173.1z M161.8,11.9c-4.2,0-7.7,3.8-8.4,10
			c-0.6,6.2,2.1,10,6.4,10c4.2,0,7.7-3.9,8.4-10C168.8,15.8,166,11.9,161.8,11.9z M164.3,21.9c-0.4,4.2-2.1,6.4-4.1,6.4
			c-2.1,0-3.3-2.2-2.9-6.4c0.4-4.1,2.1-6.4,4.1-6.4C163.5,15.5,164.7,17.8,164.3,21.9z"/>
		<g>
			<circle class="st1" cx="19.6" cy="24" r="16.7"/>
			<polygon class="st1" points="45.1,5.8 39.7,5.8 39.7,0.4 37.2,0.4 37.2,5.8 31.9,5.8 31.9,8.3 37.2,8.3 37.2,13.7 39.7,13.7 
				39.7,8.3 45.1,8.3 			"/>
			<g>
				<path class="st2" d="M22.5,28.3c0-0.7-0.2-1.2-0.7-1.5c-0.5-0.4-1.3-0.7-2.4-1.1c-1.2-0.4-2.1-0.8-2.9-1.1
					c-2.4-1.2-3.6-2.8-3.6-4.9c0-1,0.3-1.9,0.9-2.7c0.6-0.8,1.4-1.4,2.5-1.8s2.3-0.7,3.7-0.7c1.3,0,2.5,0.2,3.6,0.7
					c1.1,0.5,1.9,1.2,2.5,2c0.6,0.9,0.9,1.9,0.9,3h-4.5c0-0.8-0.2-1.3-0.7-1.8c-0.5-0.4-1.1-0.6-1.9-0.6c-0.8,0-1.4,0.2-1.9,0.5
					s-0.7,0.8-0.7,1.3c0,0.5,0.3,0.9,0.8,1.3c0.5,0.4,1.4,0.8,2.7,1.2c1.3,0.4,2.3,0.9,3.2,1.3c2,1.2,3,2.7,3,4.8
					c0,1.6-0.6,2.9-1.8,3.8c-1.2,0.9-2.9,1.4-5,1.4c-1.5,0-2.9-0.3-4.1-0.8s-2.1-1.3-2.8-2.2c-0.6-0.9-0.9-2-0.9-3.2h4.5
					c0,1,0.3,1.7,0.8,2.2c0.5,0.5,1.3,0.7,2.5,0.7c0.7,0,1.3-0.2,1.8-0.5C22.2,29.4,22.5,28.9,22.5,28.3z"/>
			</g>
		</g>
	</g>
	<rect class="st3" width="180" height="48"/>
</g>
</svg>
