<svg xmlns="http://www.w3.org/2000/svg" width="38" height="17" viewBox="0 0 38 17">
  <defs>
    <style>
      .cls-1 {
        fill: #d9dbdc;
      }

      .cls-1, .cls-2 {
        fill-rule: evenodd;
      }

      .cls-2 {
        fill: #fe6a2b;
      }
    </style>
  </defs>
  <path id="Shape_1724_copy" data-name="Shape 1724 copy" class="cls-1" d="M37.633,6.644L31.1,2.889a16.581,16.581,0,0,0-15.469-.565L13.314,3.439a42.25,42.25,0,0,1-6.536,2.5L2.411,7.214a3.355,3.355,0,0,0-2.4,3.246c0,0.72.006,1.451,0.006,2.071a0.578,0.578,0,0,0,.167.41,0.57,0.57,0,0,0,.407.17h1.25A4.837,4.837,0,0,1,6.624,8.658a4.837,4.837,0,0,1,4.788,4.452H26.635a4.8,4.8,0,0,1,9.576,0h0.883A0.915,0.915,0,0,0,38,12.193V7.282A0.735,0.735,0,0,0,37.633,6.644ZM6.624,10.794A2.706,2.706,0,0,0,3.968,13.11a2.569,2.569,0,0,0,.58,2.136,2.641,2.641,0,0,0,4.153,0A2.73,2.73,0,0,0,6.624,10.794Z"/>
  <path id="Shape_1724_copy_2" data-name="Shape 1724 copy 2" class="cls-2" d="M31.254,10.794A2.706,2.706,0,0,0,28.6,13.11a2.564,2.564,0,0,0,.58,2.136,2.642,2.642,0,0,0,4.153,0A2.731,2.731,0,0,0,31.254,10.794Z"/>
</svg>
