<?xml version="1.0" encoding="UTF-8"?>
<svg width="198px" height="40px" viewBox="0 0 198 40" version="1.1" xmlns="http://www.w3.org/2000/svg" xmlns:xlink="http://www.w3.org/1999/xlink">
    <title>bi_full_on_dark</title>
    <g id="bi_full_on_dark" stroke="none" stroke-width="1" fill="none" fill-rule="evenodd">
        <g id="bi_full" fill-rule="nonzero">
            <path d="M197.7,20 C197.7,31 188.7,40 177.7,40 C166.7,40 157.7,31 157.7,20 C157.7,9 166.7,0 177.7,0 C188.7,0 197.7,9 197.7,20 Z" id="Path" fill="#E17639"></path>
            <path d="M191,20 C191,27.4 185,33.3 177.7,33.3 C170.3,33.3 164.4,27.3 164.4,20 C164.4,12.6 170.4,6.7 177.7,6.7 C185,6.7 191,12.6 191,20 Z" id="Path" fill="#221F20"></path>
            <polygon id="Path" fill="#FFFFFF" points="14.9 15.2 10.6 29.4 3.3 29.4 7.6 15.2 0.3 15.2 1.7 10.7 23.6 10.7 22.2 15.2"></polygon>
            <path d="M37.1,29.6 C32.9,29.6 29.1,28.6 26.8,27.3 L31.5,23.3 C33.1,24.2 36.1,25.2 38.6,25.2 C41.2,25.2 42.1,24.9 42.4,24 C42.6,23.3 41.8,22.9 38.5,22.3 C32.5,21.3 29.9,20 31,16.3 C32.1,12.8 36.8,10.4 43.1,10.4 C47.5,10.4 50.5,11.2 52.8,12.6 L48.1,16.6 C46.1,15.5 44,14.8 41.4,14.8 C39.2,14.8 38.6,15.3 38.4,15.9 C38.2,16.6 39,16.9 42.2,17.5 C48.4,18.6 50.9,20 49.8,23.5 C48.4,27.9 43.4,29.6 37.1,29.6 Z" id="Path" fill="#FFFFFF"></path>
            <path d="M74.4,29.3 L74.7,28.4 C73.2,29.1 71.4,29.6 69.6,29.6 C66.3,29.6 64,27.9 64.9,24.8 C65.8,21.8 69,20.3 73.1,20.3 C74.9,20.3 76,20.5 77,20.9 L77.2,20.2 C77.6,19 76.8,18.6 75,18.6 C73,18.6 71.4,18.9 69.3,19.6 L68.5,16.5 C71.1,15.7 73.9,15.2 77.2,15.2 C82.6,15.2 84.3,17.5 83.4,20.3 L80.6,29.3 L74.4,29.3 L74.4,29.3 Z M76.1,23.7 C75.4,23.5 74.6,23.3 73.4,23.3 C72,23.3 71.2,23.8 70.9,24.8 C70.6,25.7 71.1,26.3 72.5,26.3 C73.6,26.3 74.8,26 75.6,25.6 L76.1,23.7 Z" id="Shape" fill="#FFFFFF"></path>
            <path d="M97.9,29.3 L102.1,15.4 L108.8,15.4 L104.6,29.3 L97.9,29.3 L97.9,29.3 Z M105.8,14.5 C103.6,14.5 102.3,13.6 102.7,12.1 C103.1,10.8 105,9.8 107.2,9.8 C109.5,9.8 110.8,10.8 110.4,12.1 C109.9,13.6 108.1,14.5 105.8,14.5 Z" id="Shape" fill="#FFFFFF"></path>
            <path d="M116,29.6 C110.6,29.6 107.5,27.1 109,22.4 C110.5,17.6 115,15.2 120.4,15.2 C125.8,15.2 128.9,17.6 127.4,22.4 C126,27.2 121.4,29.6 116,29.6 Z M119.3,19 C117.6,19 116.4,20 115.7,22.4 C115,24.7 115.6,25.8 117.3,25.8 C119,25.8 120.3,24.7 121,22.4 C121.6,20 121,19 119.3,19 Z" id="Shape" fill="#FFFFFF"></path>
            <path d="M138.7,29.3 L141.1,21.4 C141.6,19.6 140.9,19.1 139.6,19.1 C138.2,19.1 137.2,19.6 136.7,21.3 L134.3,29.2 L127.6,29.2 L131.8,15.3 L138.5,15.3 L138.2,16.2 C139.6,15.5 141.2,15 143.5,15 C146.8,15 148.4,16.2 148.4,18.5 C148.4,19.1 148.3,19.8 148,20.6 L145.4,29.1 L138.7,29.1 L138.7,29.3 Z" id="Path" fill="#FFFFFF"></path>
            <polygon id="Path" fill="#FFFFFF" points="185.7 13.3 177.7 13.3 177.7 13.3 169.7 13.3 169.7 18.1 174.7 18.1 174.7 29.3 177.7 29.3 180.6 29.3 180.6 18.1 185.7 18.1"></polygon>
            <polygon id="Path" fill="#E17639" points="26.5 9.3 24.7 15.2 28.3 15.2 32.5 9.3"></polygon>
            <path d="M94.1,19.2 L98.3,19.2 L99.4,15.5 L95.2,15.5 L96.8,10.1 L89.8,12 L88.7,15.5 L84.4,15.5 L85.4,19.2 L87.6,19.2 L85.8,25.2 C84.8,28.3 86.1,29.6 89.6,29.6 C91.5,29.6 93.2,29.3 94.6,28.9 L96.4,25.4 C95.8,25.5 94.5,25.6 93.8,25.6 C92.7,25.6 92.2,25.3 92.6,24.2 L94.1,19.2 Z" id="Path" fill="#FFFFFF"></path>
            <path d="M61.2,19.2 L65.9,19.2 L65,15.5 L62.4,15.5 L64,10.1 L57,12 L55.9,15.5 L52.9,15.5 L51.8,19.2 L54.8,19.2 L53,25.2 C52,28.3 53.3,29.6 56.8,29.6 C58.7,29.6 60.4,29.3 61.8,28.9 L62.8,25.5 C62.2,25.6 61.5,25.6 61,25.6 C59.9,25.6 59.4,25.3 59.8,24.2 L61.2,19.2 Z" id="Path" fill="#FFFFFF"></path>
        </g>
    </g>
</svg>