<svg xmlns="http://www.w3.org/2000/svg" width="38" height="17" viewBox="0 0 38 17">
  <defs>
    <style>
      .cls-1 {
        fill: #d9dbdc;
      }

      .cls-1, .cls-2 {
        fill-rule: evenodd;
      }

      .cls-2 {
        fill: #fe6a2b;
      }
    </style>
  </defs>
  <path class="cls-1" d="M37.633,6.644L31.1,2.889a16.581,16.581,0,0,0-15.469-.565L13.314,3.439a42.257,42.257,0,0,1-6.535,2.5L2.411,7.214a3.355,3.355,0,0,0-2.4,3.246c0,0.72.005,1.451,0.005,2.071a0.579,0.579,0,0,0,.167.41,0.571,0.571,0,0,0,.407.17h1.25A4.836,4.836,0,0,1,6.624,8.658a4.837,4.837,0,0,1,4.788,4.452H26.635a4.8,4.8,0,0,1,9.576,0h0.883A0.915,0.915,0,0,0,38,12.193V7.282A0.735,0.735,0,0,0,37.633,6.644Zm-6.211,4.15a2.7,2.7,0,0,0-2.656,2.316,2.567,2.567,0,0,0,.58,2.136,2.641,2.641,0,0,0,4.153,0A2.73,2.73,0,0,0,31.423,10.794Z"/>
  <path id="Shape_1724_copy" data-name="Shape 1724 copy" class="cls-2" d="M6.624,10.794a2.722,2.722,0,0,0-2.077,4.453,2.642,2.642,0,0,0,4.154,0A2.731,2.731,0,0,0,6.624,10.794Z"/>
</svg>
