<?xml version="1.0" encoding="utf-8"?>
<!-- Generator: Adobe Illustrator 24.3.0, SVG Export Plug-In . SVG Version: 6.00 Build 0)  -->
<svg version="1.1" id="Layer_1" xmlns="http://www.w3.org/2000/svg" xmlns:xlink="http://www.w3.org/1999/xlink" x="0px" y="0px"
	 viewBox="0 0 96 64" style="enable-background:new 0 0 96 64;" xml:space="preserve">
<style type="text/css">
	.st0{fill:#CBB48E;}
	.st1{fill:none;}
</style>
<path class="st0" d="M53.9,35.6c-2,0-3.6,1.6-3.6,3.6s1.6,3.6,3.6,3.6c2,0,3.6-1.6,3.6-3.6S55.9,35.6,53.9,35.6z M42.1,28.4
	c2,0,3.6-1.6,3.6-3.6c0-2-1.6-3.6-3.6-3.6c-2,0-3.6,1.6-3.6,3.6C38.5,26.8,40.1,28.4,42.1,28.4z M75.4,26.4h1.5v-10
	c0-2.7-2.2-4.9-4.9-4.9H24c-2.7,0-4.9,2.2-4.9,4.9v10h1.5c3.1,0,5.6,2.5,5.6,5.6s-2.5,5.6-5.6,5.6h-1.5v10c0,2.7,2.2,4.9,4.9,4.9h48
	c2.7,0,4.9-2.2,4.9-4.9v-10h-1.5c-3.1,0-5.6-2.5-5.6-5.6S72.3,26.4,75.4,26.4z M73.9,40.5v7.2c0,1-0.8,1.9-1.9,1.9H24
	c-1,0-1.9-0.8-1.9-1.9v-7.2c4.1-0.7,7.1-4.3,7.1-8.5c0-4.3-3.1-7.8-7.1-8.5v-7.2c0-1,0.8-1.9,1.9-1.9h48c1,0,1.9,0.8,1.9,1.9v7.2
	c-4.1,0.7-7.1,4.3-7.1,8.5C66.7,36.3,69.8,39.8,73.9,40.5z M55.3,22.6L38.6,39.3l2.1,2.1l16.7-16.7L55.3,22.6z"/>
<rect class="st1" width="96" height="64"/>
</svg>
