<?xml version="1.0" encoding="utf-8"?>
<!-- Generator: Adobe Illustrator 25.0.1, SVG Export Plug-In . SVG Version: 6.00 Build 0)  -->
<svg version="1.1" id="Layer_1" xmlns="http://www.w3.org/2000/svg" xmlns:xlink="http://www.w3.org/1999/xlink" x="0px" y="0px"
	 viewBox="0 0 80 80" style="enable-background:new 0 0 80 80;" xml:space="preserve">
<style type="text/css">
	.st0{fill:#D9DBDC;}
</style>
<path class="st0" d="M76.5,44.7l-8.4-4.8c-3.2-1.8-6.9-2.8-10.6-2.8c-3.2,0-6.4,0.7-9.2,2.1l-3,1.4c-2.7,1.3-5.5,2.3-8.4,3.2
	l-5.6,1.6c-1.8,0.5-3.1,2.2-3.1,4.1c0,0.9,0,1.8,0,2.6c0,0.2,0.1,0.4,0.2,0.5c0.1,0.1,0.3,0.2,0.5,0.2h1.6c0.3-3.2,2.9-5.6,6.1-5.6
	c3.2,0,5.9,2.5,6.1,5.6h19.5c0.3-3.2,2.9-5.6,6.1-5.6s5.9,2.5,6.1,5.6h1.1c0.6,0,1.2-0.5,1.2-1.2v-6.2C77,45.1,76.8,44.8,76.5,44.7z
	 M36.7,49.9c-1.7,0-3.2,1.3-3.4,2.9c0,0.2-0.1,0.3-0.1,0.5c0,0.8,0.3,1.6,0.8,2.2c0.6,0.8,1.6,1.3,2.7,1.3c1.1,0,2-0.5,2.7-1.3
	c0.5-0.6,0.8-1.4,0.8-2.2c0-0.2,0-0.4-0.1-0.5C39.9,51.2,38.5,49.9,36.7,49.9z M68.6,49.9c-1.7,0-3.2,1.3-3.4,2.9
	c0,0.2-0.1,0.3-0.1,0.5c0,0.8,0.3,1.6,0.8,2.2c0.6,0.8,1.6,1.3,2.7,1.3c1.1,0,2-0.5,2.7-1.3c0.5-0.6,0.8-1.4,0.8-2.2
	c0-0.2,0-0.4-0.1-0.5C71.7,51.2,70.3,49.9,68.6,49.9z M15.1,23.1C8.4,23.1,3,28.6,3,35.2c0,9.4,10.9,20.5,11.4,20.9l0.7,0.7l0.7-0.7
	c0.5-0.5,11.4-11.5,11.4-20.9C27.2,28.6,21.7,23.1,15.1,23.1z M20.7,34.9h-3.6v7.9H13v-7.9H9.4v-3.4h11.3V34.9z"/>
</svg>
