<?xml version="1.0" encoding="utf-8"?>
<!-- Generator: Adobe Illustrator 24.3.0, SVG Export Plug-In . SVG Version: 6.00 Build 0)  -->
<svg version="1.1" id="Layer_1" xmlns="http://www.w3.org/2000/svg" xmlns:xlink="http://www.w3.org/1999/xlink" x="0px" y="0px"
	 viewBox="0 0 96 64" style="enable-background:new 0 0 96 64;" xml:space="preserve">
<style type="text/css">
	.st0{fill:#2A3138;}
	.st1{fill:none;}
</style>
<g>
	<path class="st0" d="M73.6,31.7c4.2-5.2,3.8-12.9-1-17.7c-2.5-2.5-5.9-3.9-9.4-3.9c-3.1,0-6,1.1-8.4,3c-2.3-3.5-5.3-5.6-8.6-5.6h-2
		h-8h-8c-7.6,0-13.5,10.8-13.5,24.5s5.9,24.5,13.5,24.5h8h8h2c6.8,0,12.3-8.7,13.3-20.4c1.2,0.4,2.5,0.5,3.8,0.5
		c3.1,0,5.9-1,8.3-2.9l7.9,7.9l2.1-2.1L73.6,31.7z M59.6,33c-1.1-0.4-2.1-1-3-1.7c-0.2-0.2-0.5-0.4-0.7-0.7c-1.9-1.9-3-4.5-3-7.3
		c0-1.8,0.5-3.5,1.3-5c0.5-0.8,1-1.6,1.7-2.3c0.1-0.1,0.3-0.2,0.4-0.4c1.9-1.7,4.3-2.7,6.9-2.7c2.8,0,5.3,1.1,7.3,3
		c4,4,4,10.6,0,14.6c-1.9,1.9-4.5,3-7.3,3C61.9,33.7,60.7,33.5,59.6,33z M50.6,32c0,8.2-2.5,12.5-3.5,12.5s-3.5-4.3-3.5-12.5
		s2.5-12.5,3.5-12.5S50.6,23.8,50.6,32z M28.1,53.5c-5.7,0-10.5-9.8-10.5-21.5s4.8-21.5,10.5-21.5h1.4c-4.2,4.1-6.9,12.1-6.9,21.5
		c0,9.4,2.8,17.4,6.9,21.5H28.1z M36.1,53.5c-5.7,0-10.5-9.8-10.5-21.5s4.8-21.5,10.5-21.5h1.4c-4.2,4.1-6.9,12.1-6.9,21.5
		c0,9.4,2.8,17.4,6.9,21.5H36.1z M46.1,53.5h-2c-5.7,0-10.5-9.8-10.5-21.5s4.8-21.5,10.5-21.5h2c2.4,0,4.7,1.8,6.5,4.8
		c-0.8,1.1-1.5,2.3-1.9,3.5c-1-1.4-2.1-2.3-3.6-2.3c-4.3,0-6.5,7.8-6.5,15.5s2.2,15.5,6.5,15.5c4.2,0,6.4-7.4,6.5-14.9
		c0.1,0.1,0.1,0.1,0.2,0.2c0.8,0.8,1.8,1.5,2.7,2.1C55.8,45.2,51.3,53.5,46.1,53.5z"/>
	<rect class="st1" width="96" height="64"/>
</g>
</svg>
