<?xml version="1.0" encoding="utf-8"?>
<!-- Generator: Adobe Illustrator 25.0.1, SVG Export Plug-In . SVG Version: 6.00 Build 0)  -->
<svg version="1.1" id="Layer_1" xmlns="http://www.w3.org/2000/svg" xmlns:xlink="http://www.w3.org/1999/xlink" x="0px" y="0px"
	 viewBox="0 0 80 80" style="enable-background:new 0 0 80 80;" xml:space="preserve">
<style type="text/css">
	.st0{fill:#FE6A2B;}
</style>
<path class="st0" d="M40.3,53.4l-1,0.8H34v1.2c0,0.9,0.8,1.7,1.7,1.7h8.5v1.4h-8.5c-1.7,0-3-1.4-3-3v-1.2h-1.8l-5.3-3.6
	c-1.8-1.2-4.3-0.7-5.5,1.1l12.8,9.2c1.3,0.9,2.9,1.4,4.5,1.4h6c0.4,0,0.8,0,1.3-0.1l7.7-1.3v-8.5h-9.1
	C42.1,52.5,41.1,52.8,40.3,53.4z M53.8,51v12H60V51H53.8z M56.9,61.5c-0.6,0-1.1-0.5-1.1-1.1c0-0.6,0.5-1.1,1.1-1.1
	c0.6,0,1.1,0.5,1.1,1.1C58,61.1,57.5,61.5,56.9,61.5z M29.7,44.7c1.1,1.1,2.2,2,3.3,2.8c2.3,1.6,5.5,1.4,7.5-0.5l14.9-13.7
	c2.3-2.2,2.6-5.8,0.5-8.3c-0.9-1.1-2-2.3-3.2-3.4c-1.2-1.2-2.3-2.2-3.4-3.2c-2.5-2.1-6.1-1.8-8.3,0.5L27.4,33.9
	c-1.9,2.1-2.2,5.2-0.5,7.5C27.6,42.5,28.6,43.6,29.7,44.7z M52.8,27.5c0.5-0.5,1.4-0.5,2,0c0.5,0.5,0.5,1.4,0,2
	c-0.5,0.5-1.4,0.5-2,0C52.2,28.9,52.2,28.1,52.8,27.5z M41.1,24.4c0.4-0.4,0.9-0.7,1.4-0.7c0,0,0.1,0,0.1,0c0.5,0,1,0.2,1.4,0.6
	l6.3,6.3c0.4,0.4,0.6,0.9,0.6,1.5c0,0.6-0.3,1.1-0.7,1.4l-1.5,1.3l-8.9-8.9L41.1,24.4z M39.2,26.7l8.8,8.8l-3.2,2.7l-8.3-8.3
	L39.2,26.7z M34.3,32.4l1.5-1.7l8.1,8.1l-1.7,1.5c-0.8,0.7-2,0.6-2.7-0.1l-5.1-5.1C33.7,34.4,33.7,33.2,34.3,32.4z M29.5,37.5
	c1.5,0.7,3,1.8,4.4,3.1c1.3,1.3,2.4,2.8,3.1,4.4c0.3,0.7-0.3,1.6-1.1,1.5c-0.6-0.1-1.1-0.3-1.6-0.6c-1-0.7-2-1.6-3-2.6
	c-1-1-1.8-2-2.6-3c-0.3-0.5-0.6-1-0.6-1.6C27.9,37.7,28.7,37.1,29.5,37.5z"/>
</svg>
