<?xml version="1.0" encoding="utf-8"?>
<!-- Generator: Adobe Illustrator 24.3.0, SVG Export Plug-In . SVG Version: 6.00 Build 0)  -->
<svg version="1.1" id="Layer_1" xmlns="http://www.w3.org/2000/svg" xmlns:xlink="http://www.w3.org/1999/xlink" x="0px" y="0px"
	 viewBox="0 0 96 96" style="enable-background:new 0 0 96 96;" xml:space="preserve">
<style type="text/css">
	.st0{fill:#CBB48E;}
	.st1{fill:none;}
</style>
<g>
	<path class="st0" d="M69.2,82.5c-2.8,0.5-5.7,0.7-8.5,0.7c-10.9,0-21.4-3.4-30.3-9.7L10.5,59.1c1.1-1.2,2.5-2,4.1-2.3
		c2.1-0.4,4.2,0,5.9,1.2l13,8.8h4.2c-0.3,0.7-0.5,1.4-0.5,2.2c0,2.8,2.3,5.2,5.2,5.2h23.8v-3H42.4c-1.2,0-2.2-1-2.2-2.2
		c0-1.2,1-2.2,2.2-2.2h12.2l2.1-1.6c2.2-1.6,4.8-2.5,7.5-2.5h20.6v-3H64.3c-3.4,0-6.6,1-9.3,3l-1.4,1H34.5l-12.2-8.3
		c-2.4-1.6-5.4-2.2-8.2-1.6c-2.9,0.6-5.3,2.3-6.9,4.8l-0.8,1.2l22.3,16.1c9.4,6.7,20.5,10.3,32,10.3c3,0,6-0.3,9-0.7l15.4-2.6
		l-0.5-3L69.2,82.5z M89.3,22.9L75,14.8c-5.8-3.3-12.4-5-19-5c-5.7,0-11.4,1.3-16.6,3.7l-4.8,2.3c-4.2,2-8.6,3.7-13,4.9l-9.1,2.6
		c-4.5,1.3-7.7,5.5-7.7,10.2c0,1.5,0,3,0,4.2c0,1.3,0.5,2.5,1.4,3.5c0.9,0.9,2.2,1.4,3.5,1.4h3.7c1.2,3.7,4.7,6.5,8.9,6.5
		s7.7-2.7,8.9-6.5H65c1.2,3.7,4.7,6.5,8.9,6.5s7.7-2.7,8.9-6.5h4.6c2.2,0,3.9-1.8,3.9-3.9V26.3C91.2,24.9,90.5,23.6,89.3,22.9z
		 M27.9,42.7c-1,2.1-3.2,3.5-5.6,3.5s-4.6-1.4-5.6-3.5c-0.4-0.9-0.7-1.8-0.7-2.8c0-0.1,0-0.1,0-0.2c0.1-3.4,2.9-6.2,6.3-6.2
		s6.2,2.7,6.3,6.2c0,0.1,0,0.1,0,0.2C28.5,40.9,28.3,41.9,27.9,42.7z M79.5,42.7c-1,2.1-3.2,3.5-5.6,3.5s-4.6-1.4-5.6-3.5
		c-0.4-0.9-0.7-1.8-0.7-2.8c0-0.1,0-0.1,0-0.2c0.1-3.4,2.9-6.2,6.3-6.2s6.2,2.7,6.3,6.2c0,0.1,0,0.1,0,0.2
		C80.2,40.9,79.9,41.9,79.5,42.7z M88.2,38.8c0,0.5-0.4,0.9-0.9,0.9h-4.1c-0.1-5.1-4.2-9.2-9.3-9.2s-9.2,4.1-9.3,9.2h-33
		c-0.1-5.1-4.2-9.2-9.3-9.2s-9.2,4.1-9.3,9.2H9.7c-0.5,0-1-0.2-1.3-0.6c-0.4-0.4-0.6-0.8-0.6-1.3c0-1.3,0-2.8,0-4.3
		c0-3.4,2.2-6.4,5.5-7.3l9.1-2.6c4.6-1.3,9.2-3,13.5-5.1l4.8-2.3c4.7-2.3,10-3.5,15.3-3.5c6.1,0,12.2,1.6,17.6,4.6l14.3,8.1
		c0.3,0.1,0.4,0.4,0.4,0.7V38.8z"/>
	<rect class="st1" width="96" height="96"/>
</g>
</svg>
