<?xml version="1.0" encoding="utf-8"?>
<!-- Generator: Adobe Illustrator 24.3.0, SVG Export Plug-In . SVG Version: 6.00 Build 0)  -->
<svg version="1.1" id="Layer_1" xmlns="http://www.w3.org/2000/svg" xmlns:xlink="http://www.w3.org/1999/xlink" x="0px" y="0px"
	 viewBox="0 0 96 64" style="enable-background:new 0 0 96 64;" xml:space="preserve">
<style type="text/css">
	.st0{fill:#CBB48E;}
	.st1{fill:none;}
</style>
<path class="st0" d="M37.3,26.2c3-3,4-7.5,2.5-11.5c-0.3-0.7-0.8-1.2-1.6-1.4c-0.7-0.2-1.5,0.1-2,0.6l-4.9,5c-0.5-0.2-1-0.4-1.4-0.8
	c-0.4-0.4-0.7-0.9-0.8-1.4l4.9-5c0.5-0.5,0.7-1.3,0.6-2c-0.2-0.7-0.7-1.3-1.4-1.6c-3.9-1.5-8.4-0.4-11.4,2.6
	c-2.7,2.8-3.8,6.8-2.8,10.5L8.4,32c-2.1,2.2-2.3,5.7-0.2,7.9c1,1.1,2.4,1.7,3.9,1.8h0.1c1.5,0,2.8-0.6,3.9-1.6L26.9,29
	C30.6,30,34.6,28.9,37.3,26.2z M14,37.8c-0.5,0.5-1.2,0.7-1.8,0.8c-0.7,0-1.3-0.3-1.8-0.8c-0.9-1-0.8-2.7,0.2-3.7l12-12.1l-0.3-0.9
	c-1-2.9-0.3-6.2,1.8-8.3c1.5-1.5,3.5-2.3,5.6-2.3c0.5,0,0.9,0,1.4,0.1l-4.9,5l0.1,0.7c0.1,1.5,0.8,2.8,1.8,3.9c1,1,2.4,1.7,3.8,1.8
	l0.7,0.1l4.9-5c0.4,2.5-0.3,5.2-2.2,7.1c-2.1,2.2-5.4,2.9-8.2,1.9l-0.9-0.3L14,37.8z M87.6,36.4l-10.6-6c-4.4-2.5-9.3-3.8-14.3-3.8
	c-4.3,0-8.6,1-12.5,2.8l-3.6,1.7c-3.1,1.5-6.3,2.7-9.6,3.6l-6.7,1.9c-3.5,1-6,4.3-6,8c0,1.1,0,2.2,0,3.1c0,1.1,0.4,2.1,1.2,2.8
	c0.8,0.8,1.8,1.2,2.8,1.2H33c1,2.8,3.7,4.8,6.9,4.8c3.1,0,5.8-2,6.9-4.8h21.1c1,2.8,3.7,4.8,6.9,4.8c3.1,0,5.8-2,6.9-4.8h4.5
	c1.8,0,3.3-1.5,3.3-3.3v-9.3C89.2,38,88.6,37,87.6,36.4z M44,50.3c-0.1,0.6-0.4,1.1-0.7,1.5c-0.8,1.1-2,1.8-3.5,1.8
	c-1.4,0-2.7-0.7-3.5-1.8c-0.3-0.4-0.6-1-0.7-1.5c-0.1-0.3-0.1-0.7-0.1-1c0-0.2,0-0.3,0.1-0.5c0.3-2.1,2-3.8,4.2-3.8
	c2.2,0,4,1.7,4.2,3.8c0,0.2,0.1,0.3,0.1,0.5C44.1,49.6,44.1,50,44,50.3z M78.8,50.3c-0.1,0.6-0.4,1.1-0.7,1.5
	c-0.8,1.1-2,1.8-3.5,1.8c-1.4,0-2.7-0.7-3.5-1.8c-0.3-0.4-0.6-1-0.7-1.5c-0.1-0.3-0.1-0.7-0.1-1c0-0.2,0-0.3,0.1-0.5
	c0.3-2.1,2-3.8,4.2-3.8c2.2,0,4,1.7,4.2,3.8c0,0.2,0.1,0.3,0.1,0.5C78.9,49.6,78.8,50,78.8,50.3z M86.2,48.5c0,0.2-0.1,0.3-0.3,0.3
	h-4C81.6,45,78.5,42,74.6,42c-3.9,0-7,3-7.3,6.8H47.1C46.9,45,43.7,42,39.8,42c-3.9,0-7,3-7.3,6.8h-4.3c-0.3,0-0.5-0.1-0.7-0.3
	c-0.2-0.2-0.3-0.4-0.3-0.7c0-0.9,0-2.1,0-3.2c0-2.3,1.6-4.4,3.8-5.1l6.7-1.9c3.5-1,6.8-2.3,10.1-3.8l3.6-1.7
	c3.5-1.6,7.3-2.5,11.2-2.5c4.5,0,8.9,1.2,12.8,3.4l10.6,6c0.1,0,0.1,0.1,0.1,0.2V48.5z"/>
<rect class="st1" width="96" height="64"/>
</svg>
