<?xml version="1.0" encoding="utf-8"?>
<!-- Generator: Adobe Illustrator 25.0.0, SVG Export Plug-In . SVG Version: 6.00 Build 0)  -->
<svg version="1.1" id="Layer_1" xmlns="http://www.w3.org/2000/svg" xmlns:xlink="http://www.w3.org/1999/xlink" x="0px" y="0px"
	 viewBox="0 0 60.2 60.2" style="enable-background:new 0 0 60.2 60.2;" xml:space="preserve">
<style type="text/css">
	.st0{fill:#FE6A2B;}
</style>
<path class="st0" d="M31,5.4h-1.7V10H31V5.4z M23.7,11.2l-1.9-4.3l-1.6,0.7l1.9,4.3L23.7,11.2z M40,7.6l-1.6-0.7l-1.9,4.3l1.6,0.7
	L40,7.6z M46.8,12.7l-1.2-1.2l-3.3,3.3l1.2,1.2L46.8,12.7z M18,14.7l-3.3-3.3l-1.2,1.2l3.3,3.3L18,14.7z M32.3,34.8v-8.3H36V23H24.2
	v3.5h3.7v8.3H32.3z M19.7,17.5c-5.8,5.8-5.8,15.1,0,20.8l3.3,3.2H30l-6.8-6.8c-3.8-3.8-3.8-10,0-13.8c3.8-3.8,10-3.8,13.8,0
	c3.8,3.8,3.8,10,0,13.8l0,0l-6.8,6.8h7.1l3.3-3.2c5.8-5.8,5.8-15.1,0-20.8C34.8,11.7,25.4,11.7,19.7,17.5z M22.9,46.5
	c0,4,3.2,7.2,7.2,7.2c4,0,7.2-3.2,7.2-7.2v-2.3H22.9V46.5z"/>
</svg>
