<?xml version="1.0" encoding="utf-8"?>
<!-- Generator: Adobe Illustrator 24.3.0, SVG Export Plug-In . SVG Version: 6.00 Build 0)  -->
<svg version="1.1" id="Layer_1" xmlns="http://www.w3.org/2000/svg" xmlns:xlink="http://www.w3.org/1999/xlink" x="0px" y="0px"
	 viewBox="0 0 360 100" style="enable-background:new 0 0 360 100;" xml:space="preserve">
<style type="text/css">
	.st0{fill:#FFFFFF;stroke:#2A3138;stroke-width:2;stroke-miterlimit:10;}
	.st1{fill:#2A3138;}
	.st2{fill:none;stroke:#2A3138;stroke-width:2;stroke-linecap:round;stroke-miterlimit:10;}
	.st3{fill:none;stroke:#2A3138;stroke-width:2;stroke-linecap:round;stroke-miterlimit:10;stroke-dasharray:9.891400e-02,7.9131;}
	.st4{fill:none;stroke:#2A3138;stroke-width:2;stroke-miterlimit:10;}
	.st5{fill:#E17639;}
	.st6{fill:#221F20;}
	.st7{fill:#FFFFFF;}
	.st8{fill:none;}
</style>
<g>
	<g>
		<path class="st0" d="M213.8,58.4H147c-1.2,0-2.1-0.9-2.1-2.1V45.5c0-0.7,0.4-1.4,1-1.8l12.3-7c4.8-2.7,10.2-4.2,15.7-4.2h0
			c4.7,0,9.4,1.1,13.7,3.1l4.1,2c3.7,1.8,7.5,3.2,11.4,4.3l7.8,2.2c3.4,1,5.7,4.1,5.7,7.6c0,1.3,0,2.6,0,3.7
			C216.7,57.1,215.4,58.4,213.8,58.4z"/>
		<g>
			<circle class="st0" cx="202.7" cy="57.2" r="5.9"/>
			<circle class="st1" cx="202.7" cy="57.2" r="1.4"/>
		</g>
		<g>
			<circle class="st0" cx="157.1" cy="57.2" r="5.9"/>
			<circle class="st1" cx="157.1" cy="57.2" r="1.4"/>
		</g>
		<line class="st0" x1="215.8" y1="48.4" x2="211.2" y2="48.4"/>
		<line class="st0" x1="149.4" y1="48.4" x2="144.7" y2="48.4"/>
		<line class="st0" x1="203.2" y1="42" x2="148.7" y2="42"/>
	</g>
	<g>
		<g>
			<line class="st2" x1="80.5" y1="65.5" x2="80.6" y2="65.5"/>
			<line class="st3" x1="88.5" y1="65.5" x2="276.8" y2="65.5"/>
			<line class="st2" x1="280.8" y1="65.5" x2="280.8" y2="65.5"/>
		</g>
	</g>
	<g>
		<path class="st4" d="M186.1,25.7h-22.9c-1.3,0-2.4-1.1-2.4-2.4V8.9c0-1.3,1.1-2.4,2.4-2.4h22.9c1.3,0,2.4,1.1,2.4,2.4v14.4
			C188.5,24.6,187.4,25.7,186.1,25.7z"/>
		<path class="st4" d="M161.4,7.1l11.7,10.7c0.9,0.8,2.3,0.8,3.2,0l11.7-10.7"/>
	</g>
	<g id="bi">
		<path id="Path" class="st5" d="M59.2,65.5c0,14.8-12.1,27-27,27s-27-12.1-27-27s12.2-27,27-27S59.2,50.7,59.2,65.5z"/>
		<path id="Path_1_" class="st6" d="M50.1,65.5c0,10-8.1,18-18,18c-10,0-18-8.1-18-18c0-10,8.1-18,18-18S50.1,55.6,50.1,65.5z"/>
		<polygon id="Path_2_" class="st7" points="43,56.5 32.2,56.5 32.2,56.5 21.4,56.5 21.4,63 28.1,63 28.1,78.1 32.2,78.1 36.1,78.1 
			36.1,63 43,63 		"/>
	</g>
	<path class="st1" d="M327.8,38.5c-14.9,0-27,12.1-27,27s12.1,27,27,27c14.9,0,27-12.1,27-27S342.7,38.5,327.8,38.5z M341.6,84.8
		c-3.9,2.8-8.6,4.5-13.8,4.5c-5.1,0-9.9-1.7-13.8-4.5v-7.1c0-2.7,2.2-5,5-5h17.6c2.7,0,5,2.2,5,5V84.8z M344.9,81.9v-4.3
		c0-4.6-3.7-8.3-8.3-8.3H319c-4.6,0-8.3,3.7-8.3,8.3v4.3c-4.1-4.3-6.6-10-6.6-16.4c0-13.1,10.6-23.7,23.7-23.7s23.7,10.6,23.7,23.7
		C351.5,71.9,349,77.7,344.9,81.9z M327.8,47.4c-5.2,0-9.4,4.2-9.4,9.4s4.2,9.4,9.4,9.4s9.4-4.2,9.4-9.4S333,47.4,327.8,47.4z
		 M327.8,62.8c-3.3,0-6.1-2.7-6.1-6.1s2.7-6.1,6.1-6.1c3.3,0,6.1,2.7,6.1,6.1S331.2,62.8,327.8,62.8z"/>
</g>
<rect class="st8" width="360" height="100"/>
</svg>
