<?xml version="1.0" encoding="UTF-8"?>
<svg width="2px" height="40px" viewBox="0 0 2 40" version="1.1" xmlns="http://www.w3.org/2000/svg" xmlns:xlink="http://www.w3.org/1999/xlink">
    <title>guid-box-thumb-dots</title>
    <g id="guid-box-thumb-dots" stroke="none" stroke-width="1" fill="none" fill-rule="evenodd">
        <path d="M1,28 C1.55228475,28 2,28.4477153 2,29 C2,29.5522847 1.55228475,30 1,30 C0.44771525,30 0,29.5522847 0,29 C0,28.4477153 0.44771525,28 1,28 Z M1,19 C1.55228475,19 2,19.4477153 2,20 C2,20.5522847 1.55228475,21 1,21 C0.44771525,21 0,20.5522847 0,20 C0,19.4477153 0.44771525,19 1,19 Z M1,10 C1.55228475,10 2,10.4477153 2,11 C2,11.5522847 1.55228475,12 1,12 C0.44771525,12 0,11.5522847 0,11 C0,10.4477153 0.44771525,10 1,10 Z" id="Combined-Shape" fill="#C0C6CE"></path>
    </g>
</svg>