<svg xmlns="http://www.w3.org/2000/svg" width="50" height="36" viewBox="0 0 50 36">
  <defs>
    <style>
      .cls-1 {
        fill: #5eb0b5;
      }

      .cls-1, .cls-2, .cls-3 {
        fill-rule: evenodd;
      }

      .cls-2 {
        fill: #fe6a2b;
      }

      .cls-3 {
        fill: #6d80f5;
      }
    </style>
  </defs>
  <path class="cls-1" d="M32.5,23.5a3,3,0,1,1-3-3A3,3,0,0,1,32.5,23.5Zm-10-12a3,3,0,1,1-3-3A3,3,0,0,1,22.5,11.5ZM43.5,35H5.5A5.507,5.507,0,0,1,0,29.5V22H1.5a4.5,4.5,0,1,0,0-9H0V5.5A5.507,5.507,0,0,1,5.5,0h38A5.507,5.507,0,0,1,49,5.5V13H47.5a4.5,4.5,0,1,0,0,9H49v7.5A5.507,5.507,0,0,1,43.5,35ZM3,24.85V29.5A2.5,2.5,0,0,0,5.5,32h38A2.5,2.5,0,0,0,46,29.5V24.85a7.5,7.5,0,0,1,0-14.7V5.5A2.5,2.5,0,0,0,43.5,3H5.5A2.5,2.5,0,0,0,3,5.5v4.65A7.5,7.5,0,0,1,3,24.85Zm15.56,0.711L16.44,23.44l14-14,2.121,2.121Z"/>
  <path class="cls-2" d="M-226.568-11.212l-1.065-1.066c-0.6-.6-14.643-14.809-14.643-27.01a15.74,15.74,0,0,1,15.708-15.735,15.74,15.74,0,0,1,15.709,15.735c0,12.2-14.046,26.411-14.644,27.01Zm0-40.794a12.721,12.721,0,0,0-12.7,12.718c0,9.127,9.464,20.225,12.7,23.749,3.232-3.523,12.7-14.622,12.7-23.749A12.722,12.722,0,0,0-226.568-52.006Zm0,19.247a6.531,6.531,0,0,1-6.519-6.53,6.531,6.531,0,0,1,6.519-6.53,6.532,6.532,0,0,1,6.519,6.53A6.532,6.532,0,0,1-226.568-32.758Zm0-10.042a3.513,3.513,0,0,0-3.507,3.512,3.513,3.513,0,0,0,3.507,3.512,3.513,3.513,0,0,0,3.506-3.512A3.513,3.513,0,0,0-226.568-42.8ZM-197.01-4.035H-254l9.2-21.989h10.044v3.016h-8.072L-249.5-7.05h48l-6.678-15.957h-9.341v-3.016h11.313Z"/>
  <path class="cls-3" d="M-55.67,6.771L-66.277.763A29.125,29.125,0,0,0-80.6-3.01,29.245,29.245,0,0,0-93.072-.2l-3.575,1.7a62.931,62.931,0,0,1-9.619,3.635l-6.742,1.933a8.284,8.284,0,0,0-5.985,7.97c0.006,1.092.009,2.2,0.008,3.138a3.984,3.984,0,0,0,1.179,2.843,4.01,4.01,0,0,0,2.848,1.174h4.687a7.313,7.313,0,0,0,6.855,4.791A7.313,7.313,0,0,0-96.56,22.19h21.051a7.312,7.312,0,0,0,6.855,4.791A7.313,7.313,0,0,0-61.8,22.19h4.452a3.322,3.322,0,0,0,3.321-3.315V9.593A3.249,3.249,0,0,0-55.67,6.771Zm-5.7,12.405A7.305,7.305,0,0,0-68.653,12.4a7.305,7.305,0,0,0-7.282,6.781h-20.2a7.305,7.305,0,0,0-7.283-6.781,7.3,7.3,0,0,0-7.281,6.781h-4.261a1,1,0,0,1-.714-0.294,0.987,0.987,0,0,1-.294-0.706c0-.946,0-2.059-0.008-3.156a5.262,5.262,0,0,1,3.8-5.059l6.741-1.934a65.747,65.747,0,0,0,10.084-3.81l3.575-1.7A26.205,26.205,0,0,1-80.6,0,26.1,26.1,0,0,1-67.767,3.384L-57.16,9.392a0.232,0.232,0,0,1,.117.2v9.282a0.3,0.3,0,0,1-.3.3H-61.37Zm-3.819,3.014a4.279,4.279,0,0,1-3.463,1.777,4.278,4.278,0,0,1-3.463-1.777,4.244,4.244,0,0,1-.7-1.507,4.231,4.231,0,0,1-.129-1,4.2,4.2,0,0,1,.052-0.511,4.276,4.276,0,0,1,4.236-3.768,4.276,4.276,0,0,1,4.237,3.768,4.183,4.183,0,0,1,.052.511,4.242,4.242,0,0,1-.129,1A4.25,4.25,0,0,1-65.189,22.19Zm-34.763,0a4.28,4.28,0,0,1-3.464,1.777,4.277,4.277,0,0,1-3.462-1.777,4.222,4.222,0,0,1-.7-1.507,4.2,4.2,0,0,1-.129-1,4.3,4.3,0,0,1,.051-0.511,4.277,4.277,0,0,1,4.236-3.768,4.277,4.277,0,0,1,4.237,3.768,4.2,4.2,0,0,1,.052.511,4.236,4.236,0,0,1-.129,1A4.243,4.243,0,0,1-99.952,22.19Z"/>
</svg>
