<svg xmlns="http://www.w3.org/2000/svg" width="42.093" height="37.66" viewBox="0 0 42.093 37.66">
  <defs>
    <style>
      .cls-1 {
        fill: #fff;
        fill-rule: evenodd;
      }
    </style>
  </defs>
  <path class="cls-1" d="M216.539,2247.44H174.453l6.8-16.24h4.972c-1.75-3.1-3.11-6.54-3.11-9.79a11.6,11.6,0,1,1,23.2,0c0,3.25-1.36,6.69-3.11,9.79h6.541Zm-21.828-35.42a9.391,9.391,0,0,0-9.375,9.39c0,6.74,6.989,14.93,9.375,17.53,2.387-2.6,9.376-10.79,9.376-17.53A9.392,9.392,0,0,0,194.711,2212.02Zm7.137,21.41a54.254,54.254,0,0,1-6.35,7.92l-0.787.79-0.786-.79a54.18,54.18,0,0,1-6.35-7.92h-4.87l-4.932,11.78h35.446l-4.932-11.78h-6.439ZM189.9,2221.41a4.814,4.814,0,1,1,4.814,4.82A4.83,4.83,0,0,1,189.9,2221.41Zm7.4,0a2.59,2.59,0,1,0-2.59,2.59A2.6,2.6,0,0,0,197.3,2221.41Z" transform="translate(-174.438 -2209.78)"/>
</svg>
