<?xml version="1.0" encoding="UTF-8"?>
<svg width="44px" height="20px" viewBox="0 0 44 20" version="1.1" xmlns="http://www.w3.org/2000/svg" xmlns:xlink="http://www.w3.org/1999/xlink">
    <title>icon_smart_driver-mint</title>
    <g id="Page-1" stroke="none" stroke-width="1" fill="none" fill-rule="evenodd">
        <g id="icon_smart_driver-mint" fill="#5EB0B5">
            <path d="M41.93,6.482 L35.091,2.582 C29.7613668,-0.457552104 23.2804815,-0.692188102 17.745,1.954 L15.445,3.054 C13.4481765,4.00833123 11.3761793,4.79666012 9.25,5.411 L4.9,6.665 C2.57467198,7.34961584 0.98117363,9.48800096 0.989963517,11.912 C0.989963517,12.62 0.995,13.339 0.989963517,13.949 C0.988141339,14.6595963 1.26878004,15.3417976 1.77012258,15.8453908 C2.27146512,16.348984 2.95240255,16.6326757 3.663,16.634 L5.203,16.634 C5.89876473,18.5028474 7.68283869,19.742347 9.677,19.742347 C11.6711613,19.742347 13.4552353,18.5028474 14.151,16.634 L29.901,16.634 C30.5967647,18.5028474 32.3808387,19.742347 34.375,19.742347 C36.3691613,19.742347 38.1532353,18.5028474 38.849,16.634 L40.808,16.634 C41.3991585,16.6329411 41.9656396,16.3968824 42.3826195,15.9778391 C42.7995994,15.5587959 43.0328591,14.9911565 43.031011,14.4 L43.031011,8.381 C43.031011,7.59637741 42.6109462,6.87180108 41.93,6.482 Z M12.368,14.932 C12.4057341,16.422896 11.2575127,17.6766193 9.76904994,17.7697493 C8.28058716,17.8628793 6.98504681,16.7620571 6.83664961,15.278085 C6.68825241,13.794113 7.74015388,12.4585466 9.21758374,12.2550873 C10.6950136,12.0516281 12.0687599,13.0531546 12.327,14.522 C12.3515035,14.657386 12.365545,14.7944578 12.369,14.932 L12.368,14.932 Z M37.068,14.932 C37.10568,16.4223449 35.957861,17.6755783 34.4699481,17.7686538 C32.9820353,17.8617293 31.6869847,16.7613083 31.5386424,15.2778858 C31.3903002,13.7944633 32.441801,12.459387 33.9186811,12.2559833 C35.3955611,12.0525795 36.7688161,13.0537055 37.027,14.522 C37.0504975,14.657464 37.063536,14.7945353 37.066,14.932 L37.068,14.932 Z M40.931,14.405 C40.931,14.4697811 40.8787787,14.522451 40.814,14.523 L39.148,14.523 C38.9474873,12.0381553 36.8724217,10.1237905 34.3795,10.1237905 C31.8865783,10.1237905 29.8115127,12.0381553 29.611,14.523 L14.45,14.523 C14.2494873,12.0381553 12.1744217,10.1237905 9.6815,10.1237905 C7.18857834,10.1237905 5.11351268,12.0381553 4.913,14.523 L3.668,14.523 C3.51682631,14.5224705 3.37205475,14.4619087 3.26553389,14.3546377 C3.15901303,14.2473667 3.09946864,14.1021737 3.09997279,13.951 C3.09997279,13.337 3.09997279,12.616 3.09997279,11.902 C3.09404602,10.4215697 4.06560616,9.11474999 5.485,8.694 L9.831,7.44 C12.0662394,6.79429465 14.2445829,5.96583514 16.344,4.963 L18.644,3.863 C23.5601699,1.51208941 29.3164371,1.72020578 34.05,4.42 L40.889,8.32 C40.9114759,8.33248674 40.9252972,8.35629018 40.925,8.382 L40.925,14.4 L40.931,14.405 Z" id="Shape"></path>
        </g>
    </g>
</svg>