<svg xmlns="http://www.w3.org/2000/svg" width="48" height="48" viewBox="0 0 48 48">
  <g id="그룹_4" data-name="그룹 4" transform="translate(-176 -2861)">
    <rect id="사각형_2" data-name="사각형 2" width="48" height="48" transform="translate(176 2861)" fill="none"/>
    <path id="Op_component_1" data-name="Op component 1" d="M180.756,2869.947a2.039,2.039,0,0,0,1.456.607h.782a3.4,3.4,0,0,0,6.208,0h9.754a3.4,3.4,0,0,0,6.209,0h1.053a1.77,1.77,0,0,0,1.762-1.775v-3.9a1.75,1.75,0,0,0-.878-1.518l-4.42-2.528a12.388,12.388,0,0,0-11.514-.417l-1.49.714a25.645,25.645,0,0,1-3.95,1.507l-2.809.813a3.861,3.861,0,0,0-2.768,3.72c0,.458,0,.922,0,1.318A2.062,2.062,0,0,0,180.756,2869.947Zm6.751-.826a1.428,1.428,0,1,1-.135-.6A1.415,1.415,0,0,1,187.506,2869.121Zm15.962,0a1.429,1.429,0,1,1-.135-.6A1.415,1.415,0,0,1,203.469,2869.121Zm-19.992-3.726,2.809-.813a27.615,27.615,0,0,0,4.259-1.625l1.49-.713a10.386,10.386,0,0,1,9.654.35l4.277,2.446v3.485h-.541a3.41,3.41,0,0,0-6.727,0h-9.235a3.409,3.409,0,0,0-6.727,0h-.523l-.041-.039c0-.4,0-.866,0-1.33A1.827,1.827,0,0,1,183.477,2865.4Z" transform="translate(7.029 11.809)" fill="#5eb0b5" stroke="rgba(0,0,0,0)" stroke-miterlimit="10" stroke-width="1"/>
    <path id="Op_component_3" data-name="Op component 3" d="M205.928,2874.406a2.582,2.582,0,0,0-2.474,1.9h-6.98a5.121,5.121,0,0,0-3.061,1.009l-.645.477H186.03l-4.36-2.981a4.385,4.385,0,0,0-6.188,1.289l-.511.81,11.9,8.615a7.608,7.608,0,0,0,4.491,1.457h5.206a7.6,7.6,0,0,0,1.265-.105l5.551-.932a2.585,2.585,0,0,0,2.544,2.219h6.028v-13.755Zm-8.426,10.467a5.661,5.661,0,0,1-.934.077h-5.206a5.62,5.62,0,0,1-3.315-1.075l-10.2-7.384a2.386,2.386,0,0,1,.864-.367,2.361,2.361,0,0,1,1.825.365l4.872,3.331h2.256v.416a2.651,2.651,0,0,0,2.638,2.657h6.179v-2.03h-6.179a.626.626,0,0,1-.623-.627v-.416h3.745l1.177-.87a3.172,3.172,0,0,1,1.87-.616h6.872v5.557Zm12.44,1.258h-4.013a.57.57,0,0,1-.567-.572v-8.552a.57.57,0,0,1,.567-.571h4.013Z" transform="translate(7.029 11.809)" fill="#5eb0b5" stroke="rgba(0,0,0,0)" stroke-miterlimit="10" stroke-width="1"/>
  </g>
</svg>
