<svg xmlns="http://www.w3.org/2000/svg" width="34" height="24" viewBox="0 0 34 24">
  <defs>
    <style>
      .cls-1 {
        fill: #fff;
        fill-rule: evenodd;
      }
    </style>
  </defs>
  <path class="cls-1" d="M20.809,14.669a1.645,1.645,0,1,0,1.683,1.645A1.664,1.664,0,0,0,20.809,14.669Zm-6.731-4.605A1.645,1.645,0,1,0,12.4,8.419,1.664,1.664,0,0,0,14.078,10.064Zm18.846-.658h1.01V4.472a3.665,3.665,0,0,0-3.7-3.618H4.655a3.665,3.665,0,0,0-3.7,3.618V9.406h1.01a2.961,2.961,0,1,1,0,5.921H0.953v4.934a3.665,3.665,0,0,0,3.7,3.618H30.232a3.665,3.665,0,0,0,3.7-3.618V15.327h-1.01A2.961,2.961,0,1,1,32.924,9.406Zm-1.009,7.8v3.06a1.666,1.666,0,0,1-1.683,1.645H4.655a1.666,1.666,0,0,1-1.683-1.645V17.2a4.914,4.914,0,0,0,0-9.67V4.472A1.666,1.666,0,0,1,4.655,2.827H30.232a1.666,1.666,0,0,1,1.683,1.645V7.531A4.914,4.914,0,0,0,31.915,17.2Zm-19.9-.928,1.428,1.4,9.423-9.21-1.428-1.4Z"/>
</svg>
