<svg xmlns="http://www.w3.org/2000/svg" width="66" height="30" viewBox="0 0 66 30">
  <defs>
    <style>
      .cls-1 {
        fill: #5eb0b5;
      }

      .cls-1, .cls-2, .cls-3 {
        fill-rule: evenodd;
      }

      .cls-2 {
        fill: #fe6a2b;
      }

      .cls-3 {
        fill: #6d80f5;
      }
    </style>
  </defs>
  <path class="cls-1" d="M151.5,26.5a3,3,0,1,1-3-3A3,3,0,0,1,151.5,26.5Zm-10-12a3,3,0,1,1-3-3A3,3,0,0,1,141.5,14.5Zm21,23.5h-38a5.507,5.507,0,0,1-5.5-5.5V25h1.5a4.5,4.5,0,1,0,0-9H119V8.5A5.507,5.507,0,0,1,124.5,3h38A5.507,5.507,0,0,1,168,8.5V16h-1.5a4.5,4.5,0,1,0,0,9H168v7.5A5.507,5.507,0,0,1,162.5,38ZM122,27.85V32.5a2.5,2.5,0,0,0,2.5,2.5h38a2.5,2.5,0,0,0,2.5-2.5V27.85a7.5,7.5,0,0,1,0-14.7V8.5A2.5,2.5,0,0,0,162.5,6h-38A2.5,2.5,0,0,0,122,8.5v4.65A7.5,7.5,0,0,1,122,27.85Zm15.56,0.711-2.12-2.121,14-14,2.122,2.121Z"/>
  <path class="cls-2" d="M-107.568-8.212l-1.065-1.067c-0.6-.6-14.643-14.809-14.643-27.01a15.74,15.74,0,0,1,15.708-15.735A15.74,15.74,0,0,1-91.859-36.288c0,12.2-14.046,26.41-14.644,27.01Zm0-40.794a12.721,12.721,0,0,0-12.7,12.718c0,9.127,9.464,20.225,12.7,23.749,3.232-3.523,12.7-14.622,12.7-23.749A12.721,12.721,0,0,0-107.568-49.006Zm0,19.247a6.531,6.531,0,0,1-6.519-6.53,6.531,6.531,0,0,1,6.519-6.53,6.532,6.532,0,0,1,6.519,6.53A6.532,6.532,0,0,1-107.568-29.758Zm0-10.042a3.513,3.513,0,0,0-3.507,3.512,3.513,3.513,0,0,0,3.507,3.512,3.513,3.513,0,0,0,3.506-3.512A3.513,3.513,0,0,0-107.568-39.8ZM-78.01-1.035H-135l9.2-21.989h10.044v3.016h-8.072L-130.5-4.05h48l-6.678-15.957h-9.341v-3.016h11.313Z"/>
  <path class="cls-3" d="M63.33,9.771L52.723,3.763A29.074,29.074,0,0,0,25.928,2.8L22.353,4.5a62.931,62.931,0,0,1-9.62,3.635L5.992,10.066a8.284,8.284,0,0,0-5.985,7.97c0.006,1.092.009,2.2,0.008,3.138A4.018,4.018,0,0,0,4.042,25.19H8.729a7.3,7.3,0,0,0,13.711,0H43.492a7.3,7.3,0,0,0,13.711,0h4.452a3.322,3.322,0,0,0,3.321-3.315V12.593A3.249,3.249,0,0,0,63.33,9.771Zm-5.7,12.405a7.3,7.3,0,0,0-14.564,0h-20.2a7.3,7.3,0,0,0-14.564,0H4.042a1,1,0,0,1-.714-0.294,0.988,0.988,0,0,1-.294-0.706c0-.946,0-2.059-0.008-3.156a5.26,5.26,0,0,1,3.8-5.059l6.741-1.934a65.759,65.759,0,0,0,10.084-3.81l3.575-1.7a26.048,26.048,0,0,1,24.007.863L61.84,12.392a0.232,0.232,0,0,1,.117.2v9.282a0.3,0.3,0,0,1-.3.3H57.63ZM53.811,25.19a4.279,4.279,0,0,1-7.622-1.507,3.317,3.317,0,0,1-.077-1.507,4.266,4.266,0,0,1,8.473,0,4.183,4.183,0,0,1,.052.511A4.4,4.4,0,0,1,53.811,25.19Zm-34.763,0a4.279,4.279,0,0,1-7.622-1.507,3.306,3.306,0,0,1-.078-1.507,4.266,4.266,0,0,1,8.473,0A4.177,4.177,0,0,1,19.048,25.19Z"/>
</svg>
