<?xml version="1.0" encoding="UTF-8"?>
<svg width="48px" height="48px" viewBox="0 0 48 48" version="1.1" xmlns="http://www.w3.org/2000/svg" xmlns:xlink="http://www.w3.org/1999/xlink">
    <title>icon-img-membership</title>
    <g id="icon-img-membership" stroke="none" stroke-width="1" fill="none" fill-rule="evenodd">
        <g id="Group-2" transform="translate(2.500000, 6.000000)" fill-rule="nonzero">
            <g id="그룹_33965">
                <path d="M43.1199149,0.800680851 L43.1199149,25.8587193 C43.1199149,28.0592634 42.332276,30.0534929 41.0523059,31.4962673 C39.7927195,32.9160651 38.0544781,33.8006809 36.1305532,33.8006809 L36.1305532,33.8006809 L0.5,33.8006809 L0.5,8.74264237 C0.5,6.54209829 1.28763887,4.54786877 2.56760903,3.10509445 C3.82719538,1.68529661 5.56543674,0.800680851 7.4893617,0.800680851 L7.4893617,0.800680851 L43.1199149,0.800680851 Z" id="사각형_17564" stroke="#2A3138"></path>
                <rect id="사각형_17565" fill="#2A3138" x="17.7469787" y="5.19795745" width="8.42553191" height="1.87234043" rx="0.936170213"></rect>
                <path d="M36,22 C36.5522847,22 37,22.4477153 37,23 C37,23.5522847 36.5522847,24 36,24 L24,24 C23.4477153,24 23,23.5522847 23,23 C23,22.4477153 23.4477153,22 24,22 L36,22 Z M36,18 C36.5522847,18 37,18.4477153 37,19 C37,19.5522847 36.5522847,20 36,20 L24,20 C23.4477153,20 23,19.5522847 23,19 C23,18.4477153 23.4477153,18 24,18 L36,18 Z M39,14 C39.5522847,14 40,14.4477153 40,15 C40,15.5522847 39.5522847,16 39,16 L24,16 C23.4477153,16 23,15.5522847 23,15 C23,14.4477153 23.4477153,14 24,14 L39,14 Z" id="Combined-Shape" fill="#2A3138"></path>
            </g>
            <g id="Group" transform="translate(3.500000, 11.000000)">
                <path d="M16,8 C16,12.4 12.4,16 8,16 C3.6,16 0,12.4 0,8 C0,3.6 3.6,0 8,0 C12.4,0 16,3.6 16,8 Z" id="Path" fill="#E17639"></path>
                <path d="M13.32,8 C13.32,10.96 10.92,13.32 8,13.32 C5.04,13.32 2.68,10.92 2.68,8 C2.68,5.04 5.08,2.68 8,2.68 C10.92,2.68 13.32,5.04 13.32,8 Z" id="Path" fill="#221F20"></path>
                <polygon id="Path" fill="#FFFFFF" points="11.2 5.32 8 5.32 8 5.32 4.8 5.32 4.8 7.24 6.8 7.24 6.8 11.72 8 11.72 9.16 11.72 9.16 7.24 11.2 7.24"></polygon>
            </g>
        </g>
    </g>
</svg>