<svg xmlns="http://www.w3.org/2000/svg" width="43" height="20" viewBox="0 0 43 20">
  <defs>
    <style>
      .cls-1 {
        fill: #fff;
        fill-rule: evenodd;
      }
    </style>
  </defs>
  <path class="cls-1" d="M40.93,6.482l-6.839-3.9a18.718,18.718,0,0,0-17.346-.628l-2.3,1.1A40.326,40.326,0,0,1,8.25,5.411L3.9,6.665A5.449,5.449,0,0,0-.01,11.912c0,0.708.005,1.427,0,2.037a2.678,2.678,0,0,0,2.673,2.685h1.54a4.774,4.774,0,0,0,8.948,0h15.75a4.774,4.774,0,0,0,8.948,0h1.959A2.227,2.227,0,0,0,42.031,14.4V8.381A2.188,2.188,0,0,0,40.93,6.482Zm-29.562,8.45a2.773,2.773,0,1,1-.041-0.41A2.68,2.68,0,0,1,11.369,14.932Zm24.7,0a2.772,2.772,0,1,1-.041-0.41A2.68,2.68,0,0,1,36.066,14.932Zm3.863-.527a0.118,0.118,0,0,1-.117.118H38.148a4.784,4.784,0,0,0-9.537,0H13.45a4.784,4.784,0,0,0-9.537,0H2.668A0.57,0.57,0,0,1,2.1,13.951c0-.614,0-1.335,0-2.049A3.332,3.332,0,0,1,4.485,8.694L8.831,7.44a42.431,42.431,0,0,0,6.513-2.477l2.3-1.1a16.622,16.622,0,0,1,15.406.557l6.839,3.9a0.07,0.07,0,0,1,.036.062V14.4Z"/>
</svg>
