<?xml version="1.0" encoding="UTF-8"?>
<svg width="109px" height="22px" viewBox="0 0 109 22" version="1.1" xmlns="http://www.w3.org/2000/svg" xmlns:xlink="http://www.w3.org/1999/xlink">
    <title>rating-off</title>
    <g id="rating-off" stroke="none" stroke-width="1" fill="none" fill-rule="evenodd">
        <path d="M10.7854557,2.10173104 C10.9846396,2.19934943 11.1457134,2.36042325 11.2433318,2.55960721 L13.589549,7.3469101 L18.8501695,8.11668514 C19.3966348,8.19664821 19.7748096,8.70446876 19.6948465,9.25093409 C19.6632275,9.46701775 19.5617419,9.66681047 19.4058931,9.81979111 L15.5945594,13.5609839 L16.4927795,18.8347451 C16.5855086,19.3791896 16.2193209,19.8957207 15.6748764,19.9884498 C15.4574938,20.0254741 15.2339691,19.9896076 15.0390829,19.8864312 L10.3453741,17.4014927 L5.65166521,19.8864312 C5.16356407,20.1448412 4.55839723,19.9586397 4.29998723,19.4705386 C4.19681079,19.2756524 4.1609443,19.0521277 4.19796862,18.8347451 L5.09618871,13.5609839 L1.28485498,9.81979111 C0.890720857,9.43291033 0.884840855,8.79977265 1.27172163,8.40563853 C1.42470227,8.24978976 1.62449498,8.14830419 1.84057865,8.11668514 L7.1011991,7.3469101 L9.44741627,2.55960721 C9.69046664,2.06367882 10.2895273,1.85868067 10.7854557,2.10173104 Z M32.8627361,2.10173104 C33.06192,2.19934943 33.2229938,2.36042325 33.3206122,2.55960721 L35.6668294,7.3469101 L40.9274499,8.11668514 C41.4739152,8.19664821 41.85209,8.70446876 41.7721269,9.25093409 C41.7405079,9.46701775 41.6390223,9.66681047 41.4831735,9.81979111 L37.6718398,13.5609839 L38.5700599,18.8347451 C38.6627889,19.3791896 38.2966013,19.8957207 37.7521568,19.9884498 C37.5347742,20.0254741 37.3112495,19.9896076 37.1163633,19.8864312 L32.4226544,17.4014927 L27.7289456,19.8864312 C27.2408445,20.1448412 26.6356776,19.9586397 26.3772676,19.4705386 C26.2740912,19.2756524 26.2382247,19.0521277 26.275249,18.8347451 L27.1734691,13.5609839 L23.3621354,9.81979111 C22.9680013,9.43291033 22.9621212,8.79977265 23.349002,8.40563853 C23.5019827,8.24978976 23.7017754,8.14830419 23.917859,8.11668514 L29.1784795,7.3469101 L31.5246967,2.55960721 C31.767747,2.06367882 32.3668077,1.85868067 32.8627361,2.10173104 Z M54.9400165,2.10173104 C55.1392004,2.19934943 55.3002742,2.36042325 55.3978926,2.55960721 L57.7441098,7.3469101 L63.0047302,8.11668514 C63.5511956,8.19664821 63.9293704,8.70446876 63.8494073,9.25093409 C63.8177883,9.46701775 63.7163027,9.66681047 63.5604539,9.81979111 L59.7491202,13.5609839 L60.6473403,18.8347451 C60.7400693,19.3791896 60.3738817,19.8957207 59.8294372,19.9884498 C59.6120546,20.0254741 59.3885299,19.9896076 59.1936437,19.8864312 L54.4999348,17.4014927 L49.806226,19.8864312 C49.3181249,20.1448412 48.712958,19.9586397 48.454548,19.4705386 C48.3513716,19.2756524 48.3155051,19.0521277 48.3525294,18.8347451 L49.2507495,13.5609839 L45.4394158,9.81979111 C45.0452816,9.43291033 45.0394016,8.79977265 45.4262824,8.40563853 C45.5792631,8.24978976 45.7790558,8.14830419 45.9951394,8.11668514 L51.2557599,7.3469101 L53.6019771,2.55960721 C53.8450274,2.06367882 54.4440881,1.85868067 54.9400165,2.10173104 Z M77.0172968,2.10173104 C77.2164808,2.19934943 77.3775546,2.36042325 77.475173,2.55960721 L79.8213902,7.3469101 L85.0820106,8.11668514 C85.628476,8.19664821 86.0066508,8.70446876 85.9266877,9.25093409 C85.8950686,9.46701775 85.7935831,9.66681047 85.6377343,9.81979111 L81.8264006,13.5609839 L82.7246207,18.8347451 C82.8173497,19.3791896 82.4511621,19.8957207 81.9067176,19.9884498 C81.689335,20.0254741 81.4658103,19.9896076 81.2709241,19.8864312 L76.5772152,17.4014927 L71.8835064,19.8864312 C71.3954053,20.1448412 70.7902384,19.9586397 70.5318284,19.4705386 C70.428652,19.2756524 70.3927855,19.0521277 70.4298098,18.8347451 L71.3280299,13.5609839 L67.5166962,9.81979111 C67.122562,9.43291033 67.116682,8.79977265 67.5035628,8.40563853 C67.6565435,8.24978976 67.8563362,8.14830419 68.0724198,8.11668514 L73.3330403,7.3469101 L75.6792575,2.55960721 C75.9223078,2.06367882 76.5213685,1.85868067 77.0172968,2.10173104 Z M99.0945772,2.10173104 C99.2937612,2.19934943 99.454835,2.36042325 99.5524534,2.55960721 L101.898671,7.3469101 L107.159291,8.11668514 C107.705756,8.19664821 108.083931,8.70446876 108.003968,9.25093409 C107.972349,9.46701775 107.870863,9.66681047 107.715015,9.81979111 L103.903681,13.5609839 L104.801901,18.8347451 C104.89463,19.3791896 104.528442,19.8957207 103.983998,19.9884498 C103.766615,20.0254741 103.543091,19.9896076 103.348204,19.8864312 L98.6544956,17.4014927 L93.9607868,19.8864312 C93.4726856,20.1448412 92.8675188,19.9586397 92.6091088,19.4705386 C92.5059324,19.2756524 92.4700659,19.0521277 92.5070902,18.8347451 L93.4053103,13.5609839 L89.5939766,9.81979111 C89.1998424,9.43291033 89.1939624,8.79977265 89.5808432,8.40563853 C89.7338238,8.24978976 89.9336166,8.14830419 90.1497002,8.11668514 L95.4103207,7.3469101 L97.7565378,2.55960721 C97.9995882,2.06367882 98.5986489,1.85868067 99.0945772,2.10173104 Z" id="Combined-Shape" fill="#D8D8D8"></path>
    </g>
</svg>