<?xml version="1.0" encoding="utf-8"?>
<!-- Generator: Adobe Illustrator 25.3.0, SVG Export Plug-In . SVG Version: 6.00 Build 0)  -->
<svg version="1.1" id="Layer_1" xmlns="http://www.w3.org/2000/svg" xmlns:xlink="http://www.w3.org/1999/xlink" x="0px" y="0px"
	 viewBox="0 0 200 200" style="enable-background:new 0 0 200 200;" xml:space="preserve">
<style type="text/css">
	.st0{fill:none;stroke:#D9DBDC;stroke-width:4;stroke-linecap:round;stroke-linejoin:round;stroke-miterlimit:10;}
	.st1{fill:#D9DBDC;}
	.st2{fill:none;}
</style>
<g>
	<g>
		<g>
			<path class="st0" d="M116.6,103v59.2c0,5.7-4.6,10.3-10.3,10.3H18.9c-5.7,0-10.3-4.6-10.3-10.3v-72c0-5.7,4.6-10.3,10.3-10.3h84"
				/>
			<line class="st0" x1="36.9" y1="90.9" x2="36.9" y2="69"/>
			<line class="st0" x1="88.4" y1="90.9" x2="88.4" y2="69"/>
			<polygon class="st1" points="87.3,147.4 87.3,123.7 99.1,135.5 			"/>
			<polygon class="st1" points="38,123.7 38,147.4 26.2,135.5 			"/>
			<line class="st0" x1="32" y1="135.5" x2="93.3" y2="135.5"/>
			<line class="st0" x1="8.7" y1="103.8" x2="102.9" y2="103.8"/>
		</g>
		<g>
			<path class="st0" d="M153.3,35.9h-31.7c-10.3,0-18.7,8.4-18.7,18.7v62.2l20.7-20.7h49c10.3,0,18.7-8.4,18.7-18.7V54.6
				c0-10.3-8.4-18.7-18.7-18.7"/>
			<g>
				<polygon class="st0" points="133.8,74.9 122.6,76.3 124,65.1 156,33.1 165.8,42.9 				"/>
				<path class="st0" d="M170.5,32.4l-4-4c-1.6-1.6-4.1-1.6-5.7,0l-4.7,4.7l9.7,9.7l4.7-4.7C172.1,36.6,172.1,34,170.5,32.4z"/>
			</g>
		</g>
	</g>
	<rect class="st2" width="200" height="200"/>
</g>
</svg>
