<svg xmlns="http://www.w3.org/2000/svg" viewBox="0 0 180.7 53.01"><defs><style>.cls-1{fill:#ffa300;}</style></defs><g id="Layer_2" data-name="Layer 2"><g id="Layer_1-2" data-name="Layer 1"><path d="M54.46,39.49l.64-3.81H79.4l-.64,3.81Zm20.81-7a18.9,18.9,0,0,1-2.12-1,16,16,0,0,1-1.92-1.28,9.31,9.31,0,0,1-1.55-1.52,5.72,5.72,0,0,1-1-1.74,9.8,9.8,0,0,1-1.58,1.74A14.52,14.52,0,0,1,65.1,30.2a21.09,21.09,0,0,1-2.35,1.28c-.82.39-1.64.74-2.45,1a2,2,0,0,1-1,.14.83.83,0,0,1-.66-.62l-.86-2.71a33.84,33.84,0,0,0,3.64-1.66,15.29,15.29,0,0,0,2.84-1.91,9.38,9.38,0,0,0,2-2.34,8.87,8.87,0,0,0,1.07-3l.38-2.28h5l-.38,2.28a7.23,7.23,0,0,0,0,3,5.8,5.8,0,0,0,1.2,2.34,9.61,9.61,0,0,0,2.19,1.91,23.69,23.69,0,0,0,3.08,1.66L77.06,32a1.35,1.35,0,0,1-.88.62A1.7,1.7,0,0,1,75.27,32.52Z"/><path d="M80.87,36.25l3-18H97l-3,18Zm10.7-14.2H88.1L86.35,32.43h3.47Zm11.16,7.57-2,12-5.08,1,4.29-25.46h4.93l-1.48,8.74h3.33l-.64,3.81Z"/><path d="M104.52,39.55l.64-3.79h24.3l-.64,3.79Zm6.8-21.37h17.83l-.63,3.76H115.58l-.34,2h12.27l-.63,3.7H114.62l-.34,2h13.14l-.62,3.72H110.32a1.49,1.49,0,0,1-1.18-.34,1.73,1.73,0,0,1-.11-1.28Z"/><path d="M130.12,36.22l.65-3.81H132l1.71-10.13h-1l.65-3.82h11.46l-.64,3.82h-1l-1.69,10,.74-.1c.25,0,.5-.06.77-.1l-.54,3.22a7.08,7.08,0,0,1-1.21.37c-.51.11-1.07.21-1.7.3s-1.32.15-2.06.2-1.5.07-2.3.07Zm6-3.81h1.22L139,22.28H137.8Zm10.6,8.84-4.5.86,2.23-13.2h-1.65l.63-3.76h1.65l1.3-7.71h4.35Zm5.47.43-4.58.85,4.3-25.46h4.43Z"/><path d="M171.09,29.48A9.08,9.08,0,0,1,168.27,35a8.23,8.23,0,0,1-5.58,1.92q-3.36,0-4.89-1.92c-1-1.28-1.34-3.13-.93-5.53l.72-4.3a9.09,9.09,0,0,1,2.8-5.53,8.09,8.09,0,0,1,5.54-1.92,6,6,0,0,1,4.93,1.92q1.56,1.92,1,5.53Zm-4.2-3.79a6.35,6.35,0,0,0,0-3.16,1.53,1.53,0,0,0-1.58-1,2.18,2.18,0,0,0-1.89,1,8.07,8.07,0,0,0-1.06,3.16L161.79,29a6.82,6.82,0,0,0,0,3.16,1.48,1.48,0,0,0,1.56,1,2.24,2.24,0,0,0,1.91-1A7.47,7.47,0,0,0,166.34,29Zm9.67,15.88-5.08,1,4.29-25.46h4.93Z"/><path class="cls-1" d="M16.43,34.8h0v0h0a5.66,5.66,0,0,0,.38,2.51A3.88,3.88,0,0,0,18.13,39a5.72,5.72,0,0,0,2.07.89,12,12,0,0,0,2.62.27,7.9,7.9,0,0,0,2-.25,6.22,6.22,0,0,0,1.81-.75,4,4,0,0,0,1.32-1.28A3.35,3.35,0,0,0,28.45,36a2.45,2.45,0,0,0-.66-1.76,5.92,5.92,0,0,0-1.72-1.18,15.65,15.65,0,0,0-2.41-.87c-.89-.25-1.8-.51-2.71-.79a21.12,21.12,0,0,1-2.73-1,9.43,9.43,0,0,1-2.39-1.49,6.93,6.93,0,0,1-1.7-2.24,7.47,7.47,0,0,1-.64-3.23,8.14,8.14,0,0,1,1-4.23,8.81,8.81,0,0,1,2.69-2.84A11.92,11.92,0,0,1,21,14.76a17.41,17.41,0,0,1,4.25-.52,16.92,16.92,0,0,1,4.29.52A9.5,9.5,0,0,1,33,16.44a8.22,8.22,0,0,1,2.12,2.45l5.75-4.4a23.27,23.27,0,0,0-37.69,27L15,32.15Z"/><path class="cls-1" d="M31.61,26.39l-1.44-2.62,0,0a4.63,4.63,0,0,0-.35-2.07,3.65,3.65,0,0,0-1.12-1.39A4.74,4.74,0,0,0,27,19.52a9.55,9.55,0,0,0-2.11-.22,9.74,9.74,0,0,0-1.85.18,5.61,5.61,0,0,0-1.68.62,3.64,3.64,0,0,0-1.2,1.14A3.17,3.17,0,0,0,19.67,23a2.37,2.37,0,0,0,.8,1.81,7,7,0,0,0,2,1.2,13.82,13.82,0,0,0,2.34.74l1.95.44a24.35,24.35,0,0,1,3.19,1,8.81,8.81,0,0,1,2.51,1.56A6.42,6.42,0,0,1,34,32.1a8.54,8.54,0,0,1,.58,3.36A8.76,8.76,0,0,1,33.53,40a9.43,9.43,0,0,1-2.82,3,12,12,0,0,1-3.88,1.68,18.37,18.37,0,0,1-4.26.51c-4.15,0-7.23-.84-9.26-2.52a7.6,7.6,0,0,1-2.06-2.81L5.3,44.48A23.27,23.27,0,0,0,43,17.36Z"/><rect class="cls-1" x="42.04" y="6.36" width="15.84" height="2.76"/><rect class="cls-1" x="47.85" width="4.22" height="4.15"/><rect class="cls-1" x="47.85" y="11.33" width="4.22" height="4.15"/></g></g></svg>