<?xml version="1.0" encoding="UTF-8"?>
<svg width="48px" height="48px" viewBox="0 0 48 48" version="1.1" xmlns="http://www.w3.org/2000/svg" xmlns:xlink="http://www.w3.org/1999/xlink">
    <title>smart_pay_logo_symbol</title>
    <g id="smart_pay_logo_symbol" stroke="none" stroke-width="1" fill="none" fill-rule="evenodd">
        <g id="smart_pay_logo_w">
            <g id="Group" transform="translate(2.000000, 0.000000)" fill-rule="nonzero">
                <g>
                    <circle id="Oval" fill="#FFA200" cx="17.6" cy="24" r="16.7"></circle>
                    <polygon id="Path" fill="#FFA200" points="43.1 5.8 37.7 5.8 37.7 0.4 35.2 0.4 35.2 5.8 29.9 5.8 29.9 8.3 35.2 8.3 35.2 13.7 37.7 13.7 37.7 8.3 43.1 8.3"></polygon>
                    <path d="M20.5,28.3 C20.5,27.6 20.3,27.1 19.8,26.8 C19.3,26.4 18.5,26.1 17.4,25.7 C16.2,25.3 15.3,24.9 14.5,24.6 C12.1,23.4 10.9,21.8 10.9,19.7 C10.9,18.7 11.2,17.8 11.8,17 C12.4,16.2 13.2,15.6 14.3,15.2 C15.4,14.8 16.6,14.5 18,14.5 C19.3,14.5 20.5,14.7 21.6,15.2 C22.7,15.7 23.5,16.4 24.1,17.2 C24.7,18.1 25,19.1 25,20.2 L20.5,20.2 C20.5,19.4 20.3,18.9 19.8,18.4 C19.3,18 18.7,17.8 17.9,17.8 C17.1,17.8 16.5,18 16,18.3 C15.5,18.6 15.3,19.1 15.3,19.6 C15.3,20.1 15.6,20.5 16.1,20.9 C16.6,21.3 17.5,21.7 18.8,22.1 C20.1,22.5 21.1,23 22,23.4 C24,24.6 25,26.1 25,28.2 C25,29.8 24.4,31.1 23.2,32 C22,32.9 20.3,33.4 18.2,33.4 C16.7,33.4 15.3,33.1 14.1,32.6 C12.9,32.1 12,31.3 11.3,30.4 C10.7,29.5 10.4,28.4 10.4,27.2 L14.9,27.2 C14.9,28.2 15.2,28.9 15.7,29.4 C16.2,29.9 17,30.1 18.2,30.1 C18.9,30.1 19.5,29.9 20,29.6 C20.2,29.4 20.5,28.9 20.5,28.3 Z" id="Path" fill="#FFFFFF"></path>
                </g>
            </g>
            <rect id="Rectangle" x="0" y="0" width="48" height="48"></rect>
        </g>
    </g>
</svg>
