<?xml version="1.0" encoding="UTF-8"?>
<svg width="24px" height="24px" viewBox="0 0 24 24" version="1.1" xmlns="http://www.w3.org/2000/svg" xmlns:xlink="http://www.w3.org/1999/xlink">
    <title>social-kakao_channel</title>
    <g id="social-kakao_channel" stroke="none" stroke-width="1" fill="none" fill-rule="evenodd">
        <path d="M12,4 C7.59550561,4 4,7.14237889 4,10.964191 C4,13.1723492 5.16853933,15.1257198 7.05617977,16.3996572 L7.05617977,19.7968236 C7.05617977,19.9666819 7.23595505,20.0516111 7.41573032,19.9666819 L10.4719101,17.843453 C10.9213483,17.928382 11.4606741,17.928382 12,17.928382 C16.4044943,17.928382 20,14.7860032 20,10.964191 C20,7.14237889 16.4044943,4 12,4 Z M9.13432836,12.8529412 C9.94029851,12.8529412 10.5671642,12.3235294 10.8358209,11.7058824 L12,11.7058824 C11.7313433,13.0294118 10.4776119,14 9.04477612,14 C7.34328358,14 6,12.6764706 6,11 C6,9.32352941 7.34328358,8 9.04477612,8 C10.4776119,8 11.641791,8.97058823 12,10.2941176 L10.8358209,10.2941176 C10.5671642,9.5882353 9.85074627,9.14705883 9.13432836,9.14705883 C8.0597015,9.14705883 7.25373135,9.94117648 7.25373135,11 C7.25373135,12.0588235 8.14925373,12.8529412 9.13432836,12.8529412 Z M16.9069768,14 L15.7906978,14 L15.7906978,11.4545455 C15.7906978,11 15.4186047,10.6363636 14.9534884,10.6363636 C14.4883721,10.6363636 14.1162791,11 14.1162791,11.4545455 L14.1162791,13.9090909 L13,13.9090909 L13,8 L14.1162791,8 L14.1162791,10.2727273 C14.3953489,9.90909091 14.8604651,9.63636364 15.4186047,9.63636364 C16.255814,9.63636364 17,10.3636364 17,11.1818182 L17,14 L16.9069768,14 Z" id="path-1" fill="#FFFFFF" fill-rule="nonzero"></path>
    </g>
</svg>