<?xml version="1.0" encoding="UTF-8"?>
<svg width="24px" height="24px" viewBox="0 0 24 24" version="1.1" xmlns="http://www.w3.org/2000/svg" xmlns:xlink="http://www.w3.org/1999/xlink">
    <title>social-naver_blog</title>
    <g id="social-naver_blog" stroke="none" stroke-width="1" fill="none" fill-rule="evenodd">
        <path d="M17.4729618,5 C18.8683113,5 20,6.13541789 20,7.53599602 L20,13.5520615 C20,14.9527166 18.8683113,16.088096 17.4729618,16.088096 L13.701,16.088 L12.4157714,18.1828888 C12.4157714,18.1828888 12.4108503,18.1938244 12.3979895,18.2123353 L12.3723662,18.2453631 C12.2966665,18.372926 12.1590308,18.4594674 11.9997117,18.4594674 C11.8398927,18.4594674 11.701219,18.3716189 11.6260191,18.2427488 C11.6073345,18.2196044 11.594972,18.2008515 11.5888065,18.1909211 L11.5841902,18.1831963 L10.298,16.088 L6.52699972,16.088096 C5.13115042,16.088096 4,14.9527166 4,13.5520615 L4,7.53599602 C4,6.13541789 5.13115042,5 6.52699972,5 L17.4729618,5 Z M16.4847527,9.42095196 L16.459564,9.42068763 C16.2718903,9.42195168 15.0989303,9.48724625 15.0989303,10.9221041 C15.0989303,10.9221041 15.0835978,12.3751222 16.4466145,12.3751222 L16.4466145,12.3751222 L16.4831407,12.3751308 C16.6116809,12.3722149 17.0492455,12.3369663 17.3067609,12.0019295 L17.3067609,12.0019295 L17.3067609,12.2306432 C17.3125551,12.3228798 17.329408,12.9462721 16.6824791,12.9462721 L16.6824791,12.9462721 L16.4466145,12.9462721 L16.4466145,13.8141135 L16.8532048,13.8136008 C17.0470418,13.8065765 18.2585235,13.7057937 18.2585235,12.2837752 L18.2585235,12.2837752 L18.2585235,9.51991129 L17.3067609,9.51991129 L17.3067609,9.79383715 L17.2789725,9.76133927 C17.1958123,9.67056932 16.9269241,9.42095196 16.4847527,9.42095196 L16.4847527,9.42095196 Z M6.72072778,8.24055256 L5.74093822,8.24055256 L5.74093822,12.3216827 L6.73080056,12.3216827 L6.73080056,12.0019295 L6.7357347,12.0102255 C6.77217778,12.0692739 7.01333827,12.4235639 7.55338551,12.4235639 C7.55338551,12.4235639 8.93385652,12.3727386 8.93385652,10.9006899 C8.93385652,10.9006899 8.88303125,9.40826487 7.55338551,9.40826487 C7.55338551,9.40826487 7.1166804,9.40826487 6.72072778,9.79383715 L6.72072778,9.79383715 L6.72072778,8.24055256 Z M12.9482833,9.42095196 C12.9482833,9.42095196 11.3298716,9.42118264 11.3298716,10.932446 L11.3298716,10.932446 L11.3297502,10.9575582 C11.3320118,11.1530256 11.4060297,12.4235639 12.9482833,12.4235639 C12.9482833,12.4235639 14.6040257,12.4211418 14.6040257,10.932446 L14.6040257,10.932446 L14.6041566,10.9069907 C14.6018939,10.7088522 14.5264866,9.42095196 12.9482833,9.42095196 Z M9.2485733,8.14924394 L9.2485733,9.09350964 C9.30270325,9.09429928 9.69558186,9.12521055 9.69558186,9.90579113 L9.69558186,9.90579113 L9.69558186,12.3216827 L10.6396553,12.3216827 L10.6396234,9.65225472 C10.63618,9.4375389 10.5608416,8.14924394 9.2485733,8.14924394 L9.2485733,8.14924394 Z M7.33766649,10.3030509 C7.68517749,10.3030509 7.96702317,10.5848966 7.96702317,10.932446 C7.96702317,11.2801877 7.68517749,11.5620718 7.33766649,11.5620718 C6.99019393,11.5620718 6.70804069,11.2801877 6.70804069,10.932446 C6.70804069,10.5848966 6.99019393,10.3030509 7.33766649,10.3030509 Z M12.9485908,10.3030509 C13.2960634,10.3030509 13.577986,10.5848966 13.577986,10.932446 C13.577986,11.2801877 13.2960634,11.5620718 12.9485908,11.5620718 C12.601003,11.5620718 12.318965,11.2801877 12.318965,10.932446 C12.318965,10.5848966 12.601003,10.3030509 12.9485908,10.3030509 Z M16.7213093,10.3030509 C17.0687818,10.3030509 17.3507044,10.5848966 17.3507044,10.932446 C17.3507044,11.2801877 17.0687818,11.5620718 16.7213093,11.5620718 C16.3735676,11.5620718 16.0919526,11.2801877 16.0919526,10.932446 C16.0919526,10.5848966 16.3735676,10.3030509 16.7213093,10.3030509 Z" id="Combined-Shape" fill="#FFFFFE"></path>
    </g>
</svg>