<svg xmlns="http://www.w3.org/2000/svg" width="70" height="68" viewBox="0 0 70 68">
  <defs>
    <style>
      .cls-1 {
        fill: #cbb58f;
        fill-rule: evenodd;
      }
    </style>
  </defs>
  <path class="cls-1" d="M32.475,18.232H14.309C6.669,18.232.685,28.94,0.685,42.61S6.669,66.988,14.309,66.988H32.475c7.64,0,13.624-10.708,13.624-24.379S40.115,18.232,32.475,18.232ZM14.309,64c-5.744,0-10.6-9.8-10.6-21.393s4.853-21.393,10.6-21.393h1.445c-4.2,4.106-7,12.057-7,21.393S11.551,59.9,15.755,64H14.309Zm8.074,0c-5.744,0-10.6-9.8-10.6-21.393s4.853-21.393,10.6-21.393h1.445c-4.2,4.106-7,12.057-7,21.393S19.625,59.9,23.828,64H22.383Zm10.092,0H30.456c-5.744,0-10.6-9.8-10.6-21.393s4.853-21.393,10.6-21.393h2.018c5.744,0,10.6,9.8,10.6,21.393S38.219,64,32.475,64Zm1.009-36.816c-4.306,0-6.56,7.759-6.56,15.423s2.254,15.423,6.56,15.423,6.56-7.759,6.56-15.423S37.79,27.187,33.484,27.187Zm0,27.861c-1.056,0-3.532-4.232-3.532-12.438s2.476-12.438,3.532-12.438S37.016,34.4,37.016,42.61,34.54,55.048,33.484,55.048ZM56.914-.022a13,13,0,1,0,13,13A13.02,13.02,0,0,0,56.914-.022ZM54.791,18.885L48.92,13.014l1.126-1.126,4.745,4.745,8.992-8.991,1.126,1.126Z"/>
</svg>
