<?xml version="1.0" encoding="utf-8"?>
<!-- Generator: Adobe Illustrator 24.3.0, SVG Export Plug-In . SVG Version: 6.00 Build 0)  -->
<svg version="1.1" id="Layer_1" xmlns="http://www.w3.org/2000/svg" xmlns:xlink="http://www.w3.org/1999/xlink" x="0px" y="0px"
	 viewBox="0 0 180 40" style="enable-background:new 0 0 180 40;" xml:space="preserve">
<style type="text/css">
	.st0{fill:#9E9E9F;}
	.st1{fill:#EC6806;}
	.st2{fill:none;}
</style>
<g>
	<g>
		<path class="st0" d="M79.6,25.3l-0.7,2.5c-0.3-0.2-1.3-0.4-1.9-0.4c-1.8,0-3,0.7-3.6,2.6l-0.5,1.8c-0.4,1.3,0.1,2.5,1.9,2.5
			c0.9,0,1.6-0.2,2.4-0.6l0,0.5h1.2l2.6-9.2L79.6,25.3z M77.5,32.6c-0.7,0.4-1.7,0.6-2.4,0.6c-0.9,0-1.2-0.5-0.9-1.5l0.5-1.6
			c0.4-1.3,1.2-1.6,2.3-1.6c0.4,0,1.1,0.1,1.5,0.4L77.5,32.6z M86,27.4c-1.1,0-2.1,0.5-2.6,0.8l0.1-0.7h-1.2l-1.9,6.6h1.3l1.4-4.8
			c0.8-0.5,1.7-0.7,2.5-0.7L86,27.4z M87.7,26.4H89l0.4-1.3h-1.3L87.7,26.4z M85.5,34.1h1.3l1.9-6.6h-1.3L85.5,34.1z M94.9,27.6
			l-2.5,4c-0.3,0.4-0.5,0.8-0.9,1.4h0c0-0.6,0-1,0-1.4l-0.2-4h-1.3l0.6,6.6h1.5l4.3-6.6H94.9z M99.4,25h-1.3l-0.4,1.3H99L99.4,25z
			 M95.5,34.1h1.3l1.9-6.6h-1.3L95.5,34.1z M104.2,27.4c-0.8,0-1.6,0.3-2.4,0.7l0-0.5h-1.2l-1.9,6.6h1.3l1.4-5
			c0.8-0.4,1.7-0.6,2.3-0.6c0.9,0,0.9,0.4,0.7,1.2l-1.3,4.4h1.3l1.3-4.7C106.2,28.2,105.8,27.4,104.2,27.4z M112.8,28
			c-0.4-0.4-1.3-0.6-2-0.6c-1.7,0-2.9,0.7-3.5,2.6l-0.5,1.7c-0.4,1.4,0,2.5,1.9,2.5c0.8,0,1.7-0.2,2.4-0.5l-0.2,0.6
			c-0.3,1.1-0.9,1.4-2.3,1.4c-0.5,0-1.1-0.1-1.6-0.2l-0.3,1c0.5,0.1,1.2,0.2,1.8,0.2c2.3,0,3.2-0.7,3.7-2.3l2-6.9H113L112.8,28z
			 M111.4,32.7c-0.7,0.3-1.5,0.5-2.3,0.5c-1,0-1.2-0.5-0.9-1.6l0.4-1.4c0.4-1.3,1.2-1.7,2.1-1.7c0.8,0,1.5,0.2,1.8,0.5L111.4,32.7z
			 M122.1,27.4c-1.7,0-3.1,0.8-3.7,3l-0.2,0.7c-0.6,2.1,0.2,3.1,2.6,3.1c0.6,0,1.3-0.1,2-0.3l0.3-1c-0.7,0.2-1.5,0.3-2.1,0.3
			c-1.7,0-1.9-0.7-1.5-1.7l0.1-0.3h4.7l0.2-0.5C125,28.3,124,27.4,122.1,27.4z M123.2,30.2L123.2,30.2l-3.5,0.1l0-0.1
			c0.3-1,1-1.7,2.2-1.7C123.2,28.5,123.4,29.2,123.2,30.2z M134.3,27.4c-0.6,0-1.6,0.3-2.5,0.8c-0.2-0.5-0.7-0.8-1.6-0.8
			c-0.7,0-1.5,0.3-2.2,0.7l0-0.5h-1.2l-1.9,6.6h1.3l1.4-5c0.8-0.4,1.5-0.6,2-0.6c0.8,0,0.9,0.4,0.7,1.1l-1.3,4.5h1.3l1.4-4.8
			l0.1-0.2c0.8-0.4,1.5-0.6,2-0.6c0.7,0,0.9,0.4,0.6,1.1l-1.3,4.5h1.3l1.4-4.8C136.2,28.1,135.7,27.4,134.3,27.4z M140.9,27.4
			c-2,0-3.3,1-3.8,2.9l-0.2,0.8c-0.5,1.9,0.4,3,2.4,3c2,0,3.3-1,3.8-2.9l0.2-0.8C143.8,28.6,142.9,27.4,140.9,27.4z M142,30.4
			l-0.2,0.8c-0.4,1.4-1.2,2-2.4,2c-1.1,0-1.6-0.5-1.2-2l0.2-0.8c0.4-1.4,1.2-2,2.3-2C141.9,28.5,142.4,29,142,30.4z M146.3,32.3
			l1.1-3.7h1.9l0.3-1h-1.9l0.5-1.7l-1.4,0.4l-0.4,1.4h-1.2l-0.3,1h1.2l-1.1,4c-0.3,1,0.2,1.7,1.4,1.7c0.4,0,1-0.1,1.4-0.3l0.3-1
			c-0.4,0.1-0.8,0.2-1.2,0.2C146.2,33.2,146.1,32.9,146.3,32.3z M151.7,25l-0.4,1.3h1.3L153,25H151.7z M149.1,34.1h1.3l1.9-6.6H151
			L149.1,34.1z M157,27.4c-2,0-3.3,1-3.8,2.9l-0.2,0.8c-0.5,1.9,0.4,3,2.4,3c2,0,3.3-1,3.8-2.9l0.2-0.8
			C159.9,28.6,159,27.4,157,27.4z M158.1,30.4l-0.2,0.8c-0.4,1.4-1.2,2-2.4,2c-1.1,0-1.6-0.5-1.2-2l0.2-0.8c0.4-1.4,1.2-2,2.3-2
			C157.9,28.5,158.5,29,158.1,30.4z M165.4,27.4c-0.8,0-1.6,0.3-2.4,0.7l0-0.5h-1.2l-1.9,6.6h1.3l1.4-5c0.8-0.4,1.7-0.6,2.3-0.6
			c0.9,0,0.9,0.4,0.7,1.2l-1.3,4.4h1.3l1.3-4.7C167.4,28.2,167,27.4,165.4,27.4z"/>
		<path d="M96.8,6.4c-0.7-0.9-1.9-1.3-3.7-1.2c-4.7,0.1-9.5,0.3-10.2,0.4l-4.7,16.3h5.4L87.2,9L90,9c0.6,0,1,0,1.4,0.3
			c0.4,0.3,0.2,1.1-0.1,2l-3,10.6h5.4L97,10.2C97.5,8.5,97.4,7.2,96.8,6.4z M116.4,5.5h-5.7c-2.6,5.3-5.9,7.1-5.9,7.1l2.1-7.1h-5.4
			l-4.7,16.3h5.4l2.3-8.2l3,8.2h5.6l-3.3-7.8C109.8,14,113.7,11.4,116.4,5.5z M170.5,5.5h-5.7c-2.6,5.3-5.9,7.1-5.9,7.1l2.1-7.1
			h-5.4l-4.7,16.3h5.4l2.3-8.2l3,8.2h5.6l-3.3-7.8C163.9,14,167.7,11.4,170.5,5.5z M126.1,5.1c-5.6,0-9.1,2.5-10.5,7.4l-0.7,2.4
			c-0.7,2.3-0.5,4.1,0.4,5.3c1,1.3,3,2,5.8,2c5.6,0,9.1-2.5,10.5-7.4l0.7-2.4c0.7-2.3,0.5-4.1-0.4-5.3
			C130.9,5.8,128.9,5.1,126.1,5.1z M126.9,12.7l-0.6,2c-0.7,2.6-2,3.7-4,3.7c-0.9,0-1.6-0.2-1.9-0.7c-0.5-0.6-0.5-1.6,0-3.1l0.6-2
			c0.7-2.6,2-3.7,4-3.7c0.9,0,1.6,0.2,1.9,0.7C127.3,10.2,127.3,11.2,126.9,12.7z M150.8,7.1c-1-1.3-3-2-5.8-2
			c-5.6,0-9.1,2.5-10.5,7.4l-0.7,2.4c-0.7,2.3-0.5,4.1,0.4,5.3c1,1.3,3,2,5.8,2c5.6,0,9.1-2.5,10.5-7.4l0.7-2.4
			C151.8,10.1,151.7,8.3,150.8,7.1z M145.7,12.7l-0.6,2c-0.7,2.6-2,3.7-4,3.7c-0.9,0-1.6-0.2-1.9-0.7c-0.5-0.6-0.5-1.6,0-3.1l0.6-2
			c0.7-2.6,2-3.7,4-3.7c0.9,0,1.6,0.2,1.9,0.7C146.1,10.2,146.2,11.2,145.7,12.7z M78.3,7.3C77.9,6.5,77.2,6,76,5.6
			c-0.9-0.3-2-0.4-3.3-0.5c0,0-4.8-0.1-7.7,0.5l-0.9,3.2c2.9-0.3,5.6-0.4,6.8-0.4c1.3,0,1.9,0.2,2.2,0.6c0.2,0.3,0.3,0.8,0,1.7
			L73,11.5h-2c-5.7,0-9,0.7-10.1,4.6c-0.4,1.5-0.2,3,0.6,4.1c0.9,1.2,2.1,1.7,4.2,1.7h9.6l3.1-10.7C78.8,9.5,78.8,8.2,78.3,7.3z
			 M70.9,18.5l-2.6,0.1c-0.7,0-1.3,0-1.8-0.5c-0.3-0.3-0.5-0.9-0.4-1.5c0.3-1.7,2.3-1.9,3.8-1.9H72L70.9,18.5z M56.3,5.5l-1.8,6.2
			h-4.8l1.8-6.2h-5.4l-4.7,16.3h5.4l1.9-6.4h4.8l-1.9,6.4h5.4l4.7-16.3H56.3z"/>
		<path class="st1" d="M38.3,3.2c-0.6,5.7-4.1,10.6-9,13.2c-0.1,0.1-0.3-0.1-0.1-0.2c3.8-3.1,6.3-7.8,6.5-13h-4.8
			c-0.6,4.4-3.4,8.2-7.3,10.1c-0.1,0.1-0.3-0.1-0.1-0.2c2.8-2.5,4.6-6,4.9-9.9h-4.8c-0.3,2-1.4,3.8-2.7,5.2c-3.3,3.6-8.5,4-11.1,3.8
			c0,0-0.1,0-0.2,0.1c0,0.1,0.1,0.2,0.1,0.2c4.2,2.4,7.6,4.6,13.8,9.2c1.5,1.1,2.9,1.4,4.4,1.1C37.4,20.4,43,10.5,43.1,3.2H38.3z"/>
	</g>
	<rect class="st2" width="180" height="40"/>
</g>
</svg>
