<svg xmlns="http://www.w3.org/2000/svg" width="58" height="62" viewBox="0 0 58 62">
  <defs>
    <style>
      .cls-1 {
        fill: #fe6a2b;
        fill-rule: evenodd;
      }
    </style>
  </defs>
  <path class="cls-1" d="M34.241,4.915a5.57,5.57,0,0,0-10.777-.068,28.713,28.713,0,0,0,5.2,56.858A28.719,28.719,0,0,0,34.241,4.915Zm19.289,27.3-15.487-.561a9.657,9.657,0,0,0-3.257-5.974l7.747-13.622A25.35,25.35,0,0,1,53.53,32.219Zm-18.745.809a6.266,6.266,0,0,1-1.845,4.438,6.078,6.078,0,0,1-2.961,1.626,5.88,5.88,0,0,1-2.92-.077,6.1,6.1,0,0,1-2.875-1.774,6.255,6.255,0,0,1,.118-8.558A6.1,6.1,0,0,1,27.228,27a6.052,6.052,0,0,1,5.834,1.72A6.337,6.337,0,0,1,34.785,33.028Zm-8.223-26.6a2.314,2.314,0,0,1,1.261-2.06,2.162,2.162,0,0,1,2.057.009,2.305,2.305,0,0,1,.75,3.472,2.235,2.235,0,0,1-3.6-.026A2.316,2.316,0,0,1,26.562,6.433Zm-3.07,1.888c1.051,3.927,4.842,7.821,5.028,8.009l0.323,0.328,0.322-.328c0.185-.188,3.925-4.031,5.005-7.932a24.434,24.434,0,0,1,5.449,1.955L31.871,23.978a9.181,9.181,0,0,0-6.345-.024L17.871,10.271A24.4,24.4,0,0,1,23.492,8.321Zm-8.543,3.646L22.6,25.638a9.662,9.662,0,0,0-3.236,5.547L3.873,30.96A25.338,25.338,0,0,1,14.949,11.966ZM3.819,34.377l15.5,0.225A9.652,9.652,0,0,0,22.4,40.233L14.365,53.681A25.345,25.345,0,0,1,3.819,34.377ZM28.667,58.288A24.428,24.428,0,0,1,17.24,55.457l8.032-13.449a9.226,9.226,0,0,0,6.345.165L38.976,56.01A24.424,24.424,0,0,1,28.667,58.288Zm13.27-3.907-7.36-13.837a9.655,9.655,0,0,0,3.353-5.472l15.489,0.561A25.333,25.333,0,0,1,41.936,54.382Z"/>
</svg>
