<svg xmlns="http://www.w3.org/2000/svg" width="48" height="48" viewBox="0 0 48 48">
  <defs>
    <style>
      .cls-1 {
        fill: #fff;
        fill-rule: evenodd;
      }
    </style>
  </defs>
  <path class="cls-1" d="M34.775,47.888H1.575A1.514,1.514,0,0,1,.279,45.6l2.806-4.733V2.421A1.512,1.512,0,0,1,4.593.907H31.757a1.512,1.512,0,0,1,1.509,1.514V40.868L36.072,45.6A1.514,1.514,0,0,1,34.775,47.888ZM4.229,44.86H32.122l-1.661-2.8a1.517,1.517,0,0,1-.212-0.773V3.935H6.1v37.35a1.517,1.517,0,0,1-.212.773ZM25.066,31.19H11.284a1.514,1.514,0,0,1,0-3.028H25.066A1.514,1.514,0,0,1,25.066,31.19ZM24.844,24.4H11.507A1.512,1.512,0,0,1,10,22.887V9.407a1.512,1.512,0,0,1,1.509-1.514H24.844a1.512,1.512,0,0,1,1.509,1.514v13.48A1.512,1.512,0,0,1,24.844,24.4ZM13.016,21.373H23.335V10.921H13.016V21.373ZM40.866,37.165a6.135,6.135,0,0,1-6.118-6.138v-4.84a2.715,2.715,0,0,0-2.707-2.717,1.514,1.514,0,0,1,0-3.027,5.74,5.74,0,0,1,5.725,5.744v4.84a3.1,3.1,0,1,0,6.2,0V17.134a1.509,1.509,0,1,1,3.018,0V31.026A6.135,6.135,0,0,1,40.866,37.165Zm4.609-10.132A1.506,1.506,0,0,1,44.42,26.6l-7.895-7.748a1.52,1.52,0,0,1-.454-1.083V12.506a1.519,1.519,0,0,1,.442-1.071l2.493-2.5a2.865,2.865,0,0,0,.84-2.034V2.421A1.512,1.512,0,0,1,41.356.907h4.119a1.512,1.512,0,0,1,1.509,1.514v23.1a1.515,1.515,0,0,1-.924,1.395A1.5,1.5,0,0,1,45.475,27.032Zm-6.385-9.9,4.877,4.786V3.935h-1.1V6.9a5.876,5.876,0,0,1-1.724,4.175L39.09,13.133v4Zm2.266,1.027a1.512,1.512,0,0,1-1.509-1.514V13.6a1.509,1.509,0,1,1,3.018,0v3.05A1.512,1.512,0,0,1,41.356,18.161Z"/>
</svg>
