<svg xmlns="http://www.w3.org/2000/svg" width="50" height="56" viewBox="0 0 50 56">
  <defs>
    <style>
      .cls-1 {
        fill: #fff;
        fill-rule: evenodd;
      }
    </style>
  </defs>
  <path class="cls-1" d="M29.92,4.641a4.931,4.931,0,0,0-9.54-.06,25.417,25.417,0,0,0,4.6,50.332A25.422,25.422,0,0,0,29.92,4.641Zm17.075,24.17-13.71-.5A8.549,8.549,0,0,0,30.4,23.027L37.259,10.97A22.438,22.438,0,0,1,46.995,28.811ZM30.4,29.528a5.543,5.543,0,0,1-1.634,3.928,5.376,5.376,0,0,1-3.782,1.57,5.311,5.311,0,0,1-1.423-.2,5.4,5.4,0,0,1-2.545-1.57,5.536,5.536,0,0,1,.1-7.575,5.392,5.392,0,0,1,2.591-1.494,5.153,5.153,0,0,1,2.585.01,5.391,5.391,0,0,1,2.58,1.512A5.608,5.608,0,0,1,30.4,29.528ZM23.122,5.985a2.047,2.047,0,0,1,1.116-1.823,1.91,1.91,0,0,1,1.821.008,2.04,2.04,0,0,1,.664,3.072A1.978,1.978,0,0,1,23.54,7.22,2.052,2.052,0,0,1,23.122,5.985ZM20.4,7.656c0.931,3.476,4.286,6.923,4.451,7.091l0.286,0.289,0.285-.289c0.164-.167,3.475-3.57,4.431-7.022a21.635,21.635,0,0,1,4.824,1.731l-6.86,12.06A8.12,8.12,0,0,0,22.2,21.5L15.428,9.382A21.658,21.658,0,0,1,20.4,7.656Zm-7.562,3.228,6.77,12.1a8.548,8.548,0,0,0-2.864,4.91L3.037,27.7A22.429,22.429,0,0,1,12.842,10.883ZM2.989,30.721l13.723,0.2a8.544,8.544,0,0,0,2.723,4.985L12.325,47.81A22.437,22.437,0,0,1,2.989,30.721Zm22,21.167a21.621,21.621,0,0,1-10.115-2.507l7.11-11.905a8.162,8.162,0,0,0,5.617.147l6.515,12.249A21.618,21.618,0,0,1,24.985,51.889ZM36.731,48.43L30.216,36.181a8.548,8.548,0,0,0,2.968-4.843l13.711,0.5A22.426,22.426,0,0,1,36.731,48.43Z"/>
</svg>
