<svg xmlns="http://www.w3.org/2000/svg" width="50.375" height="24.56" viewBox="0 0 50.375 24.56">
  <defs>
    <style>
      .cls-1 {
        fill: #fff;
      }

      .cls-1, .cls-2 {
        fill-rule: evenodd;
      }

      .cls-2 {
        fill: #fe6a2b;
      }
    </style>
  </defs>
  <path id="Shape_1195_copy" data-name="Shape 1195 copy" class="cls-1" d="M98.548,1971.18l8-4.64a22.212,22.212,0,0,1,20.848-.77l2.7,1.31a46.176,46.176,0,0,0,7.152,2.77l5.085,1.49a7.081,7.081,0,0,1,5.012,6.83l-0.006,2.42a3.791,3.791,0,0,1-1.087,2.68,3.664,3.664,0,0,1-2.637,1.12H142.2a6.125,6.125,0,0,1-11.241,0H113.3a6.125,6.125,0,0,1-11.241,0h-1.908a3.228,3.228,0,0,1-3.192-3.26v-7.16A3.22,3.22,0,0,1,98.548,1971.18Z" transform="translate(-96.969 -1963.53)"/>
  <path class="cls-2" d="M98.548,1971.18l8-4.64a22.212,22.212,0,0,1,20.848-.77l2.7,1.31a46.176,46.176,0,0,0,7.152,2.77l5.085,1.49a7.081,7.081,0,0,1,5.012,6.83l-0.006,2.42a3.791,3.791,0,0,1-1.087,2.68,3.664,3.664,0,0,1-2.637,1.12H142.2a6.125,6.125,0,0,1-11.241,0H113.3a6.125,6.125,0,0,1-11.241,0h-1.908a3.228,3.228,0,0,1-3.192-3.26v-7.16A3.22,3.22,0,0,1,98.548,1971.18Zm35.481,10.58a2.55,2.55,0,1,0,5.1,0,2.636,2.636,0,0,0-.244-1.1,2.515,2.515,0,0,0-4.611,0A2.637,2.637,0,0,0,134.029,1981.76Zm-28.9,0a2.55,2.55,0,1,0,5.1,0,2.652,2.652,0,0,0-.244-1.1,2.515,2.515,0,0,0-4.611,0A2.637,2.637,0,0,0,105.129,1981.76Zm-4.521-1.1h0.981a6.161,6.161,0,0,1,12.18,0h16.72a6.161,6.161,0,0,1,12.181,0h0.945l0.075-.07,0.006-2.44a3.347,3.347,0,0,0-2.37-3.23l-5.085-1.49a49.88,49.88,0,0,1-7.713-2.98l-2.7-1.31a18.564,18.564,0,0,0-17.479.64l-7.744,4.49v6.39Z" transform="translate(-96.969 -1963.53)"/>
</svg>
