<svg xmlns="http://www.w3.org/2000/svg" width="52" height="70" viewBox="0 0 52 70">
  <defs>
    <style>
      .cls-1 {
        fill: #d9dbdc;
      }

      .cls-1, .cls-2 {
        fill-rule: evenodd;
      }

      .cls-2 {
        fill: #c0c6ce;
      }
    </style>
  </defs>
  <path class="cls-1" d="M50.672,57.359l-8.657-4.929a22.136,22.136,0,0,0-20.488-.741l-3.065,1.463a56.243,56.243,0,0,1-8.656,3.288L4.021,58.107A4.408,4.408,0,0,0,.838,62.367c0,0.945.007,1.9,0.007,2.719a0.758,0.758,0,0,0,.76.76H3.261a6.363,6.363,0,0,1,12.683,0H36.106a6.362,6.362,0,0,1,12.682,0h1.169a1.206,1.206,0,0,0,1.2-1.2V58.2A0.963,0.963,0,0,0,50.672,57.359ZM9.6,62.806a3.681,3.681,0,1,0,3.519,3.041A3.573,3.573,0,0,0,9.6,62.806Zm32.844,0a3.683,3.683,0,1,0,3.519,3.041A3.572,3.572,0,0,0,42.446,62.806ZM26,19.059a4.347,4.347,0,1,0-4.334-4.347A4.346,4.346,0,0,0,26,19.059Zm0-18.7A20.009,20.009,0,0,0,22.237,40L26,47.274,29.759,40A20.009,20.009,0,0,0,26,.357Zm0,7.636a6.718,6.718,0,1,1-6.7,6.718A6.716,6.716,0,0,1,26,7.993ZM38.211,32.78a13.107,13.107,0,0,1-2.364,2.053v-5.1A3.555,3.555,0,0,0,32.3,26.172H19.694a3.555,3.555,0,0,0-3.546,3.557v5.1a10.523,10.523,0,0,1-2.364-2.053V29.729a5.925,5.925,0,0,1,5.91-5.928H32.3a5.925,5.925,0,0,1,5.909,5.928V32.78Z"/>
  <path class="cls-2" d="M157.5,47a12.418,12.418,0,0,0-4.5.852V40a4,4,0,0,1,4-4V33c-0.169,0-.334.013-0.5,0.025V33H132a7.009,7.009,0,0,0-7,7V64H115v6.5a6.507,6.507,0,0,0,6.5,6.5h25a6.509,6.509,0,0,0,6.468-5.863A12.495,12.495,0,1,0,157.5,47Zm0,22a9.44,9.44,0,0,1-4.5-1.136,9.562,9.562,0,0,1-3-2.554,9.438,9.438,0,0,1,0-11.619,9.562,9.562,0,0,1,3-2.554A9.5,9.5,0,1,1,157.5,69Zm-36,5a3.5,3.5,0,0,1-3.5-3.5V67h22v3.5a6.463,6.463,0,0,0,1.024,3.5H121.5ZM150,70.5a3.5,3.5,0,0,1-7,0V64H128V40a4,4,0,0,1,4-4h19.264A6.957,6.957,0,0,0,150,40v9.524a12.453,12.453,0,0,0,0,19.952V70.5ZM163.786,58l0.714-2.709h-3.091l-1.171,4.963h-0.057l-1.517-4.963H156.35l-1.518,4.963h-0.056L153.6,55.292h-3.091L151.265,58H149.5v3h2.6l0.9,3.256L153.206,65h2.823l1.449-4.729h0.057L159.12,65h2.823L163,61h2.5V58h-1.714ZM147.5,40.5h-17v3h17v-3Zm-17,11h12v-3h-12v3Zm0,8h12v-3h-12v3Z"/>
</svg>
