<?xml version="1.0" encoding="utf-8"?>
<!-- Generator: Adobe Illustrator 24.2.1, SVG Export Plug-In . SVG Version: 6.00 Build 0)  -->
<svg version="1.1" id="Layer_1" xmlns="http://www.w3.org/2000/svg" xmlns:xlink="http://www.w3.org/1999/xlink" x="0px" y="0px"
	 viewBox="0 0 200 44" style="enable-background:new 0 0 200 44;" xml:space="preserve">
<style type="text/css">
	.st0{fill:#E17639;}
	.st1{fill:#221F20;}
	.st2{fill:#FFFFFF;}
</style>
<g>
	<path class="st0" d="M198.7,22c0,11-9,20-20,20c-11,0-20-9-20-20c0-11,9-20,20-20C189.7,2,198.7,11,198.7,22z"/>
	<path class="st1" d="M192,22c0,7.4-6,13.3-13.3,13.3c-7.4,0-13.3-6-13.3-13.3c0-7.4,6-13.3,13.3-13.3C186,8.7,192,14.6,192,22z"/>
	<path class="st1" d="M15.9,17.2l-4.3,14.2H4.3l4.3-14.2H1.3l1.4-4.5h21.9l-1.4,4.5H15.9z"/>
	<path class="st1" d="M38.1,31.6c-4.2,0-8-1-10.3-2.3l4.7-4c1.6,0.9,4.6,1.9,7.1,1.9c2.6,0,3.5-0.3,3.8-1.2c0.2-0.7-0.6-1.1-3.9-1.7
		c-6-1-8.6-2.3-7.5-6c1.1-3.5,5.8-5.9,12.1-5.9c4.4,0,7.4,0.8,9.7,2.2l-4.7,4c-2-1.1-4.1-1.8-6.7-1.8c-2.2,0-2.8,0.5-3,1.1
		c-0.2,0.7,0.6,1,3.8,1.6c6.2,1.1,8.7,2.5,7.6,6C49.4,29.9,44.4,31.6,38.1,31.6z"/>
	<path class="st1" d="M75.4,31.3l0.3-0.9c-1.5,0.7-3.3,1.2-5.1,1.2c-3.3,0-5.6-1.7-4.7-4.8c0.9-3,4.1-4.5,8.2-4.5
		c1.8,0,2.9,0.2,3.9,0.6l0.2-0.7c0.4-1.2-0.4-1.6-2.2-1.6c-2,0-3.6,0.3-5.7,1l-0.8-3.1c2.6-0.8,5.4-1.3,8.7-1.3
		c5.4,0,7.1,2.3,6.2,5.1l-2.8,9H75.4z M77.1,25.7c-0.7-0.2-1.5-0.4-2.7-0.4c-1.4,0-2.2,0.5-2.5,1.5c-0.3,0.9,0.2,1.5,1.6,1.5
		c1.1,0,2.3-0.3,3.1-0.7L77.1,25.7z"/>
	<path class="st1" d="M98.9,31.3l4.2-13.9h6.7l-4.2,13.9H98.9z M106.8,16.5c-2.2,0-3.5-0.9-3.1-2.4c0.4-1.3,2.3-2.3,4.5-2.3
		c2.3,0,3.6,1,3.2,2.3C110.9,15.6,109.1,16.5,106.8,16.5z"/>
	<path class="st1" d="M117,31.6c-5.4,0-8.5-2.5-7-7.2c1.5-4.8,6-7.2,11.4-7.2c5.4,0,8.5,2.4,7,7.2C127,29.2,122.4,31.6,117,31.6z
		 M120.3,21c-1.7,0-2.9,1-3.6,3.4c-0.7,2.3-0.1,3.4,1.6,3.4c1.7,0,3-1.1,3.7-3.4C122.6,22,122,21,120.3,21z"/>
	<path class="st1" d="M139.7,31.3l2.4-7.9c0.5-1.8-0.2-2.3-1.5-2.3c-1.4,0-2.4,0.5-2.9,2.2l-2.4,7.9h-6.7l4.2-13.9h6.7l-0.3,0.9
		c1.4-0.7,3-1.2,5.3-1.2c3.3,0,4.9,1.2,4.9,3.5c0,0.6-0.1,1.3-0.4,2.1l-2.6,8.5H139.7z"/>
	<polygon class="st2" points="186.7,15.3 178.7,15.3 178.7,15.3 170.7,15.3 170.7,20.1 175.7,20.1 175.7,31.3 178.7,31.3 
		181.6,31.3 181.6,20.1 186.7,20.1 	"/>
	<polygon class="st0" points="27.5,11.3 25.7,17.2 29.3,17.2 33.5,11.3 	"/>
	<path class="st1" d="M95.1,21.2h4.2l1.1-3.7h-4.2l1.6-5.4l-7,1.9l-1.1,3.5h-4.3l1,3.7h2.2l-1.8,6c-1,3.1,0.3,4.4,3.8,4.4
		c1.9,0,3.6-0.3,5-0.7l1.8-3.5c-0.6,0.1-1.9,0.2-2.6,0.2c-1.1,0-1.6-0.3-1.2-1.4L95.1,21.2z"/>
	<path class="st1" d="M62.2,21.2h4.7l-0.9-3.7h-2.6l1.6-5.4l-7,1.9l-1.1,3.5h-3l-1.1,3.7h3l-1.8,6c-1,3.1,0.3,4.4,3.8,4.4
		c1.9,0,3.6-0.3,5-0.7l1-3.4c-0.6,0.1-1.3,0.1-1.8,0.1c-1.1,0-1.6-0.3-1.2-1.4L62.2,21.2z"/>
</g>
</svg>
