<svg xmlns="http://www.w3.org/2000/svg" width="66" height="46" viewBox="0 0 66 46">
  <defs>
    <style>
      .cls-1 {
        fill: #fff;
      }

      .cls-1, .cls-2 {
        fill-rule: evenodd;
      }

      .cls-2 {
        fill: none;
        stroke: #fff;
        stroke-width: 3px;
      }
    </style>
  </defs>
  <path class="cls-1" d="M2.254,31.092l6.513-3.775a18.045,18.045,0,0,1,16.968-.624l2.2,1.066a37.528,37.528,0,0,0,5.821,2.25l4.138,1.214A5.759,5.759,0,0,1,41.97,36.78l0,1.968a3.1,3.1,0,0,1-.885,2.187,2.983,2.983,0,0,1-2.146.907H37.782a4.981,4.981,0,0,1-9.149,0H14.261a4.981,4.981,0,0,1-9.149,0H3.558a2.627,2.627,0,0,1-2.6-2.652V33.359A2.619,2.619,0,0,1,2.254,31.092ZM31.132,39.7a2.076,2.076,0,1,0,4.151,0,2.134,2.134,0,0,0-.2-0.891,2.048,2.048,0,0,0-3.753,0A2.133,2.133,0,0,0,31.132,39.7Zm-23.522,0a2.076,2.076,0,1,0,4.151,0,2.134,2.134,0,0,0-.2-0.891,2.048,2.048,0,0,0-3.753,0A2.135,2.135,0,0,0,7.611,39.7ZM3.93,38.81h0.8a5.075,5.075,0,0,1,4.957-4.26,5.075,5.075,0,0,1,4.957,4.26H28.251a5.014,5.014,0,0,1,9.914,0h0.77L39,38.75l0-1.984a2.726,2.726,0,0,0-1.929-2.629l-4.138-1.213A40.423,40.423,0,0,1,26.655,30.5l-2.2-1.066a15.129,15.129,0,0,0-14.226.523l-6.3,3.653v5.2Z"/>
  <path id="Shape_2_copy" data-name="Shape 2 copy" class="cls-2" d="M51.645,0.849c-7.721,0-13.98,4.859-13.98,10.852,0,3.726,2.421,7.014,6.107,8.967l-1.551,5.693a0.572,0.572,0,0,0,.875.614l6.8-4.51c0.574,0.056,1.157.088,1.75,0.088,7.721,0,13.98-4.859,13.98-10.852S59.366,0.849,51.645.849"/>
</svg>
