<?xml version="1.0" encoding="UTF-8"?>
<svg width="72px" height="92px" viewBox="0 0 72 92" version="1.1" xmlns="http://www.w3.org/2000/svg" xmlns:xlink="http://www.w3.org/1999/xlink">
    <title>card-type-best</title>
    <defs>
        <polygon id="path-1" points="0.343232877 0 22.6661918 0 35.5443288 31.619 14.9385205 31.619"></polygon>
    </defs>
    <g id="card-type-best" stroke="none" stroke-width="1" fill="none" fill-rule="evenodd">
        <rect id="guide-box" x="0" y="0" width="72" height="92"></rect>
        <g id="badge-copy-2">
            <polygon id="Rectangle_840_copy" fill="#5B6068" fill-rule="nonzero" points="37.2969863 -0.001 59.6189589 -0.001 44.165589 31.618 24.4188493 31.618"></polygon>
            <g id="Rectangle_840-2" transform="translate(6.904110, -0.001000)">
                <polygon id="Rectangle_840-3" fill="#2A3138" fill-rule="nonzero" points="0.343232877 0 22.6661918 0 35.5443288 31.619 14.9385205 31.619"></polygon>
                <g id="Clip-Clipped">
                    <mask id="mask-2" fill="white">
                        <use xlink:href="#path-1"></use>
                    </mask>
                    <g id="Rectangle_840"></g>
                    <g id="Clip" mask="url(#mask-2)" fill="#A0A6AF" fill-rule="nonzero" opacity="0.502">
                        <g transform="translate(7.890411, 0.000000)" id="Rectangle_840_copy_2">
                            <polygon points="0.179506849 0 7.04810959 0 19.9232877 31.619 13.9167123 31.619"></polygon>
                        </g>
                    </g>
                </g>
            </g>
            <ellipse id="Rectangle_858" fill="#FFA200" fill-rule="nonzero" cx="36" cy="55.199" rx="36" ry="36.8"></ellipse>
            <ellipse id="Rectangle_840_copy_3" fill="#FFFFFF" fill-rule="nonzero" cx="36.4438356" cy="55.089" rx="30.0003288" ry="30.667"></ellipse>
            <ellipse id="Rectangle_840_copy_4" fill="#FFA200" fill-rule="nonzero" style="mix-blend-mode: multiply;" cx="36.4438356" cy="55.089" rx="30.0003288" ry="30.667"></ellipse>
            <path d="M17.2325,55 C20.6555,55 23.2595,53.551 23.2595,50.422 C23.2595,48.322 22.0205,47.146 20.3405,46.747 L20.3405,46.642 C21.6635,46.18 22.4615,44.71 22.4615,43.282 C22.4615,40.384 20.0255,39.46 16.8335,39.46 L11.6885,39.46 L11.6885,55 L17.2325,55 Z M16.6025,45.781 L14.7965,45.781 L14.7965,41.833 L16.6445,41.833 C18.5135,41.833 19.4375,42.379 19.4375,43.744 C19.4375,44.983 18.5765,45.781 16.6025,45.781 Z M16.9595,52.606 L14.7965,52.606 L14.7965,48.091 L16.9595,48.091 C19.1015,48.091 20.2355,48.721 20.2355,50.233 C20.2355,51.85 19.0805,52.606 16.9595,52.606 Z M35.7545,55 L35.7545,52.396 L29.0975,52.396 L29.0975,48.238 L34.5575,48.238 L34.5575,45.634 L29.0975,45.634 L29.0975,42.043 L35.5235,42.043 L35.5235,39.46 L25.9895,39.46 L25.9895,55 L35.7545,55 Z M43.5455,55.294 C47.1365,55.294 49.2575,53.131 49.2575,50.59 C49.2575,48.343 48.0185,47.146 46.1285,46.369 L44.0915,45.508 C42.7685,44.983 41.6555,44.584 41.6555,43.471 C41.6555,42.442 42.5375,41.833 43.9025,41.833 C45.1835,41.833 46.2125,42.295 47.1995,43.114 L48.7745,41.161 C47.5145,39.88 45.7085,39.166 43.9025,39.166 C40.7525,39.166 38.5265,41.119 38.5265,43.66 C38.5265,45.928 40.1015,47.188 41.6765,47.839 L43.7555,48.721 C45.1415,49.309 46.0865,49.666 46.0865,50.821 C46.0865,51.913 45.2255,52.606 43.6085,52.606 C42.2435,52.606 40.7735,51.913 39.6605,50.884 L37.8755,53.026 C39.3875,54.475 41.4665,55.294 43.5455,55.294 Z M58.2035,55 L58.2035,42.043 L62.6135,42.043 L62.6135,39.46 L50.7275,39.46 L50.7275,42.043 L55.0955,42.043 L55.0955,55 L58.2035,55 Z M20.96,73 L20.96,60.043 L25.37,60.043 L25.37,57.46 L13.484,57.46 L13.484,60.043 L17.852,60.043 L17.852,73 L20.96,73 Z M30.998,73 L30.998,57.46 L27.89,57.46 L27.89,73 L30.998,73 Z M37.928,73 L37.928,67.12 L40.091,67.12 L43.283,73 L46.748,73 L43.115,66.637 C44.9,65.944 46.076,64.495 46.076,62.164 C46.076,58.594 43.493,57.46 40.238,57.46 L34.82,57.46 L34.82,73 L37.928,73 Z M39.944,64.663 L37.928,64.663 L37.928,59.917 L39.944,59.917 C41.939,59.917 43.031,60.484 43.031,62.164 C43.031,63.823 41.939,64.663 39.944,64.663 Z M58.907,73 L58.907,70.396 L52.25,70.396 L52.25,66.238 L57.71,66.238 L57.71,63.634 L52.25,63.634 L52.25,60.043 L58.676,60.043 L58.676,57.46 L49.142,57.46 L49.142,73 L58.907,73 Z" id="BESTTIRE" fill="#FFFFFF" fill-rule="nonzero"></path>
        </g>
    </g>
</svg>