<?xml version="1.0" encoding="UTF-8"?>
<svg width="72px" height="92px" viewBox="0 0 72 92" version="1.1" xmlns="http://www.w3.org/2000/svg" xmlns:xlink="http://www.w3.org/1999/xlink">
    <title>card-type-new</title>
    <g id="card-type-new" stroke="none" stroke-width="1" fill="none" fill-rule="evenodd">
        <rect id="guide-box" x="0" y="0" width="72" height="92"></rect>
        <path d="M36,26 C19.4314575,26 6,39.4314574 6,56 C6,72.5685424 19.4314575,86 36,86 L36,86 C52.5626454,85.9789685 65.9808274,72.5592799 66,56 C66,39.4314574 52.5685424,26 36,26 Z" id="Combined-Shape-path" fill="#FFFFFF"></path>
        <path d="M37.1125479,20 C45.8129249,20.2777193 54.1141134,23.7156561 60.4632329,29.6706849 L60.4632329,29.6706849 L58.0201644,32.1137534 C57.5662841,32.5840024 57.5729011,33.3312083 58.0350382,33.7933454 C58.4971753,34.2554825 59.2443812,34.2620994 59.7146301,33.8082192 L59.7146301,33.8082192 L62.1576986,31.3651507 C68.1127275,37.7142702 71.5506642,46.0154587 71.8283836,54.7158356 L71.8283836,54.7158356 L68.3763288,54.7158356 C68.058505,54.7158356 67.7536984,54.8420906 67.528963,55.066826 C67.3042276,55.2915614 67.1779726,55.596368 67.1779726,55.9141918 C67.1806896,56.5739392 67.7165759,57.1071792 68.3763288,57.1066301 L68.3763288,57.1066301 L71.8283836,57.1066301 C71.5509018,65.8073503 68.1129485,74.1089293 62.1576986,80.4583014 L62.1576986,80.4583014 L59.7146301,78.0152329 C59.2443812,77.5613526 58.4971753,77.5679696 58.0350382,78.0301067 C57.5729011,78.4922438 57.5662841,79.2394496 58.0201644,79.7096986 L58.0201644,79.7096986 L60.4632329,82.1527671 C54.11416,88.1084807 45.812398,91.5465098 37.1115616,91.8234521 L37.1115616,91.8234521 L37.1115616,88.3713973 C37.1240781,87.9352462 36.8985438,87.526761 36.522774,87.304992 C36.1470042,87.083223 35.6803931,87.083223 35.3046233,87.304992 C34.9288535,87.526761 34.7033191,87.9352462 34.7158356,88.3713973 L34.7158356,88.3713973 L34.7158356,91.8234521 C26.0161106,91.5470784 17.7150047,88.1109289 11.3651507,82.1576986 L11.3651507,82.1576986 L13.8082192,79.7146301 C14.2398283,79.2411277 14.222642,78.5118875 13.769206,78.0592432 C13.3157699,77.606599 12.5865008,77.5906872 12.1137534,78.0231233 L12.1137534,78.0231233 L9.67068493,80.4661918 C3.71543506,74.1168197 0.277481763,65.8152407 -6.82121026e-13,57.1145205 L-6.82121026e-13,57.1145205 L3.45205479,57.1145205 C4.11388847,57.1145203 4.65041055,56.5779981 4.65041055,55.9161644 C4.65041055,55.2543307 4.11388847,54.7178084 3.45205479,54.7178082 L3.45205479,54.7178082 L-6.82121026e-13,54.7178082 C0.277513303,46.0166145 3.7158406,37.7146284 9.67167123,31.3651507 L9.67167123,31.3651507 L12.1147397,33.8082192 C12.4142372,34.126016 12.8628953,34.2557389 13.2857751,34.1468068 C13.7086549,34.0378747 14.0388027,33.7075346 14.1474886,33.2845915 C14.2561744,32.8616483 14.1261903,32.4130658 13.8082192,32.1137534 L13.8082192,32.1137534 L11.366137,29.6706849 C17.7152565,23.7156561 26.016445,20.2777193 34.7168219,20 L34.7168219,20 L34.7168219,23.4520548 C34.7043054,23.8882059 34.9298398,24.296691 35.3056096,24.51846 C35.6813794,24.740229 36.1479905,24.740229 36.5237603,24.51846 C36.8995301,24.296691 37.1250644,23.8882059 37.1125479,23.4520548 L37.1125479,23.4520548 L37.1125479,20 Z M35.9122192,29.556274 C21.3545984,29.556274 9.55331507,41.3575573 9.55331507,55.9151781 C9.55331507,70.4727988 21.3545984,82.2740822 35.9122192,82.2740822 L35.9122192,82.2740822 C50.4646586,82.2556033 62.2542777,70.4646605 62.2711233,55.9151781 C62.2711233,41.3575573 50.4698399,29.556274 35.9122192,29.556274 Z M17.1525,48.46 L21.6675,56.734 L23.2215,60.094 L23.3265,60.094 C23.1585,58.477 22.9275,56.419 22.9275,54.655 L22.9275,54.655 L22.9275,48.46 L25.8675,48.46 L25.8675,64 L22.7175,64 L18.2235,55.684 L16.6485,52.345 L16.5435,52.345 C16.6905,54.025 16.9215,55.978 16.9215,57.763 L16.9215,57.763 L16.9215,64 L13.9815,64 L13.9815,48.46 L17.1525,48.46 Z M39.2445,48.46 L39.2445,51.043 L32.8185,51.043 L32.8185,54.634 L38.2785,54.634 L38.2785,57.238 L32.8185,57.238 L32.8185,61.396 L39.4755,61.396 L39.4755,64 L29.7105,64 L29.7105,48.46 L39.2445,48.46 Z M44.2635,48.46 L45.5025,56.041 C45.7335,57.679 45.9855,59.338 46.2165,60.997 L46.2165,60.997 L46.3005,60.997 C46.6155,59.338 46.9515,57.658 47.2875,56.041 L47.2875,56.041 L49.0935,48.46 L51.7395,48.46 L53.5455,56.041 C53.8815,57.637 54.1965,59.317 54.5325,60.997 L54.5325,60.997 L54.6375,60.997 C54.8685,59.317 55.0995,57.658 55.3305,56.041 L55.3305,56.041 L56.5485,48.46 L59.5095,48.46 L56.6325,64 L52.7685,64 L51.0255,56.314 C50.7735,55.096 50.5425,53.899 50.3535,52.723 L50.3535,52.723 L50.2695,52.723 C50.0595,53.899 49.8495,55.096 49.5975,56.314 L49.5975,56.314 L47.8965,64 L44.0955,64 L41.0925,48.46 L44.2635,48.46 Z" id="Combined-Shape" fill="#FE6A2B" fill-rule="nonzero"></path>
    </g>
</svg>