<svg xmlns="http://www.w3.org/2000/svg" width="54" height="24" viewBox="0 0 54 24">
  <defs>
    <style>
      .cls-1 {
        fill: #d9dbdc;
      }

      .cls-1, .cls-2 {
        fill-rule: evenodd;
      }

      .cls-2 {
        fill: #fe6a2b;
      }
    </style>
  </defs>
  <path class="cls-1" d="M53.479,9.38l-9.288-5.3a23.7,23.7,0,0,0-21.982-.8L18.919,4.855A60.292,60.292,0,0,1,9.633,8.392L3.426,10.185A4.74,4.74,0,0,0,.01,14.767c0,1.016.008,2.048,0.008,2.924a0.813,0.813,0,0,0,.815.818H2.61a6.826,6.826,0,0,1,13.608,0H37.85a6.825,6.825,0,0,1,13.608,0h1.254A1.3,1.3,0,0,0,54,17.213V10.281A1.037,1.037,0,0,0,53.479,9.38Zm-8.825,5.858a3.957,3.957,0,1,0,3.776,3.27A3.836,3.836,0,0,0,44.653,15.239Z"/>
  <path id="Shape_1724_copy" data-name="Shape 1724 copy" class="cls-2" d="M9.414,15.239a3.961,3.961,0,1,0,3.775,3.27A3.837,3.837,0,0,0,9.414,15.239Z"/>
</svg>
