<?xml version="1.0" encoding="utf-8"?>
<!-- Generator: Adobe Illustrator 24.3.0, SVG Export Plug-In . SVG Version: 6.00 Build 0)  -->
<svg version="1.1" id="Layer_1" xmlns="http://www.w3.org/2000/svg" xmlns:xlink="http://www.w3.org/1999/xlink" x="0px" y="0px"
	 viewBox="0 0 96 64" style="enable-background:new 0 0 96 64;" xml:space="preserve">
<style type="text/css">
	.st0{fill:#CBB48E;}
	.st1{fill:none;}
</style>
<path class="st0" d="M53.5,22.2c0-3.6-2.9-6.5-6.5-6.5c-3.6,0-6.5,2.9-6.5,6.5c0,3.6,2.9,6.5,6.5,6.5C50.5,28.8,53.5,25.8,53.5,22.2
	z M43.4,22.2c0-1.9,1.6-3.5,3.5-3.5c1.9,0,3.5,1.6,3.5,3.5c0,1.9-1.6,3.5-3.5,3.5C45,25.8,43.4,24.2,43.4,22.2z M67.3,35.5h-8.8
	c2.4-4.2,4.2-8.9,4.2-13.3c0-8.7-7-15.7-15.7-15.7c-8.7,0-15.7,7.1-15.7,15.7c0,4.4,1.8,9.1,4.2,13.3h-6.7l-9.2,22h57L67.3,35.5z
	 M34.2,22.2c0-7,5.7-12.7,12.7-12.7s12.7,5.7,12.7,12.7c0,9.1-9.5,20.2-12.7,23.7C43.7,42.5,34.2,31.4,34.2,22.2z M30.7,38.5h6.6
	c3.9,6,8.3,10.4,8.6,10.7l1.1,1.1l1.1-1.1c0.3-0.3,4.7-4.8,8.6-10.7h8.7l6.7,16H24L30.7,38.5z"/>
<rect class="st1" width="96" height="64"/>
</svg>
