<?xml version="1.0" encoding="utf-8"?>
<!-- Generator: Adobe Illustrator 24.3.0, SVG Export Plug-In . SVG Version: 6.00 Build 0)  -->
<svg version="1.1" id="Layer_1" xmlns="http://www.w3.org/2000/svg" xmlns:xlink="http://www.w3.org/1999/xlink" x="0px" y="0px"
	 viewBox="0 0 96 64" style="enable-background:new 0 0 96 64;" xml:space="preserve">
<style type="text/css">
	.st0{fill:#2A3138;}
	.st1{fill:none;}
</style>
<g>
	<path class="st0" d="M89.7,16.8H6.3c-3.1,0-5.6,2.5-5.6,5.6v19.1c0,3.1,2.5,5.6,5.6,5.6h83.5c3.1,0,5.6-2.5,5.6-5.6V22.4
		C95.4,19.4,92.8,16.8,89.7,16.8z M92.4,41.6c0,1.4-1.2,2.6-2.6,2.6H6.3c-1.4,0-2.6-1.2-2.6-2.6V22.4c0-1.4,1.2-2.6,2.6-2.6h83.5
		c1.4,0,2.6,1.2,2.6,2.6V41.6z M16.7,28.7h3.2v8.5h2.6v-8.5h3.2v-2.2h-9V28.7z M26.6,28h1c0,0.4-0.1,0.6-0.2,0.8
		c-0.2,0.2-0.4,0.3-0.7,0.3v0.8c0.2,0,0.4-0.1,0.6-0.1c0.2-0.1,0.4-0.2,0.6-0.3c0.2-0.1,0.3-0.3,0.4-0.6c0.1-0.2,0.2-0.5,0.2-0.9
		v-1.9h-1.9V28z M36.9,31.9c-0.2-0.3-0.5-0.5-0.8-0.6c-0.3-0.2-0.7-0.3-1.1-0.4l-1.1-0.3c-0.3-0.1-0.5-0.1-0.7-0.2
		c-0.2-0.1-0.4-0.1-0.5-0.2c-0.1-0.1-0.2-0.2-0.3-0.3c-0.1-0.1-0.1-0.3-0.1-0.5c0-0.2,0-0.3,0.1-0.5c0.1-0.1,0.2-0.2,0.3-0.3
		c0.2-0.1,0.4-0.1,0.6-0.2c0.3,0,0.6-0.1,1-0.1c0.4,0,0.9,0,1.3,0.1c0.5,0,0.9,0.1,1.3,0.2v-2c-0.2-0.1-0.4-0.1-0.6-0.1
		c-0.2,0-0.5-0.1-0.8-0.1c-0.3,0-0.6-0.1-0.9-0.1c-0.3,0-0.6,0-0.9,0c-0.7,0-1.3,0.1-1.9,0.2c-0.5,0.1-0.9,0.3-1.3,0.6
		c-0.3,0.3-0.6,0.6-0.7,1s-0.2,0.9-0.2,1.4c0,0.9,0.2,1.6,0.6,2.1c0.4,0.5,1,0.8,1.8,1l1.1,0.3c0.4,0.1,0.7,0.2,0.9,0.3
		c0.2,0.1,0.4,0.2,0.5,0.3c0.1,0.1,0.2,0.2,0.3,0.3c0,0.1,0.1,0.3,0.1,0.4c0,0.4-0.2,0.7-0.5,0.8s-0.8,0.2-1.5,0.2
		c-0.4,0-0.9,0-1.5-0.1c-0.6-0.1-1.2-0.2-1.8-0.4v2.1c0.6,0.2,1.2,0.4,1.9,0.4c0.7,0.1,1.3,0.1,1.8,0.1c0.8,0,1.4-0.1,1.9-0.2
		c0.5-0.2,1-0.4,1.3-0.6s0.6-0.6,0.7-1s0.2-0.9,0.2-1.4c0-0.5,0-0.9-0.1-1.2C37.3,32.4,37.1,32.1,36.9,31.9z M41.9,27.2l-2.5,0.5
		v1.6h-1.2v1.8h1.2v4.1c0,0.7,0.2,1.3,0.6,1.6c0.4,0.4,1,0.5,1.8,0.5c0.4,0,0.8,0,1.2-0.1c0.4-0.1,0.7-0.2,1-0.4v-1.7
		c-0.2,0.1-0.4,0.2-0.6,0.2s-0.5,0.1-0.7,0.1c-0.3,0-0.5-0.1-0.6-0.2c-0.1-0.1-0.2-0.4-0.2-0.8v-3.4H44v-1.8h-2.1V27.2z M51,29.8
		c-0.3-0.2-0.6-0.4-1-0.6c-0.4-0.1-1-0.2-1.6-0.2c-0.2,0-0.4,0-0.7,0c-0.2,0-0.5,0.1-0.8,0.1c-0.3,0-0.5,0.1-0.8,0.2
		c-0.2,0.1-0.5,0.1-0.7,0.2v1.7c0.2-0.1,0.4-0.2,0.7-0.2c0.2-0.1,0.5-0.1,0.7-0.1s0.4-0.1,0.6-0.1c0.2,0,0.4,0,0.5,0
		c0.2,0,0.5,0,0.6,0c0.2,0,0.3,0.1,0.4,0.2c0.1,0.1,0.2,0.2,0.2,0.3c0,0.1,0,0.3,0,0.5v0.4h-0.9c-0.6,0-1.1,0-1.6,0.1
		c-0.5,0.1-0.9,0.2-1.2,0.4c-0.3,0.2-0.6,0.4-0.7,0.7c-0.2,0.3-0.2,0.7-0.2,1.1v0.5c0,0.8,0.2,1.4,0.6,1.7s1,0.5,1.7,0.5
		c0.5,0,1-0.1,1.5-0.2s0.9-0.4,1.2-0.6l0.2,0.7h1.9v-5.2c0-0.5-0.1-0.9-0.2-1.2C51.4,30.4,51.3,30.1,51,29.8z M49.3,35.1
		c-0.2,0.2-0.4,0.3-0.7,0.4c-0.3,0.1-0.5,0.1-0.8,0.1c-0.3,0-0.5-0.1-0.6-0.2s-0.2-0.3-0.2-0.6v-0.2c0-0.4,0.1-0.6,0.3-0.8
		s0.5-0.2,0.9-0.2h0.9V35.1z M56.3,27.2l-2.5,0.5v1.6h-1.2v1.8h1.2v4.1c0,0.7,0.2,1.3,0.6,1.6c0.4,0.4,1,0.5,1.8,0.5
		c0.4,0,0.8,0,1.2-0.1c0.4-0.1,0.7-0.2,1-0.4v-1.7c-0.2,0.1-0.4,0.2-0.6,0.2s-0.5,0.1-0.7,0.1c-0.3,0-0.5-0.1-0.6-0.2
		c-0.1-0.1-0.2-0.4-0.2-0.8v-3.4h2.1v-1.8h-2.1V27.2z M59.5,28.3H62v-2.3h-2.5V28.3z M59.5,37.2H62v-7.9h-2.5V37.2z M67.2,29.1
		c-1.3,0-2.2,0.3-2.9,0.9s-1,1.5-1,2.6v1.1c0,1.2,0.3,2.1,1,2.7s1.6,0.9,2.9,0.9s2.2-0.3,2.9-0.9s1-1.5,1-2.7v-1.1
		c0-1.2-0.3-2-1-2.6S68.5,29.1,67.2,29.1z M68.5,33.7c0,0.7-0.1,1.1-0.3,1.4s-0.5,0.4-1,0.4s-0.8-0.1-1-0.4s-0.3-0.7-0.3-1.4v-0.9
		c0-0.7,0.1-1.1,0.3-1.4c0.2-0.3,0.5-0.4,1-0.4s0.8,0.1,1,0.4c0.2,0.3,0.3,0.7,0.3,1.4V33.7z M79.1,29.8c-0.2-0.2-0.5-0.4-0.8-0.5
		c-0.3-0.1-0.7-0.2-1.2-0.2c-0.4,0-0.8,0.1-1.3,0.2c-0.5,0.1-0.9,0.4-1.3,0.6l-0.2-0.7h-1.9v7.9h2.5v-5.6c0.2-0.2,0.4-0.3,0.7-0.3
		s0.5-0.1,0.7-0.1c0.3,0,0.5,0.1,0.6,0.2c0.1,0.2,0.1,0.4,0.1,0.7v5.1h2.5v-5.6c0-0.4,0-0.7-0.1-1C79.4,30.3,79.3,30,79.1,29.8z
		 M8.4,30.5C7.6,30.5,7,31.2,7,32s0.7,1.5,1.5,1.5s1.5-0.7,1.5-1.5S9.2,30.5,8.4,30.5z M87.5,30.5c-0.8,0-1.5,0.7-1.5,1.5
		s0.7,1.5,1.5,1.5s1.5-0.7,1.5-1.5S88.3,30.5,87.5,30.5z"/>
	<rect class="st1" width="96" height="64"/>
</g>
</svg>
