<?xml version="1.0" encoding="UTF-8"?>
<svg width="96px" height="96px" viewBox="0 0 96 96" version="1.1" xmlns="http://www.w3.org/2000/svg" xmlns:xlink="http://www.w3.org/1999/xlink">
    <title>graphics_ts_deal_wheel</title>
    <g id="graphics_ts_deal_wheel" stroke="none" stroke-width="1" fill="none" fill-rule="evenodd">
        <path d="M48,24 C34.745166,24 24,34.745166 24,48 C24,61.254834 34.745166,72 48,72 C61.254834,72 72,61.254834 72,48 C71.9851738,34.7513121 61.2486879,24.0148262 48,24 L48,24 Z M63.1086201,43.3485035 L63.0669207,43.2139895 L63.1086201,43.3485035 Z M51.0911333,32.5066697 C55.6160981,33.4083311 59.52188,36.2406371 61.7850017,40.2614057 C61.992106,40.6447971 62.0140033,41.1014674 61.844532,41.5029156 C61.6750607,41.9043637 61.3325399,42.207195 60.9133505,42.3261966 L53.2137653,44.5631656 C52.3722995,44.8084442 51.4646465,44.6492228 50.7569078,44.1321811 C50.049169,43.6151394 49.6215331,42.7988594 49.5993723,41.9226544 L49.3922206,33.9661473 C49.3767773,33.5299346 49.5601188,33.1102807 49.8906731,32.82523 C50.2212273,32.5401793 50.6632771,32.4205321 51.0924784,32.499944 L51.0911333,32.5066697 Z M34.2109629,40.2654411 C36.4720128,36.2466099 40.3738404,33.4141866 44.8954153,32.5093599 C45.3245663,32.4306831 45.7662283,32.551107 46.0960501,32.8367259 C46.4258719,33.1223449 46.6081773,33.5422638 46.5916377,33.9782536 L46.3333707,41.9401412 C46.3058486,42.813946 45.8752905,43.6257684 45.1673419,44.1387021 C44.4593933,44.6516359 43.5538406,44.807873 42.7149423,44.5618204 L35.0812689,42.3288869 C34.6629503,42.2091632 34.3214333,41.9063004 34.1525609,41.5052937 C33.9836884,41.1042871 34.0056595,40.6483518 34.212308,40.2654411 L34.2109629,40.2654411 Z M36.3847102,58.7032844 C33.6860471,55.7927483 32.1882188,51.9691296 32.1918999,48 C32.1918999,47.3821603 32.2301544,46.7649131 32.3062437,46.1517767 C32.3672427,45.7221364 32.6197006,45.3433025 32.9927511,45.1216159 C33.3658017,44.8999292 33.8192312,44.8592869 34.2257594,45.0110974 L41.6428651,47.7215559 C42.4588994,48.0191429 43.092654,48.6756104 43.3613347,49.5016131 C43.6300154,50.3276159 43.5037451,51.2313029 43.0189441,51.9520233 L38.6189889,58.5028584 C38.3782078,58.8669413 37.9848283,59.1016655 37.5500744,59.1406651 C37.1153205,59.1796647 36.6864458,59.0187008 36.3847102,58.7032844 L36.3847102,58.7032844 Z M54.6059859,62.3472705 C50.4167745,64.2945321 45.5818803,64.2945321 41.392669,62.3472705 C41.0021322,62.15809 40.7181541,61.8023748 40.6201767,61.3796354 C40.5221994,60.9568959 40.6207434,60.5125244 40.8882412,60.1708329 L45.7616859,53.8634682 C46.2965138,53.1698852 47.1228134,52.7636189 47.9986549,52.7636189 C48.8744963,52.7636189 49.7007959,53.1698852 50.2356238,53.8634682 L55.1090685,60.1708329 C55.377164,60.5121743 55.4762212,60.9565798 55.3784708,61.3794676 C55.2807205,61.8023554 54.9966839,62.1582089 54.6059859,62.3472705 L54.6059859,62.3472705 Z M59.6193252,58.6979038 C59.3169972,59.0144607 58.8867364,59.1757474 58.4508179,59.1359279 C58.0148995,59.0961084 57.6209815,58.8595362 57.3810111,58.4934424 L52.9864365,51.891492 C52.5034639,51.1684118 52.3804239,50.2631891 52.6528745,49.43743 C52.9253251,48.6116708 53.5629018,47.9574057 54.3813474,47.6637148 L61.7796211,45.0016814 C62.1855376,44.851283 62.6377354,44.8928689 63.0094132,45.1147777 C63.381091,45.3366866 63.6322311,45.7150262 63.6924112,46.1437059 C63.7692959,46.7594854 63.8079307,47.3794392 63.808099,48 C63.8114864,51.966468 62.3157658,55.7876907 59.6206703,58.6979038 L59.6193252,58.6979038 Z" id="Shape_1066" fill="#A0A6AF" fill-rule="nonzero"></path>
    </g>
</svg>