<?xml version="1.0" encoding="utf-8"?>
<!-- Generator: Adobe Illustrator 24.3.0, SVG Export Plug-In . SVG Version: 6.00 Build 0)  -->
<svg version="1.1" id="Layer_1" xmlns="http://www.w3.org/2000/svg" xmlns:xlink="http://www.w3.org/1999/xlink" x="0px" y="0px"
	 viewBox="0 0 96 64" style="enable-background:new 0 0 96 64;" xml:space="preserve">
<style type="text/css">
	.st0{fill:#2A3138;}
	.st1{fill:none;}
</style>
<g>
	<path class="st0" d="M89.3,25.4L75,17.3c-5.8-3.3-12.4-5-19-5c-5.7,0-11.4,1.3-16.6,3.7l-4.8,2.3c-4.2,2-8.6,3.7-13,4.9l-9.1,2.6
		c-4.5,1.3-7.7,5.5-7.7,10.2c0,1.5,0,3,0,4.2c0,1.3,0.5,2.5,1.4,3.5c0.9,0.9,2.2,1.4,3.5,1.4h3.7c1.2,3.7,4.7,6.5,8.9,6.5
		s7.7-2.7,8.9-6.5H65c1.2,3.7,4.7,6.5,8.9,6.5s7.7-2.7,8.9-6.5h4.6c2.2,0,3.9-1.8,3.9-3.9V28.8C91.2,27.4,90.5,26.1,89.3,25.4z
		 M22.2,48.7c-3.5,0-6.3-2.8-6.3-6.3s2.8-6.3,6.3-6.3s6.3,2.8,6.3,6.3S25.7,48.7,22.2,48.7z M73.8,48.7c-3.5,0-6.3-2.8-6.3-6.3
		s2.8-6.3,6.3-6.3s6.3,2.8,6.3,6.3S77.3,48.7,73.8,48.7z M88.2,41.3c0,0.5-0.4,0.9-0.9,0.9h-4.1c-0.1-5.1-4.2-9.2-9.3-9.2
		s-9.2,4.1-9.3,9.2h-33c-0.1-5.1-4.2-9.2-9.3-9.2s-9.2,4.1-9.3,9.2H9.7c-0.5,0-1-0.2-1.3-0.6c-0.4-0.4-0.6-0.8-0.6-1.3
		c0-1.3,0-2.8,0-4.3c0-3.4,2.2-6.4,5.5-7.3l9.1-2.6c4.6-1.3,9.2-3,13.5-5.1l4.8-2.3c4.7-2.3,10-3.5,15.3-3.5
		c6.1,0,12.2,1.6,17.6,4.6L87.8,28c0.3,0.2,0.4,0.4,0.4,0.7V41.3z"/>
	<rect class="st1" width="96" height="64"/>
</g>
</svg>
