<svg xmlns="http://www.w3.org/2000/svg" width="57" height="51" viewBox="0 0 57 51">
  <defs>
    <style>
      .cls-1 {
        fill: #fe6a2b;
        fill-rule: evenodd;
      }
    </style>
  </defs>
  <path class="cls-1" d="M688.99,1850.97H632l9.2-21.99h6.725c-2.368-4.2-4.2-8.86-4.2-13.27a15.709,15.709,0,1,1,31.417,0c0,4.41-1.834,9.07-4.2,13.27h8.849Zm-29.558-47.98a12.725,12.725,0,0,0-12.7,12.72c0,9.13,9.464,20.23,12.7,23.75,3.232-3.52,12.7-14.62,12.7-23.75A12.725,12.725,0,0,0,659.432,1802.99Zm9.67,29a73.8,73.8,0,0,1-8.605,10.73l-1.065,1.07-1.065-1.07a73.72,73.72,0,0,1-8.605-10.73h-6.589l-6.678,15.96h48l-6.678-15.96H669.1Zm-16.189-16.28a6.519,6.519,0,1,1,6.519,6.53A6.532,6.532,0,0,1,652.913,1815.71Zm10.025,0a3.507,3.507,0,1,0-3.506,3.51A3.516,3.516,0,0,0,662.938,1815.71Z" transform="translate(-632 -1799.97)"/>
</svg>
