<?xml version="1.0" encoding="UTF-8"?>
<svg width="18px" height="26px" viewBox="0 0 18 26" version="1.1" xmlns="http://www.w3.org/2000/svg" xmlns:xlink="http://www.w3.org/1999/xlink">
    <title>map_marker_dark</title>
    <g id="map_marker_dark" stroke="none" stroke-width="1" fill="none" fill-rule="evenodd">
        <g id="map_marker_orange" fill-rule="nonzero">
            <path d="M8.91962673,0.499999861 C11.2441295,0.501735212 13.3483551,1.4445772 14.871889,2.96811104 C16.3954228,4.49164487 17.3382648,6.59587055 17.34,8.92 C17.34,15.4380001 10.1137343,23.8820408 9.17236609,24.926308 L9.10214621,25.0030909 L9.10214621,25.0030909 L9.08209825,25.0241434 C8.43086759,24.6906026 0.5,15.7483811 0.499999861,8.92037327 C0.501735212,6.59587055 1.4445772,4.49164487 2.96811104,2.96811104 C4.49164487,1.4445772 6.59587055,0.501735212 8.91962673,0.499999861 Z" id="Path" stroke-opacity="0.1" stroke="#FFFFFF" fill="#2A3138"></path>
            <path d="M8.92,2.89333333 C5.6062915,2.89333333 2.92,5.57962483 2.92,8.89333333 C2.92,12.2070418 5.6062915,14.8933333 8.92,14.8933333 C12.2337085,14.8933333 14.92,12.2070418 14.92,8.89333333 C14.92,7.30203439 14.287859,5.77591092 13.1626407,4.65069265 C12.0374224,3.52547438 10.5112989,2.89333333 8.92,2.89333333 Z" id="Path" fill="#FFFFFF"></path>
            <polygon id="Path" fill="#2A3138" points="8.92 5.84666667 5.50666667 5.84666667 5.50666667 7.89333333 7.66666667 7.89333333 7.66666667 12.6733333 8.92 12.6733333 10.1733333 12.6733333 10.1733333 7.89333333 12.3333333 7.89333333 12.3333333 5.84666667 8.92 5.84666667"></polygon>
        </g>
    </g>
</svg>