<?xml version="1.0" encoding="utf-8"?>
<!-- Generator: Adobe Illustrator 25.3.0, SVG Export Plug-In . SVG Version: 6.00 Build 0)  -->
<svg version="1.1" id="Layer_1" xmlns="http://www.w3.org/2000/svg" xmlns:xlink="http://www.w3.org/1999/xlink" x="0px" y="0px"
	 viewBox="0 0 200 200" style="enable-background:new 0 0 200 200;" xml:space="preserve">
<style type="text/css">
	.st0{fill:none;stroke:#D9DBDC;stroke-width:4;stroke-linecap:round;stroke-miterlimit:10;}
	.st1{fill:#D9DBDC;}
	.st2{fill:none;}
</style>
<g>
	<g id="Icon">
		<g id="Stars">
			<path class="st0" d="M63.3,38.5l4,8.2c0.3,0.5,0.8,0.9,1.4,1l9,1.3c1.5,0.2,2.1,2,1,3.1l-6.5,6.4c-0.4,0.4-0.6,1-0.5,1.6l1.5,9
				c0.3,1.5-1.3,2.6-2.6,1.9l-8.1-4.3c-0.5-0.3-1.2-0.3-1.7,0L52.7,71c-1.3,0.7-2.9-0.4-2.6-1.9l1.5-9c0.1-0.6-0.1-1.2-0.5-1.6
				l-6.5-6.4c-1.1-1-0.5-2.9,1-3.1l9-1.3c0.6-0.1,1.1-0.5,1.4-1l4-8.2C60.7,37.2,62.6,37.2,63.3,38.5z"/>
			<path class="st0" d="M101.8,28.1l4.5,9c0.3,0.6,0.9,1,1.5,1.1l10,1.4c1.6,0.2,2.3,2.2,1.1,3.4l-7.2,7c-0.5,0.5-0.7,1.1-0.6,1.8
				l1.7,9.9c0.3,1.6-1.4,2.9-2.9,2.1l-8.9-4.7c-0.6-0.3-1.3-0.3-1.9,0l-8.9,4.7c-1.5,0.8-3.2-0.5-2.9-2.1l1.7-9.9
				c0.1-0.6-0.1-1.3-0.6-1.8l-7.2-7c-1.2-1.2-0.5-3.2,1.1-3.4l10-1.4c0.6-0.1,1.2-0.5,1.5-1.1l4.5-9C99,26.6,101.1,26.6,101.8,28.1z
				"/>
			<path class="st0" d="M29.3,53.4l3.6,7.4c0.2,0.5,0.7,0.8,1.2,0.9l8.1,1.2c1.3,0.2,1.9,1.8,0.9,2.8l-5.9,5.7
				c-0.4,0.4-0.6,0.9-0.5,1.4l1.4,8.1c0.2,1.3-1.2,2.3-2.4,1.7l-7.3-3.8c-0.5-0.2-1-0.2-1.5,0l-7.3,3.8c-1.2,0.6-2.6-0.4-2.4-1.7
				l1.4-8.1c0.1-0.5-0.1-1.1-0.5-1.4l-5.9-5.7c-1-0.9-0.4-2.6,0.9-2.8l8.1-1.2c0.5-0.1,1-0.4,1.2-0.9l3.6-7.4
				C27,52.2,28.7,52.2,29.3,53.4z"/>
			<path class="st0" d="M136.7,38.5l-4,8.2c-0.3,0.5-0.8,0.9-1.4,1l-9,1.3c-1.5,0.2-2.1,2-1,3.1l6.5,6.4c0.4,0.4,0.6,1,0.5,1.6
				l-1.5,9c-0.3,1.5,1.3,2.6,2.6,1.9l8.1-4.3c0.5-0.3,1.2-0.3,1.7,0l8.1,4.3c1.3,0.7,2.9-0.4,2.6-1.9l-1.5-9
				c-0.1-0.6,0.1-1.2,0.5-1.6l6.5-6.4c1.1-1,0.5-2.9-1-3.1l-9-1.3c-0.6-0.1-1.1-0.5-1.4-1l-4-8.2C139.3,37.2,137.4,37.2,136.7,38.5z
				"/>
			<path class="st0" d="M170.7,53.4l-3.6,7.4c-0.2,0.5-0.7,0.8-1.2,0.9l-8.1,1.2c-1.3,0.2-1.9,1.8-0.9,2.8l5.9,5.7
				c0.4,0.4,0.6,0.9,0.5,1.4l-1.4,8.1c-0.2,1.3,1.2,2.3,2.4,1.7l7.3-3.8c0.5-0.2,1-0.2,1.5,0l7.3,3.8c1.2,0.6,2.6-0.4,2.4-1.7
				l-1.4-8.1c-0.1-0.5,0.1-1.1,0.5-1.4l5.9-5.7c1-0.9,0.4-2.6-0.9-2.8l-8.1-1.2c-0.5-0.1-1-0.4-1.2-0.9l-3.6-7.4
				C173,52.2,171.3,52.2,170.7,53.4z"/>
		</g>
		<g id="Like">
			<path class="st0" d="M59.3,173h19c2.2,0,4-1.8,4-4v-44c0-2.2-1.8-4-4-4h-19c-2.2,0-4,1.8-4,4v44C55.3,171.2,57.1,173,59.3,173z"
				/>
			<g>
				<path class="st0" d="M133.1,143h2.7c3.8,0,7-3.1,7.1-6.9c0.1-3.9-3.1-7.1-7-7.1h-1.7"/>
				<path class="st0" d="M132.1,157h2.1c3.8,0,7-3,7.1-6.8c0.1-4-3.1-7.2-7-7.2h-1.2"/>
				<path class="st0" d="M134.1,129h1.7c3.9,0,7-3.1,7-7c0-3.9-3.1-7-7-7h-25.5l3.2-15.9c1.5-7.3-4.1-14.1-11.6-14.1l0,0
					c-1,0-1.8,0.7-2,1.6l-3.6,18c0,0.2-0.1,0.5-0.3,0.7L82.3,127v38h0c5.2,3.9,11.5,6,18,6h32.3c3.8,0,7-2.9,7.2-6.7
					c0.2-4-3-7.3-7-7.3h-0.7"/>
			</g>
			<circle class="st1" cx="68.8" cy="160.1" r="4.3"/>
		</g>
	</g>
	<rect class="st2" width="200" height="200"/>
</g>
</svg>
