<?xml version="1.0" encoding="utf-8"?>
<!-- Generator: Adobe Illustrator 25.3.0, SVG Export Plug-In . SVG Version: 6.00 Build 0)  -->
<svg version="1.1" id="Layer_1" xmlns="http://www.w3.org/2000/svg" xmlns:xlink="http://www.w3.org/1999/xlink" x="0px" y="0px"
	 viewBox="0 0 200 200" style="enable-background:new 0 0 200 200;" xml:space="preserve">
<style type="text/css">
	.st0{fill:none;stroke:#D9DBDC;stroke-width:4;stroke-linecap:round;stroke-linejoin:round;stroke-miterlimit:10;}
	.st1{fill:none;stroke:#D9DBDC;stroke-width:4.5034;stroke-linecap:round;stroke-miterlimit:10;}
	.st2{fill:none;stroke:#D9DBDC;stroke-width:4;stroke-linecap:round;stroke-miterlimit:10;}
	.st3{fill:none;}
</style>
<g>
	<g>
		<g>
			<path class="st0" d="M153.3,35.9h-31.7c-10.3,0-18.7,8.4-18.7,18.7v62.2l20.7-20.7h49c10.3,0,18.7-8.4,18.7-18.7V54.6
				c0-10.3-8.4-18.7-18.7-18.7"/>
			<g>
				<polygon class="st0" points="133.8,74.9 122.6,76.3 124,65.1 156,33.1 165.8,42.9 				"/>
				<path class="st0" d="M170.5,32.4l-4-4c-1.6-1.6-4.1-1.6-5.7,0l-4.7,4.7l9.7,9.7l4.7-4.7C172.1,36.6,172.1,34,170.5,32.4z"/>
			</g>
		</g>
		<line class="st1" x1="16.5" y1="172.8" x2="145.1" y2="172.8"/>
		<g>
			<rect x="47.7" y="123.1" class="st2" width="22.1" height="49.7"/>
			<rect x="69.8" y="152.4" class="st2" width="22.1" height="20.4"/>
			<rect x="114" y="134.1" class="st2" width="22.1" height="38.7"/>
			<rect x="25.6" y="144.2" class="st2" width="22.1" height="28.5"/>
			<polyline class="st2" points="102.9,88.3 91.9,88.3 91.9,172.8 114,172.8 114,105.7 			"/>
		</g>
	</g>
	<rect class="st3" width="200" height="200"/>
</g>
</svg>
