<?xml version="1.0" encoding="utf-8"?>
<!-- Generator: Adobe Illustrator 25.3.0, SVG Export Plug-In . SVG Version: 6.00 Build 0)  -->
<svg version="1.1" id="Layer_1" xmlns="http://www.w3.org/2000/svg" xmlns:xlink="http://www.w3.org/1999/xlink" x="0px" y="0px"
	 viewBox="0 0 200 200" style="enable-background:new 0 0 200 200;" xml:space="preserve">
<style type="text/css">
	.st0{fill:none;stroke:#D9DBDC;stroke-width:4;stroke-linecap:round;stroke-linejoin:round;stroke-miterlimit:10;}
	.st1{fill:none;}
</style>
<g>
	<g>
		<g>
			<path class="st0" d="M153.3,35.9h-31.7c-10.3,0-18.7,8.4-18.7,18.7v62.2l20.7-20.7h49c10.3,0,18.7-8.4,18.7-18.7V54.6
				c0-10.3-8.4-18.7-18.7-18.7"/>
			<g>
				<polygon class="st0" points="133.8,74.9 122.6,76.3 124,65.1 156,33.1 165.8,42.9 				"/>
				<path class="st0" d="M170.5,32.4l-4-4c-1.6-1.6-4.1-1.6-5.7,0l-4.7,4.7l9.7,9.7l4.7-4.7C172.1,36.6,172.1,34,170.5,32.4z"/>
			</g>
		</g>
		<g>
			<g>
				<line class="st0" x1="75.6" y1="68.3" x2="75.6" y2="108"/>
				<g>
					<polyline class="st0" points="58.4,78.6 75.6,93.3 92.7,78.6 					"/>
				</g>
			</g>
			<g>
				<line class="st0" x1="30.6" y1="94.3" x2="64.9" y2="114.1"/>
				<g>
					<polyline class="st0" points="30.9,114.3 52.2,106.8 48.1,84.6 					"/>
				</g>
			</g>
			<g>
				<line class="st0" x1="30.6" y1="146.2" x2="64.9" y2="126.4"/>
				<g>
					<polyline class="st0" points="48.1,155.9 52.2,133.7 30.9,126.2 					"/>
				</g>
			</g>
			<g>
				<line class="st0" x1="75.6" y1="172.2" x2="75.6" y2="132.5"/>
				<g>
					<polyline class="st0" points="92.7,161.9 75.6,147.2 58.4,161.9 					"/>
				</g>
			</g>
			<g>
				<line class="st0" x1="120.6" y1="146.2" x2="86.2" y2="126.4"/>
				<g>
					<polyline class="st0" points="120.2,126.2 98.9,133.7 103,155.9 					"/>
				</g>
			</g>
			<g>
				<line class="st0" x1="102.9" y1="104.5" x2="86.2" y2="114.1"/>
				<g>
					<line class="st0" x1="109.2" y1="110.4" x2="120.2" y2="114.3"/>
				</g>
			</g>
			<polygon class="st0" points="86.2,126.4 86.2,114.1 75.6,108 64.9,114.1 64.9,126.4 75.6,132.5 			"/>
		</g>
	</g>
	<rect class="st1" width="200" height="200"/>
</g>
</svg>
