<svg xmlns="http://www.w3.org/2000/svg" width="96" height="98" viewBox="0 0 96 98">
  <defs>
    <style>
      .cls-1 {
        fill: #fe6a2b;
      }

      .cls-1, .cls-2 {
        fill-rule: evenodd;
      }

      .cls-2 {
        fill: #c0c6ce;
      }
    </style>
  </defs>
  <path class="cls-1" d="M95.093,81.938l-10.813-6.1a27.861,27.861,0,0,0-25.59-.918l-3.828,1.812A70.646,70.646,0,0,1,44.05,80.8l-7.226,2.065a5.465,5.465,0,0,0-3.976,5.275c0.006,1.17.009,2.358,0.009,3.367a0.931,0.931,0,0,0,.276.666,0.951,0.951,0,0,0,.673.276h2.068a7.953,7.953,0,0,1,15.842,0H76.9a7.953,7.953,0,0,1,15.841,0H94.2a1.5,1.5,0,0,0,1.5-1.492V82.975A1.192,1.192,0,0,0,95.093,81.938ZM43.8,88.683A4.451,4.451,0,0,0,39.4,92.449a4.114,4.114,0,0,0,.959,3.472,4.418,4.418,0,0,0,6.871,0,4.111,4.111,0,0,0,.959-3.472A4.451,4.451,0,0,0,43.8,88.683Zm41.024,0a4.45,4.45,0,0,0-4.394,3.765,4.113,4.113,0,0,0,.959,3.472,4.417,4.417,0,0,0,6.87,0,4.111,4.111,0,0,0,.96-3.472A4.451,4.451,0,0,0,84.819,88.683ZM15.872,54.35A15.547,15.547,0,0,0,.3,69.836c0,12.1,14.08,26.241,14.68,26.837l0.893,0.888,0.893-.888c0.6-.6,14.68-14.737,14.68-26.837A15.547,15.547,0,0,0,15.872,54.35Zm7.267,15.116h-4.6V79.583H13.209V69.466h-4.6V65.132H23.139v4.334Z"/>
  <path id="Shape_1995_복사" data-name="Shape 1995 복사" class="cls-2" d="M95.093,27.938l-10.813-6.1a27.861,27.861,0,0,0-25.59-.918l-3.828,1.812A70.646,70.646,0,0,1,44.05,26.8l-7.226,2.065a5.465,5.465,0,0,0-3.976,5.276c0.006,1.17.009,2.358,0.009,3.367a0.931,0.931,0,0,0,.276.666,0.951,0.951,0,0,0,.673.276h2.068a7.953,7.953,0,0,1,15.842,0H76.9a7.953,7.953,0,0,1,15.841,0H94.2a1.5,1.5,0,0,0,1.5-1.492V28.975A1.192,1.192,0,0,0,95.093,27.938ZM43.8,34.683A4.451,4.451,0,0,0,39.4,38.449a4.114,4.114,0,0,0,.959,3.472,4.418,4.418,0,0,0,6.871,0,4.111,4.111,0,0,0,.959-3.472A4.451,4.451,0,0,0,43.8,34.683Zm41.024,0a4.45,4.45,0,0,0-4.394,3.765,4.113,4.113,0,0,0,.959,3.472,4.417,4.417,0,0,0,6.87,0,4.111,4.111,0,0,0,.96-3.472A4.451,4.451,0,0,0,84.819,34.683ZM15.872,0.35A15.547,15.547,0,0,0,.3,15.836c0,12.1,14.08,26.241,14.68,26.837l0.893,0.888,0.893-.888c0.6-.6,14.68-14.737,14.68-26.837A15.547,15.547,0,0,0,15.872.35Zm7.267,15.116h-4.6V25.583H13.209V15.466h-4.6V11.132H23.139v4.334Z"/>
</svg>
