<svg xmlns="http://www.w3.org/2000/svg" width="52" height="132" viewBox="0 0 52 132">
  <defs>
    <style>
      .cls-1 {
        fill: #c0c6ce;
      }

      .cls-1, .cls-2 {
        fill-rule: evenodd;
      }

      .cls-2 {
        fill: #fe6a2b;
      }
    </style>
  </defs>
  <path class="cls-1" d="M26.389,49.1l-1.367,1.008H18.107v1.614a2.2,2.2,0,0,0,2.189,2.2h11.11v1.795H20.3a3.99,3.99,0,0,1-3.974-4V50.113H13.954L7.026,45.386a5.079,5.079,0,0,0-7.16,1.489l16.7,12.066a10,10,0,0,0,5.856,1.9h7.811a10.013,10.013,0,0,0,1.65-.137l10.048-1.684V47.887H30.089A6.233,6.233,0,0,0,26.389,49.1Zm17.58-3.228V61.641h8.112V45.876H43.97Zm4.056,13.849a1.4,1.4,0,1,1,1.388-1.4A1.392,1.392,0,0,1,48.026,59.725Zm-1.2-47.938c-1.218-1.457-2.6-2.978-4.12-4.5s-3.028-2.917-4.477-4.143a7.819,7.819,0,0,0-10.8.679L9.5,23.417a7.9,7.9,0,0,0-.681,9.893A34.108,34.108,0,0,0,12.5,37.655a34.035,34.035,0,0,0,4.321,3.695,7.79,7.79,0,0,0,9.839-.685L46.146,22.646A7.924,7.924,0,0,0,46.821,11.787ZM20.564,39.848a4.813,4.813,0,0,1-2.093-.842,31.065,31.065,0,0,1-3.953-3.383,31.11,31.11,0,0,1-3.365-3.976,4.873,4.873,0,0,1-.837-2.1,1.34,1.34,0,0,1,1.9-1.385,20.469,20.469,0,0,1,5.68,4.073,20.592,20.592,0,0,1,4.051,5.71A1.344,1.344,0,0,1,20.564,39.848Zm8.271-8.038a2.581,2.581,0,0,1-3.524-.149L18.717,25.03a2.648,2.648,0,0,1-.149-3.544l1.927-2.3L31.119,29.872Zm3.349-2.842L21.393,18.118l3.472-4.137L36.3,25.477Zm7.125-6.047-1.946,1.652-11.6-11.662,1.642-1.957a2.572,2.572,0,0,1,1.882-.929l0.115,0a2.568,2.568,0,0,1,1.838.768l8.23,8.276A2.631,2.631,0,0,1,39.31,22.922Zm5.957-5.246a1.828,1.828,0,0,1-2.594,0,1.851,1.851,0,0,1,0-2.608,1.827,1.827,0,0,1,2.594,0A1.852,1.852,0,0,1,45.267,17.676Z"/>
  <path id="Shape_1996_복사" data-name="Shape 1996 복사" class="cls-2" d="M26.389,119.105l-1.367,1.008H18.107v1.614a2.2,2.2,0,0,0,2.189,2.2h11.11v1.8H20.3a3.99,3.99,0,0,1-3.974-4v-1.614H13.954l-6.927-4.727a5.079,5.079,0,0,0-7.16,1.489l16.7,12.066a10,10,0,0,0,5.856,1.9h7.811a10.023,10.023,0,0,0,1.65-.137l10.048-1.684V117.887H30.089A6.234,6.234,0,0,0,26.389,119.105Zm17.58-3.229v15.765h8.112V115.876H43.97Zm4.056,13.849a1.4,1.4,0,1,1,1.388-1.4A1.392,1.392,0,0,1,48.026,129.725Zm-1.2-47.938c-1.218-1.457-2.6-2.978-4.12-4.5s-3.028-2.918-4.477-4.143a7.82,7.82,0,0,0-10.8.679L9.5,93.417a7.9,7.9,0,0,0-.681,9.893,35.277,35.277,0,0,0,8,8.04,7.79,7.79,0,0,0,9.839-.685L46.146,92.646A7.924,7.924,0,0,0,46.821,81.787ZM20.564,109.848a4.824,4.824,0,0,1-2.093-.842,32.432,32.432,0,0,1-7.318-7.359,4.87,4.87,0,0,1-.837-2.1,1.34,1.34,0,0,1,1.9-1.385,20.479,20.479,0,0,1,5.68,4.073,20.59,20.59,0,0,1,4.051,5.711A1.344,1.344,0,0,1,20.564,109.848Zm8.271-8.038a2.58,2.58,0,0,1-3.524-.15l-6.595-6.63a2.648,2.648,0,0,1-.149-3.544l1.927-2.3L31.119,99.872Zm3.349-2.842L21.393,88.118l3.472-4.137L36.3,95.477Zm7.125-6.047-1.946,1.652-11.6-11.662,1.642-1.957a2.572,2.572,0,0,1,1.882-.929l0.115,0a2.568,2.568,0,0,1,1.838.767l8.23,8.275A2.631,2.631,0,0,1,39.31,92.922Zm5.957-5.246a1.828,1.828,0,0,1-2.594,0,1.851,1.851,0,0,1,0-2.609,1.827,1.827,0,0,1,2.594,0A1.852,1.852,0,0,1,45.267,87.676Z"/>
</svg>
