<?xml version="1.0" encoding="utf-8"?>
<!-- Generator: Adobe Illustrator 24.3.0, SVG Export Plug-In . SVG Version: 6.00 Build 0)  -->
<svg version="1.1" id="Layer_1" xmlns="http://www.w3.org/2000/svg" xmlns:xlink="http://www.w3.org/1999/xlink" x="0px" y="0px"
	 viewBox="0 0 180 40" style="enable-background:new 0 0 180 40;" xml:space="preserve">
<style type="text/css">
	.st0{fill:#FDDD04;}
	.st1{fill:#ED1C24;}
	.st2{fill:none;}
</style>
<g>
	<g id="g10" transform="matrix(1.3333333,0,0,-1.3333333,-21.12,4117.12)">
		<path id="path162" class="st0" d="M44.6,3061h77.5v23.8H44.6V3061z"/>
		<path class="st1" d="M78.1,3070.8c0,1.4-1.1,2.5-2.5,2.5h-8.3v-7.2h3.9v2.3h1.1l1.2-2.3h4.7l-1.7,2.5
			C77.5,3068.9,78.1,3069.8,78.1,3070.8z M73.2,3070l-2,0v1.7l2,0c0.5,0,0.9-0.4,0.9-0.9S73.7,3070,73.2,3070z M95.8,3073.2h-4.1
			v-7.2h8.1v1.6h-4V3073.2z M84.5,3068.8h4.5v1.6h-4.5v1.2h4.5v1.6h-8.7v-7.2h9.1v1.6h-5V3068.8z M105.1,3073.2h-4.1v-7.2h8.1v1.6
			h-4V3073.2z M112.9,3079.8H51.3V3066h6.9v8.7h54.8c1.4,0,2.5,1.1,2.5,2.5C115.4,3078.6,114.3,3079.8,112.9,3079.8z M105.3,3076.4
			H58.1v1.7h47.2c0.5,0,0.8-0.4,0.8-0.8C106.2,3076.8,105.8,3076.4,105.3,3076.4z M60.8,3066h3.9v7.2h-3.9V3066z M110.3,3066h3.9
			v7.2h-3.9V3066z"/>
	</g>
	<rect class="st2" width="180" height="40"/>
</g>
</svg>
