<?xml version="1.0" encoding="utf-8"?>
<!-- Generator: Adobe Illustrator 24.3.0, SVG Export Plug-In . SVG Version: 6.00 Build 0)  -->
<svg version="1.1" id="Layer_1" xmlns="http://www.w3.org/2000/svg" xmlns:xlink="http://www.w3.org/1999/xlink" x="0px" y="0px"
	 viewBox="0 0 180 40" style="enable-background:new 0 0 180 40;" xml:space="preserve">
<style type="text/css">
	.st0{fill:#27509A;}
	.st1{fill:#FFFFFF;}
	.st2{fill:#FCE500;}
	.st3{fill:none;}
</style>
<g>
	<g>
		<path id="path7024" class="st0" d="M92.7,15.6c-3.6,0.7-8.4,3.3-8.3,8.1c0,2.7,3.4,4.3,7.2,4.2c1.5-0.1,3-0.2,4.4-0.5l1.4-3.7
			c-1.9,0.3-3.7,0.7-5.1,0.2c-2.5-1-1-3.7,0.8-4.5c1-0.5,2.1-0.7,3.2-0.7c0.5,0,1.8,0,2.4,1.2l1.8-4.3
			C97.3,14.9,94.3,15.2,92.7,15.6z M111.9,15.5l-1.6,4.4h-3l1.6-4.4h-5.6l-4.4,12.1h5.6l1.5-4.1h3l-1.5,4.1h5.6l4.5-12.1L111.9,15.5
			z M78.6,15.5l-4.5,12.1H80l4.5-12.1L78.6,15.5z M66.9,15.5L62.7,22c0,0,0.3-3.4,0.3-4.2c0.1-0.6,0-2.3-1.5-2.3h-6.8l-4.5,12.1h5.3
			l3.2-8.8l-0.7,8.8h4.7l5.8-8.6l-3.2,8.6h5.4l4.5-12.1L66.9,15.5z M170.5,15.5l-3.1,8.3c0-0.8,0.2-4.1,0.3-6.1
			c0-0.8-0.1-1.4-0.5-1.8c-0.3-0.3-0.7-0.5-1.1-0.5h-6.8l-4.5,12.1h5L163,19l-0.4,8.6h8.3l4.5-12.1L170.5,15.5z M150,15.5l-4.4,12.1
			h5.9l4.5-12.1L150,15.5z M125.2,18.6h6.7l1.2-3.2h-12.2l-4.5,12.1h12.4l1.2-3.3h-6.8l0.5-1.3h6.4l1.1-3h-6.4L125.2,18.6z
			 M142,15.4h-5.7l-4.5,12.1h11.5l1.5-4H139L142,15.4z"/>
		<g>
			<path id="path7026" d="M5.5,11.2L5.5,11.2l0.1,0.2C6,12.3,6.4,13.2,6.9,14c0.3,0.5,0.6,0.9,0.9,1.3c-0.3,0.5-0.6,1-0.7,1.6
				c-0.2,0.9-0.1,1.7,0.2,2.5c0.1,0.4,0.3,0.7,0.5,1c0,0,0,0.1,0,0.1c-0.2,1.8,0.6,3.6,2,4.6c0.2,0.2,0.5,0.3,0.7,0.5
				c0.2,0.7,0.7,1.3,1.3,1.8c0.4,0.3,0.9,0.6,1.5,0.8v0c0.6,0.8,1.5,1.4,2.5,1.7c0.3,0.1,0.5,0.1,0.8,0.2c0,0,0,0,0,0
				c0.6,0.5,1.2,0.9,2,1.1c-0.1,0.8,0,1.6,0.2,2.4h29.1c0-1-0.3-1.9-0.8-2.8c0,0,0,0,0-0.1c0.4-2.9-1.5-5.6-4.4-6.2
				c-0.1,0-0.3-0.1-0.4-0.1h-0.1c-1-1-2.3-1.8-3.6-2.4c0-0.1,0-0.2,0.1-0.2l0.1,0c1.6-0.7,2.5-1.9,2.7-3.4c0.1-1.2-0.2-2.4-0.9-3.4
				c0,0,0,0,0,0c0.2-1.6-0.1-3-0.7-4.2c-0.5-0.9-1.3-1.7-2.2-2.1h0c-0.3-0.9-1.4-1.5-2.6-1.5c-0.9,0-2,0.5-2.3,1.2
				c-1.4,0.5-3.6,1.8-4.3,5.2c-2,1.5-2.4,4.2-1,6.2c0.1,0.1,0.2,0.3,0.4,0.4c-1.4,0-2.7,0.2-4.1,0.4l-0.1,0c-1.3-0.9-3-1.3-4.6-0.9
				c-0.1,0-0.1,0-0.2,0.1c-0.5-0.1-0.9-0.2-1.4-0.3c0,0-0.1,0-0.1,0c-0.2-0.7-0.6-1.4-1.1-1.9c0,0-0.1-0.1-0.1-0.1
				c-0.1-0.4-0.2-0.9-0.3-1.3c-0.2-0.7-0.6-1.3-1.1-1.8c-0.4-0.3-0.8-0.6-1.2-0.8c0-0.1,0.1-0.3,0.1-0.4c0,0,0-0.1,0-0.1
				c0,0,0.2-1.6,0.4-2.6v0c0.5-3.3,0.5-3.4,0.5-3.4v0c0-0.3-0.1-0.6-0.3-0.8c-0.3-0.3-0.7-0.4-1.1-0.4c-0.6,0-1.1,0.3-1.4,0.8
				c-0.2,0.3-0.3,0.6-0.4,1c-0.5-1.1-1.3-2.5-1.8-3.5l0-0.1C9.4,3.8,8.9,3.6,8.5,3.6c-0.2,0-0.3,0-0.5,0.1C7.7,3.4,7.4,3.3,7.1,3.3
				c-0.2,0-0.3,0-0.5,0.1C6,3.6,5.6,4.1,5.6,4.7c-0.4,0.2-0.8,0.5-0.9,1c0,0.2,0,0.5,0,0.7c0,0,0,0.1,0,0.1l0,0.1
				C4.5,7.1,4.3,8.1,5.5,11.2"/>
			<path id="path7028" class="st1" d="M47,33.6h-1.2c0.4-0.4,0.7-0.9,0.9-1.5C46.9,32.6,47,33.1,47,33.6 M28,21.2
				c0.2,0,0.5,0.1,0.7,0.1c0.4,0.2,1.3,1,1.7,1.1c0.1,0,0.3,0,0.1-0.2c-0.1,0-0.6-0.5-0.4-0.8c0.1-0.1,0.2-0.1,0.3-0.1
				c0.7,0.2,1.2,0.3,1.4,0.3c0.1,0,0.2,0,0.3,0c0,0,0-0.1-0.1-0.1c-1-0.3-2.2-0.7-3-1.3c-1.1-0.8-1.6-2.1-1.5-3.4
				c0.1-0.9,0.6-1.8,1.4-2.4c0.3-0.2,0.6-0.3,0.9-0.4c0.4-0.1-0.2-0.2-0.3-0.2c-0.2,0-0.2-0.2,0-0.7c0.5-1.8,1.9-3.2,3.6-3.7
				c0.3-0.1,0.5-0.2,0.8-0.2c0.4-0.1,0.2-0.2-0.2-0.3c0,0-0.1,0-0.1-0.1c0.1-0.1,0.1-0.1,0.2-0.2c0.4-0.2,0.8-0.3,1.2-0.3
				c0.8,0,1.6,0.4,1.7,0.9c0,0,0,0.1-0.1,0.1c-0.2,0-0.3,0.1-0.1,0.2c0.1,0,0.3,0.1,0.6,0.2l0,0c0.6,0.3,2.6,1.5,2.5,4.9
				c0,0.1,0,0.2,0,0.3c0,0.1,0,0.2,0,0.3c-0.2,0-0.3,0.1-0.1,0.2c0.2,0.2,0.3,0.4,0.5,0.6c0.5,0.8,0.7,1.7,0.5,2.6
				c-0.1,1-0.8,1.9-1.7,2.4c-0.7,0.4-1.4,0.6-2.1,0.8c-0.2,0-0.1,0.3,0.8,0.3c0.1,0,0.2,0,0.3,0.1c0.1,0.2-0.1,0.6-0.5,0.8
				c-0.3,0.2-0.1,0.2,0.4,0.1c0.2,0,0.4,0.1,0.6,0.1c1.7,0.7,3.1,1.9,4.2,3.3c1,1.5,1.4,2.6,1.1,3.3c-0.3,0.7-1.2,0.8-1.2,0.8h0
				c-3.6,0.6-9.7-0.4-14-1.7c-1-0.3-1.9-0.6-2.9-1c0.9-2.1,0.6-4.6-1-6.3l-0.1-0.1C25.7,21.3,26.8,21.2,28,21.2"/>
			<path id="path7030" class="st1" d="M45.4,27.5c1.3,1.9,0.9,4.5-0.8,6c0-0.8-0.1-1.8-0.7-2.6c0.3-0.2,0.5-0.5,0.6-0.8
				c0.5-1.1,0.1-2.5-1.2-4.3v0l-0.1-0.1C44.1,26.1,44.9,26.7,45.4,27.5 M23.9,22.2c1.4,1.6,1.7,4,0.6,5.8c-1.2,2-3.4,2.9-5.5,2.4
				c-0.3-0.1-0.6-0.2-0.8-0.3c0.2,0,0.4-0.1,0.6-0.1c2-0.5,3.5-2.4,3.7-4.6c0.1-1.4-0.2-2.7-1.1-3.8c-0.3-0.4-0.6-0.7-1-0.9
				C21.7,20.6,23,21.2,23.9,22.2"/>
			<path id="path7032" class="st1" d="M20.6,22.1c0.7,0.9,1,2,0.9,3.2c-0.2,1.8-1.4,3.4-3,3.8c-1.2,0.3-2.5,0.1-3.6-0.6
				c2.1-0.1,3.9-1.4,4.5-3.4c0.3-1,0.3-2.1-0.1-3.1c-0.2-0.4-0.4-0.9-0.7-1.2C19.4,21,20.1,21.5,20.6,22.1"/>
			<path id="path7034" class="st1" d="M17.5,22.2c0.1-0.4,0.1-0.8,0.1-1.1c1,1,1.4,2.5,0.9,3.8c-0.6,1.9-2.6,3.1-4.5,2.7
				c-0.9-0.2-1.7-0.7-2.3-1.4c0.3,0.1,0.7,0.1,1,0.1c0.7,0,1.3-0.1,1.9-0.4C16.2,25.1,17.3,23.8,17.5,22.2"/>
			<path id="path7036" class="st1" d="M16.1,19c0.5,0.9,0.7,1.9,0.5,2.9c-0.3,2.1-2.3,3.6-4.4,3.3c-0.7-0.1-1.4-0.4-1.9-0.8
				c-0.9-0.7-1.5-1.7-1.7-2.9c0.1,0.1,0.2,0.2,0.3,0.2c0.8,0.5,1.7,0.8,2.6,0.8c0.4,0,0.8,0,1.2-0.2c1.7-0.5,2.5-1.5,2.9-2.3
				C15.9,19.8,16,19.4,16.1,19"/>
			<path id="path7038" class="st1" d="M5.6,7.1L5.6,7.1C5.7,7,5.7,7,5.8,7h0.2C6,7,6,7,6,7c0.3,0.1,0.5,0.4,0.5,0.9
				c0.1,0.8,0.4,1.6,0.8,2.3c0.1,0.1,0.2,0.1,0.3,0c0.1-0.1,0.1-0.2,0-0.3C7.3,9.4,7,8.6,6.9,7.9C6.9,7.3,6.6,6.8,6.2,6.6
				C6.1,6.6,6,6.6,5.8,6.6c0-0.1-0.1-0.2-0.1-0.3c0-0.2-0.1-0.5,0.3-0.7l0.1,0h0c0.3,0,0.7,0.1,1,1.4c0.3,0.9,0.7,1.7,1.1,2.4
				c0.1,0.1,0.2,0.1,0.3,0c0.1-0.1,0.1-0.2,0.1-0.3C8.1,8.5,7.8,7.7,7.5,6.9C7.4,6.3,7.1,5.7,6.8,5.4C6.7,5.3,6.6,5.1,6.6,5
				C6.6,4.9,6.5,4.4,6.9,4.3c0.1,0,0.1,0,0.2,0c0.2,0,0.5,0.2,0.5,0.4c0,0,0,0.1,0,0.1l1.7,4c0,0,0,0.1,0.1,0.1
				c0.1,0.1,0.2,0.1,0.3,0c0.1-0.1,0.1-0.1,0-0.2L8,4.8c0-0.1,0.1-0.2,0.2-0.2c0.1,0,0.2-0.1,0.3-0.1c0.1,0,0.3,0.1,0.4,0.2
				c0,0,2.2,4.2,2.6,5c-0.1,0.2-0.2,0.4-0.3,0.6c0,0.1,0,0.2,0.1,0.1c0.1-0.2,0.3-0.4,0.4-0.6c0,0,0,0,0,0c0.1-0.2,0.4-1,0.5-1.3
				c0.1-0.4,0.3-0.9,0.5-1.2C12.8,7,13,6.9,13.3,6.9c0.2,0,0.4,0.1,0.4,0.3c0,0.1-0.5,3.3-0.5,3.3c-0.1,0.7-0.3,1.7-0.3,2.2
				c0,0.1,0,0.3,0,0.4v0c0,0,0,0,0,0.1c-0.1,0.3-0.2,0.6-0.3,0.9l0.2,0.8c0.1,0.3,0.1,0.7,0.2,0.8c0.1,0.4,0,0.7,0,0.8
				c0.1,0.1,0.4-0.5,0.5-0.8c0-0.4,0-0.7-0.1-1.1c0.3,0.2,0.7,0.4,0.9,0.6c0.4,0.4,0.7,0.8,0.8,1.4c0.2,0.5,0.3,1,0.3,1.6
				c0,0.4-0.1,2.6-2.8,3.4c-0.3,0.1-0.6,0.1-1,0.1c-0.7,0-1.5-0.2-2.1-0.6c-1.3-0.9-1.8-2.9-1.5-3.9c0.1-0.4,0.3-0.8,0.5-1.2
				c0.1,0.1,0.2,0.1,0.4,0.2l0.1,0.4c0,0,0.2,1.1,0.6,1.4C9.7,18,10,18,10.2,18c0.1,0,0.4,0,0.4-0.1c0,0,0-0.1,0-0.1
				c0,0-0.1-0.1-0.1-0.1c-0.2-0.1-0.5-0.3-0.6-0.6c0-0.2-0.2-0.9-0.3-1.3c0.4-0.3,0.4-0.7-0.1-0.5c-0.3,0-0.6-0.1-0.8-0.3
				c-1-0.9-2.1-3.7-2.3-4.2C5.5,8.6,5.3,7.4,5.6,7.1 M19.5,31.4c0.2,0,0.4,0,0.6,0c1.9,0,3.8-1,5-2.8c1,0.4,2,0.8,3,1.1
				c2.5,0.7,5,1.2,7.5,1.6c1.4,0.2,2.9,0.3,4.3,0.3c0.8,0,1.7,0,2.5-0.2c0.2,0,0.3-0.1,0.5-0.1c0.6,0.6,0.7,1.5,0.7,2.2H19.8
				C19.5,32.9,19.4,32.2,19.5,31.4"/>
			<path id="path7040" d="M32.2,16.7c0-0.1-0.1-0.1-0.2-0.1c-0.1,0-0.2,0-0.3,0.1c-0.2,0.1-0.4,0.3-0.4,0.6c0,0,0,0,0,0.1
				c0,0,0.1,0,0.1,0c0,0,0.1,0,0.1-0.1c0-0.1,0-0.1,0.1-0.2c0.1-0.1,0.3-0.2,0.5-0.2C32.2,16.8,32.2,16.8,32.2,16.7"/>
			<path id="path7042" d="M35.9,18.6c-0.3,0.1-0.5,0.1-0.8,0.1c-0.3,0-0.5-0.1-0.8-0.2c-0.3-0.1-0.5-0.3-0.7-0.5c1,0.3,2,0.3,3,0.3
				C36.4,18.4,36.2,18.6,35.9,18.6 M38.1,17.3c-0.1,0-0.1,0.1-0.1,0.1c0,0,0,0,0,0l-0.1,0.1c-0.2,0.1-0.5,0.2-0.7,0.2
				c-0.6,0.1-1.2,0.2-1.8,0.1c-1-0.1-2-0.3-2.9-0.7l-0.2-0.1c0,0-0.1,0-0.1-0.1c-0.1,0-0.2,0-0.3,0.1c0,0,0,0,0,0.1
				c0,0.1,0.1,0.2,0.1,0.2c0.3,0.1,0.5,0.2,0.8,0.3c0.2,0.1,0.4,0.3,0.6,0.5c0.2,0.2,0.4,0.4,0.7,0.6c0.5,0.3,1.1,0.4,1.7,0.3
				c0.3,0,0.6-0.1,0.8-0.3c0.2-0.1,0.4-0.2,0.5-0.4c0.1-0.1,0.2-0.2,0.3-0.2c0.1,0,0.5-0.2,0.8-0.4c0,0.1,0,0.2,0.1,0.2
				c0.1,0,0.1-0.1,0.1-0.2c0-0.1,0-0.2,0-0.3C38.2,17.4,38.2,17.4,38.1,17.3 M32.5,13.9c0-0.4,0.3-1.6,1.2-1.5
				c0.7,0.1,0.9,0.6,1,1.1v0.1c0,0.4,0,0.7-0.2,1.1c0,0.1-0.1,0.2-0.2,0.3c-0.1,0.2-0.3,0.4-0.6,0.5h-0.1c0.4-0.3,0.6-0.7,0.6-1.1
				c0.1-0.7-0.3-1.3-0.7-1.3c-0.2,0-0.5,0.1-0.6,0.3c0.2,0.1,0.4,0.3,0.3,0.5c0,0.1-0.1,0.3-0.3,0.3c-0.2,0-0.3-0.1-0.3-0.3
				c0,0.1-0.1,0.2-0.1,0.4c0,0.4,0.1,0.8,0.3,1.1c0,0-0.1,0-0.1-0.1c-0.2-0.2-0.3-0.5-0.3-0.8C32.5,14.2,32.5,14.1,32.5,13.9
				 M32.6,15.3c0.1,0.1,0.2,0.2,0.4,0.3c0.1,0,0.3,0.1,0.4,0.1c0.1,0,0.2,0,0.4,0c0.6,0,1.1-0.9,1.2-1.8c0-0.8-0.1-1.4-0.7-1.8
				c-0.1,0-0.1-0.1-0.2-0.1c-0.3-0.1-0.5-0.1-0.8,0c-0.3,0.1-0.5,0.3-0.7,0.6c-0.2,0.3-0.3,0.6-0.3,0.9c-0.1,0.3-0.1,0.6,0,1
				C32.3,14.8,32.4,15.1,32.6,15.3 M38.4,14.7c0,0.1-0.1,0.3-0.1,0.4c-0.1,0.3-0.3,0.5-0.5,0.7c-0.1,0.1-0.2,0.1-0.3,0.1
				c0.4-0.3,0.6-0.7,0.6-1.1c0.1-0.7-0.3-1.3-0.7-1.3c-0.2,0-0.5,0.1-0.6,0.3c0.2,0,0.3,0.2,0.3,0.4c0,0.2-0.1,0.4-0.3,0.4
				c-0.2,0-0.3-0.1-0.3-0.3c0,0.1-0.1,0.2-0.1,0.4c-0.1,0.4,0.1,0.8,0.3,1.1c-0.2-0.1-0.3-0.3-0.3-0.5c0-0.1-0.1-0.2-0.1-0.4
				c0-0.4,0-0.7,0.1-1.1l0-0.1c0.2-0.4,0.5-0.9,1.2-0.8C38.6,13.2,38.5,14.3,38.4,14.7 M38.6,13.4c-0.1-0.3-0.2-0.5-0.5-0.7
				c-0.2-0.1-0.5-0.2-0.7-0.2c-0.1,0-0.1,0-0.2,0c-0.6,0.2-0.9,0.8-1.1,1.5c-0.2,0.8,0.1,1.8,0.6,2c0.1,0,0.2,0.1,0.4,0.1
				c0.1,0,0.3,0,0.4,0c0.2,0,0.3-0.1,0.4-0.2c0.3-0.2,0.5-0.5,0.6-0.8c0.1-0.3,0.2-0.6,0.2-0.9C38.7,14,38.7,13.7,38.6,13.4"/>
		</g>
		<path id="path7022" class="st2" d="M149.2,33.6H11.8l-1.1,3h137.3L149.2,33.6z"/>
	</g>
	<rect class="st3" width="180" height="40"/>
</g>
</svg>
