<?xml version="1.0" encoding="UTF-8"?>
<svg width="20px" height="20px" viewBox="0 0 20 20" version="1.1" xmlns="http://www.w3.org/2000/svg" xmlns:xlink="http://www.w3.org/1999/xlink">
    <title>icon/location</title>
    <g id="App_intro" stroke="none" stroke-width="1" fill="none" fill-rule="evenodd">
        <g id="접근권한" transform="translate(-57.000000, -407.000000)" fill="#FE6A2B">
            <g id="popup" transform="translate(20.000000, 75.000000)">
                <g id="생체인증정보사용" transform="translate(23.000000, 318.000000)">
                    <g id="Group" transform="translate(12.000000, 12.000000)">
                        <g id="Group-18" transform="translate(2.000000, 2.000000)">
                            <g id="Group-9" transform="translate(5.063680, 5.290920)">
                                <path d="M0.6,3.0384 C0.2688,3.0384 7.10542736e-16,2.7696 7.10542736e-16,2.4384 L7.10542736e-16,0.9404 C7.10542736e-16,0.6092 0.2688,0.3404 0.6,0.3404 C0.9312,0.3404 1.2,0.6092 1.2,0.9404 L1.2,2.4384 C1.2,2.7696 0.9312,3.0384 0.6,3.0384" id="Fill-1"></path>
                                <path d="M8.92968,3.0384 C8.59848,3.0384 8.32968,2.7696 8.32968,2.4384 L8.32968,0.9404 C8.32968,0.6092 8.59848,0.3404 8.92968,0.3404 C9.26088,0.3404 9.52968,0.6092 9.52968,0.9404 L9.52968,2.4384 C9.52968,2.7696 9.26088,3.0384 8.92968,3.0384" id="Fill-3"></path>
                                <path d="M5.66796,6.4384 L4.22316,6.4384 C3.89196,6.4384 3.62316,6.1696 3.62316,5.8384 L3.62316,0.6 C3.62316,0.2688 3.89196,0 4.22316,0 C4.55436,0 4.82316,0.2688 4.82316,0.6 L4.82316,5.2384 L5.66796,5.2384 C5.99916,5.2384 6.26796,5.5072 6.26796,5.8384 C6.26796,6.1696 5.99916,6.4384 5.66796,6.4384" id="Fill-5"></path>
                                <path d="M4.76484,10.29504 C2.51164,10.29504 1.55404,8.80144 1.51444,8.73744 C1.33924,8.45624 1.42444,8.08664 1.70604,7.91104 C1.98524,7.73664 2.35324,7.82024 2.52964,8.09784 C2.56364,8.14944 3.21044,9.09504 4.76484,9.09504 C6.32884,9.09504 6.97364,8.13744 7.00084,8.09704 C7.18084,7.82144 7.55004,7.74064 7.82764,7.91744 C8.10484,8.09464 8.18964,8.45864 8.01524,8.73744 C7.97564,8.80144 7.01804,10.29504 4.76484,10.29504" id="Fill-7"></path>
                            </g>
                            <path d="M0.6,5.0508 C0.2688,5.0508 8.8817842e-17,4.782 8.8817842e-17,4.4508 L8.8817842e-17,0.6 C8.8817842e-17,0.2688 0.2688,0 0.6,0 L4.3764,0 C4.708,0 4.9764,0.2688 4.9764,0.6 C4.9764,0.9312 4.708,1.2 4.3764,1.2 L1.2,1.2 L1.2,4.4508 C1.2,4.782 0.9312,5.0508 0.6,5.0508" id="Fill-10"></path>
                            <path d="M19.20468,5.0508 C18.87348,5.0508 18.60468,4.782 18.60468,4.4508 L18.60468,1.2 L15.42788,1.2 C15.09628,1.2 14.82788,0.9312 14.82788,0.6 C14.82788,0.2688 15.09628,0 15.42788,0 L19.20468,0 C19.53588,0 19.80468,0.2688 19.80468,0.6 L19.80468,4.4508 C19.80468,4.782 19.53588,5.0508 19.20468,5.0508" id="Fill-12"></path>
                            <path d="M4.37656,19.80432 L0.60016,19.80432 C0.26856,19.80432 0.00016,19.53552 0.00016,19.20432 L0.00016,15.35312 C0.00016,15.02192 0.26856,14.75312 0.60016,14.75312 C0.93136,14.75312 1.20016,15.02192 1.20016,15.35312 L1.20016,18.60432 L4.37656,18.60432 C4.70776,18.60432 4.97656,18.87312 4.97656,19.20432 C4.97656,19.53552 4.70776,19.80432 4.37656,19.80432" id="Fill-14"></path>
                            <path d="M19.20468,19.80432 L15.42788,19.80432 C15.09628,19.80432 14.82788,19.53552 14.82788,19.20432 C14.82788,18.87312 15.09628,18.60432 15.42788,18.60432 L18.60468,18.60432 L18.60468,15.35312 C18.60468,15.02192 18.87348,14.75312 19.20468,14.75312 C19.53588,14.75312 19.80468,15.02192 19.80468,15.35312 L19.80468,19.20432 C19.80468,19.53552 19.53588,19.80432 19.20468,19.80432" id="Fill-16"></path>
                        </g>
                    </g>
                </g>
            </g>
        </g>
    </g>
</svg>