<?xml version="1.0" encoding="UTF-8"?>
<svg width="21px" height="16px" viewBox="0 0 21 16" version="1.1" xmlns="http://www.w3.org/2000/svg" xmlns:xlink="http://www.w3.org/1999/xlink">
    <title>icon/location</title>
    <defs>
        <polygon id="path-1" points="0 0 20.16232 0 20.16232 15.9416 0 15.9416"></polygon>
    </defs>
    <g id="App_intro" stroke="none" stroke-width="1" fill="none" fill-rule="evenodd">
        <g id="접근권한" transform="translate(-57.000000, -349.000000)">
            <g id="popup" transform="translate(20.000000, 75.000000)">
                <g id="사진" transform="translate(23.000000, 258.000000)">
                    <g id="Group" transform="translate(12.000000, 12.000000)">
                        <g id="Group-6" transform="translate(2.000000, 4.000000)">
                            <g id="Group-3">
                                <mask id="mask-2" fill="white">
                                    <use xlink:href="#path-1"></use>
                                </mask>
                                <g id="Clip-2"></g>
                                <path d="M10.08112,11.8824 C8.22272,11.8824 6.71552,10.3756 6.71552,8.5168 C6.71552,6.658 8.22272,5.1512 10.08112,5.1512 C11.93992,5.1512 13.44672,6.658 13.44672,8.5168 C13.44672,10.3756 11.93992,11.8824 10.08112,11.8824 M12.30152,0 L12.29912,0 L7.86352,0 C7.34392,0.002 6.84592,0.2044 6.47232,0.5644 L5.79672,1.2096 C5.42272,1.57 4.92432,1.7724 4.40552,1.774 L2.01632,1.774 C1.97672,1.772 1.93752,1.7708 1.89872,1.7708 C0.90712,1.7708 0.07272,2.5368 -8e-05,3.5388 L-8e-05,14.164 C0.06752,15.17 0.90472,15.9416 1.89952,15.9416 C1.93832,15.9416 1.97672,15.9408 2.01632,15.9384 L18.14592,15.9384 C18.18552,15.9408 18.22432,15.9416 18.26312,15.9416 C19.25792,15.9416 20.09472,15.17 20.16232,14.164 L20.16232,3.5388 C20.09472,2.5328 19.25792,1.7604 18.26312,1.7604 C18.22432,1.7604 18.18552,1.7616 18.14592,1.764 L15.75672,1.764 C15.23792,1.762 14.73952,1.56 14.36592,1.1996 L13.68992,0.5548 C13.31552,0.1984 12.81832,0 12.30152,0 M10.08112,13.0824 C12.59872,13.0824 14.64672,11.0344 14.64672,8.5168 C14.64672,5.9992 12.59872,3.9512 10.08112,3.9512 C7.56352,3.9512 5.51552,5.9992 5.51552,8.5168 C5.51552,11.0344 7.56352,13.0824 10.08112,13.0824 M12.30152,1.2 C12.51152,1.2 12.71152,1.2796 12.86112,1.4224 L13.53312,2.0636 C14.13192,2.6408 14.92032,2.9608 15.75672,2.964 L18.14592,2.964 L18.18232,2.964 L18.21872,2.962 C18.23352,2.9612 18.24832,2.9604 18.26312,2.9604 C18.62192,2.9604 18.92312,3.234 18.96232,3.5888 L18.96232,14.114 C18.92312,14.4688 18.62192,14.7416 18.26312,14.7416 C18.24832,14.7416 18.23352,14.7412 18.21872,14.7408 L18.18232,14.7384 L18.14592,14.7384 L2.01632,14.7384 L1.97992,14.7384 L1.94352,14.7408 C1.92872,14.7412 1.91392,14.7416 1.89952,14.7416 C1.54032,14.7416 1.23952,14.4688 1.19992,14.114 L1.19992,3.5924 C1.24192,3.2412 1.54232,2.9708 1.89872,2.9708 C1.91352,2.9708 1.92832,2.9712 1.94312,2.9724 L1.97952,2.974 L2.01632,2.974 L4.41032,2.974 C5.24232,2.9712 6.03032,2.6512 6.62552,2.0772 L7.30512,1.4284 C7.45672,1.282 7.65672,1.2008 7.86352,1.2 L12.29912,1.2 L12.30152,1.2" id="Fill-1" fill="#FE6A2B" mask="url(#mask-2)"></path>
                            </g>
                            <path d="M15.9104,3.8234 C14.9956,3.8234 14.254,4.565 14.254,5.4798 C14.254,6.3946 14.9956,7.1358 15.9104,7.1358 C16.8252,7.1358 17.5668,6.3946 17.5668,5.4798 C17.5668,4.565 16.8252,3.8234 15.9104,3.8234 M15.9104,5.0234 C16.162,5.0234 16.3668,5.2282 16.3668,5.4798 C16.3668,5.7314 16.162,5.9358 15.9104,5.9358 C15.6588,5.9358 15.454,5.7314 15.454,5.4798 C15.454,5.2282 15.6588,5.0234 15.9104,5.0234" id="Fill-4" fill="#FE6A2B"></path>
                        </g>
                    </g>
                </g>
            </g>
        </g>
    </g>
</svg>