<?xml version="1.0" encoding="UTF-8"?>
<svg width="18px" height="18px" viewBox="0 0 18 18" version="1.1" xmlns="http://www.w3.org/2000/svg" xmlns:xlink="http://www.w3.org/1999/xlink">
    <title>icon/location</title>
    <g id="App_intro" stroke="none" stroke-width="1" fill="none" fill-rule="evenodd">
        <g id="접근권한" transform="translate(-58.000000, -228.000000)" fill="#FE6A2B" fill-rule="nonzero">
            <g id="popup" transform="translate(20.000000, 75.000000)">
                <g id="기록" transform="translate(23.000000, 138.000000)">
                    <g id="Group" transform="translate(12.000000, 12.000000)">
                        <g id="Group-9" transform="translate(4.400000, 4.000000)">
                            <path d="M13.1348,-0.6 L0,-0.6 C-0.33137085,-0.6 -0.6,-0.33137085 -0.6,0 L-0.6,16.3048 C-0.6,16.6361708 -0.33137085,16.9048 0,16.9048 L15.2372,16.9048 C15.5685708,16.9048 15.8372,16.6361708 15.8372,16.3048 L15.8372,2.1024 C15.8372,1.94327011 15.7739859,1.79065776 15.6614641,1.67813593 L13.5590641,-0.424264069 C13.4465422,-0.536785896 13.2939299,-0.6 13.1348,-0.6 Z M12.8864,0.6 L14.6372,2.3508 L14.6372,15.7048 L0.6,15.7048 L0.6,0.6 L12.8864,0.6 Z" id="Stroke-1"></path>
                            <path d="M12.24168,-0.6 C12.5535584,-0.6 12.8098595,-0.362044767 12.8389334,-0.0577840042 L12.84168,-1.11022302e-16 L12.84168,5.0704 C12.84168,6.06649389 12.0565723,6.87892528 11.0713997,6.92329176 L10.98648,6.9252 L4.25048,6.9252 C3.25435273,6.9252 2.44157478,6.14043789 2.39718907,5.15531606 L2.39528,5.0704 L2.39528,-1.11022302e-16 C2.39528,-0.33137085 2.66390915,-0.6 2.99528,-0.6 C3.30715845,-0.6 3.56345947,-0.362044767 3.59253337,-0.0577840042 L3.59528,-1.11022302e-16 L3.59528,5.0704 C3.59528,5.41305719 3.8584608,5.69415671 4.19393158,5.72279695 L4.25048,5.7252 L10.98648,5.7252 C11.3293938,5.7252 11.6106227,5.46213507 11.6392759,5.12690682 L11.64168,5.0704 L11.64168,-1.11022302e-16 C11.64168,-0.33137085 11.9103092,-0.6 12.24168,-0.6 Z" id="Stroke-3"></path>
                            <path d="M12.8372,8.57908 C13.1490784,8.57908 13.4053795,8.81703523 13.4344534,9.121296 L13.4372,9.17908 L13.4372,16.30468 C13.4372,16.6360508 13.1685708,16.90468 12.8372,16.90468 C12.5253216,16.90468 12.2690205,16.6667248 12.2399466,16.362464 L12.2372,16.30468 L12.2372,9.7788 L3,9.7788 L3,16.30468 C3,16.6165584 2.76204477,16.8728595 2.457784,16.9019334 L2.4,16.90468 C2.08812155,16.90468 1.83182053,16.6667248 1.80274663,16.362464 L1.8,16.30468 L1.8,9.17908 C1.8,8.86720155 2.03795523,8.61090053 2.342216,8.58182663 L2.4,8.57908 L12.8372,8.57908 Z" id="Stroke-5"></path>
                            <path d="M9.92556,1.4836 C10.2374384,1.4836 10.4937395,1.72155523 10.5228134,2.025816 L10.52556,2.0836 L10.52556,4.1676 C10.52556,4.49897085 10.2569308,4.7676 9.92556,4.7676 C9.61368155,4.7676 9.35738053,4.52964477 9.32830663,4.225384 L9.32556,4.1676 L9.32556,2.0836 C9.32556,1.75222915 9.59418915,1.4836 9.92556,1.4836 Z" id="Stroke-7"></path>
                        </g>
                    </g>
                </g>
            </g>
        </g>
    </g>
</svg>