<svg xmlns="http://www.w3.org/2000/svg" viewBox="0 0 35.68 35.68"><defs><style>.cls-1{fill:#2a3138;}</style></defs><title>Asset 7</title><g id="Layer_2" data-name="Layer 2"><g id="Layer_1-2" data-name="Layer 1"><path class="cls-1" d="M17.84,0A17.84,17.84,0,1,0,35.68,17.84,17.86,17.86,0,0,0,17.84,0ZM29.07,14.38l0-.09ZM20.14,6.32a11.77,11.77,0,0,1,8,5.77,1.06,1.06,0,0,1-.65,1.53l-5.72,1.67a2.11,2.11,0,0,1-2.69-2l-.15-5.91A1.07,1.07,0,0,1,20.14,6.32ZM7.59,12.09a11.75,11.75,0,0,1,7.94-5.77,1.08,1.08,0,0,1,1.27,1.1l-.2,5.92a2.1,2.1,0,0,1-2.69,1.95L8.24,13.62A1.07,1.07,0,0,1,7.59,12.09ZM9.21,25.8a11.71,11.71,0,0,1-3.12-8,10.39,10.39,0,0,1,.09-1.37,1.06,1.06,0,0,1,1.42-.85l5.52,2a2.11,2.11,0,0,1,1,3.15l-3.27,4.87A1.06,1.06,0,0,1,9.21,25.8Zm13.54,2.71a11.7,11.7,0,0,1-9.82,0,1.07,1.07,0,0,1-.37-1.62l3.62-4.69a2.09,2.09,0,0,1,3.32,0l3.63,4.69A1.07,1.07,0,0,1,22.75,28.51Zm3.73-2.72a1.06,1.06,0,0,1-1.66-.15l-3.27-4.91a2.1,2.1,0,0,1,1-3.14l5.49-2a1.07,1.07,0,0,1,1.43.85,12.48,12.48,0,0,1,.08,1.38A11.68,11.68,0,0,1,26.48,25.79Z"/></g></g></svg>