<svg xmlns="http://www.w3.org/2000/svg" width="74" height="60" viewBox="0 0 74 60">
  <defs>
    <style>
      .cls-1 {
        fill: #fff;
        fill-rule: evenodd;
      }
    </style>
  </defs>
  <path class="cls-1" d="M70.936,23.25L40.268,1.9a5.828,5.828,0,0,0-6.632,0L2.926,23.279A3.806,3.806,0,0,0,.437,26.838V55.183A3.827,3.827,0,0,0,4.276,59h65.4a3.827,3.827,0,0,0,3.839-3.814V26.838A3.8,3.8,0,0,0,70.936,23.25ZM36.172,5.492a1.367,1.367,0,0,1,1.559,0l25.18,17.532H10.992ZM69.1,54.608H4.855V27.413H69.1V54.608ZM15.2,47.784a5.482,5.482,0,0,0,4.292-1.93l-1.66-1.965a3.429,3.429,0,0,1-2.509,1.193c-1.855,0-3.056-1.509-3.056-4.107,0-2.545,1.4-4.053,3.091-4.053a3.274,3.274,0,0,1,2.28,1.018l1.66-2a5.618,5.618,0,0,0-3.993-1.7c-3.338,0-6.269,2.491-6.269,6.844C9.031,45.5,11.857,47.784,15.2,47.784Zm14.49-2.877h-5.1V34.483H21.418V47.538h8.267V44.906Zm6.947,2.877c3.586,0,6.022-2.562,6.022-6.844,0-4.263-2.436-6.7-6.022-6.7s-6.023,2.422-6.023,6.7S33.045,47.784,36.632,47.784Zm0-10.861c1.73,0,2.807,1.491,2.807,4.017,0,2.545-1.077,4.142-2.807,4.142s-2.792-1.6-2.792-4.142C33.84,38.414,34.9,36.922,36.632,36.922Zm12.619,8.16a5.332,5.332,0,0,1-3.2-1.334L44.27,45.906a7.383,7.383,0,0,0,4.91,1.877c3.18,0,5.017-1.911,5.017-4.088a3.612,3.612,0,0,0-2.6-3.581l-1.643-.648c-1.166-.456-2-0.738-2-1.456,0-.7.6-1.088,1.572-1.088a4.3,4.3,0,0,1,2.7,1l1.572-1.965a6.134,6.134,0,0,0-4.274-1.72c-2.792,0-4.769,1.755-4.769,3.948a3.827,3.827,0,0,0,2.666,3.581l1.678,0.7c1.13,0.474,1.855.718,1.855,1.474C50.965,44.643,50.418,45.082,49.251,45.082Zm15.674-.176H59.556V42.134h4.4V39.5h-4.4v-2.42h5.175v-2.6H56.393V47.538h8.532V44.906ZM36.978,7.846a2.518,2.518,0,1,0,2.535,2.518A2.526,2.526,0,0,0,36.978,7.846Z"/>
</svg>
