<svg xmlns="http://www.w3.org/2000/svg" width="56" height="44" viewBox="0 0 56 44">
  <defs>
    <style>
      .cls-1 {
        fill: #d9dbdc;
      }

      .cls-1, .cls-2 {
        fill-rule: evenodd;
      }

      .cls-2 {
        fill: #c0c6ce;
      }
    </style>
  </defs>
  <path class="cls-1" d="M-64.329,24.359l-8.657-4.929a22.181,22.181,0,0,0-10.953-2.9,22.28,22.28,0,0,0-9.535,2.159l-3.065,1.463a56.24,56.24,0,0,1-8.655,3.288l-5.786,1.668a4.41,4.41,0,0,0-3.183,4.261c0.005,0.945.007,1.9,0.007,2.719a0.756,0.756,0,0,0,.222.538,0.757,0.757,0,0,0,.538.223h1.656A6.382,6.382,0,0,1-105.4,27a6.383,6.383,0,0,1,6.342,5.845h20.162A6.382,6.382,0,0,1-72.554,27a6.382,6.382,0,0,1,6.341,5.845h1.169a1.206,1.206,0,0,0,1.2-1.2V25.2A0.963,0.963,0,0,0-64.329,24.359ZM-105.4,29.806a3.572,3.572,0,0,0-3.518,3.041,3.486,3.486,0,0,0-.055.544,3.552,3.552,0,0,0,.823,2.26,3.549,3.549,0,0,0,2.75,1.324,3.549,3.549,0,0,0,2.751-1.324,3.558,3.558,0,0,0,.823-2.26,3.486,3.486,0,0,0-.055-0.544A3.573,3.573,0,0,0-105.4,29.806Zm32.844,0a3.572,3.572,0,0,0-3.518,3.041,3.547,3.547,0,0,0-.055.544,3.557,3.557,0,0,0,.823,2.26,3.547,3.547,0,0,0,2.75,1.324A3.548,3.548,0,0,0-69.8,35.651a3.556,3.556,0,0,0,.823-2.26,3.56,3.56,0,0,0-.055-0.544A3.573,3.573,0,0,0-72.554,29.806ZM-89-13.941a4.346,4.346,0,0,0,4.334-4.347A4.346,4.346,0,0,0-89-22.636a4.346,4.346,0,0,0-4.334,4.347A4.346,4.346,0,0,0-89-13.941Zm0-18.7a19.973,19.973,0,0,0-19.942,20A19.99,19.99,0,0,0-92.763,7L-89,14.274-85.241,7A19.991,19.991,0,0,0-69.06-12.639,19.973,19.973,0,0,0-89-32.643Zm0,7.636a6.716,6.716,0,0,1,6.7,6.718A6.716,6.716,0,0,1-89-11.57a6.716,6.716,0,0,1-6.7-6.718A6.715,6.715,0,0,1-89-25.007ZM-76.789-.22a13.107,13.107,0,0,1-2.364,2.053v-5.1A3.555,3.555,0,0,0-82.7-6.828H-95.306a3.555,3.555,0,0,0-3.546,3.557v5.1A10.508,10.508,0,0,1-101.215-.22V-3.271A5.925,5.925,0,0,1-95.306-9.2H-82.7a5.925,5.925,0,0,1,5.909,5.928V-0.22Z"/>
  <path class="cls-2" d="M42.5,14a12.417,12.417,0,0,0-4.5.851V7a4,4,0,0,1,4-4V0c-0.169,0-.334.013-0.5,0.025V0H17a7.009,7.009,0,0,0-7,7V31H0v6.5A6.508,6.508,0,0,0,6.5,44h25a6.508,6.508,0,0,0,6.468-5.863A12.495,12.495,0,1,0,42.5,14Zm0,22A9.441,9.441,0,0,1,38,34.864a9.563,9.563,0,0,1-3-2.554,9.437,9.437,0,0,1,0-11.619,9.563,9.563,0,0,1,3-2.554A9.5,9.5,0,1,1,42.5,36Zm-36,5A3.5,3.5,0,0,1,3,37.5V34H25v3.5A6.461,6.461,0,0,0,26.024,41H6.5ZM35,37.5a3.5,3.5,0,0,1-7,0V31H13V7a4,4,0,0,1,4-4H36.264A6.954,6.954,0,0,0,35,7v9.524a12.452,12.452,0,0,0,0,19.953V37.5ZM48.786,25L49.5,22.292H46.409l-1.171,4.963H45.181l-1.517-4.963H41.35l-1.517,4.963H39.776L38.6,22.292H35.514L36.265,25H34.5v3h2.6L38,31.256,38.206,32h2.823l1.449-4.73h0.056L44.12,32h2.823L48,28h2.5V25H48.786ZM32.5,7.5h-17v3h17v-3Zm-17,11h12v-3h-12v3Zm0,8h12v-3h-12v3Z"/>
</svg>
