<svg id="Group_8_copy" data-name="Group 8 copy" xmlns="http://www.w3.org/2000/svg" width="50.375" height="24.56" viewBox="0 0 50.375 24.56">
  <defs>
    <style>
      .cls-1 {
        fill: #fff;
      }

      .cls-1, .cls-2 {
        fill-rule: evenodd;
      }

      .cls-2 {
        fill: #fe6a2b;
      }
    </style>
  </defs>
  <path id="Shape_1195_copy" data-name="Shape 1195 copy" class="cls-1" d="M145.764,2011.18l-8-4.64a22.212,22.212,0,0,0-20.848-.77l-2.7,1.31a46.187,46.187,0,0,1-7.153,2.77l-5.084,1.49a7.08,7.08,0,0,0-5.012,6.83l0.006,2.42a3.791,3.791,0,0,0,1.087,2.68,3.665,3.665,0,0,0,2.637,1.12h1.416a6.125,6.125,0,0,0,11.24,0h17.66a6.125,6.125,0,0,0,11.241,0h1.908a3.228,3.228,0,0,0,3.191-3.26v-7.16A3.219,3.219,0,0,0,145.764,2011.18Z" transform="translate(-96.969 -2003.53)"/>
  <path class="cls-2" d="M145.764,2011.18l-8-4.64a22.212,22.212,0,0,0-20.848-.77l-2.7,1.31a46.187,46.187,0,0,1-7.153,2.77l-5.084,1.49a7.08,7.08,0,0,0-5.012,6.83l0.006,2.42a3.791,3.791,0,0,0,1.087,2.68,3.665,3.665,0,0,0,2.637,1.12h1.416a6.125,6.125,0,0,0,11.24,0h17.66a6.125,6.125,0,0,0,11.241,0h1.908a3.228,3.228,0,0,0,3.191-3.26v-7.16A3.219,3.219,0,0,0,145.764,2011.18Zm-35.481,10.58a2.55,2.55,0,1,1-5.1,0,2.637,2.637,0,0,1,.245-1.1,2.514,2.514,0,0,1,4.61,0A2.637,2.637,0,0,1,110.283,2021.76Zm28.9,0a2.55,2.55,0,1,1-5.1,0,2.637,2.637,0,0,1,.245-1.1,2.515,2.515,0,0,1,4.611,0A2.652,2.652,0,0,1,139.183,2021.76Zm4.522-1.1h-0.981a6.161,6.161,0,0,0-12.181,0h-16.72a6.161,6.161,0,0,0-12.18,0H100.7l-0.075-.07-0.006-2.44a3.347,3.347,0,0,1,2.371-3.23l5.084-1.49a49.88,49.88,0,0,0,7.713-2.98l2.7-1.31a18.564,18.564,0,0,1,17.479.64l7.744,4.49v6.39Z" transform="translate(-96.969 -2003.53)"/>
</svg>
