<svg xmlns="http://www.w3.org/2000/svg" width="39" height="39" viewBox="0 0 39 39">
  <defs>
    <style>
      .cls-1 {
        fill-rule: evenodd;
      }
    </style>
  </defs>
  <path id="_" data-name="&lt;" class="cls-1" d="M-49.513-14.015a19.527,19.527,0,0,1,19.5,19.5,19.527,19.527,0,0,1-19.5,19.5,19.527,19.527,0,0,1-19.5-19.5A19.527,19.527,0,0,1-49.513-14.015ZM-46.335,17.3l1.468-1.468L-55.2,5.489-44.867-4.848l-1.468-1.468L-58.14,5.489Z"/>
  <path id="_2" data-name="&gt;" class="cls-1" d="M19.482-.015a19.5,19.5,0,1,0,19.5,19.5A19.527,19.527,0,0,0,19.482-.015ZM16.3,31.3l-1.468-1.468L25.174,19.49,14.836,9.152,16.3,7.684,28.109,19.49Z"/>
</svg>
